<svg width="471" height="149" viewBox="0 0 471 149" fill="none" xmlns="http://www.w3.org/2000/svg">
<path d="M125.864 124.595C124.768 125.504 123.723 126.487 122.572 127.319C110.679 135.936 97.4159 141.101 82.7174 141.618C76.3813 141.842 69.8161 141.183 63.6496 139.693C49.5196 136.279 37.3655 129.257 27.8019 118.031C22.4744 111.777 18.3024 104.902 15.6845 97.1724C12.3881 87.4496 11.1456 77.4799 12.3606 67.1857C13.0758 61.1061 14.5062 55.2596 16.9086 49.6919C23.4693 34.4746 34.2938 23.0878 49.0336 15.5546C55.7181 12.14 62.8794 10.0464 70.3983 8.96757C77.2203 7.98935 83.9598 8.16305 90.6673 9.2327C97.5627 10.3298 104.256 12.2999 110.473 15.5912C111.697 16.2403 112.688 15.934 113.091 14.8324C113.284 14.3158 112.711 13.109 112.151 12.7891C108.593 10.7275 105.022 8.65674 101.308 6.90142C92.9642 2.96109 84.0195 1.39319 74.8959 1.02292C71.0768 0.867503 67.2165 1.50746 63.3837 1.86401C55.9794 2.55426 49.0061 4.84897 42.3675 8.04877C33.1109 12.5102 25.051 18.5487 18.3069 26.3974C13.0621 32.4953 8.82579 39.1371 5.69902 46.5104C0.417447 58.9393 -1.05883 71.9351 0.715453 85.2006C1.90289 94.1097 4.65371 102.626 9.05502 110.602C14.8134 121.043 22.6395 129.532 32.4553 136.215C40.4052 141.622 49.0795 145.311 58.556 147.304C66.648 149.005 74.7446 149.498 82.887 148.442C91.7401 147.29 100.112 144.461 107.883 140.018C114.852 136.032 120.981 131.035 125.864 124.599V124.595Z" fill="white"/>
<path d="M113.806 112.248C113.957 112.358 114.108 112.468 114.255 112.573C116.9 109.798 119.816 107.234 122.136 104.208C129.302 94.8642 132.699 84.09 132.956 72.429C133.098 65.8191 131.768 59.383 129.458 53.0839C124.346 39.1511 114.768 29.2957 101.872 22.503C95.8886 19.3489 89.3921 17.6393 82.5701 16.8485C74.2076 15.8748 66.0835 16.693 58.2666 19.3763C47.0616 23.2206 37.6446 29.8168 30.5475 39.4391C24.2985 47.9048 20.6262 57.4128 19.9798 67.8762C19.6955 72.5022 20.2411 77.2287 20.8509 81.8547C21.7999 89.0817 24.7845 95.6139 28.7595 101.671C29.2592 102.434 30.5658 102.672 31.4965 103.152C31.6203 102.119 31.7487 101.081 31.8541 100.043C31.8679 99.9153 31.7441 99.7691 31.6845 99.6319C27.3841 89.6531 25.8849 79.3452 28.0213 68.6121C30.465 56.334 36.5672 46.1404 46.4977 38.6025C58.7526 29.3003 72.5892 25.849 87.7783 29.6705C102.014 33.2543 112.779 41.4732 119.674 54.469C125.006 64.5164 126.638 75.2174 124.905 86.4487C123.929 92.7889 121.994 98.7863 118.675 104.304C117.075 106.959 115.438 109.597 113.815 112.244L113.806 112.248Z" fill="white"/>
<path d="M51.8359 50.2129C52.0698 50.0803 52.3082 49.9523 52.5328 49.8061C61.1016 44.2658 70.326 42.0077 80.4536 44.275C87.2894 45.8063 92.9745 49.2301 97.6692 54.4092C102.488 59.73 105.161 66.0016 105.569 73.0641C106.146 83.0977 102.492 91.5498 94.9138 98.2191C85.7673 106.269 75.2408 108.385 63.559 105.24C62.1882 104.87 60.8724 104.226 59.4878 103.992C58.8184 103.878 57.8877 104.258 57.3743 104.733C57.1404 104.948 57.5026 106.036 57.8465 106.561C58.1995 107.096 58.8505 107.444 59.3961 107.846C64.1092 111.315 69.5283 113.121 75.2408 113.697C85.8728 114.771 95.5327 111.864 103.588 104.879C114.307 95.5861 118.97 83.7423 116.966 69.5763C115.064 56.1097 107.838 46.2314 95.817 40.065C87.9496 36.0286 79.4221 34.9316 70.7845 37.1577C62.9768 39.169 56.1914 42.9951 51.8359 50.2129Z" fill="white"/>
<path d="M276.938 44.9747C272.624 36.6369 259.924 34.4931 253.263 42.3646C253.226 41.6378 253.185 41.0618 253.176 40.4858C253.13 37.574 252.337 36.9706 249.54 37.99C247.784 38.63 246.102 39.4848 244.414 40.3076C242.246 41.3635 242.03 42.6434 244.038 43.9005C245.666 44.9153 245.969 46.2043 245.959 47.882C245.923 54.3547 245.886 60.832 245.978 67.3048C246.01 69.4441 245.868 71.2999 243.947 72.7398C243.42 73.133 243.287 74.358 243.401 75.1397C243.447 75.4551 244.644 75.7751 245.327 75.7888C248.307 75.8574 251.287 75.8757 254.262 75.7797C254.964 75.7568 256.252 75.1717 256.234 74.934C256.156 74.0655 255.876 72.8221 255.248 72.4702C253.767 71.6428 253.598 70.5228 253.611 69.0738C253.657 63.3599 253.561 57.6459 253.671 51.9366C253.703 50.2498 254.024 48.5036 254.583 46.9083C256.266 42.0857 261.74 39.823 266.059 42.2274C270.194 44.5267 271.405 48.5905 271.574 52.9148C271.776 58.0116 271.583 63.1222 271.643 68.2236C271.661 69.956 271.533 71.4416 269.846 72.5067C269.309 72.8496 268.787 74.134 269.025 74.5637C269.374 75.1854 270.401 75.7294 271.166 75.7659C273.986 75.9031 276.819 75.8894 279.643 75.7797C280.441 75.7477 281.22 75.1991 282.009 74.8883C281.665 74.1843 281.5 73.2701 280.95 72.8176C279.57 71.6793 279.244 70.3309 279.272 68.6258C279.359 63.4467 279.263 58.2676 279.327 53.0885C279.35 51.132 279.327 49.0933 279.836 47.2329C280.78 43.8136 284.549 41.0527 287.657 41.0755C291.05 41.1029 294.378 43.5485 295.396 47.2511C296.144 49.9664 296.542 52.8096 296.795 55.6255C297.12 59.2367 296.827 62.9302 297.404 66.4865C297.835 69.1469 297.67 71.1674 295.534 72.9547C295.098 73.3158 294.965 74.39 295.144 75.0026C295.259 75.3957 296.194 75.7705 296.767 75.7842C299.898 75.8574 303.034 75.8757 306.161 75.7705C306.798 75.7477 307.614 75.2631 307.968 74.7374C308.169 74.4357 307.784 73.4027 307.367 73.0781C305.267 71.4508 305.088 69.2246 304.946 66.8248C304.598 61.0423 304.575 55.1684 303.493 49.5139C301.576 39.5305 294.213 35.7958 284.847 38.0403C281.193 38.9179 278.8 41.5189 276.934 44.9701L276.938 44.9747Z" fill="white"/>
<path d="M158.174 113.364C158.389 115.457 158.463 117.578 158.843 119.644C161.264 132.699 173.83 144.946 188.914 142.194C197.9 140.557 205.502 133.344 206.588 124.27C206.666 123.612 205.992 122.373 205.469 122.245C204.699 122.062 203.48 122.387 202.93 122.954C202.182 123.717 201.948 124.951 201.389 125.93C197.978 131.904 192.884 135.735 185.952 135.662C179.653 135.593 174.702 132.092 171.093 127.004C167.265 121.61 165.729 115.485 166.059 108.916C166.412 101.89 168.902 96.0206 175.151 92.062C181.226 88.2131 189.79 89.8038 193.737 95.7235C195.191 97.9039 196.543 100.148 198.019 102.31C199.138 103.947 201.958 104.779 203.512 104.052C205.061 103.33 206.162 100.857 205.281 98.9461C204.268 96.7383 203.136 94.3293 201.375 92.7705C194.879 87.0154 187.241 84.7481 178.562 86.4349C172.189 87.6691 167.109 90.9421 163.4 96.1669C159.774 101.273 158.119 107.06 158.169 113.364H158.174Z" fill="white"/>
<path d="M158.294 46.0988C158.225 55.9267 161.361 63.1126 167.436 69.1602C173.928 75.6192 181.704 77.5894 190.474 75.7792C199.203 73.9782 205.095 66.4038 206.406 58.93C206.64 57.6135 206.768 56.3199 205.145 55.8719C203.568 55.4376 203.068 56.7267 202.486 57.7918C200.831 60.8224 198.988 63.6154 196.228 65.8827C188.131 72.5337 177.385 69.1328 171.97 62.1206C167.486 56.3107 165.708 49.7237 166.074 42.5378C166.386 36.4171 168.472 31.0597 173.447 27.0782C180.186 21.6888 189.365 22.9505 194.16 30.2323C195.6 32.4219 197.067 34.6023 198.667 36.6685C199.607 37.8844 203.018 38.4604 204.072 37.6239C205.704 36.3302 205.709 34.6343 205.15 32.7145C204.141 29.2587 201.885 26.7445 199.098 24.7652C193.45 20.7563 187.21 19.0513 180.181 20.0844C175.106 20.8295 170.613 22.6076 166.877 26.0589C160.678 31.7865 158.193 39.0546 158.299 46.0942L158.294 46.0988Z" fill="white"/>
<path d="M63.8685 62.6328C63.4192 62.8019 63.0066 62.9071 62.6444 63.1036C57.9955 65.6452 54.4286 72.9087 54.8642 78.0741C55.3914 84.3366 57.6287 89.5294 62.6031 93.6069C68.1552 98.1552 74.5509 99.3208 81.2078 97.9129C91.3446 95.7736 98.7672 86.7593 97.6807 75.3452C97.3231 71.6105 95.8193 68.2416 93.0547 65.6132C92.5458 65.1287 91.4088 65.1149 90.6111 65.2247C90.3497 65.2612 90.0563 66.372 90.0792 66.98C90.1434 69.005 90.5377 71.03 90.4598 73.0459C90.1709 80.5608 83.028 87.4541 74.9406 86.5262C65.9866 85.5023 60.4254 76.0491 62.3739 68.5296C62.869 66.6188 63.3459 64.7081 63.8731 62.6328H63.8685Z" fill="white"/>
<path d="M335.626 72.6888C337.213 75.6052 338.441 76.3229 341.857 76.2589C342.893 76.2406 343.966 76.0989 344.947 75.7835C345.735 75.5275 346.409 74.9241 347.134 74.4716C346.515 73.795 345.997 72.6934 345.259 72.5288C343.388 72.1037 342.81 70.7644 342.641 69.2879C342.072 64.287 341.701 59.2634 341.197 54.258C340.779 50.1165 339.684 46.2036 337.121 42.7935C332.307 36.3893 320.556 36.2339 315.137 39.5251C312.625 41.0473 310.695 42.7844 310.585 45.9339C310.53 47.5612 311.13 48.7954 312.735 49.2114C314.385 49.6365 315.921 49.3348 316.843 47.6709C317.315 46.8207 317.778 45.9522 318.145 45.0517C319.245 42.3501 321.267 40.7776 324.142 40.6679C327.103 40.5537 329.611 41.7284 331.051 44.4483C332.756 47.6755 333.71 51.0993 333.371 54.9893C328.378 52.3381 323.504 52.0318 318.479 53.554C313.285 55.131 310.374 58.6783 310.199 64.0402C310.053 68.5199 311.91 72.2454 315.958 74.5493C320.309 77.0268 330.753 77.6577 335.617 72.698L335.626 72.6888Z" fill="white"/>
<path d="M247.671 123.562C247.914 112.321 239.244 103.453 227.87 103.407C216.724 103.366 209.109 111.233 208.774 121.687C208.375 134.24 217.499 142.271 228.631 142.623C239.721 142.975 247.996 134.317 247.671 123.562Z" fill="white"/>
<path d="M437.165 122.899C436.895 128.147 438.298 132.928 441.787 136.855C446.005 141.613 451.639 143.3 457.764 142.482C463.885 141.664 468.859 138.761 470.904 132.453C471.17 131.625 470.868 130.016 470.267 129.632C469.057 128.86 468.36 130.021 467.727 131.072C464.967 135.675 460.699 137.175 455.555 136.722C451.644 136.379 447.431 132.668 446.078 128.682C445.587 127.237 445.95 126.83 447.293 126.483C449.026 126.035 450.686 125.313 452.391 124.746C457.003 123.205 461.634 121.711 466.237 120.143C468.034 119.53 469.804 118.831 470.079 116.527C470.551 112.559 468.947 109.35 466.049 106.941C460.598 102.411 451.456 102.169 445.551 106.173C439.646 110.182 436.858 115.773 437.17 122.895L437.165 122.899Z" fill="white"/>
<path d="M292.263 127.123C294.638 126.309 296.889 125.514 299.158 124.759C303.848 123.21 308.566 121.729 313.238 120.12C314.939 119.53 316.644 118.799 316.919 116.595C317.414 112.623 315.865 109.327 312.912 107.001C307.016 102.352 298.952 102.091 292.602 106.036C283.057 111.969 282.254 123.21 285.473 131.689C288.925 140.795 298.044 144.045 306.572 142.08C312.22 140.781 316.36 137.618 317.891 131.79C318.043 131.214 317.492 130.208 316.961 129.788C316.64 129.536 315.617 129.884 315.108 130.24C314.59 130.606 314.301 131.305 313.925 131.868C311.184 135.95 305.921 137.71 301.203 136.425C296.384 135.113 293.895 131.74 292.258 127.123H292.263Z" fill="white"/>
<path d="M381.091 61.019C388.179 58.6191 395.116 56.2696 402.057 53.9246C405.376 52.8001 406.596 51.1316 405.775 47.8084C405.289 45.8473 404.299 43.8223 402.997 42.2819C399.751 38.4512 395.359 37.3496 390.393 37.473C383.168 37.6559 378.088 41.0431 374.805 47.2187C372.279 51.9773 372.183 57.0787 373.26 62.2761C374.012 65.9055 375.553 69.1876 378.244 71.6515C383.8 76.7437 390.407 77.4934 397.417 75.3358C401.855 73.969 404.908 70.9429 406.541 66.6369C406.848 65.8278 406.66 64.2599 406.1 63.8348C405.156 63.1217 403.932 63.4737 403.45 64.9045C403.336 65.2427 402.997 65.4987 402.786 65.8095C399.677 70.4355 393.763 71.7292 388.839 69.9601C384.653 68.4562 382.43 65.2519 381.095 61.0236L381.091 61.019Z" fill="white"/>
<path d="M341.373 136.759C336.559 136.941 333.071 134.738 330.54 130.907C327.133 125.751 326.579 120.12 328.445 114.351C329.696 110.479 333.291 106.475 338.558 106.863C341.676 107.096 343.684 108.769 345.44 111.023C346.637 112.559 347.572 114.406 349.048 115.58C349.933 116.284 351.675 116.225 352.968 116.042C354.637 115.804 354.623 114.3 354.509 112.97C354.238 109.848 352.083 108.029 349.704 106.525C345.124 103.627 340.099 102.576 334.785 103.865C330.824 104.829 327.193 106.447 324.479 109.77C321.971 112.847 320.673 116.23 320.132 120.161C319.225 126.757 321.109 132.407 325.561 137.065C329.948 141.659 335.748 143.204 341.937 142.491C348.319 141.755 352.771 138.203 354.715 131.982C354.967 131.177 354.458 129.637 353.784 129.161C352.601 128.32 352.01 129.6 351.478 130.537C349.25 134.478 346.151 137.019 341.378 136.759H341.373Z" fill="white"/>
<path d="M419.878 135.09C419.387 134.221 418.998 133.677 418.75 133.074C415.83 125.957 412.969 118.816 410.007 111.722C409.306 110.04 409.072 108.696 410.653 107.343C411.153 106.918 411.46 105.738 411.227 105.158C411.029 104.673 409.924 104.33 409.209 104.308C406.078 104.216 402.947 104.23 399.815 104.303C399.141 104.317 397.94 104.682 397.908 104.989C397.821 105.779 398.068 106.744 398.509 107.425C399.517 108.993 401.021 110.296 401.8 111.955C406.087 121.024 410.342 130.112 414.317 139.318C415.495 142.052 417.416 141.517 419.451 141.681C421.533 141.85 421.991 140.324 422.555 138.975C425.256 132.493 427.745 125.92 430.597 119.507C432.527 115.169 432.921 109.926 437.543 107.009C437.932 106.762 437.951 105.592 437.781 104.948C437.694 104.614 436.814 104.317 436.282 104.303C434.067 104.23 431.848 104.189 429.639 104.312C428.781 104.358 427.951 104.87 427.112 105.172C427.603 105.917 428.011 106.735 428.607 107.384C429.455 108.307 430.537 108.956 429.868 110.575C426.539 118.62 423.289 126.697 419.878 135.085V135.09Z" fill="white"/>
<path d="M351.414 41.9846C351.414 43.1365 351.414 43.9639 351.414 44.7912C351.414 52.1005 351.271 59.4189 351.469 66.7236C351.579 70.8331 353.715 75.1574 358.194 75.9665C359.817 76.259 361.505 76.259 363.164 76.259C367.478 76.2636 372.118 71.5279 371.871 67.2539C371.829 66.5042 370.931 65.8048 370.431 65.0826C369.849 65.6037 369.005 66.0105 368.725 66.6596C367.488 69.5486 365.007 71.0342 362.114 70.4262C360.455 70.0743 359.098 67.5876 359.098 64.8769C359.098 58.0979 359.098 51.3188 359.098 44.5444V41.9891C362.55 41.9891 365.677 42.0668 368.79 41.9297C369.532 41.8977 370.458 41.2852 370.885 40.6589C371.114 40.3252 370.624 39.187 370.147 38.7756C369.592 38.3002 368.693 38.0351 367.937 38.0168C365.062 37.9345 362.183 37.9848 359.093 37.9848C359.093 35.7632 359.148 33.7976 359.079 31.8366C359.006 29.7567 357.608 28.5545 356.053 29.423C355.292 29.8482 354.834 31.2012 354.669 32.2069C354.155 35.3381 352.143 38.6111 348.003 37.9939C347.553 37.9254 347.076 37.9345 346.632 38.0077C345.174 38.2408 344.725 39.3287 345.073 40.5126C345.252 41.1206 346.141 41.8246 346.797 41.9251C348.204 42.14 349.667 41.9891 351.418 41.9891L351.414 41.9846Z" fill="white"/>
<path d="M369.189 104.276C369.189 102.068 369.212 100.244 369.179 98.4204C369.157 97.1861 369.455 95.8422 367.524 95.5543C365.489 95.248 365.049 96.537 364.746 97.977C363.641 103.307 362.678 104.18 357.223 104.239C355.788 104.253 355.118 104.756 355.091 106.15C355.063 107.54 355.728 108.271 357.145 108.271C358.557 108.271 359.973 108.271 361.505 108.271C361.505 116.307 361.505 123.987 361.505 131.666C361.505 138.843 365.677 142.852 372.843 142.559C377.721 142.363 382.26 137.933 381.966 133.481C381.916 132.713 381.04 132 380.545 131.259C379.967 131.785 379.16 132.201 378.858 132.855C377.661 135.433 375.062 137.188 372.888 136.695C370.495 136.146 369.202 134.176 369.193 131.008C369.184 124.156 369.189 117.308 369.193 110.456C369.193 109.793 369.267 109.135 369.317 108.271C372.49 108.271 375.525 108.248 378.56 108.28C379.926 108.294 381.123 108.038 381.058 106.406C381.003 104.948 380.229 104.157 378.541 104.226C375.511 104.354 372.476 104.262 369.184 104.262L369.189 104.276Z" fill="white"/>
<path d="M261.422 111.187C261.422 102.895 261.432 94.6032 261.418 86.3111C261.413 83.797 260.125 82.8234 257.883 83.7513C255.875 84.5832 253.913 85.5615 252.019 86.6311C250.621 87.4219 250.465 89.095 251.744 90.0229C253.422 91.2434 253.757 92.825 253.752 94.7129C253.725 107.951 253.729 121.189 253.748 134.427C253.748 136.073 253.615 137.494 251.9 138.454C251.345 138.765 251.107 139.995 251.13 140.79C251.139 141.096 252.271 141.599 252.904 141.617C255.879 141.704 258.855 141.718 261.83 141.617C262.605 141.59 263.366 141.069 264.137 140.772C263.747 140.013 263.55 138.879 262.931 138.564C261.477 137.819 261.404 136.731 261.409 135.382C261.441 127.319 261.427 119.255 261.422 111.187Z" fill="white"/>
<path d="M277.935 111.087C277.935 104.993 277.935 98.9044 277.935 92.8111C277.935 90.4523 277.986 88.0891 277.917 85.7304C277.862 83.8745 276.67 82.9054 275.23 83.5225C273.094 84.4321 270.971 85.3921 268.903 86.4572C267.124 87.3714 266.918 88.7839 268.468 89.9632C269.917 91.0649 270.274 92.3997 270.27 94.091C270.237 107.494 270.242 120.896 270.265 134.299C270.265 136.031 270.141 137.531 268.339 138.527C267.803 138.824 267.606 140.095 267.661 140.89C267.684 141.187 268.862 141.603 269.527 141.622C272.429 141.704 275.331 141.713 278.233 141.622C279.04 141.594 279.833 141.142 280.636 140.881C280.283 140.109 280.113 139.121 279.531 138.605C278.274 137.494 277.885 136.274 277.903 134.619C277.986 126.775 277.94 118.931 277.94 111.091L277.935 111.087Z" fill="white"/>
<path d="M219.236 44.3342C219.236 36.193 219.236 28.0518 219.236 19.9105C219.236 17.2913 218.319 16.7107 215.862 17.8124C214.147 18.5849 212.465 19.426 210.787 20.2671C208.857 21.2362 208.811 22.1915 210.113 23.9652C210.961 25.1217 211.919 26.5798 211.933 27.9101C212.066 41.4544 212.061 54.9987 211.938 68.543C211.928 69.7817 210.833 70.9977 210.273 72.241C209.911 73.0456 209.338 73.9004 209.398 74.6912C209.43 75.1117 210.599 75.738 211.277 75.7654C214.248 75.8842 217.233 75.8979 220.204 75.7654C220.951 75.7288 221.671 74.9929 222.4 74.5815C222.019 73.9186 221.772 73.0958 221.226 72.625C219.796 71.3999 219.186 69.9966 219.209 68.0767C219.291 60.1641 219.246 52.2514 219.246 44.3388L219.236 44.3342Z" fill="white"/>
<path d="M236.205 54.1532C236.205 49.4312 236.045 44.7 236.265 39.9872C236.402 37.0662 234.702 37.1256 232.79 37.9484C231.061 38.6935 229.388 39.5621 227.71 40.4123C225.807 41.3768 225.826 42.3596 227.1 44.1286C228.003 45.3811 228.851 47.013 228.893 48.4987C229.081 55.1954 229.062 61.9058 228.893 68.6026C228.861 69.8322 227.747 71.0207 227.187 72.2549C226.82 73.064 226.284 73.9462 226.367 74.7416C226.408 75.1576 227.6 75.7427 228.292 75.7655C231.268 75.8798 234.252 75.8981 237.228 75.7564C237.961 75.7198 238.965 75.0844 239.268 74.4536C239.479 74.0102 238.883 72.7806 238.328 72.4652C236.627 71.5052 236.169 70.1247 236.187 68.3237C236.237 63.6017 236.205 58.8797 236.205 54.1577V54.1532Z" fill="white"/>
<path d="M383.391 141.659C387.673 141.659 391.244 141.709 394.811 141.618C395.586 141.6 396.352 141.074 397.122 140.781C396.737 140.018 396.549 138.921 395.925 138.56C394.206 137.563 393.922 136.151 393.931 134.382C393.972 124.878 393.963 115.375 393.945 105.867C393.94 103.517 392.876 102.841 390.8 103.833C389.034 104.674 387.306 105.588 385.559 106.466C383.514 107.499 383.491 108.578 384.881 110.456C385.793 111.695 386.6 113.341 386.646 114.826C386.834 121.285 386.811 127.754 386.655 134.213C386.623 135.493 385.715 136.763 385.16 138.016C384.684 139.09 384.138 140.128 383.391 141.654V141.659Z" fill="white"/>
<path d="M395.325 92.7472C395.325 89.424 393.198 87.3441 389.824 87.3624C386.495 87.3807 384.359 89.5657 384.427 92.8889C384.492 95.9013 386.701 97.7801 390.172 97.7664C393.689 97.7572 395.321 96.1665 395.321 92.7472H395.325Z" fill="white"/>
<path d="M232.247 31.4709C235.924 31.9737 237.868 29.391 237.965 26.6346C238.065 23.6177 235.278 21.0533 232.325 21.0853C229.194 21.1218 226.705 23.5125 226.695 26.4884C226.686 29.6516 228.708 31.4663 232.247 31.4709Z" fill="white"/>
<path d="M125.865 124.594C120.978 131.035 114.848 136.027 107.884 140.013C100.113 144.461 91.746 147.29 82.8883 148.438C74.7459 149.498 66.6493 149.004 58.5573 147.299C49.0762 145.306 40.4019 141.617 32.4566 136.21C22.6408 129.531 14.8147 121.038 9.05633 110.598C4.65501 102.621 1.90878 94.1094 0.716756 85.1957C-1.05294 71.9302 0.423335 58.9345 5.69574 46.5055C8.82251 39.1368 13.0634 32.495 18.3037 26.3925C25.0478 18.5438 33.1122 12.5053 42.3642 8.04389C49.0028 4.84409 55.9761 2.54937 63.3804 1.85913C67.2132 1.50258 71.0736 0.86262 74.8926 1.01804C84.0162 1.3883 92.9609 2.95163 101.296 6.89653C105.01 8.65185 108.581 10.7226 112.139 12.7842C112.698 13.1087 113.271 14.3109 113.079 14.8275C112.671 15.9291 111.685 16.2308 110.461 15.5863C104.244 12.2951 97.5502 10.3249 90.6548 9.22782C83.9474 8.15817 77.2125 7.98447 70.3859 8.96269C62.867 10.0415 55.7056 12.1351 49.0212 15.5497C34.2813 23.083 23.4569 34.4697 16.8962 49.687C14.4984 55.2547 13.0634 61.1012 12.3481 67.1808C11.1378 77.475 12.3802 87.4447 15.672 97.1675C18.2945 104.897 22.462 111.772 27.7894 118.026C37.3531 129.248 49.5071 136.274 63.6372 139.688C69.799 141.179 76.3643 141.837 82.7049 141.613C97.4035 141.096 110.667 135.931 122.56 127.314C123.711 126.478 124.756 125.499 125.852 124.59L125.865 124.594Z" fill="#000A8D"/>
<path d="M113.807 112.248C115.425 109.601 117.062 106.963 118.667 104.308C121.991 98.7902 123.925 92.7928 124.897 86.4526C126.626 75.2213 124.998 64.5203 119.666 54.4729C112.771 41.4771 102.006 33.2582 87.7705 29.6744C72.5814 25.853 58.7448 29.3042 46.4899 38.6065C36.5594 46.1443 30.4572 56.3379 28.0135 68.616C25.877 79.3491 27.3762 89.657 31.6767 99.6358C31.7363 99.773 31.8601 99.9147 31.8463 100.047C31.7409 101.085 31.6125 102.118 31.4887 103.156C30.558 102.676 29.2514 102.433 28.7516 101.675C24.7813 95.6132 21.7921 89.0856 20.843 81.8586C20.2333 77.2326 19.6877 72.5061 19.9719 67.8801C20.6184 57.4167 24.2907 47.9133 30.5397 39.443C37.6414 29.8253 47.0538 23.2291 58.2588 19.3802C66.0757 16.6969 74.1998 15.8787 82.5623 16.8524C89.3843 17.6477 95.8808 19.3574 101.864 22.5069C114.761 29.2996 124.338 39.155 129.45 53.0878C131.761 59.3869 133.09 65.8231 132.948 72.4329C132.691 84.0894 129.294 94.8681 122.128 104.212C119.808 107.233 116.893 109.802 114.247 112.577C114.096 112.467 113.945 112.357 113.798 112.252L113.807 112.248Z" fill="#000A8D"/>
<path d="M51.8359 50.2128C56.1914 42.9903 62.9768 39.1643 70.7845 37.1576C79.4221 34.936 87.9496 36.0331 95.817 40.0648C107.843 46.2313 115.064 56.1095 116.966 69.5761C118.97 83.7467 114.302 95.586 103.588 104.879C95.5327 111.864 85.8728 114.766 75.2408 113.697C69.5329 113.121 64.1138 111.315 59.3961 107.846C58.8505 107.444 58.1995 107.096 57.8465 106.561C57.5026 106.036 57.1404 104.948 57.3743 104.733C57.8877 104.257 58.8184 103.878 59.4878 103.992C60.877 104.23 62.1882 104.87 63.559 105.24C75.2408 108.385 85.7627 106.269 94.9138 98.2189C102.492 91.5496 106.142 83.0976 105.569 73.0639C105.165 66.0015 102.492 59.7253 97.6692 54.4091C92.9745 49.23 87.2894 45.8016 80.4536 44.2748C70.326 42.0075 61.1016 44.2657 52.5328 49.8059C52.3082 49.9522 52.0698 50.0756 51.8359 50.2128Z" fill="#000A8D"/>
<path d="M276.939 44.974C278.805 41.5228 281.199 38.9218 284.853 38.0442C294.224 35.7997 301.587 39.5344 303.499 49.5178C304.585 55.1768 304.608 61.0462 304.952 66.8287C305.094 69.2285 305.273 71.4501 307.373 73.082C307.79 73.4066 308.175 74.4397 307.973 74.7414C307.616 75.267 306.804 75.7516 306.167 75.7744C303.04 75.8796 299.904 75.8613 296.773 75.7881C296.195 75.7744 295.264 75.4042 295.15 75.0065C294.971 74.3894 295.104 73.3197 295.54 72.9586C297.676 71.1713 297.841 69.1508 297.41 66.4904C296.832 62.9295 297.126 59.2406 296.8 55.6294C296.548 52.8181 296.154 49.9749 295.402 47.255C294.38 43.557 291.056 41.1114 287.663 41.0794C284.55 41.052 280.786 43.8175 279.842 47.2368C279.328 49.0972 279.356 51.1314 279.333 53.0924C279.268 58.2715 279.369 63.4506 279.278 68.6297C279.25 70.3348 279.571 71.6878 280.956 72.8215C281.506 73.274 281.675 74.1882 282.015 74.8922C281.226 75.203 280.447 75.7516 279.649 75.7836C276.825 75.8933 273.991 75.9116 271.172 75.7699C270.406 75.7333 269.379 75.1893 269.031 74.5676C268.792 74.1425 269.31 72.8535 269.851 72.5106C271.534 71.4456 271.667 69.9599 271.649 68.2275C271.589 63.1261 271.782 58.0155 271.58 52.9187C271.406 48.5944 270.195 44.5306 266.065 42.2313C261.746 39.8315 256.267 42.0896 254.589 46.9122C254.034 48.5075 253.713 50.2537 253.677 51.9405C253.567 57.6498 253.663 63.3638 253.617 69.0777C253.603 70.5313 253.773 71.6467 255.254 72.4741C255.882 72.826 256.162 74.0694 256.24 74.9379C256.258 75.1756 254.97 75.7607 254.268 75.7836C251.293 75.8796 248.308 75.8658 245.332 75.7927C244.649 75.7744 243.453 75.4544 243.407 75.1436C243.292 74.3619 243.425 73.1369 243.952 72.7438C245.869 71.3038 246.011 69.4525 245.984 67.3087C245.892 60.8359 245.929 54.3586 245.965 47.8859C245.974 46.2082 245.672 44.9238 244.044 43.9044C242.032 42.6473 242.252 41.3674 244.42 40.3115C246.107 39.4887 247.79 38.6339 249.546 37.9939C252.343 36.9745 253.136 37.5779 253.181 40.4897C253.191 41.0657 253.232 41.6417 253.269 42.3685C259.93 34.497 272.634 36.6408 276.944 44.9786L276.939 44.974Z" fill="#000A8D"/>
<path d="M158.173 113.363C158.123 107.06 159.778 101.277 163.404 96.1665C167.113 90.9417 172.198 87.6687 178.566 86.4345C187.249 84.7524 194.883 87.0196 201.379 92.7701C203.14 94.3289 204.272 96.7425 205.285 98.9458C206.161 100.857 205.065 103.329 203.516 104.052C201.957 104.774 199.142 103.942 198.023 102.31C196.542 100.148 195.19 97.9035 193.741 95.7231C189.794 89.7989 181.229 88.2127 175.155 92.0616C168.906 96.0202 166.416 101.89 166.063 108.915C165.733 115.484 167.274 121.61 171.097 127.003C174.705 132.091 179.657 135.597 185.956 135.661C192.888 135.734 197.982 131.904 201.393 125.929C201.948 124.956 202.186 123.717 202.933 122.953C203.488 122.387 204.703 122.062 205.473 122.245C206.001 122.368 206.675 123.612 206.592 124.27C205.501 133.344 197.904 140.557 188.918 142.193C173.83 144.945 161.263 132.695 158.847 119.644C158.466 117.578 158.393 115.457 158.178 113.363H158.173Z" fill="#000A8D"/>
<path d="M158.295 46.0991C158.189 39.0549 160.67 31.7914 166.873 26.0637C170.614 22.608 175.102 20.8344 180.178 20.0893C187.206 19.0562 193.446 20.7612 199.094 24.7701C201.882 26.7449 204.137 29.2636 205.146 32.7193C205.71 34.6438 205.701 36.3397 204.069 37.6287C203.014 38.4653 199.608 37.8893 198.663 36.6734C197.059 34.6027 195.596 32.4222 194.156 30.2372C189.361 22.9599 180.182 21.6937 173.443 27.0831C168.468 31.0646 166.378 36.422 166.071 42.5427C165.708 49.7331 167.483 56.3202 171.966 62.1255C177.386 69.1422 188.128 72.5432 196.224 65.8876C198.989 63.6157 200.832 60.8227 202.482 57.7966C203.064 56.7316 203.564 55.4425 205.141 55.8768C206.764 56.3247 206.631 57.6138 206.402 58.9349C205.091 66.4087 199.2 73.9785 190.47 75.7841C181.7 77.5943 173.924 75.6241 167.432 69.1651C161.357 63.1175 158.217 55.9316 158.29 46.1037L158.295 46.0991Z" fill="#000A8D"/>
<path d="M63.8691 62.6328C63.3419 64.7035 62.8651 66.6188 62.3699 68.5296C60.426 76.0491 65.9873 85.4977 74.9366 86.5262C83.0194 87.4541 90.1624 80.5608 90.4558 73.0459C90.5338 71.0346 90.1395 69.005 90.0753 66.98C90.057 66.372 90.3458 65.2612 90.6071 65.2247C91.4094 65.1149 92.5419 65.1287 93.0508 65.6132C95.8153 68.2416 97.3237 71.6105 97.6767 75.3452C98.7633 86.7548 91.3407 95.7736 81.2039 97.9129C74.5469 99.3163 68.1513 98.1552 62.5992 93.6069C57.6202 89.5294 55.3875 84.3366 54.8602 78.0741C54.4247 72.9087 57.9961 65.6452 62.6404 63.1036C63.0026 62.9071 63.4153 62.8019 63.8646 62.6328H63.8691Z" fill="#000A8D"/>
<path d="M335.629 72.6892C330.76 77.6443 320.32 77.018 315.97 74.5405C311.921 72.2366 310.064 68.5111 310.211 64.0314C310.385 58.6695 313.297 55.1223 318.491 53.5452C323.516 52.023 328.39 52.3247 333.382 54.9805C333.722 51.0951 332.768 47.6667 331.062 44.4395C329.623 41.7197 327.115 40.5449 324.153 40.6591C321.283 40.7734 319.261 42.3413 318.156 45.0429C317.79 45.9434 317.327 46.8073 316.854 47.6621C315.933 49.326 314.397 49.6277 312.747 49.2026C311.137 48.7912 310.537 47.557 310.596 45.9251C310.706 42.7756 312.641 41.0431 315.149 39.5164C320.568 36.2251 332.314 36.3806 337.133 42.7847C339.695 46.1902 340.791 50.1031 341.208 54.2492C341.713 59.2591 342.084 64.2783 342.653 69.2791C342.822 70.7556 343.4 72.0904 345.27 72.52C346.004 72.6892 346.527 73.7862 347.146 74.4628C346.421 74.9107 345.747 75.5187 344.959 75.7747C343.977 76.0901 342.905 76.2318 341.869 76.2501C338.453 76.3141 337.224 75.5964 335.638 72.68L335.629 72.6892ZM334.446 64.5891C334.446 59.2089 331.553 56.1828 326.436 56.1599C320.522 56.1325 317.886 59.5288 317.913 63.6566C317.95 69.2608 320.926 72.8629 326.546 73.1463C330.553 73.3474 335.019 70.2253 334.441 64.5891H334.446Z" fill="#000A8D"/>
<path d="M247.671 123.562C247.996 134.317 239.721 142.975 228.631 142.623C217.499 142.271 208.375 134.24 208.774 121.687C209.109 111.233 216.724 103.366 227.87 103.407C239.24 103.449 247.914 112.321 247.671 123.562ZM240.569 125.413C240.047 119.388 238.336 114.305 234.151 109.949C230.034 105.666 222.721 105.656 218.792 111.48C214.001 118.584 216.871 132.329 223.922 137.261C228.521 140.479 235.81 139.51 238.181 133.687C239.258 131.04 239.79 128.178 240.569 125.413Z" fill="#000A8D"/>
<path d="M437.166 122.898C436.854 115.777 439.642 110.186 445.547 106.177C451.452 102.173 460.594 102.415 466.045 106.945C468.943 109.354 470.547 112.563 470.075 116.531C469.8 118.835 468.03 119.534 466.233 120.147C461.63 121.715 457.004 123.209 452.387 124.75C450.682 125.317 449.022 126.039 447.289 126.487C445.946 126.834 445.583 127.241 446.074 128.686C447.427 132.676 451.64 136.383 455.551 136.726C460.695 137.174 464.963 135.675 467.723 131.076C468.356 130.025 469.053 128.864 470.263 129.636C470.859 130.016 471.166 131.629 470.9 132.457C468.86 138.765 463.881 141.668 457.76 142.486C451.635 143.304 446.001 141.617 441.783 136.859C438.298 132.928 436.891 128.151 437.161 122.903L437.166 122.898ZM444.703 123.575C450.439 121.449 455.587 119.397 460.841 117.66C462.845 116.997 463.157 115.763 462.767 114.213C461.859 110.616 459.59 107.955 455.991 107.041C452.74 106.218 449.87 107.471 447.798 110.182C444.818 114.081 444.006 118.46 444.703 123.575Z" fill="#000A8D"/>
<path d="M292.262 127.123C293.894 131.744 296.384 135.118 301.207 136.425C305.925 137.71 311.188 135.95 313.929 131.868C314.305 131.305 314.59 130.606 315.112 130.24C315.621 129.884 316.644 129.536 316.964 129.788C317.496 130.208 318.046 131.214 317.895 131.79C316.364 137.618 312.219 140.781 306.576 142.08C298.048 144.041 288.934 140.795 285.477 131.689C282.258 123.21 283.061 111.969 292.606 106.036C298.956 102.091 307.02 102.352 312.916 107.001C315.864 109.327 317.418 112.623 316.923 116.595C316.648 118.799 314.947 119.535 313.242 120.12C308.57 121.729 303.852 123.21 299.162 124.759C296.893 125.509 294.642 126.305 292.267 127.123H292.262ZM291.68 123.42C297.365 121.404 302.917 119.494 308.409 117.409C309.019 117.176 309.643 115.983 309.624 115.252C309.491 110.566 304.329 105.67 298.96 107.156C293.211 108.747 290.309 117.537 291.68 123.42Z" fill="#000A8D"/>
<path d="M381.089 61.0187C382.423 65.247 384.647 68.4514 388.832 69.9553C393.756 71.7243 399.671 70.4307 402.779 65.8047C402.99 65.4938 403.329 65.2378 403.444 64.8996C403.93 63.4688 405.149 63.1168 406.094 63.8299C406.658 64.255 406.841 65.8275 406.534 66.632C404.902 70.9381 401.848 73.9687 397.41 75.3309C390.4 77.4885 383.794 76.7388 378.237 71.6466C375.551 69.1827 374.006 65.9007 373.254 62.2712C372.176 57.0738 372.268 51.9724 374.799 47.2138C378.081 41.0382 383.161 37.651 390.387 37.4681C395.347 37.3447 399.739 38.4464 402.99 42.277C404.297 43.8175 405.287 45.8425 405.768 47.8035C406.589 51.1267 405.37 52.7998 402.05 53.9197C395.114 56.2647 388.172 58.6142 381.084 61.0141L381.089 61.0187ZM380.273 57.4715C386.137 55.3139 391.67 53.3483 397.122 51.177C397.841 50.889 398.69 49.4308 398.538 48.7131C397.796 45.1477 395.7 42.4781 392.225 41.1205C389.103 39.9 386.517 41.093 384.266 43.2232C380.264 47.0173 380.002 51.9038 380.273 57.476V57.4715Z" fill="#000A8D"/>
<path d="M341.374 136.759C346.151 137.019 349.246 134.478 351.474 130.537C352.006 129.6 352.597 128.325 353.78 129.161C354.454 129.637 354.959 131.177 354.711 131.982C352.767 138.203 348.315 141.755 341.933 142.491C335.739 143.204 329.944 141.659 325.557 137.065C321.105 132.407 319.221 126.757 320.129 120.161C320.67 116.23 321.972 112.842 324.475 109.77C327.189 106.443 330.82 104.825 334.781 103.865C340.095 102.576 345.12 103.627 349.7 106.525C352.079 108.033 354.234 109.848 354.505 112.97C354.619 114.3 354.633 115.809 352.964 116.042C351.671 116.225 349.929 116.284 349.044 115.58C347.568 114.406 346.633 112.559 345.436 111.023C343.68 108.769 341.672 107.092 338.554 106.863C333.287 106.47 329.692 110.479 328.441 114.351C326.579 120.12 327.134 125.751 330.536 130.907C333.067 134.743 336.556 136.941 341.37 136.759H341.374Z" fill="#000A8D"/>
<path d="M419.878 135.09C423.289 126.697 426.539 118.625 429.868 110.58C430.537 108.961 429.455 108.312 428.607 107.389C428.011 106.74 427.603 105.917 427.112 105.176C427.956 104.875 428.786 104.367 429.639 104.317C431.848 104.194 434.067 104.235 436.282 104.308C436.814 104.326 437.694 104.619 437.781 104.952C437.951 105.597 437.932 106.767 437.543 107.014C432.921 109.93 432.527 115.169 430.597 119.512C427.745 125.925 425.256 132.498 422.555 138.98C421.991 140.329 421.533 141.855 419.451 141.686C417.416 141.522 415.495 142.056 414.317 139.323C410.342 130.117 406.082 121.029 401.8 111.96C401.016 110.305 399.517 108.998 398.509 107.43C398.068 106.744 397.821 105.784 397.908 104.994C397.94 104.692 399.141 104.326 399.815 104.308C402.947 104.235 406.082 104.226 409.209 104.312C409.924 104.331 411.029 104.674 411.227 105.163C411.46 105.743 411.153 106.923 410.653 107.348C409.072 108.701 409.306 110.045 410.007 111.727C412.973 118.826 415.834 125.961 418.75 133.079C418.998 133.682 419.387 134.226 419.878 135.095V135.09Z" fill="#000A8D"/>
<path d="M351.412 41.9847C349.661 41.9847 348.199 42.1355 346.791 41.9207C346.135 41.8201 345.246 41.1162 345.067 40.5082C344.723 39.3243 345.168 38.2409 346.626 38.0032C347.075 37.9301 347.552 37.9209 347.997 37.9895C352.137 38.6066 354.15 35.3291 354.663 32.2024C354.828 31.1968 355.291 29.8437 356.048 29.4186C357.602 28.5501 359 29.7569 359.074 31.8322C359.142 33.7932 359.087 35.7588 359.087 37.9804C362.177 37.9804 365.057 37.9301 367.931 38.0124C368.688 38.0352 369.586 38.3003 370.141 38.7712C370.622 39.1826 371.108 40.3162 370.879 40.6545C370.453 41.2807 369.527 41.8933 368.784 41.9253C365.666 42.0624 362.544 41.9847 359.092 41.9847V44.54C359.092 51.319 359.092 58.098 359.092 64.8724C359.092 67.5877 360.449 70.0698 362.109 70.4218C365.002 71.0343 367.482 69.5441 368.72 66.6552C368.999 66.0061 369.843 65.5992 370.425 65.0781C370.925 65.8004 371.824 66.4997 371.865 67.2494C372.112 71.5234 367.473 76.2591 363.158 76.2546C361.499 76.2546 359.812 76.2546 358.189 75.962C353.705 75.1529 351.573 70.8241 351.463 66.7192C351.266 59.4145 351.408 52.1006 351.408 44.7868C351.408 43.9594 351.408 43.132 351.408 41.9801L351.412 41.9847Z" fill="#000A8D"/>
<path d="M369.188 104.276C372.475 104.276 375.515 104.368 378.545 104.24C380.237 104.166 381.007 104.962 381.062 106.42C381.126 108.052 379.93 108.308 378.564 108.294C375.529 108.258 372.493 108.285 369.321 108.285C369.27 109.144 369.197 109.807 369.197 110.47C369.188 117.322 369.183 124.17 369.197 131.022C369.202 134.194 370.495 136.164 372.892 136.708C375.066 137.207 377.67 135.447 378.862 132.869C379.164 132.215 379.971 131.799 380.549 131.273C381.044 132.014 381.92 132.727 381.97 133.495C382.263 137.947 377.725 142.372 372.847 142.573C365.685 142.866 361.513 138.857 361.509 131.68C361.509 124.001 361.509 116.321 361.509 108.285C359.977 108.285 358.561 108.285 357.149 108.285C355.732 108.285 355.067 107.549 355.095 106.164C355.122 104.77 355.791 104.267 357.226 104.253C362.682 104.194 363.645 103.321 364.75 97.9908C365.048 96.5463 365.488 95.2618 367.528 95.5681C369.458 95.856 369.16 97.1999 369.183 98.4342C369.215 100.258 369.193 102.082 369.193 104.29L369.188 104.276Z" fill="#000A8D"/>
<path d="M261.422 111.187C261.422 119.251 261.441 127.314 261.409 135.382C261.404 136.731 261.477 137.819 262.931 138.564C263.55 138.879 263.747 140.013 264.137 140.772C263.371 141.069 262.61 141.59 261.83 141.617C258.86 141.718 255.879 141.704 252.904 141.617C252.271 141.599 251.139 141.096 251.13 140.79C251.107 139.995 251.345 138.76 251.9 138.454C253.615 137.499 253.748 136.073 253.748 134.427C253.734 121.189 253.725 107.951 253.752 94.7129C253.752 92.825 253.422 91.2434 251.744 90.0229C250.465 89.0904 250.621 87.4173 252.019 86.6311C253.913 85.5615 255.875 84.5832 257.883 83.7513C260.13 82.8188 261.413 83.797 261.418 86.3111C261.432 94.6032 261.422 102.895 261.422 111.187Z" fill="#000A8D"/>
<path d="M277.932 111.087C277.932 118.931 277.978 126.776 277.895 134.615C277.877 136.27 278.271 137.49 279.523 138.601C280.105 139.118 280.27 140.105 280.628 140.878C279.825 141.138 279.032 141.591 278.225 141.618C275.328 141.709 272.421 141.7 269.519 141.618C268.859 141.6 267.676 141.184 267.653 140.887C267.598 140.091 267.795 138.816 268.332 138.523C270.133 137.527 270.262 136.028 270.257 134.295C270.234 120.892 270.23 107.49 270.262 94.0873C270.262 92.3959 269.909 91.0566 268.46 89.9595C266.91 88.7847 267.117 87.3677 268.896 86.4534C270.963 85.3929 273.086 84.433 275.222 83.5188C276.662 82.9062 277.854 83.8707 277.909 85.7266C277.978 88.0853 277.927 90.4486 277.927 92.8073C277.927 98.9007 277.927 104.989 277.927 111.083L277.932 111.087Z" fill="#000A8D"/>
<path d="M219.234 44.3349C219.234 52.2475 219.284 60.1602 219.197 68.0728C219.179 69.9927 219.784 71.3961 221.214 72.6211C221.76 73.092 222.008 73.9148 222.388 74.5776C221.655 74.989 220.939 75.7249 220.192 75.7615C217.221 75.8987 214.241 75.8849 211.266 75.7615C210.587 75.7341 209.418 75.1078 209.386 74.6873C209.326 73.8965 209.899 73.0417 210.262 72.2372C210.821 70.9938 211.912 69.7733 211.926 68.5391C212.045 54.9948 212.054 41.4505 211.921 27.9062C211.908 26.576 210.954 25.1178 210.101 23.9613C208.799 22.1877 208.845 21.2369 210.775 20.2632C212.453 19.4176 214.136 18.5765 215.85 17.8085C218.308 16.7023 219.225 17.2828 219.225 19.9067C219.229 28.0479 219.225 36.1891 219.225 44.3303L219.234 44.3349Z" fill="#000A8D"/>
<path d="M236.205 54.1529C236.205 58.8748 236.237 63.5968 236.186 68.3188C236.168 70.1244 236.627 71.5004 238.328 72.4603C238.882 72.7757 239.478 74.0053 239.267 74.4487C238.969 75.0796 237.961 75.7149 237.227 75.7515C234.256 75.8932 231.267 75.8749 228.292 75.7607C227.599 75.7332 226.407 75.1527 226.366 74.7367C226.288 73.9413 226.824 73.0591 227.187 72.25C227.746 71.0158 228.86 69.8273 228.892 68.5977C229.062 61.9009 229.08 55.1905 228.892 48.4938C228.851 47.0082 228.003 45.3808 227.1 44.1238C225.82 42.3547 225.802 41.3719 227.709 40.4074C229.387 39.5572 231.061 38.6841 232.789 37.9436C234.701 37.1208 236.402 37.0613 236.264 39.9823C236.044 44.6951 236.205 49.4263 236.205 54.1483V54.1529Z" fill="#000A8D"/>
<path d="M383.391 141.658C384.138 140.136 384.684 139.094 385.16 138.02C385.715 136.767 386.623 135.496 386.655 134.217C386.806 127.758 386.834 121.289 386.646 114.83C386.6 113.345 385.798 111.699 384.881 110.46C383.496 108.582 383.514 107.503 385.559 106.47C387.306 105.587 389.034 104.678 390.8 103.837C392.876 102.845 393.94 103.521 393.945 105.871C393.963 115.374 393.977 124.878 393.931 134.386C393.922 136.155 394.206 137.567 395.925 138.564C396.544 138.925 396.732 140.022 397.122 140.785C396.352 141.078 395.591 141.604 394.811 141.622C391.244 141.713 387.673 141.663 383.391 141.663V141.658Z" fill="#000A8D"/>
<path d="M395.325 92.7472C395.325 96.1665 393.697 97.7572 390.176 97.7664C386.701 97.7755 384.491 95.9013 384.431 92.8889C384.363 89.5657 386.499 87.3761 389.828 87.3624C393.202 87.3441 395.325 89.424 395.329 92.7472H395.325Z" fill="#000A8D"/>
<path d="M232.247 31.471C228.708 31.471 226.686 29.6517 226.695 26.4884C226.705 23.5126 229.194 21.1219 232.325 21.0853C235.273 21.0488 238.065 23.6178 237.965 26.6347C237.873 29.3911 235.929 31.9738 232.247 31.471Z" fill="#000A8D"/>
<path d="M334.446 64.5846C335.024 70.2208 330.554 73.3429 326.551 73.1418C320.93 72.8584 317.955 69.2563 317.918 63.6521C317.891 59.5289 320.522 56.1325 326.441 56.1554C331.558 56.1782 334.451 59.2043 334.451 64.5846H334.446Z" fill="white"/>
<path d="M240.57 125.412C239.79 128.178 239.259 131.04 238.181 133.686C235.811 139.51 228.521 140.479 223.923 137.261C216.872 132.329 214.002 118.583 218.793 111.48C222.722 105.656 230.034 105.665 234.151 109.948C238.337 114.305 240.043 119.388 240.57 125.412Z" fill="white"/>
<path d="M444.701 123.58C443.999 118.465 444.815 114.09 447.795 110.186C449.868 107.471 452.738 106.223 455.988 107.046C459.587 107.96 461.857 110.621 462.764 114.218C463.154 115.763 462.847 116.997 460.839 117.665C455.585 119.402 450.436 121.454 444.701 123.58Z" fill="white"/>
<path d="M291.676 123.42C290.305 117.537 293.207 108.746 298.956 107.155C304.325 105.67 309.492 110.57 309.62 115.251C309.639 115.982 309.015 117.175 308.405 117.409C302.913 119.488 297.356 121.404 291.676 123.42Z" fill="white"/>
<path d="M380.278 57.4716C380.012 51.8994 380.268 47.0128 384.271 43.2187C386.517 41.0886 389.108 39.8955 392.23 41.116C395.705 42.4737 397.8 45.1432 398.543 48.7087C398.694 49.4309 397.846 50.8846 397.126 51.1725C391.675 53.3438 386.141 55.3094 380.278 57.467V57.4716Z" fill="white"/>
</svg>
