<svg width="471" height="148" viewBox="0 0 471 148" fill="none" xmlns="http://www.w3.org/2000/svg">
<g clip-path="url(#clip0_828_1339)">
<path d="M125.859 123.6C120.969 130.04 114.839 135.03 107.879 139.02C100.109 143.47 91.7385 146.3 82.8785 147.45C74.7385 148.51 66.6385 148.02 58.5485 146.31C49.0685 144.32 40.3885 140.63 32.4485 135.22C22.6285 128.54 14.8085 120.05 9.04852 109.61C4.64852 101.63 1.89852 93.1199 0.708521 84.2099C-1.06148 70.9399 0.418521 57.9499 5.68852 45.5199C8.81852 38.1499 13.0585 31.5099 18.2985 25.4099C25.0385 17.5599 33.1085 11.5199 42.3585 7.05986C48.9985 3.85986 55.9685 1.56986 63.3785 0.879855C67.2085 0.519855 71.0685 -0.120145 74.8885 0.0398554C84.0085 0.409855 92.9585 1.96986 101.289 5.91986C104.999 7.67986 108.579 9.74986 112.129 11.8099C112.689 12.1299 113.259 13.3399 113.069 13.8499C112.659 14.9499 111.679 15.2499 110.449 14.6099C104.229 11.3199 97.5385 9.34986 90.6385 8.24986C83.9285 7.17985 77.1985 7.00986 70.3685 7.97986C62.8485 9.05986 55.6885 11.1499 49.0085 14.5699C34.2685 22.0999 23.4485 33.4899 16.8885 48.7099C14.4885 54.2799 13.0585 60.1199 12.3385 66.1999C11.1285 76.4899 12.3685 86.4599 15.6585 96.1899C18.2785 103.92 22.4485 110.79 27.7785 117.05C37.3385 128.27 49.4985 135.3 63.6285 138.71C69.7885 140.2 76.3585 140.86 82.6985 140.64C97.3985 140.12 110.659 134.96 122.559 126.34C123.709 125.5 124.759 124.52 125.849 123.62H125.859V123.6Z" fill="#000A8D"/>
<path d="M113.801 111.25C115.421 108.6 117.051 105.96 118.661 103.31C121.981 97.7901 123.921 91.7901 124.891 85.4501C126.621 74.2201 124.991 63.5201 119.661 53.4701C112.771 40.4701 102.001 32.2601 87.7608 28.6701C72.5708 24.8501 58.7308 28.3001 46.4808 37.6001C36.5508 45.1401 30.4508 55.3301 28.0008 67.6101C25.8608 78.3401 27.3608 88.6501 31.6608 98.6301C31.7208 98.7701 31.8408 98.9101 31.8308 99.0401C31.7208 100.08 31.6008 101.11 31.4708 102.15C30.5408 101.67 29.2308 101.43 28.7308 100.67C24.7608 94.6101 21.7708 88.0801 20.8208 80.8501C20.2108 76.2201 19.6608 71.5001 19.9508 66.8701C20.6008 56.4101 24.2708 46.9001 30.5208 38.4301C37.6208 28.8101 47.0308 22.2201 58.2408 18.3701C66.0608 15.6901 74.1808 14.8701 82.5408 15.8401C89.3608 16.6401 95.8608 18.3501 101.841 21.4901C114.741 28.2801 124.311 38.1401 129.431 52.0701C131.741 58.3701 133.071 64.8101 132.931 71.4201C132.671 83.0801 129.281 93.8601 122.111 103.2C119.791 106.22 116.871 108.79 114.231 111.57C114.081 111.46 113.931 111.35 113.781 111.24L113.801 111.25Z" fill="#000A8D"/>
<path d="M51.8303 49.2201C56.1903 42.0001 62.9703 38.1701 70.7803 36.1601C79.4203 33.9401 87.9503 35.0401 95.8103 39.0701C107.84 45.2401 115.06 55.1101 116.96 68.5801C118.96 82.7501 114.3 94.5901 103.58 103.88C95.5203 110.87 85.8603 113.77 75.2303 112.7C69.5203 112.12 64.1003 110.32 59.3903 106.85C58.8403 106.45 58.1903 106.1 57.8403 105.56C57.5003 105.04 57.1303 103.95 57.3703 103.73C57.8803 103.25 58.8103 102.87 59.4803 102.99C60.8703 103.23 62.1803 103.87 63.5503 104.24C75.2303 107.39 85.7503 105.27 94.9003 97.2201C102.48 90.5501 106.13 82.1001 105.56 72.0701C105.16 65.0101 102.48 58.7301 97.6603 53.4201C92.9703 48.2401 87.2803 44.8101 80.4403 43.2901C70.3103 41.0201 61.0903 43.2901 52.5203 48.8201C52.3003 48.9701 52.0603 49.0901 51.8203 49.2301L51.8303 49.2201Z" fill="#000A8D"/>
<path d="M276.942 43.9799C278.812 40.5299 281.202 37.9299 284.852 37.0499C294.222 34.8099 301.582 38.5399 303.502 48.5199C304.592 54.1799 304.612 60.0499 304.952 65.8299C305.092 68.2299 305.272 70.4499 307.372 72.0799C307.792 72.3999 308.172 73.4399 307.972 73.7399C307.612 74.2699 306.802 74.7499 306.162 74.7699C303.032 74.8799 299.902 74.8599 296.772 74.7799C296.192 74.7699 295.262 74.3999 295.152 73.9999C294.972 73.3799 295.102 72.3099 295.542 71.9499C297.682 70.1599 297.842 68.1399 297.412 65.4799C296.832 61.9199 297.132 58.2299 296.802 54.6199C296.552 51.8099 296.152 48.9699 295.402 46.2499C294.382 42.5499 291.052 40.1099 287.662 40.0699C284.552 40.0399 280.782 42.8099 279.842 46.2299C279.332 48.0899 279.352 50.1199 279.332 52.0899C279.262 57.2699 279.372 62.4499 279.282 67.6299C279.252 69.3399 279.572 70.6899 280.962 71.8199C281.512 72.2699 281.682 73.1899 282.022 73.8899C281.232 74.1999 280.452 74.7499 279.652 74.7799C276.832 74.8899 273.992 74.9099 271.172 74.7699C270.402 74.7299 269.382 74.1899 269.032 73.5699C268.792 73.1399 269.312 71.8599 269.852 71.5099C271.532 70.4499 271.672 68.9599 271.652 67.2299C271.592 62.1299 271.782 57.0199 271.582 51.9199C271.412 47.5999 270.202 43.5299 266.072 41.2299C261.752 38.8299 256.272 41.0899 254.592 45.9099C254.032 47.5099 253.712 49.2499 253.682 50.9399C253.572 56.6499 253.672 62.3599 253.622 68.0799C253.612 69.5299 253.782 70.6499 255.262 71.4799C255.892 71.8299 256.172 73.0799 256.252 73.9399C256.272 74.1799 254.982 74.7599 254.282 74.7899C251.302 74.8899 248.322 74.8699 245.342 74.7899C244.662 74.7699 243.462 74.4499 243.412 74.1399C243.302 73.3599 243.432 72.1299 243.952 71.7399C245.872 70.2999 246.012 68.4499 245.982 66.2999C245.892 59.8299 245.932 53.3499 245.962 46.8799C245.962 45.1999 245.672 43.9199 244.042 42.8999C242.032 41.6399 242.252 40.3599 244.422 39.3099C246.112 38.4899 247.792 37.6299 249.552 36.9899C252.352 35.9699 253.142 36.5699 253.182 39.4899C253.182 40.0699 253.232 40.6399 253.272 41.3699C259.932 33.4999 272.642 35.6399 276.952 43.9799H276.942Z" fill="#000A8D"/>
<path d="M158.169 112.37C158.119 106.07 159.769 100.28 163.399 95.1699C167.109 89.9499 172.189 86.6699 178.559 85.4399C187.239 83.7599 194.879 86.0299 201.369 91.7799C203.129 93.3399 204.259 95.7499 205.279 97.9599C206.159 99.8699 205.059 102.34 203.509 103.07C201.949 103.79 199.139 102.96 198.019 101.33C196.539 99.1699 195.189 96.9199 193.739 94.7399C189.789 88.8199 181.229 87.2299 175.149 91.0799C168.899 95.0399 166.409 100.91 166.059 107.93C165.729 114.5 167.269 120.62 171.089 126.02C174.699 131.11 179.649 134.61 185.949 134.68C192.879 134.75 197.979 130.92 201.389 124.95C201.939 123.98 202.179 122.74 202.929 121.97C203.489 121.4 204.699 121.08 205.469 121.26C205.999 121.38 206.669 122.63 206.589 123.28C205.499 132.35 197.899 139.57 188.919 141.2C173.829 143.95 161.269 131.7 158.849 118.65C158.469 116.58 158.399 114.46 158.179 112.37H158.169Z" fill="#000A8D"/>
<path d="M158.289 45.1002C158.179 38.0602 160.669 30.7902 166.869 25.0602C170.609 21.6002 175.099 19.8302 180.169 19.0902C187.199 18.0602 193.439 19.7602 199.089 23.7702C201.879 25.7402 204.129 28.2602 205.139 31.7202C205.699 33.6402 205.699 35.3402 204.059 36.6302C203.009 37.4702 199.599 36.8902 198.649 35.6702C197.049 33.6002 195.579 31.4202 194.139 29.2302C189.339 21.9502 180.169 20.6902 173.429 26.0802C168.459 30.0602 166.369 35.4202 166.059 41.5402C165.699 48.7302 167.469 55.3202 171.959 61.1202C177.379 68.1402 188.119 71.5402 196.219 64.8802C198.979 62.6102 200.829 59.8202 202.479 56.7902C203.059 55.7302 203.559 54.4402 205.139 54.8702C206.759 55.3202 206.629 56.6102 206.399 57.9302C205.089 65.4002 199.199 72.9702 190.469 74.7802C181.699 76.5902 173.919 74.6202 167.429 68.1602C161.349 62.1102 158.209 54.9302 158.289 45.1002Z" fill="#000A8D"/>
<path d="M63.8687 61.6401C63.3387 63.7101 62.8687 65.6301 62.3687 67.5401C60.4287 75.0601 65.9887 84.5101 74.9387 85.5401C83.0187 86.4701 90.1687 79.5701 90.4587 72.0601C90.5387 70.0501 90.1387 68.0201 90.0787 65.9901C90.0587 65.3801 90.3487 64.2701 90.6087 64.2301C91.4087 64.1201 92.5387 64.1301 93.0487 64.6201C95.8087 67.2501 97.3187 70.6201 97.6787 74.3501C98.7687 85.7601 91.3387 94.7801 81.2087 96.9201C74.5487 98.3201 68.1587 97.1601 62.6087 92.6101C57.6287 88.5301 55.3987 83.3401 54.8687 77.0801C54.4287 71.9101 58.0087 64.6501 62.6487 62.1101C63.0087 61.9101 63.4187 61.8101 63.8687 61.6401Z" fill="#000A8D"/>
<path d="M335.632 71.6999C330.762 76.6599 320.322 76.0299 315.972 73.5499C311.922 71.2499 310.062 67.5199 310.212 63.0399C310.382 57.6799 313.302 54.1299 318.492 52.5499C323.512 51.0299 328.392 51.3299 333.382 53.9899C333.722 50.0999 332.772 46.6799 331.062 43.4499C329.622 40.7299 327.112 39.5599 324.152 39.6699C321.282 39.7799 319.262 41.3499 318.152 44.0499C317.782 44.9499 317.322 45.8099 316.852 46.6699C315.932 48.3299 314.392 48.6399 312.742 48.2099C311.132 47.7999 310.532 46.5599 310.592 44.9299C310.702 41.7799 312.632 40.0499 315.142 38.5199C320.562 35.2299 332.312 35.3799 337.122 41.7899C339.682 45.1999 340.782 49.1099 341.202 53.2499C341.712 58.2599 342.082 63.2799 342.652 68.2799C342.822 69.7599 343.402 71.0899 345.272 71.5199C346.002 71.6899 346.532 72.7899 347.152 73.4599C346.422 73.9099 345.752 74.5199 344.962 74.7699C343.982 75.0899 342.912 75.2299 341.872 75.2499C338.452 75.3099 337.232 74.5999 335.642 71.6799L335.632 71.6999ZM334.452 63.6099C334.452 58.2299 331.562 55.1999 326.442 55.1799C320.532 55.1499 317.892 58.5499 317.922 62.6799C317.962 68.2799 320.932 71.8899 326.552 72.1699C330.562 72.3699 335.022 69.2499 334.452 63.6099Z" fill="#000A8D"/>
<path d="M437.161 121.9C436.851 114.78 439.641 109.19 445.541 105.18C451.441 101.18 460.591 101.42 466.041 105.95C468.941 108.36 470.541 111.57 470.071 115.54C469.791 117.84 468.021 118.54 466.231 119.16C461.631 120.73 457.001 122.22 452.381 123.76C450.681 124.33 449.021 125.05 447.281 125.5C445.941 125.85 445.571 126.25 446.071 127.7C447.421 131.69 451.641 135.4 455.551 135.74C460.691 136.19 464.961 134.69 467.721 130.09C468.351 129.04 469.051 127.88 470.261 128.65C470.861 129.03 471.161 130.64 470.901 131.47C468.861 137.78 463.881 140.68 457.761 141.5C451.641 142.32 446.001 140.63 441.781 135.87C438.301 131.94 436.891 127.16 437.161 121.91V121.9ZM444.701 122.57C450.441 120.44 455.581 118.39 460.841 116.66C462.841 116 463.161 114.76 462.771 113.21C461.861 109.61 459.591 106.95 455.991 106.04C452.741 105.22 449.871 106.47 447.801 109.18C444.821 113.08 444.011 117.46 444.701 122.57Z" fill="#000A8D"/>
<path d="M292.26 126.13C293.89 130.75 296.38 134.12 301.21 135.43C305.93 136.72 311.19 134.95 313.93 130.87C314.31 130.31 314.59 129.61 315.11 129.24C315.62 128.88 316.64 128.54 316.96 128.79C317.49 129.21 318.04 130.22 317.89 130.79C316.36 136.62 312.21 139.78 306.57 141.08C298.04 143.04 288.93 139.79 285.47 130.69C282.25 122.21 283.05 110.97 292.6 105.04C298.95 101.1 307.01 101.36 312.91 106C315.86 108.33 317.41 111.62 316.92 115.59C316.65 117.79 314.94 118.53 313.24 119.12C308.57 120.73 303.85 122.21 299.16 123.76C296.89 124.51 294.64 125.31 292.27 126.12L292.26 126.13ZM291.68 122.43C297.36 120.41 302.92 118.5 308.41 116.42C309.02 116.19 309.64 114.99 309.62 114.26C309.49 109.57 304.33 104.68 298.96 106.16C293.21 107.75 290.31 116.54 291.68 122.42V122.43Z" fill="#000A8D"/>
<path d="M381.091 60.0199C382.421 64.2499 384.651 67.4499 388.831 68.9599C393.751 70.7299 399.671 69.4399 402.781 64.8099C402.991 64.4999 403.331 64.2399 403.451 63.8999C403.941 62.4699 405.151 62.1199 406.101 62.8299C406.661 63.2599 406.851 64.8299 406.541 65.6299C404.911 69.9399 401.851 72.9699 397.421 74.3299C390.411 76.4899 383.801 75.7399 378.251 70.6499C375.561 68.1899 374.021 64.8999 373.271 61.2699C372.191 56.0699 372.281 50.9699 374.821 46.2099C378.101 40.0299 383.181 36.6499 390.411 36.4599C395.371 36.3399 399.761 37.4399 403.011 41.2699C404.321 42.8099 405.311 44.8399 405.791 46.7999C406.611 50.1199 405.391 51.7999 402.071 52.9199C395.131 55.2699 388.191 57.6099 381.101 60.0099L381.091 60.0199ZM380.271 56.4799C386.131 54.3199 391.671 52.3599 397.121 50.1899C397.841 49.8999 398.691 48.4399 398.541 47.7299C397.801 44.1599 395.701 41.4899 392.231 40.1399C389.111 38.9199 386.521 40.1099 384.271 42.2399C380.271 46.0299 380.011 50.9199 380.281 56.4899L380.271 56.4799Z" fill="#000A8D"/>
<path d="M341.371 135.76C346.151 136.02 349.241 133.48 351.471 129.54C352.001 128.6 352.591 127.33 353.781 128.16C354.451 128.64 354.961 130.18 354.711 130.98C352.771 137.2 348.311 140.75 341.931 141.49C335.741 142.2 329.941 140.66 325.551 136.06C321.101 131.4 319.211 125.75 320.121 119.16C320.661 115.23 321.961 111.84 324.471 108.77C327.181 105.44 330.821 103.83 334.781 102.87C340.091 101.58 345.121 102.63 349.701 105.53C352.081 107.04 354.231 108.85 354.501 111.97C354.611 113.3 354.631 114.81 352.961 115.04C351.671 115.22 349.921 115.28 349.041 114.58C347.561 113.41 346.631 111.56 345.431 110.02C343.671 107.77 341.671 106.09 338.551 105.86C333.281 105.47 329.691 109.48 328.441 113.35C326.581 119.12 327.131 124.75 330.541 129.91C333.071 133.75 336.561 135.94 341.371 135.76Z" fill="#000A8D"/>
<path d="M419.869 134.1C423.279 125.71 426.529 117.64 429.859 109.59C430.529 107.97 429.449 107.32 428.599 106.4C427.999 105.75 427.599 104.93 427.109 104.19C427.949 103.89 428.779 103.38 429.639 103.33C431.849 103.21 434.069 103.25 436.279 103.33C436.809 103.35 437.689 103.64 437.779 103.97C437.949 104.61 437.929 105.78 437.539 106.03C432.919 108.95 432.519 114.18 430.589 118.53C427.739 124.94 425.249 131.52 422.549 138C421.989 139.35 421.529 140.88 419.449 140.71C417.409 140.55 415.489 141.08 414.319 138.35C410.349 129.14 406.089 120.06 401.799 110.99C401.019 109.34 399.519 108.03 398.509 106.46C398.069 105.77 397.819 104.81 397.909 104.02C397.939 103.72 399.139 103.35 399.819 103.33C402.949 103.26 406.089 103.25 409.209 103.33C409.919 103.35 411.029 103.69 411.229 104.18C411.459 104.76 411.159 105.94 410.659 106.36C409.079 107.71 409.309 109.06 410.009 110.74C412.979 117.84 415.839 124.97 418.749 132.09C418.999 132.69 419.389 133.24 419.879 134.11L419.869 134.1Z" fill="#000A8D"/>
<path d="M351.41 40.9898C349.66 40.9898 348.2 41.1398 346.79 40.9298C346.13 40.8298 345.25 40.1298 345.07 39.5198C344.73 38.3398 345.17 37.2498 346.63 37.0098C347.08 36.9398 347.56 36.9298 348 36.9998C352.14 37.6198 354.15 34.3398 354.67 31.2098C354.84 30.1998 355.3 28.8498 356.06 28.4298C357.61 27.5598 359.01 28.7698 359.09 30.8398C359.16 32.7998 359.1 34.7698 359.1 36.9898C362.19 36.9898 365.07 36.9398 367.94 37.0198C368.7 37.0398 369.59 37.3098 370.15 37.7798C370.63 38.1898 371.12 39.3298 370.89 39.6598C370.46 40.2898 369.54 40.8998 368.79 40.9298C365.67 41.0698 362.55 40.9898 359.1 40.9898V63.8798C359.1 66.5998 360.46 69.0798 362.12 69.4298C365.01 70.0398 367.49 68.5498 368.73 65.6598C369.01 65.0098 369.85 64.5998 370.43 64.0798C370.93 64.7998 371.83 65.4998 371.87 66.2498C372.12 70.5198 367.48 75.2598 363.16 75.2598C361.5 75.2598 359.81 75.2598 358.19 74.9698C353.71 74.1598 351.57 69.8298 351.46 65.7298C351.26 58.4298 351.4 51.1098 351.4 43.7998V40.9898H351.41Z" fill="#000A8D"/>
<path d="M369.18 103.28C372.47 103.28 375.51 103.37 378.54 103.24C380.23 103.17 381 103.96 381.06 105.42C381.12 107.05 379.93 107.31 378.56 107.29C375.52 107.25 372.49 107.29 369.32 107.29C369.27 108.15 369.2 108.81 369.2 109.47C369.2 116.32 369.19 123.17 369.2 130.02C369.2 133.19 370.5 135.16 372.9 135.71C375.07 136.21 377.68 134.45 378.87 131.87C379.17 131.22 379.98 130.8 380.56 130.27C381.05 131.01 381.93 131.72 381.98 132.49C382.27 136.94 377.74 141.37 372.86 141.57C365.7 141.86 361.53 137.85 361.52 130.68V107.29H357.16C355.74 107.29 355.08 106.55 355.11 105.17C355.14 103.78 355.81 103.27 357.24 103.26C362.7 103.2 363.66 102.33 364.76 97.0001C365.06 95.5601 365.5 94.2702 367.54 94.5802C369.47 94.8702 369.17 96.2101 369.19 97.4501C369.22 99.2701 369.19 101.1 369.19 103.31L369.18 103.28Z" fill="#000A8D"/>
<path d="M261.42 110.19C261.42 118.25 261.44 126.32 261.41 134.39C261.41 135.74 261.48 136.83 262.93 137.57C263.55 137.89 263.75 139.02 264.14 139.78C263.37 140.08 262.61 140.6 261.83 140.63C258.86 140.73 255.88 140.72 252.9 140.63C252.27 140.61 251.14 140.11 251.13 139.8C251.11 139.01 251.34 137.77 251.9 137.46C253.62 136.5 253.75 135.08 253.75 133.43C253.74 120.19 253.73 106.95 253.75 93.7199C253.75 91.8299 253.42 90.2499 251.74 89.0299C250.46 88.0999 250.62 86.4199 252.01 85.6399C253.9 84.5699 255.87 83.5899 257.87 82.7599C260.12 81.8299 261.4 82.8099 261.41 85.3199C261.42 93.6099 261.41 101.9 261.41 110.2L261.42 110.19Z" fill="#000A8D"/>
<path d="M277.929 110.09C277.929 117.93 277.979 125.78 277.889 133.62C277.869 135.27 278.269 136.5 279.519 137.61C280.099 138.13 280.269 139.11 280.619 139.89C279.819 140.15 279.019 140.6 278.219 140.63C275.319 140.72 272.419 140.71 269.509 140.63C268.849 140.61 267.669 140.2 267.639 139.9C267.579 139.1 267.779 137.83 268.319 137.54C270.119 136.54 270.249 135.05 270.239 133.31C270.219 119.91 270.209 106.5 270.239 93.1002C270.239 91.4102 269.889 90.0702 268.439 88.9702C266.889 87.8002 267.099 86.3802 268.879 85.4602C270.949 84.4002 273.069 83.4402 275.209 82.5302C276.649 81.9202 277.839 82.8802 277.899 84.7402C277.969 87.1002 277.919 89.4602 277.919 91.8202V110.1L277.929 110.09Z" fill="#000A8D"/>
<path d="M219.23 43.3401C219.23 51.2501 219.28 59.1701 219.19 67.0801C219.17 69.0001 219.78 70.4001 221.21 71.6301C221.76 72.1001 222 72.9201 222.38 73.5901C221.65 74.0001 220.93 74.7401 220.18 74.7701C217.21 74.9101 214.23 74.8901 211.25 74.7701C210.57 74.7401 209.4 74.1201 209.37 73.7001C209.31 72.9101 209.88 72.0501 210.25 71.2501C210.81 70.0101 211.9 68.7901 211.91 67.5501C212.03 54.0101 212.04 40.4601 211.91 26.9201C211.9 25.5901 210.94 24.1301 210.09 22.9801C208.79 21.2101 208.83 20.2601 210.76 19.2801C212.44 18.4301 214.12 17.5901 215.84 16.8301C218.3 15.7201 219.22 16.3001 219.22 18.9301C219.22 27.0701 219.22 35.2101 219.22 43.3501L219.23 43.3401Z" fill="#000A8D"/>
<path d="M236.201 53.16C236.201 57.88 236.231 62.6 236.181 67.33C236.161 69.14 236.621 70.51 238.321 71.47C238.871 71.79 239.471 73.02 239.261 73.46C238.961 74.09 237.951 74.73 237.221 74.76C234.251 74.9 231.261 74.88 228.291 74.76C227.601 74.73 226.401 74.15 226.361 73.74C226.281 72.94 226.821 72.06 227.181 71.25C227.741 70.02 228.851 68.83 228.891 67.6C229.061 60.9 229.081 54.19 228.891 47.5C228.851 46.01 228.001 44.39 227.101 43.13C225.821 41.36 225.801 40.38 227.711 39.41C229.391 38.56 231.061 37.69 232.791 36.95C234.701 36.13 236.401 36.07 236.271 38.99C236.051 43.7 236.211 48.43 236.211 53.16H236.201Z" fill="#000A8D"/>
<path d="M383.391 140.66C384.141 139.14 384.681 138.1 385.161 137.02C385.711 135.77 386.621 134.5 386.651 133.22C386.801 126.76 386.831 120.29 386.651 113.83C386.601 112.34 385.801 110.7 384.891 109.46C383.501 107.58 383.521 106.5 385.571 105.47C387.321 104.59 389.051 103.68 390.811 102.84C392.891 101.85 393.951 102.52 393.961 104.87C393.981 114.37 393.991 123.88 393.951 133.38C393.951 135.15 394.221 136.56 395.941 137.56C396.561 137.92 396.751 139.02 397.141 139.78C396.371 140.07 395.611 140.6 394.831 140.62C391.261 140.71 387.691 140.66 383.411 140.66H383.391Z" fill="#000A8D"/>
<path d="M395.321 91.75C395.321 95.17 393.691 96.76 390.171 96.77C386.691 96.77 384.491 94.9 384.431 91.89C384.361 88.57 386.501 86.38 389.831 86.36C393.201 86.34 395.331 88.42 395.331 91.74L395.321 91.75Z" fill="#000A8D"/>
<path d="M232.241 30.4801C228.701 30.4801 226.681 28.6601 226.691 25.5001C226.691 22.5201 229.191 20.1301 232.321 20.1001C235.271 20.0601 238.061 22.6301 237.961 25.6501C237.871 28.4101 235.921 30.9901 232.241 30.4901V30.4801Z" fill="#000A8D"/>
<path d="M247.67 122.57C247.99 133.33 239.72 141.98 228.63 141.63C217.5 141.28 208.37 133.25 208.77 120.69C209.1 110.24 216.72 102.37 227.87 102.41C239.24 102.45 247.91 111.32 247.67 122.56V122.57ZM234.15 108.96C230.03 104.68 222.72 104.67 218.79 110.49C214 117.59 216.87 131.34 223.92 136.27C230.78 141.55 238.17 136.27 239.4 131.58C241.76 122.53 238.34 113.31 234.15 108.96Z" fill="#000A8D"/>
</g>
<defs>
<clipPath id="clip0_828_1339">
<rect width="470.99" height="148" fill="white"/>
</clipPath>
</defs>
</svg>
