<svg width="434" height="119" viewBox="0 0 434 119" fill="none" xmlns="http://www.w3.org/2000/svg">
<g clip-path="url(#clip0_756_1677)">
<path d="M115.625 64.1541V22.9312H145.092V29.6096H123.39V40.6615H142.936V47.3399H123.39V64.1837H115.625V64.1541Z" fill="#000A8D"/>
<path fill-rule="evenodd" clip-rule="evenodd" d="M152.855 27.6595V20.6855H160.148V27.6595H152.855ZM152.855 64.1544V32.5353H160.148V64.1544H152.855Z" fill="#000A8D"/>
<path d="M169.418 64.1544V20.6855H176.711V64.1544H169.418Z" fill="#000A8D"/>
<path fill-rule="evenodd" clip-rule="evenodd" d="M199.449 64.8632C196.112 64.8632 193.307 64.2722 191.093 63.0902C188.849 61.9081 187.196 60.1055 186.074 57.6529C184.952 55.2002 184.391 52.0974 184.391 48.3444C184.391 44.5915 184.952 41.4296 186.074 39.0065C187.196 36.5833 188.849 34.7807 191.093 33.5987C193.337 32.4167 196.112 31.8257 199.449 31.8257C202.49 31.8257 205.029 32.3871 207.066 33.5396C209.104 34.6921 210.669 36.4356 211.702 38.7996C212.735 41.1637 213.267 44.2369 213.267 47.9898V50.147H191.861C191.949 52.0973 192.244 53.7522 192.746 55.1115C193.278 56.4413 194.075 57.446 195.168 58.1257C196.26 58.7758 197.707 59.1304 199.508 59.1304C200.423 59.1304 201.279 59.0122 202.077 58.7758C202.874 58.5394 203.582 58.1552 204.173 57.6529C204.763 57.1505 205.236 56.5299 205.59 55.7616C205.915 54.9933 206.092 54.1068 206.092 53.1021H213.267C213.267 55.1115 212.913 56.855 212.233 58.3325C211.525 59.81 210.55 61.0512 209.31 61.9968C208.041 62.9719 206.594 63.6812 204.911 64.154C203.228 64.6268 201.427 64.8632 199.478 64.8632H199.449ZM191.979 44.9757H205.679C205.679 43.6459 205.531 42.523 205.236 41.6069C204.941 40.6908 204.527 39.9225 203.996 39.3315C203.464 38.7405 202.815 38.2972 202.047 38.0313C201.279 37.7653 200.423 37.6471 199.478 37.6471C197.913 37.6471 196.614 37.9131 195.551 38.4155C194.488 38.9474 193.691 39.7452 193.13 40.809C192.569 41.9024 192.185 43.2617 192.008 44.9461L191.979 44.9757Z" fill="#000A8D"/>
<path d="M234.082 64.8632C230.805 64.8632 228.089 64.2722 225.933 63.0902C223.748 61.9081 222.124 60.1055 221.061 57.6529C219.998 55.2002 219.438 52.0974 219.438 48.3444C219.438 44.5915 219.998 41.4296 221.091 39.0065C222.183 36.5833 223.807 34.7807 225.992 33.5987C228.177 32.4167 230.864 31.8257 234.082 31.8257C236.208 31.8257 238.068 32.0916 239.692 32.594C241.316 33.1259 242.733 33.8942 243.914 34.958C245.095 36.0219 245.981 37.3221 246.572 38.8883C247.162 40.4544 247.457 42.2866 247.457 44.3551H240.047C240.047 42.8776 239.84 41.6365 239.397 40.6908C238.954 39.7157 238.305 39.0065 237.389 38.5041C236.503 38.0017 235.352 37.7653 233.964 37.7653C232.34 37.7653 230.982 38.1495 229.949 38.9178C228.915 39.6861 228.148 40.809 227.646 42.3161C227.144 43.8232 226.908 45.7144 226.908 47.9898V48.7581C226.908 51.004 227.144 52.8952 227.646 54.4023C228.148 55.9389 228.945 57.0618 230.008 57.8006C231.071 58.5394 232.488 58.9235 234.259 58.9235C235.618 58.9235 236.74 58.6871 237.625 58.1848C238.511 57.6824 239.22 56.9436 239.692 55.9389C240.165 54.9342 240.401 53.7226 240.401 52.3338H247.457C247.457 54.2841 247.162 56.0571 246.572 57.6233C245.981 59.1895 245.095 60.5193 243.944 61.5831C242.792 62.6764 241.375 63.4743 239.722 64.0358C238.068 64.5972 236.179 64.8632 234.082 64.8632Z" fill="#000A8D"/>
<path fill-rule="evenodd" clip-rule="evenodd" d="M269.128 64.8632C265.703 64.8632 262.839 64.2722 260.536 63.0902C258.233 61.9081 256.491 60.1055 255.34 57.6529C254.188 55.2002 253.598 52.0974 253.598 48.3444C253.598 44.5915 254.188 41.4296 255.34 39.0065C256.491 36.5833 258.233 34.7807 260.536 33.5987C262.839 32.4167 265.703 31.8257 269.128 31.8257C272.553 31.8257 275.476 32.4167 277.75 33.5987C280.053 34.7807 281.765 36.5833 282.917 39.0065C284.068 41.4296 284.659 44.562 284.659 48.3444C284.659 52.1269 284.068 55.2297 282.917 57.6529C281.765 60.1055 280.053 61.9081 277.75 63.0902C275.447 64.2722 272.583 64.8632 269.128 64.8632ZM269.128 58.8644C271.047 58.8644 272.583 58.4803 273.764 57.7415C274.945 57.0027 275.801 55.8798 276.333 54.3727C276.864 52.8657 277.13 51.004 277.13 48.7581V47.9307C277.13 45.6849 276.864 43.8232 276.333 42.3161C275.801 40.809 274.945 39.6861 273.764 38.9474C272.583 38.2086 271.047 37.8244 269.128 37.8244C267.209 37.8244 265.674 38.2086 264.493 38.9474C263.312 39.6861 262.455 40.809 261.924 42.3161C261.392 43.8232 261.127 45.6849 261.127 47.9307V48.7581C261.127 51.004 261.392 52.8657 261.924 54.3727C262.455 55.8798 263.312 57.0027 264.493 57.7415C265.674 58.4803 267.209 58.8644 269.128 58.8644Z" fill="#000A8D"/>
<path fill-rule="evenodd" clip-rule="evenodd" d="M292.395 27.6595V20.6855H299.687V27.6595H292.395ZM292.395 64.1544V32.5353H299.687V64.1544H292.395Z" fill="#000A8D"/>
<path d="M308.928 64.154V32.5349H315.01L315.601 36.7311H316.014C316.723 35.7559 317.579 34.9285 318.553 34.1897C319.528 33.451 320.65 32.8599 321.89 32.4462C323.13 32.0325 324.518 31.8257 326.053 31.8257C328.031 31.8257 329.803 32.1803 331.338 32.9191C332.873 33.6283 334.084 34.8103 334.94 36.406C335.826 38.0017 336.239 40.1589 336.239 42.848V64.1835H328.887V44.1778C328.887 43.0549 328.769 42.1093 328.504 41.3705C328.238 40.6317 327.854 40.0407 327.382 39.5679C326.88 39.0951 326.26 38.7701 325.551 38.5632C324.842 38.3564 324.045 38.2677 323.159 38.2677C321.831 38.2677 320.65 38.5928 319.616 39.2429C318.553 39.893 317.727 40.7795 317.107 41.9024C316.487 43.0253 316.191 44.3256 316.191 45.8031V64.2131H308.898L308.928 64.154Z" fill="#000A8D"/>
<path d="M115.625 118.261V77.0088H145.092V83.6872H123.39V94.7391H142.936V101.418H123.39V118.261H115.625Z" fill="#000A8D"/>
<path fill-rule="evenodd" clip-rule="evenodd" d="M165.05 119C161.625 119 158.761 118.409 156.458 117.227C154.155 116.045 152.413 114.242 151.262 111.79C150.11 109.337 149.52 106.234 149.52 102.481C149.52 98.7282 150.11 95.5663 151.262 93.1432C152.413 90.72 154.155 88.9175 156.458 87.7354C158.761 86.5534 161.625 85.9624 165.05 85.9624C168.475 85.9624 171.398 86.5534 173.672 87.7354C175.975 88.9175 177.687 90.72 178.839 93.1432C179.99 95.5663 180.581 98.6987 180.581 102.481C180.581 106.264 179.99 109.366 178.839 111.79C177.687 114.242 175.945 116.045 173.672 117.227C171.369 118.409 168.505 119 165.05 119ZM165.05 113.001C166.969 113.001 168.505 112.617 169.686 111.878C170.867 111.139 171.723 110.017 172.254 108.509C172.786 107.002 173.052 105.141 173.052 102.895V102.067C173.052 99.8216 172.786 97.9599 172.254 96.4528C171.723 94.9458 170.867 93.8228 169.686 93.0841C168.505 92.3453 166.969 91.9612 165.05 91.9612C163.131 91.9612 161.596 92.3453 160.415 93.0841C159.234 93.8228 158.377 94.9458 157.846 96.4528C157.314 97.9599 157.049 99.8216 157.049 102.067V102.895C157.049 105.141 157.314 107.002 157.846 108.509C158.377 110.017 159.234 111.139 160.415 111.878C161.596 112.617 163.131 113.001 165.05 113.001Z" fill="#000A8D"/>
<path d="M198.267 118.971C195.226 118.971 192.775 118.143 190.885 116.488C188.996 114.834 188.051 111.997 188.051 107.978V86.6423H195.344V106.648C195.344 107.771 195.462 108.687 195.728 109.455C195.993 110.194 196.377 110.785 196.849 111.258C197.351 111.731 197.942 112.056 198.68 112.263C199.389 112.47 200.186 112.558 201.072 112.558C202.4 112.558 203.581 112.233 204.615 111.583C205.678 110.933 206.504 110.046 207.124 108.894C207.745 107.741 208.04 106.471 208.04 105.023V86.6128H215.333V118.232H209.309L208.719 114.036H208.306C207.597 115.011 206.741 115.838 205.766 116.577C204.792 117.316 203.67 117.907 202.43 118.321C201.16 118.734 199.802 118.941 198.267 118.941V118.971Z" fill="#000A8D"/>
<path d="M224.633 118.261V86.6423H230.715L231.306 90.8385H231.719C232.428 89.8633 233.284 89.0359 234.258 88.2971C235.233 87.5584 236.355 86.9674 237.595 86.5537C238.835 86.14 240.222 85.9331 241.758 85.9331C243.736 85.9331 245.508 86.2877 247.043 87.0265C248.578 87.7357 249.789 88.9177 250.645 90.5134C251.531 92.1092 251.974 94.2664 251.974 96.9555V118.291H244.622V98.2852C244.622 97.1623 244.504 96.2462 244.238 95.4779C243.972 94.7392 243.588 94.1482 243.116 93.6753C242.614 93.2025 242.024 92.8775 241.285 92.6706C240.577 92.4638 239.78 92.3751 238.894 92.3751C237.595 92.3751 236.384 92.7002 235.351 93.3503C234.288 94.0004 233.461 94.8869 232.841 96.0098C232.221 97.1328 231.926 98.433 231.926 99.9105V118.32H224.633V118.261Z" fill="#000A8D"/>
<path fill-rule="evenodd" clip-rule="evenodd" d="M271.933 119C269.394 119 267.179 118.409 265.29 117.256C263.43 116.104 261.983 114.301 260.949 111.849C259.946 109.396 259.414 106.264 259.414 102.422C259.414 98.5804 259.946 95.5072 260.979 93.084C262.012 90.6609 263.459 88.8583 265.29 87.7058C267.12 86.5533 269.187 85.9623 271.52 85.9623C272.966 85.9623 274.266 86.1101 275.476 86.4351C276.657 86.7602 277.72 87.233 278.635 87.9127C279.551 88.5628 280.318 89.3902 280.968 90.3358H281.322V74.8218H288.615V118.291H282.592L282.001 114.094H281.588C280.584 115.749 279.255 116.961 277.543 117.788C275.86 118.616 274 119.029 271.963 119.029L271.933 119ZM274.207 112.676C275.889 112.676 277.248 112.292 278.281 111.524C279.314 110.755 280.082 109.662 280.584 108.214C281.086 106.766 281.322 104.993 281.322 102.924V102.156C281.322 100.59 281.175 99.201 280.909 97.9599C280.643 96.7187 280.2 95.6845 279.639 94.8275C279.049 93.9705 278.311 93.35 277.425 92.9067C276.539 92.4634 275.476 92.2566 274.236 92.2566C272.435 92.2566 271.018 92.6112 269.955 93.3204C268.892 94.0296 268.154 95.0934 267.681 96.571C267.209 98.0485 267.002 99.8806 267.002 102.126V102.954C267.002 105.17 267.238 106.973 267.681 108.421C268.124 109.869 268.892 110.933 269.955 111.642C271.018 112.351 272.435 112.706 274.236 112.706L274.207 112.676Z" fill="#000A8D"/>
<path fill-rule="evenodd" clip-rule="evenodd" d="M305.946 119C305.06 119 304.056 118.882 302.934 118.675C301.812 118.468 300.69 118.055 299.657 117.434C298.594 116.843 297.738 115.927 297.059 114.745C296.379 113.563 296.055 111.997 296.055 110.076C296.055 107.919 296.527 106.116 297.501 104.698C298.446 103.279 299.804 102.156 301.546 101.329C303.289 100.502 305.355 99.9401 307.776 99.5855C310.198 99.2308 312.825 99.0831 315.689 99.0831V96.5122C315.689 95.5961 315.542 94.7687 315.276 94.0595C314.981 93.3503 314.479 92.7593 313.741 92.3456C313.003 91.9319 311.91 91.725 310.434 91.725C308.957 91.725 307.806 91.9023 306.979 92.2569C306.153 92.6115 305.562 93.0548 305.237 93.5867C304.912 94.1186 304.765 94.6505 304.765 95.212V96.0394H297.708C297.679 95.8325 297.649 95.6257 297.649 95.4484V94.7392C297.649 92.9366 298.181 91.3704 299.273 90.0406C300.336 88.7109 301.842 87.7061 303.761 86.9969C305.68 86.2877 307.895 85.9331 310.404 85.9331C313.268 85.9331 315.63 86.3468 317.49 87.1447C319.351 87.9425 320.738 89.095 321.654 90.5725C322.569 92.0501 323.041 93.8526 323.041 95.9803V110.903C323.041 111.672 323.248 112.204 323.691 112.529C324.134 112.854 324.606 113.001 325.138 113.001H327.057V118.055C326.673 118.202 326.082 118.409 325.315 118.616C324.547 118.823 323.632 118.941 322.51 118.941C321.476 118.941 320.561 118.764 319.734 118.439C318.908 118.114 318.229 117.611 317.668 116.961C317.107 116.311 316.723 115.572 316.457 114.686H316.103C315.424 115.513 314.626 116.282 313.682 116.932C312.737 117.582 311.644 118.114 310.404 118.468C309.164 118.823 307.717 119 306.064 119H305.946ZM308.16 112.972C309.341 112.972 310.404 112.795 311.349 112.44C312.294 112.085 313.062 111.583 313.682 110.933C314.302 110.283 314.774 109.514 315.128 108.598C315.453 107.682 315.63 106.678 315.63 105.584V104.136C313.445 104.136 311.408 104.284 309.578 104.55C307.717 104.816 306.241 105.348 305.149 106.116C304.056 106.884 303.495 107.948 303.495 109.367C303.495 110.076 303.672 110.726 303.997 111.258C304.351 111.79 304.853 112.233 305.562 112.529C306.271 112.824 307.127 112.972 308.16 112.972Z" fill="#000A8D"/>
<path d="M340.905 118.97C338.956 118.97 337.421 118.586 336.299 117.788C335.177 117.02 334.409 116.015 333.937 114.774C333.494 113.563 333.258 112.292 333.258 111.021V92.6112H329.508V86.6125H333.435L334.734 77.7769H340.521V86.6125H345.954V92.6112H340.521V110.282C340.521 111.11 340.728 111.79 341.171 112.233C341.613 112.706 342.263 112.912 343.149 112.912H345.954V117.966C345.54 118.113 345.068 118.261 344.477 118.409C343.887 118.557 343.296 118.675 342.647 118.763C341.997 118.852 341.407 118.911 340.846 118.911L340.905 118.97Z" fill="#000A8D"/>
<path fill-rule="evenodd" clip-rule="evenodd" d="M352.863 81.7664V74.7925H360.156V81.7664H352.863ZM352.863 118.261V86.6422H360.156V118.261H352.863Z" fill="#000A8D"/>
<path fill-rule="evenodd" clip-rule="evenodd" d="M383.394 119C379.969 119 377.105 118.409 374.802 117.227C372.499 116.045 370.757 114.242 369.605 111.79C368.454 109.337 367.863 106.234 367.863 102.481C367.863 98.7282 368.454 95.5663 369.605 93.1432C370.757 90.72 372.499 88.9175 374.802 87.7354C377.105 86.5534 379.969 85.9624 383.394 85.9624C386.819 85.9624 389.742 86.5534 392.015 87.7354C394.318 88.9175 396.031 90.72 397.182 93.1432C398.334 95.5663 398.924 98.6987 398.924 102.481C398.924 106.264 398.363 109.366 397.182 111.79C396.031 114.242 394.318 116.045 392.015 117.227C389.712 118.409 386.848 119 383.394 119ZM383.394 113.001C385.313 113.001 386.848 112.617 388.029 111.878C389.21 111.139 390.067 110.017 390.598 108.509C391.13 107.002 391.395 105.141 391.395 102.895V102.067C391.395 99.8216 391.13 97.9599 390.598 96.4528C390.067 94.9458 389.21 93.8228 388.029 93.0841C386.848 92.3453 385.313 91.9612 383.394 91.9612C381.475 91.9612 379.939 92.3453 378.758 93.0841C377.577 93.8228 376.721 94.9458 376.19 96.4528C375.658 97.9599 375.392 99.8216 375.392 102.067V102.895C375.392 105.141 375.658 107.002 376.19 108.509C376.721 110.017 377.577 111.139 378.758 111.878C379.939 112.617 381.475 113.001 383.394 113.001Z" fill="#000A8D"/>
<path d="M406.631 118.261V86.6423H412.713L413.304 90.8385H413.717C414.426 89.8633 415.282 89.0359 416.256 88.2971C417.231 87.5584 418.353 86.9674 419.593 86.5537C420.833 86.14 422.221 85.9331 423.756 85.9331C425.734 85.9331 427.506 86.2877 429.041 87.0265C430.576 87.7357 431.787 88.9177 432.643 90.5134C433.529 92.1092 433.942 94.2664 433.942 96.9555V118.291H426.591V98.2852C426.591 97.1623 426.472 96.2462 426.207 95.4779C425.941 94.7392 425.557 94.1482 425.085 93.6753C424.583 93.2025 423.963 92.8775 423.254 92.6706C422.546 92.4638 421.748 92.3751 420.862 92.3751C419.534 92.3751 418.353 92.7002 417.319 93.3503C416.256 94.0004 415.43 94.8869 414.81 96.0098C414.19 97.1328 413.894 98.433 413.894 99.9105V118.32H406.602L406.631 118.261Z" fill="#000A8D"/>
<path d="M69.2988 0C67.3501 0 61.3564 0 54.1225 6.88527C47.3907 13.2977 43.6409 24.7042 42.6665 28.0435L42.6075 28.2503L41.8693 30.7326C35.4622 30.7917 30.3543 32.742 28.5532 33.7763C22.6776 36.7018 11.8711 46.1579 13.1112 60.9037C14.3513 75.5607 24.5672 83.1848 29.9114 85.2237C29.0256 89.3017 27.9036 93.291 26.7521 97.5168L26.4273 98.6692C25.4825 101.89 24.2424 105.023 22.7366 108.037C20.8174 111.849 17.3629 113.356 15.798 113.622C14.0265 113.976 12.6092 113.799 11.6349 113.119C11.2806 112.853 10.9853 112.499 10.7491 112.115C10.5129 111.731 10.3948 111.287 10.3358 110.844C9.89287 107.091 7.56033 105.111 6.20215 104.727C4.40107 104.254 2.89525 104.461 1.77327 105.348C1.24181 105.791 0.798921 106.352 0.503663 107.002C0.208405 107.653 0.03125 108.332 0.03125 109.041C0.03125 116.193 8.77089 118.173 13.3769 118.202C15.3256 118.202 21.3194 118.202 28.5532 111.317C35.2555 104.934 39.4187 93.0842 40.6883 87.6173C56.337 87.4696 64.6928 77.2746 66.9072 71.8964C68.6197 68.8232 71.1294 60.4308 68.5016 50.561C65.8738 40.7797 57.0161 34.9583 52.5872 33.1852L53.8863 28.2799V28.1617C54.5654 25.6499 55.2741 23.1085 55.9531 20.6854L56.2779 19.5329C57.2228 16.3119 58.4628 13.1795 59.9687 10.1654C61.8878 6.35336 65.3424 4.84629 66.9072 4.58033C68.6788 4.22573 70.096 4.40303 71.0704 5.11224C71.4247 5.3782 71.7495 5.7328 71.9561 6.11696C72.1923 6.50112 72.34 6.94438 72.3695 7.38763C72.8419 11.1406 75.1449 13.1204 76.5031 13.5046C78.3042 13.9774 79.81 13.7705 80.932 12.884C81.4635 12.4408 81.9063 11.8793 82.2016 11.2292C82.4969 10.6086 82.674 9.89943 82.674 9.19022C82.674 2.00944 73.9048 0.0295505 69.2988 0ZM40.1568 37.8542L31.4467 78.1021C25.8959 75.3539 16.92 66.4887 21.2603 51.9794C22.4709 47.6059 27.9627 39.0658 40.1568 37.8542ZM62.4193 63.3563C59.5553 76.9496 48.5126 80.4365 42.637 80.4365H42.3417L51.1404 39.8932C62.8622 46.7489 63.6594 58.2146 62.4193 63.3563Z" fill="#000A8D"/>
</g>
<defs>
<clipPath id="clip0_756_1677">
<rect width="434" height="119" fill="white"/>
</clipPath>
</defs>
</svg>
