<svg width="503" height="100" viewBox="0 0 503 100" fill="none" xmlns="http://www.w3.org/2000/svg">
<path d="M229.878 48.3719L213.881 21.3514H201.609L224.266 57.9673V81.6655H234.838V57.9673L257.449 21.3514H245.573L229.878 48.3719ZM174.551 44.4919H150.054V21.3514H136.758V81.6655H150.054V55.6672H174.551V81.6655H187.847V21.3514H174.551V44.4919ZM376.533 47.5355H340.603V21.3514H334.851V81.6655H340.603V52.461H376.51V81.6655H382.261V21.3514H376.51V47.5355H376.533ZM298.572 21.3514H272.072V81.6655H280.106V57.0148H298.572C304.673 57.0612 309.283 55.5278 312.404 52.3681C315.547 49.2083 317.107 44.8172 317.107 39.1947C317.107 33.5722 315.547 29.1811 312.404 26.0678C309.26 22.9545 304.649 21.3747 298.572 21.3747V21.3514ZM305.884 47.4658C303.765 49.371 300.435 50.3235 295.847 50.2538H280.106V28.1124H295.847C300.411 28.1124 303.765 29.0417 305.884 30.9468C308.003 32.852 309.074 35.5703 309.074 39.1715C309.074 42.7727 308.026 45.5375 305.884 47.4426V47.4658ZM501.299 21.3514V79.5047H501.136L459.827 21.3514H457.289V81.6655H458.989V23.4424H459.152L500.461 81.5957H502.999V21.2817L501.322 21.3514H501.299ZM405.897 51.9266H440.616V48.6972H405.897V24.5577H442.805V21.3282H402.171V81.6422H443.178V78.4128H405.897V51.9499V51.9266Z" fill="#000A8D"/>
<path d="M59.0553 7.7832C71.0709 18.5403 78.4292 33.5026 80.3853 37.8008C82.2248 41.5879 83.1796 45.7699 83.1796 49.9984C83.1796 51.4853 83.0631 52.949 82.8303 54.4127C86.8122 47.3498 89.7462 39.7756 91.5858 31.8763C95.102 15.4967 87.2779 6.15686 86.9286 5.76189C83.785 2.36981 78.7087 0 74.6103 0H46.5508C51.1614 1.78897 55.4227 4.41435 59.0553 7.7832Z" fill="#000A8D"/>
<path d="M20.4232 25.4403C36.607 20.1895 54.2577 21.7229 57.6342 22.0714C63.1762 22.6058 68.4388 24.7433 72.7467 28.2748C68.6018 21.328 63.5022 14.9852 57.6109 9.43246C48.6691 1.39369 39.9834 0.185547 35.5824 0.185547C34.5811 0.185547 33.6031 0.232014 32.6251 0.394648C28.1076 1.46339 23.497 4.62313 21.4711 8.13138L7.42969 32.4568C11.2952 29.3435 15.7195 26.9737 20.4698 25.51" fill="#000A8D"/>
<path d="M16.4423 67.656C20.0982 50.5097 30.9494 35.3615 32.1836 33.7351C35.397 29.2511 39.8679 25.7893 45.0374 23.8145C36.9106 23.9074 28.8537 25.162 21.0762 27.5086C5.10201 32.6664 0.933829 44.0972 0.770828 44.5619C-0.579757 48.9763 -0.114038 54.5523 1.91184 58.0838L15.9533 82.386C15.1848 77.4837 15.3478 72.4885 16.4423 67.656Z" fill="#000A8D"/>
<path d="M89.7218 74.5325C73.4682 79.7833 55.864 78.2499 52.4876 77.9014C46.9455 77.367 41.6829 75.2295 37.375 71.6981C41.5199 78.6681 46.6428 85.0341 52.5807 90.5868C65.0387 101.809 77.0542 99.7176 77.5665 99.6246C82.084 98.5559 86.6946 95.3962 88.7438 91.8647L102.785 67.5625C98.9197 70.6758 94.4954 73.0456 89.7684 74.5093L89.4424 73.487" fill="#000A8D"/>
<path d="M51.0931 92.1905C38.7515 81.1082 31.1603 65.263 29.7632 62.1729C27.2716 57.0151 26.4333 51.23 27.3181 45.561C23.3362 52.624 20.4022 60.2213 18.5626 68.0975C15.0464 84.477 22.8705 93.8169 23.2198 94.2119C26.3634 97.6039 31.4397 99.9737 35.5381 99.9737H63.6442C59.0103 98.1848 54.749 95.5594 51.0931 92.1905Z" fill="#000A8D"/>
<path d="M94.1702 17.5879C94.9387 22.4901 94.7757 27.4853 93.7045 32.3179C90.0253 49.4409 79.1974 64.6124 77.9632 66.2387C74.7498 70.746 70.2789 74.2078 65.1094 76.1826C73.2362 76.0665 81.2931 74.8351 89.0706 72.4885C105.045 67.3307 109.236 55.8998 109.399 55.4119C110.773 50.9976 110.284 45.4216 108.258 41.8901L94.1935 17.5879H94.1702Z" fill="#000A8D"/>
<path opacity="0.6" d="M94.1935 17.5879C94.962 22.4901 94.799 27.4853 93.7045 32.3179C90.0253 49.4409 79.1974 64.6124 77.9632 66.2387C74.7498 70.746 70.2789 74.2078 65.1094 76.1826C73.2362 76.0665 81.2931 74.8351 89.0706 72.4885C105.068 67.3307 109.236 55.8998 109.399 55.4119C110.773 50.9976 110.284 45.4216 108.258 41.8901L94.2168 17.5879H94.1935Z" fill="#000A8D"/>
<path opacity="0.6" d="M27.315 45.5603C26.9191 46.2573 26.5465 47.0008 26.1507 47.7211L26.0575 47.8837C25.6617 48.6504 25.2891 49.4171 24.8932 50.2303C24.8932 50.2303 24.8932 50.3464 24.8001 50.3929C24.4042 51.2061 24.0317 52.0192 23.6358 52.8789C23.6358 52.9486 23.6358 52.995 23.5659 53.0647C23.1934 53.9244 22.8208 54.8072 22.4948 55.6901L22.4249 55.8528C22.0524 56.7589 21.7031 57.6882 21.3538 58.6175C21.3538 58.664 21.3305 58.7105 21.3072 58.7569C20.9579 59.7095 20.6319 60.6853 20.3292 61.6611C20.3292 61.7076 20.3292 61.7308 20.3292 61.7773C20.0265 62.7763 19.7238 63.7754 19.4443 64.7976C19.1649 65.8664 18.9088 66.8886 18.6759 67.9574C15.1597 84.337 22.9838 93.6768 23.3331 94.0485C26.4767 97.4406 31.553 99.8104 35.6514 99.8104H63.7575L63.3616 99.671L62.7329 99.4155C62.4302 99.2993 62.1508 99.1599 61.848 99.0205L61.1727 98.7185L60.2879 98.277L59.5893 97.9285L58.6811 97.4174L57.9593 96.9992C57.6566 96.8133 57.3306 96.6042 57.0046 96.4183L56.306 95.9769L55.3047 95.2799C55.0718 95.1173 54.8623 94.9779 54.6294 94.8152C54.3965 94.6526 53.8842 94.2344 53.4884 93.9324L52.9295 93.4909C52.3707 93.0263 51.8584 92.5384 51.2296 92.0272C38.8881 80.9449 31.2969 65.0997 29.8997 62.0096C28.0601 58.2226 27.1054 54.0405 27.1054 49.8353C27.0588 48.3948 27.152 46.9543 27.3383 45.5371L27.315 45.5603Z" fill="#000A8D"/>
<path opacity="0.6" d="M72.7467 28.1587C72.3276 27.5081 71.9085 26.8343 71.466 26.1373L71.3496 25.9515C70.8606 25.208 70.3716 24.4645 69.8593 23.6978C69.836 23.6514 69.7894 23.6049 69.7661 23.5584C69.2539 22.815 68.695 22.0947 68.1827 21.328L68.0197 21.0957C67.4841 20.3754 66.9485 19.632 66.3897 18.935C66.3198 18.842 66.25 18.7491 66.1801 18.6562C65.598 17.9359 65.0391 17.2157 64.4337 16.4955L64.2008 16.2167C63.5954 15.4964 62.9667 14.7762 62.3379 14.056L62.1284 13.8236C61.4531 13.0801 60.7778 12.3831 60.0792 11.6629C60.0326 11.6164 59.9861 11.57 59.9395 11.5235C59.1943 10.78 58.4259 10.0598 57.6342 9.3628C57.1219 8.92136 56.6329 8.50316 56.1439 8.08496L55.748 7.75969C55.3289 7.43442 54.9097 7.10916 54.4906 6.80712L54.2344 6.62125C53.7454 6.27275 53.2564 5.92425 52.7907 5.62222L52.4181 5.38988C52.0455 5.13431 51.6497 4.90198 51.347 4.69288L50.9744 4.48378C50.5087 4.20498 50.043 3.94941 49.6005 3.71707L49.2745 3.55444L48.2034 3.0433L47.7842 2.85744L46.5035 2.29983L46.2939 2.23013C45.9213 2.09073 45.5488 1.95133 45.2228 1.83516L44.7803 1.69576L43.8489 1.39373L43.5229 1.3008L42.4517 0.998761L42.0093 0.905827L41.2642 0.743193L40.7752 0.603793L39.7971 0.441158L39.4013 0.371458L38.7958 0.301758H37.6781C37.5151 0.301758 37.3521 0.301758 37.2124 0.301758H32.6949C28.1775 1.3705 23.5668 4.53024 21.541 8.03849L7.42969 32.3871L7.68583 32.2013L8.45427 31.5972L8.85013 31.2952C9.17613 31.0628 9.50214 30.8305 9.82814 30.5982L10.061 30.4355C10.4801 30.1567 10.9226 29.8779 11.365 29.5991L11.7376 29.3668L12.8087 28.7627L13.2279 28.5304L14.6483 27.7869H14.7415C15.2538 27.5313 15.7893 27.2758 16.3715 27.0434L16.8139 26.8576L18.0481 26.3L18.5604 26.1141C19.1425 25.8818 19.7712 25.6727 20.4 25.4636C36.5837 20.2128 54.2577 21.7462 57.6109 22.0947C63.1529 22.6291 68.4156 24.7666 72.7235 28.2981V28.2051L72.7467 28.1587Z" fill="#000A8D"/>
<path opacity="0.6" d="M45.0374 23.8142H44.921L42.5458 23.9072H42.2664L39.7049 24.0698H39.4721C38.5872 24.1395 37.679 24.2092 36.7709 24.3022H36.538C35.6066 24.3951 34.6752 24.5113 33.7204 24.6507H33.5109C32.5561 24.7901 31.5781 24.9295 30.6001 25.0921H30.4371C29.4591 25.2547 28.4578 25.4638 27.4565 25.6729H27.3168C26.2922 25.9053 25.2909 26.1608 24.2663 26.4164H24.1965C23.1253 26.6952 22.124 26.9972 21.0995 27.3225C5.10201 32.6662 0.933829 44.097 0.770828 44.5617C-0.579757 48.9761 -0.114038 54.5521 1.91184 58.0836L15.9533 82.3857C15.9533 82.3857 15.9533 82.1766 15.9533 82.0837C15.9533 81.7584 15.8601 81.4332 15.8135 81.1079L15.7437 80.62C15.7437 80.225 15.6738 79.8533 15.6273 79.4351V79.1331C15.6273 78.6452 15.6273 78.134 15.5574 77.6229V75.439C15.5574 74.9743 15.5574 74.4631 15.6273 73.9752C15.6273 73.9055 15.6273 73.8358 15.6273 73.7429C15.6273 73.1621 15.7204 72.5812 15.7903 72.0004L15.8601 71.4428C15.8601 71.0014 15.9765 70.5599 16.0464 70.0953C16.0464 69.9094 16.093 69.7235 16.1395 69.5377C16.256 68.9104 16.3724 68.2831 16.5121 67.6325C20.1913 50.4862 31.0193 35.338 32.2534 33.7117C35.4436 29.2276 39.8912 25.7891 45.0374 23.791V23.8142Z" fill="#000A8D"/>
<path opacity="0.6" d="M82.8068 54.4127C86.7887 47.3498 89.7228 39.7756 91.5624 31.8763C95.0785 15.4735 87.2545 6.15686 86.9052 5.76189C83.7616 2.36981 78.6852 0 74.5869 0H46.5273L46.8301 0.116167L47.7382 0.464669L48.2039 0.67377C48.5532 0.81317 48.9258 0.999038 49.2751 1.16167L49.5312 1.27784C49.9737 1.48694 50.4161 1.71927 50.8818 1.97484L51.301 2.20718L52.3721 2.78801C52.5118 2.88095 52.6748 2.95065 52.8145 3.06681C53.257 3.32238 53.6761 3.60118 54.0953 3.87998L54.235 3.97292C54.7007 4.27495 55.1897 4.62345 55.6787 4.99519L56.1212 5.32046C56.4704 5.59926 56.843 5.87806 57.1923 6.15686L57.6347 6.50536C58.1237 6.92357 58.6127 7.34177 59.1018 7.7832C71.1173 18.5403 78.4757 33.5026 80.4317 37.8008C82.2713 41.5879 83.226 45.7699 83.226 49.9984C83.2027 51.4853 83.0397 52.949 82.7836 54.4127H82.8068Z" fill="#000A8D"/>
<path opacity="0.6" d="M88.6972 91.8881L102.739 67.5859C98.8732 70.6992 94.4488 73.069 89.7218 74.5327C73.4682 79.7835 55.864 78.2501 52.4876 77.9016C46.9455 77.3672 41.6829 75.2297 37.375 71.6983L37.4449 71.7912C37.8407 72.4417 38.2599 73.1155 38.7023 73.8125L38.842 74.0216C39.3077 74.7651 39.82 75.5085 40.3323 76.252C40.3556 76.2985 40.4022 76.3682 40.4487 76.4146C40.9378 77.1349 41.4733 77.8551 42.0089 78.5754L42.1952 78.8309C42.7075 79.5512 43.2663 80.2714 43.8252 80.9916C43.8951 81.0846 43.9649 81.2007 44.0581 81.2937C44.6169 82.0139 45.1292 82.7109 45.7579 83.4544L46.0141 83.7564C46.5962 84.4534 47.225 85.1737 47.8537 85.8474L48.0865 86.103C48.7385 86.8232 49.4138 87.5435 50.1124 88.2637L50.2754 88.4263C51.0206 89.1698 51.789 89.9133 52.604 90.587C65.062 101.809 77.0775 99.7178 77.5898 99.6249C82.0607 98.6026 86.6713 95.4196 88.7205 91.8881H88.6972Z" fill="#000A8D"/>
</svg>
