<svg width="401" height="126" viewBox="0 0 401 126" fill="none" xmlns="http://www.w3.org/2000/svg">
<rect width="400" height="126" fill="#FFFFFE"/>
<path d="M182.807 61.4669L170.085 39.9793H160.326L178.344 69.0975V87.9431H186.751V69.0975L204.732 39.9793H195.288L182.807 61.4669ZM138.808 58.3814H119.328V39.9793H108.754V87.9431H119.328V67.2684H138.808V87.9431H149.382V39.9793H138.808V58.3814ZM299.432 60.8018H270.859V39.9793H266.285V87.9431H270.859V64.7187H299.413V87.9431H303.987V39.9793H299.413V60.8018H299.432ZM237.434 39.9793H216.361V87.9431H222.749V68.34H237.434C242.286 68.3769 245.952 67.1575 248.434 64.6448C250.934 62.132 252.174 58.6401 252.174 54.1689C252.174 49.6977 250.934 46.2057 248.434 43.7299C245.934 41.2541 242.267 39.9977 237.434 39.9977V39.9793ZM243.249 60.7463C241.564 62.2614 238.915 63.0189 235.267 62.9634H222.749V45.3558H235.267C238.897 45.3558 241.564 46.0948 243.249 47.6099C244.934 49.1249 245.786 51.2866 245.786 54.1504C245.786 57.0142 244.952 59.2128 243.249 60.7278V60.7463ZM398.65 39.9793V86.2248H398.52L365.67 39.9793H363.651V87.9431H365.003V41.6421H365.133L397.983 87.8876H400.002V39.9238L398.668 39.9793H398.65ZM322.783 64.2937H350.393V61.7256H322.783V42.5289H352.133V39.9608H319.82V87.9246H352.43V85.3564H322.783V64.3122V64.2937Z" fill="#000A8D"/>
<path d="M46.9636 29.1895C56.5188 37.7439 62.3704 49.6425 63.9259 53.0605C65.3888 56.0721 66.148 59.3978 66.148 62.7604C66.148 63.9429 66.0554 65.1069 65.8702 66.2709C69.0368 60.6542 71.37 54.631 72.8329 48.3491C75.6291 35.3235 69.4071 27.8962 69.1294 27.5821C66.6295 24.8846 62.5926 23 59.3335 23H37.0195C40.6861 24.4227 44.0748 26.5104 46.9636 29.1895Z" fill="#000A8D"/>
<path d="M16.2431 43.2309C29.1129 39.0553 43.1494 40.2748 45.8345 40.5519C50.2417 40.9768 54.4268 42.6766 57.8526 45.485C54.5564 39.9607 50.501 34.9167 45.816 30.5009C38.7052 24.1082 31.798 23.1475 28.2982 23.1475C27.5019 23.1475 26.7242 23.1844 25.9464 23.3137C22.354 24.1636 18.6874 26.6764 17.0764 29.4663L5.91016 48.8107C8.98411 46.3349 12.5025 44.4503 16.2801 43.2863" fill="#000A8D"/>
<path d="M13.0763 76.8023C15.9836 63.167 24.6128 51.1206 25.5943 49.8273C28.1497 46.2614 31.7052 43.5085 35.8161 41.938C29.3534 42.0119 22.9462 43.0096 16.7613 44.8757C4.0581 48.9774 0.743413 58.0676 0.613789 58.4371C-0.460243 61.9475 -0.0898871 66.3818 1.52116 69.1901L12.6874 88.5161C12.0763 84.6176 12.2059 80.6453 13.0763 76.8023Z" fill="#000A8D"/>
<path d="M71.3506 82.2708C58.4252 86.4464 44.4258 85.227 41.7407 84.9499C37.3335 84.5249 33.1484 82.8251 29.7227 80.0168C33.0188 85.5596 37.0927 90.622 41.8148 95.0378C51.7218 103.962 61.277 102.299 61.6844 102.225C65.2768 101.375 68.9433 98.8623 70.5729 96.054L81.7391 76.728C78.6652 79.2038 75.1468 81.0884 71.3877 82.2524L71.1284 81.4394" fill="#000A8D"/>
<path d="M40.6331 96.3133C30.8187 87.5003 24.7819 74.8996 23.6708 72.4423C21.6894 68.3406 21.0228 63.7401 21.7264 59.2319C18.5599 64.8486 16.2267 70.8903 14.7637 77.1537C11.9676 90.1793 18.1895 97.6067 18.4673 97.9208C20.9672 100.618 25.0041 102.503 28.2632 102.503H50.6142C46.9291 101.08 43.5404 98.9924 40.6331 96.3133Z" fill="#000A8D"/>
<path d="M74.8875 36.9863C75.4986 40.8848 75.369 44.8571 74.5172 48.7001C71.5914 62.317 62.9806 74.3818 61.9992 75.6752C59.4437 79.2595 55.8883 82.0124 51.7773 83.5829C58.2401 83.4905 64.6472 82.5113 70.8322 80.6452C83.5354 76.5435 86.8686 67.4533 86.9982 67.0653C88.0907 63.5549 87.7019 59.1206 86.0908 56.3123L74.9061 36.9863H74.8875Z" fill="#000A8D"/>
<path opacity="0.6" d="M74.9061 36.9863C75.5172 40.8848 75.3875 44.8571 74.5172 48.7001C71.5914 62.317 62.9806 74.3818 61.9992 75.6752C59.4437 79.2595 55.8883 82.0124 51.7773 83.5829C58.2401 83.4905 64.6472 82.5113 70.8322 80.6452C83.5539 76.5435 86.8686 67.4533 86.9982 67.0653C88.0907 63.5549 87.7019 59.1206 86.0908 56.3123L74.9246 36.9863H74.9061Z" fill="#000A8D"/>
<path opacity="0.6" d="M21.7237 59.2314C21.4089 59.7856 21.1126 60.3769 20.7978 60.9496L20.7237 61.079C20.4089 61.6887 20.1126 62.2984 19.7978 62.9451C19.7978 62.9451 19.7978 63.0374 19.7238 63.0744C19.409 63.721 19.1127 64.3677 18.7979 65.0513C18.7979 65.1067 18.7979 65.1437 18.7423 65.1991C18.446 65.8827 18.1498 66.5848 17.8905 67.2869L17.835 67.4163C17.5387 68.1368 17.2609 68.8759 16.9831 69.6149C16.9831 69.6519 16.9646 69.6888 16.9461 69.7258C16.6683 70.4833 16.4091 71.2593 16.1684 72.0353C16.1684 72.0722 16.1684 72.0907 16.1684 72.1276C15.9276 72.9221 15.6869 73.7166 15.4647 74.5295C15.2425 75.3794 15.0388 76.1924 14.8536 77.0423C12.0574 90.0679 18.2794 97.4952 18.5571 97.7909C21.057 100.488 25.0939 102.373 28.3531 102.373H50.704L50.3892 102.262L49.8892 102.059C49.6485 101.966 49.4263 101.856 49.1856 101.745L48.6486 101.505L47.9449 101.154L47.3893 100.876L46.6672 100.47L46.0931 100.137C45.8524 99.9895 45.5931 99.8232 45.3339 99.6754L44.7783 99.3244L43.9821 98.7701C43.7969 98.6408 43.6302 98.5299 43.4451 98.4006C43.2599 98.2712 42.8525 97.9387 42.5377 97.6985L42.0933 97.3474C41.6488 96.9779 41.2414 96.5899 40.7415 96.1834C30.927 87.3704 24.8902 74.7697 23.7792 72.3124C22.3163 69.3008 21.557 65.9751 21.557 62.631C21.52 61.4854 21.5941 60.3399 21.7422 59.2129L21.7237 59.2314Z" fill="#000A8D"/>
<path opacity="0.6" d="M57.8526 45.3925C57.5192 44.8752 57.1859 44.3394 56.8341 43.7851L56.7415 43.6373C56.3526 43.0461 55.9637 42.4548 55.5564 41.8451C55.5378 41.8082 55.5008 41.7712 55.4823 41.7343C55.0749 41.143 54.6305 40.5703 54.2231 39.9606L54.0934 39.7758C53.6675 39.203 53.2416 38.6118 52.7972 38.0575C52.7416 37.9836 52.6861 37.9097 52.6305 37.8358C52.1676 37.2631 51.7232 36.6903 51.2417 36.1175L51.0565 35.8958C50.5751 35.3231 50.0751 34.7503 49.5751 34.1776L49.4084 33.9928C48.8714 33.4016 48.3344 32.8473 47.7789 32.2745C47.7418 32.2376 47.7048 32.2006 47.6678 32.1637C47.0752 31.5724 46.4641 30.9997 45.8345 30.4454C45.4271 30.0944 45.0382 29.7618 44.6494 29.4292L44.3346 29.1706C44.0013 28.9119 43.6679 28.6532 43.3346 28.413L43.1309 28.2652C42.742 27.9881 42.3532 27.7109 41.9828 27.4708L41.6865 27.286C41.3902 27.0828 41.0754 26.898 40.8347 26.7317L40.5384 26.5654C40.1681 26.3437 39.7977 26.1405 39.4459 25.9557L39.1866 25.8264L38.3348 25.4199L38.0015 25.2721L36.983 24.8287L36.8163 24.7733C36.5201 24.6624 36.2238 24.5515 35.9645 24.4592L35.6127 24.3483L34.872 24.1081L34.6127 24.0342L33.7609 23.794L33.4091 23.7201L32.8165 23.5908L32.4276 23.4799L31.6499 23.3506L31.3351 23.2952L30.8536 23.2397H29.9648C29.8351 23.2397 29.7055 23.2397 29.5944 23.2397H26.002C22.4095 24.0896 18.743 26.6024 17.1319 29.3923L5.91016 48.7552L6.11385 48.6073L6.72494 48.127L7.03974 47.8868C7.29899 47.702 7.55824 47.5173 7.81749 47.3325L8.00267 47.2032C8.33599 46.9815 8.68783 46.7597 9.03966 46.538L9.33595 46.3533L10.1878 45.8729L10.5211 45.6881L11.6507 45.0969H11.7247C12.1321 44.8937 12.558 44.6904 13.021 44.5057L13.3728 44.3579L14.3543 43.9144L14.7617 43.7666C15.2246 43.5819 15.7246 43.4156 16.2246 43.2493C29.0944 39.0737 43.1494 40.2931 45.816 40.5703C50.2232 40.9952 54.4082 42.695 57.834 45.5034V45.4295L57.8526 45.3925Z" fill="#000A8D"/>
<path opacity="0.6" d="M35.8161 41.9379H35.7235L33.8347 42.0118H33.6125L31.5755 42.1411H31.3904C30.6867 42.1966 29.9645 42.252 29.2423 42.3259H29.0571C28.3164 42.3998 27.5757 42.4922 26.8165 42.603H26.6498C25.8906 42.7139 25.1128 42.8248 24.3351 42.9541H24.2055C23.4277 43.0834 22.6314 43.2497 21.8352 43.416H21.7241C20.9093 43.6008 20.113 43.804 19.2982 44.0072H19.2427C18.3909 44.2289 17.5946 44.4691 16.7798 44.7278C4.0581 48.9773 0.743413 58.0675 0.613789 58.437C-0.460243 61.9475 -0.0898871 66.3817 1.52116 69.1901L12.6874 88.516C12.6874 88.516 12.6874 88.3497 12.6874 88.2758C12.6874 88.0172 12.6133 87.7585 12.5763 87.4998L12.5207 87.1118C12.5207 86.7977 12.4652 86.5021 12.4281 86.1695V85.9294C12.4281 85.5414 12.4281 85.1349 12.3726 84.7284V82.9917C12.3726 82.6222 12.3726 82.2157 12.4281 81.8277C12.4281 81.7723 12.4281 81.7168 12.4281 81.6429C12.4281 81.181 12.5022 80.7191 12.5578 80.2572L12.6133 79.8138C12.6133 79.4627 12.7059 79.1117 12.7615 78.7422C12.7615 78.5944 12.7985 78.4466 12.8355 78.2988C12.9281 77.7999 13.0207 77.3011 13.1318 76.7837C16.0576 63.1484 24.6684 51.102 25.6498 49.8087C28.1868 46.2428 31.7237 43.5084 35.8161 41.9194V41.9379Z" fill="#000A8D"/>
<path opacity="0.6" d="M65.8507 66.2709C69.0173 60.6542 71.3505 54.631 72.8134 48.3491C75.6096 35.305 69.3876 27.8962 69.1098 27.5821C66.6099 24.8846 62.5731 23 59.3139 23H37L37.2407 23.0924L37.9629 23.3695L38.3333 23.5358C38.6111 23.6467 38.9073 23.7945 39.1851 23.9238L39.3888 24.0162C39.7406 24.1825 40.0925 24.3672 40.4628 24.5705L40.7961 24.7552L41.648 25.2171C41.7591 25.291 41.8887 25.3465 41.9998 25.4388C42.3516 25.6421 42.685 25.8638 43.0183 26.0855L43.1294 26.1594C43.4997 26.3996 43.8886 26.6767 44.2775 26.9723L44.6293 27.231C44.9071 27.4527 45.2034 27.6744 45.4811 27.8962L45.833 28.1733C46.2219 28.5059 46.6107 28.8384 46.9996 29.1895C56.5548 37.7439 62.4064 49.6425 63.9619 53.0605C65.4248 56.0721 66.184 59.3978 66.184 62.7604C66.1655 63.9429 66.0359 65.1069 65.8322 66.2709H65.8507Z" fill="#000A8D"/>
<path opacity="0.6" d="M70.5359 96.0725L81.7021 76.7466C78.6281 79.2224 75.1098 81.1069 71.3506 82.2709C58.4252 86.4465 44.4258 85.2271 41.7407 84.9499C37.3335 84.525 33.1484 82.8252 29.7227 80.0168L29.7782 80.0907C30.093 80.6081 30.4263 81.1439 30.7782 81.6982L30.8893 81.8644C31.2596 82.4557 31.667 83.0469 32.0744 83.6381C32.0929 83.6751 32.13 83.7305 32.167 83.7675C32.5559 84.3402 32.9818 84.913 33.4077 85.4857L33.5558 85.689C33.9632 86.2617 34.4077 86.8345 34.8521 87.4073C34.9076 87.4812 34.9632 87.5735 35.0373 87.6474C35.4817 88.2202 35.8891 88.7745 36.3891 89.3657L36.5928 89.6059C37.0557 90.1602 37.5557 90.7329 38.0557 91.2687L38.2408 91.472C38.7593 92.0447 39.2964 92.6175 39.8519 93.1903L39.9815 93.3196C40.5741 93.9108 41.1852 94.5021 41.8333 95.0379C51.7403 103.962 61.2955 102.299 61.7029 102.225C65.2583 101.412 68.9248 98.8809 70.5544 96.0725H70.5359Z" fill="#000A8D"/>
</svg>
