<svg width="464" height="133" viewBox="0 0 464 133" fill="none" xmlns="http://www.w3.org/2000/svg">
<path d="M121.913 76.9151C119.089 75.2745 115.904 74.8014 112.749 74.6981C110.102 74.6094 106.158 72.9092 106.158 68.0461C106.173 66.2943 106.871 64.6182 108.102 63.3751C109.334 62.1323 111.001 61.4215 112.749 61.3946C115.904 61.2838 119.089 60.8106 121.913 59.1772C124.448 57.7055 126.553 55.5909 128.015 53.0459C129.477 50.5009 130.246 47.615 130.244 44.678C130.242 41.7409 129.469 38.8562 128.002 36.3133C126.536 33.7705 124.429 31.6591 121.891 30.1911C119.354 28.7232 116.476 27.9503 113.546 27.9502C110.616 27.9501 107.738 28.7227 105.2 30.1904C102.662 31.6581 100.555 33.7693 99.0883 36.312C97.622 38.8547 96.8487 41.7394 96.8461 44.6764C96.8461 47.921 97.9961 50.9069 99.4706 53.6784C100.702 56.0066 101.329 60.3304 97.0895 62.7765C95.5571 63.6311 93.752 63.8501 92.0608 63.3855C90.3697 62.9214 88.9274 61.8112 88.0433 60.2933C86.3845 57.6325 84.357 55.1197 81.5776 53.5159C79.039 52.0479 76.1597 51.2756 73.229 51.2764C70.2983 51.2773 67.4194 52.0514 64.8817 53.5209C62.3439 54.9904 60.2366 57.1035 58.7715 59.648C57.3065 62.1926 56.5352 65.0786 56.5352 68.0166C56.5352 70.9546 57.3065 73.8409 58.7715 76.3855C60.2366 78.9297 62.3439 81.0431 64.8817 82.5123C67.4194 83.9818 70.2983 84.7559 73.229 84.757C76.1597 84.7578 79.039 83.9856 81.5776 82.5175C84.3792 80.8915 86.3845 78.4008 88.0433 75.7402C89.4072 73.5227 92.806 70.7734 97.0895 73.2566C98.5939 74.1602 99.6853 75.6189 100.129 77.3202C100.573 79.021 100.334 80.8286 99.4635 82.3547C97.989 85.1265 96.8461 88.1124 96.8461 91.357C96.8465 94.2965 97.6182 97.1839 99.0842 99.7296C100.55 102.275 102.659 104.389 105.198 105.859C107.737 107.329 110.618 108.103 113.55 108.103C116.482 108.104 119.363 107.33 121.902 105.861C124.442 104.392 126.551 102.279 128.018 99.7338C129.485 97.1884 130.257 94.3013 130.258 91.3618C130.26 88.4223 129.489 85.5345 128.024 82.9884C126.559 80.4419 124.451 78.3271 121.913 76.856V76.9151Z" fill="#000A8D"/>
<path d="M153.238 42.6453H164.864V48.144C166.415 46.253 168.363 44.7286 170.569 43.6797C172.775 42.6308 175.185 42.0832 177.627 42.0762C179.283 42.014 180.939 42.2059 182.537 42.6453V55.9488C182.537 55.9488 180.93 55.3796 177.059 55.3796C170.424 55.3796 166 59.8143 166 66.4659V93.6273H153.238V42.6453ZM215.72 42.6453H227.347V47.575C231.316 44.0616 236.421 42.1083 241.716 42.0762C254.478 42.0762 265.537 53.1624 265.537 68.1361C265.537 83.1102 254.478 94.1963 241.716 94.1963C236.84 94.2086 232.129 92.4224 228.482 89.1778V111.919H215.72V42.6453ZM252.775 68.1361C252.775 59.7994 247.29 54.3006 240.109 54.3006C232.928 54.3006 227.347 59.7773 227.347 68.1361C227.347 76.4953 232.921 81.9498 240.116 81.9498C247.312 81.9498 252.775 76.4803 252.775 68.1361ZM274.892 42.6453H286.519V47.575C290.49 44.0634 295.593 42.1103 300.888 42.0762C313.65 42.0762 324.709 53.1624 324.709 68.1361C324.709 83.1102 313.65 94.1963 300.888 94.1963C296.013 94.2045 291.304 92.419 287.655 89.1778V111.919H274.892V42.6453ZM311.954 68.1361C311.954 59.7994 306.469 54.3006 299.281 54.3006C292.093 54.3006 286.519 59.7773 286.519 68.1361C286.519 76.4953 292.1 81.9498 299.281 81.9498C306.462 81.9498 311.954 76.4803 311.954 68.1361ZM334.072 23.7912H346.834V93.6273H334.072V23.7912ZM356.19 68.1361C356.19 53.7389 367.816 42.0762 381.617 42.0762C394.94 42.0762 405.999 52.6007 405.999 68.1361C405.945 69.8243 405.755 71.5049 405.431 73.162H369.991C371.126 78.0918 375.034 81.9498 381.617 81.9498C387.574 81.9498 389.941 79.2076 389.941 79.2076H403.743C401.184 85.8595 393.244 94.1742 381.625 94.1742C367.816 94.1963 356.19 82.5409 356.19 68.1361ZM393.79 64.256C393.209 61.4437 391.68 58.918 389.459 57.1046C387.237 55.2912 384.46 54.3011 381.595 54.3011C378.731 54.3011 375.953 55.2912 373.732 57.1046C371.511 58.918 369.982 61.4437 369.401 64.256H393.79ZM189.983 29.2826C189.983 27.3597 190.745 25.5155 192.101 24.1558C193.457 22.7961 195.297 22.0322 197.215 22.0322C199.133 22.0322 200.973 22.7961 202.33 24.1558C203.686 25.5155 204.448 27.3597 204.448 29.2826C204.448 31.2056 203.686 33.0497 202.33 34.4094C200.973 35.7691 199.133 36.533 197.215 36.533C195.297 36.533 193.457 35.7691 192.101 34.4094C190.745 33.0497 189.983 31.2056 189.983 29.2826ZM190.838 42.6453H203.622V93.6419H190.86L190.838 42.6453Z" fill="#000A8D"/>
</svg>
