<svg width="182" height="24" viewBox="0 0 182 24" fill="none" xmlns="http://www.w3.org/2000/svg">
<g clip-path="url(#clip0_101_2)">
<path fill-rule="evenodd" clip-rule="evenodd" d="M37.0379 4.35413C41.6192 4.35413 44.4012 7.65906 44.4012 11.989C44.4012 16.3189 41.6192 19.6447 37.0379 19.6447C32.4154 19.6447 29.6544 16.3397 29.6544 11.989C29.6544 7.63824 32.4154 4.35413 37.0379 4.35413ZM37.0379 17.03C39.9876 17.03 41.41 15.0428 41.41 11.989C41.41 8.95597 39.9666 6.96877 37.0379 6.96877C34.0888 6.96877 32.6455 8.95597 32.6455 11.989C32.6455 15.0428 34.0888 17.03 37.0379 17.03Z" fill="white"></path>
<path fill-rule="evenodd" clip-rule="evenodd" d="M7.42127 4.6261H1.71094V19.3727H7.92331C11.7303 19.3727 14.4495 18.6614 14.4495 15.4193C14.4495 13.0975 13.0062 11.8216 10.6844 11.5915C11.9184 11.3406 13.3617 10.441 13.3617 8.20281C13.3617 5.33724 11.3328 4.6261 7.42127 4.6261ZM10.5378 8.76776C10.5378 10.4412 9.38745 10.5457 7.67219 10.5457H4.63921V6.9688H7.67219C9.42913 6.9688 10.5378 7.03147 10.5378 8.76776ZM11.5209 14.8756C11.5209 16.7581 10.245 16.9045 8.06954 16.9045L4.63921 16.9047V12.8467H8.06954C10.2031 12.8467 11.5209 13.0558 11.5209 14.8756Z" fill="white"></path>
<path d="M17.7532 4.6261V17.7412C17.7532 18.8082 18.3598 19.3729 19.4055 19.3729H27.8981V16.8418H20.6608V4.6261H17.7532Z" fill="white"></path>
<path d="M55.1094 4.35413C50.487 4.35413 47.684 7.65897 47.684 11.9888C47.684 16.3395 50.4869 19.6445 55.1094 19.6445C59.1259 19.6445 61.8031 17.3645 62.2425 13.6622H59.2513C58.9373 15.7749 57.4104 17.03 55.1304 17.03C52.3484 17.03 50.6752 15.1892 50.6752 11.989C50.6752 8.8094 52.3484 6.96877 55.1304 6.96877C57.4107 6.96877 58.9373 8.20298 59.2513 10.3156H62.2425C61.8031 6.63413 59.1255 4.35413 55.1094 4.35413Z" fill="white"></path>
<path d="M65.6717 4.6261H68.5794V10.7548L74.9171 4.6261H78.536L71.1941 11.7589L78.6408 19.3727H74.8546L68.5794 12.9092V19.3727H65.6717V4.6261Z" fill="white"></path>
<path d="M112.147 4.35413C107.628 4.35413 104.825 7.40814 104.825 12.1145C104.825 16.5279 107.252 19.6238 111.686 19.6238C114.782 19.6238 116.121 18.0341 116.665 16.8418V19.3729H119.572V12.8675C119.572 11.8007 118.966 11.236 117.899 11.236H112.042V13.4533H116.623C116.623 15.7331 115.075 17.0929 112.377 17.0929C109.114 17.0929 107.817 14.9801 107.817 12.1145C107.817 8.91412 109.427 6.86422 112.293 6.86422C114.385 6.86422 115.87 8.01473 116.163 9.89721H119.154C118.652 6.52957 115.912 4.35413 112.147 4.35413Z" fill="white"></path>
<path fill-rule="evenodd" clip-rule="evenodd" d="M123.085 4.6261H129.109C132.498 4.6261 135.322 5.33724 135.322 8.60033C135.322 10.9012 134.004 11.968 132.435 12.3236H133.251C134.862 12.3236 135.406 13.3278 135.406 14.4362V19.3727H132.519V13.976H126.014V19.3727H123.085V4.6261ZM129.109 11.4661C131.117 11.4661 132.414 11.2987 132.414 9.31168C132.414 7.26177 131.076 7.15705 129.109 7.15705H126.014V11.4661H129.109Z" fill="white"></path>
<path d="M149.753 4.6261H138.709V19.3729H149.753V16.8418H141.637V13.2022H148.707V10.7758H141.637V7.15705H149.753V4.6261Z" fill="white"></path>
<path d="M152.911 4.6261H163.955V7.15705H155.839V10.7758H162.91V13.2022H155.839V16.8418H163.955V19.3729H152.911V4.6261Z" fill="white"></path>
<path d="M172.572 4.6261H167.113V19.3727H170.02V5.58819L175.752 19.3727H181.211V4.6261H178.303V18.4106L172.572 4.6261Z" fill="white"></path>
<path d="M99.8905 -0.0488281L82.4307 24.0477H85.6717L103.121 -0.0488281H99.8905Z" fill="#31DF8B"></path>
</g>
<defs>
<clipPath id="clip0_101_2">
<rect width="182" height="24" fill="white"></rect>
</clipPath>
</defs>
</svg>