<svg width="569" height="134" viewBox="0 0 569 134" fill="none" xmlns="http://www.w3.org/2000/svg">
<g clip-path="url(#clip0_847_1272)">
<path d="M186.629 23.25H217.609V28.78H205.859V58.13H198.389V28.78H186.639V23.25H186.629Z" fill="#000A8D"/>
<path d="M223.52 23.25H230.95V37.7H245.61V23.25H253.06V58.13H245.61V43.16H230.95V58.13H223.52V23.25Z" fill="#000A8D"/>
<path d="M261.398 23.25H286.728V28.78H268.828V37.51H284.318V43.02H268.828V52.62H287.228V58.13H261.408V23.25H261.398Z" fill="#000A8D"/>
<path d="M308.738 23.25H316.168V37.7H330.828V23.25H338.278V58.13H330.828V43.16H316.168V58.13H308.738V23.25Z" fill="#000A8D"/>
<path d="M346.629 23.25H363.919C367.089 23.25 369.679 24 371.699 25.5C373.719 27 374.729 29.14 374.729 31.93C374.729 33.03 374.569 34.03 374.259 34.93C373.939 35.83 373.569 36.55 373.119 37.11C372.679 37.66 372.139 38.15 371.509 38.58C370.889 39.01 370.349 39.32 369.879 39.53C369.409 39.72 368.909 39.88 368.389 40.03V40.53C372.929 41.62 375.199 44.38 375.199 48.81C375.199 50.8 374.679 52.51 373.639 53.94C372.619 55.37 371.269 56.44 369.599 57.13C367.929 57.81 366.039 58.15 363.919 58.15H346.629V23.25ZM354.059 28.78V37.7H361.979C363.619 37.7 364.939 37.32 365.929 36.56C366.919 35.8 367.419 34.69 367.419 33.23C367.419 31.77 366.919 30.64 365.929 29.9C364.949 29.16 363.639 28.79 361.979 28.79H354.059V28.78ZM354.059 43.21V52.62H362.079C363.829 52.62 365.239 52.23 366.289 51.46C367.359 50.67 367.899 49.49 367.899 47.91C367.899 46.33 367.359 45.16 366.289 44.39C365.239 43.6 363.829 43.21 362.079 43.21H354.059Z" fill="#000A8D"/>
<path d="M379.168 58.1407V57.4107L391.088 23.2607H400.478L412.398 57.4107V58.1407H404.928L402.378 50.3407H389.208L386.628 58.1407H379.178H379.168ZM390.828 44.9207H400.718L396.038 30.5907H395.538L390.828 44.9207Z" fill="#000A8D"/>
<path d="M447.199 33.97C447.199 36.59 446.469 38.79 445.019 40.59C443.569 42.37 441.629 43.59 439.199 44.23L446.839 57.4V58.13H439.109L431.639 44.72H425.799V58.13H418.379V23.25H435.379C438.789 23.25 441.609 24.21 443.849 26.14C446.089 28.06 447.209 30.67 447.209 33.97H447.199ZM425.799 28.79V39.2H433.889C435.699 39.2 437.139 38.75 438.219 37.85C439.289 36.94 439.829 35.64 439.829 33.97C439.829 32.3 439.289 31.04 438.219 30.14C437.149 29.24 435.709 28.79 433.889 28.79H425.799Z" fill="#000A8D"/>
<path d="M189.039 71.6904H213.209V77.2204H196.469V86.3704H211.269V91.8804H196.469V106.57H189.039V71.6904Z" fill="#000A8D"/>
<path d="M217.957 89.1409C217.957 85.5509 218.717 82.3809 220.227 79.6609C221.757 76.9309 223.907 74.8309 226.687 73.3509C229.457 71.8709 232.667 71.1309 236.307 71.1309C241.837 71.1309 246.277 72.7809 249.617 76.0709C252.977 79.3509 254.657 83.7109 254.657 89.1509C254.657 94.5909 252.977 98.9309 249.617 102.231C246.257 105.531 241.817 107.171 236.307 107.171C232.677 107.171 229.477 106.431 226.687 104.951C223.917 103.451 221.757 101.341 220.227 98.6109C218.717 95.8809 217.957 92.7309 217.957 89.1509V89.1409ZM225.407 89.1409C225.407 92.9109 226.377 95.9209 228.317 98.1709C230.267 100.411 232.937 101.531 236.307 101.531C239.677 101.531 242.367 100.411 244.327 98.1709C246.277 95.9309 247.257 92.9209 247.257 89.1409C247.257 85.3609 246.277 82.3409 244.327 80.1109C242.377 77.8609 239.697 76.7309 236.307 76.7309C232.917 76.7309 230.267 77.8609 228.317 80.1109C226.377 82.3509 225.407 85.3609 225.407 89.1409Z" fill="#000A8D"/>
<path d="M261.26 71.6904H268.71V94.3204C268.71 96.6204 269.36 98.4004 270.65 99.6604C271.94 100.91 273.79 101.53 276.18 101.53C278.57 101.53 280.41 100.91 281.69 99.6604C282.98 98.4104 283.63 96.6304 283.63 94.3204V71.6904H291.1V93.8704C291.1 98.0204 289.81 101.27 287.22 103.64C284.65 105.99 280.97 107.16 276.18 107.16C271.39 107.16 267.82 105.98 265.18 103.61C262.56 101.24 261.25 98.0004 261.25 93.8704V71.6904H261.26Z" fill="#000A8D"/>
<path d="M299.238 71.6904H307.468L321.748 95.9104H322.248V71.6904H329.368V106.57H321.188L306.858 82.3504H306.358V106.57H299.238V71.6904Z" fill="#000A8D"/>
<path d="M337.688 71.6904H351.307C356.837 71.6904 361.228 73.2704 364.478 76.4204C367.738 79.5604 369.378 83.8004 369.378 89.1404C369.378 94.4804 367.748 98.7304 364.478 101.86C361.228 105 356.837 106.57 351.307 106.57H337.688V71.6904ZM345.117 77.2204V101.06H351.168C354.528 101.06 357.148 99.9904 359.038 97.8404C360.948 95.7004 361.897 92.7904 361.897 89.1404C361.897 85.4904 360.948 82.5804 359.038 80.4404C357.148 78.3004 354.518 77.2204 351.168 77.2204H345.117Z" fill="#000A8D"/>
<path d="M372.5 106.57V105.84L384.42 71.6904H393.81L405.73 105.84V106.57H398.26L395.71 98.7704H382.54L379.96 106.57H372.51H372.5ZM384.16 93.3504H394.05L389.37 79.0204H388.87L384.16 93.3504Z" fill="#000A8D"/>
<path d="M405.887 71.6904H436.867V77.2204H425.117V106.57H417.647V77.2204H405.897V71.6904H405.887Z" fill="#000A8D"/>
<path d="M442.777 71.6904H450.207V106.57H442.777V71.6904Z" fill="#000A8D"/>
<path d="M456.938 89.1409C456.938 85.5509 457.697 82.3809 459.207 79.6609C460.737 76.9309 462.888 74.8309 465.668 73.3509C468.438 71.8709 471.648 71.1309 475.288 71.1309C480.818 71.1309 485.258 72.7809 488.598 76.0709C491.958 79.3509 493.638 83.7109 493.638 89.1509C493.638 94.5909 491.958 98.9309 488.598 102.231C485.238 105.531 480.798 107.171 475.288 107.171C471.658 107.171 468.458 106.431 465.668 104.951C462.898 103.451 460.737 101.341 459.207 98.6109C457.697 95.8809 456.938 92.7309 456.938 89.1509V89.1409ZM464.388 89.1409C464.388 92.9109 465.357 95.9209 467.297 98.1709C469.257 100.411 471.918 101.531 475.288 101.531C478.658 101.531 481.347 100.411 483.307 98.1709C485.267 95.9309 486.247 92.9209 486.247 89.1409C486.247 85.3609 485.267 82.3409 483.307 80.1109C481.357 77.8609 478.688 76.7309 475.288 76.7309C471.888 76.7309 469.247 77.8609 467.297 80.1109C465.357 82.3509 464.388 85.3609 464.388 89.1409Z" fill="#000A8D"/>
<path d="M500.43 71.6904H508.66L522.94 95.9104H523.44V71.6904H530.56V106.57H522.38L508.05 82.3504H507.55V106.57H500.43V71.6904Z" fill="#000A8D"/>
<path d="M147.899 74.3904C145.939 74.3904 144.139 75.0404 142.689 76.1304L134.939 69.5404C135.309 68.7004 135.519 67.7804 135.519 66.8004C135.519 65.8204 135.299 64.8604 134.909 64.0104L142.749 57.2104C144.189 58.2704 145.969 58.9004 147.899 58.9004C152.709 58.9004 156.619 55.0004 156.619 50.1804C156.619 45.3604 152.719 41.4604 147.899 41.4604C143.989 41.4604 140.669 44.0404 139.569 47.5904L129.429 46.8104C129.019 44.9004 127.809 43.3004 126.159 42.3604L128.499 32.2604C128.499 32.2604 128.519 32.2604 128.529 32.2604C133.339 32.2604 137.249 28.3604 137.249 23.5404C137.249 18.7204 133.349 14.8204 128.529 14.8204C123.709 14.8204 119.809 18.7204 119.809 23.5404C119.809 24.5204 119.979 25.4604 120.279 26.3404L111.609 31.6704C110.409 30.6004 108.829 29.9404 107.099 29.9404C106.849 29.9404 106.599 29.9604 106.349 29.9804L102.309 20.4304C104.499 18.8504 105.929 16.2804 105.929 13.3704C105.929 8.56039 102.029 4.65039 97.2086 4.65039C92.3886 4.65039 88.4886 8.55039 88.4886 13.3704C88.4886 16.3104 89.9486 18.9104 92.1786 20.4804L88.2986 29.8804C88.0686 29.8604 87.8386 29.8504 87.6086 29.8504C85.8486 29.8504 84.2586 30.5204 83.0486 31.6204L74.1586 26.2704C74.4386 25.4104 74.5986 24.5004 74.5986 23.5504C74.5986 18.7404 70.6986 14.8304 65.8786 14.8304C61.0586 14.8304 57.1586 18.7304 57.1586 23.5504C57.1586 28.3704 61.0586 32.2704 65.8786 32.2704C65.9186 32.2704 65.9586 32.2704 65.9986 32.2704L68.3886 42.1604C66.7486 43.1104 65.5486 44.7304 65.1486 46.6504L54.8286 47.5404C53.6986 44.0304 50.4186 41.4804 46.5286 41.4804C41.7186 41.4804 37.8086 45.3804 37.8086 50.2004C37.8086 55.0204 41.7086 58.9204 46.5286 58.9204C48.4886 58.9204 50.2886 58.2704 51.7386 57.1804L59.4886 63.7804C59.1186 64.6204 58.9086 65.5404 58.9086 66.5104C58.9086 67.4804 59.1286 68.4504 59.5186 69.3004L51.6786 76.1004C50.2386 75.0404 48.4586 74.4104 46.5286 74.4104C41.7186 74.4104 37.8086 78.3104 37.8086 83.1304C37.8086 87.9504 41.7086 91.8504 46.5286 91.8504C50.4386 91.8504 53.7586 89.2704 54.8586 85.7204L64.9886 86.5004C65.3986 88.4104 66.6186 90.0204 68.2586 90.9604L65.9186 101.06C65.9186 101.06 65.8986 101.06 65.8786 101.06C61.0686 101.06 57.1586 104.96 57.1586 109.78C57.1586 114.6 61.0586 118.5 65.8786 118.5C70.6986 118.5 74.5986 114.6 74.5986 109.78C74.5986 108.8 74.4286 107.86 74.1286 106.98L82.7986 101.65C83.9986 102.72 85.5786 103.38 87.3086 103.38C87.5586 103.38 87.8086 103.36 88.0586 103.34L92.0986 112.89C89.9086 114.47 88.4786 117.04 88.4786 119.96C88.4786 124.77 92.3786 128.68 97.1986 128.68C102.019 128.68 105.919 124.78 105.919 119.96C105.919 117.02 104.459 114.43 102.229 112.85L106.109 103.45C106.339 103.47 106.559 103.48 106.799 103.48C108.559 103.48 110.149 102.81 111.359 101.71L120.239 107.06C119.959 107.92 119.799 108.83 119.799 109.79C119.799 114.6 123.699 118.51 128.519 118.51C133.339 118.51 137.239 114.61 137.239 109.79C137.239 104.97 133.339 101.07 128.519 101.07C128.479 101.07 128.449 101.07 128.409 101.07L126.019 91.1804C127.659 90.2304 128.859 88.6104 129.249 86.7004L139.579 85.8104C140.709 89.3204 143.989 91.8604 147.879 91.8604C152.689 91.8604 156.599 87.9604 156.599 83.1404C156.599 78.3204 152.699 74.4204 147.879 74.4204L147.899 74.3904ZM122.269 103.7L113.379 98.3504C113.519 97.8104 113.599 97.2404 113.599 96.6604C113.599 92.9204 110.559 89.8804 106.819 89.8804C103.079 89.8804 100.039 92.9204 100.039 96.6604C100.039 98.7904 101.019 100.68 102.549 101.93L98.6686 111.34C98.1986 111.26 97.7186 111.21 97.2186 111.21C96.6986 111.21 96.1886 111.26 95.6986 111.35L91.6586 101.8C93.1686 100.56 94.1186 98.6804 94.1186 96.5704C94.1186 92.8304 91.0786 89.7904 87.3386 89.7904C83.5986 89.7904 80.5586 92.8304 80.5586 96.5704C80.5586 97.1804 80.6486 97.7604 80.7986 98.3204L72.1286 103.65C71.4386 102.94 70.6186 102.36 69.7186 101.92L72.0686 91.8104C75.6186 91.5904 78.4286 88.6504 78.4286 85.0504C78.4286 81.4504 75.3886 78.2704 71.6486 78.2704C68.7586 78.2704 66.2986 80.0804 65.3286 82.6204L55.1786 81.8404C55.0286 80.8304 54.7186 79.8804 54.2586 79.0104L62.0886 72.2204C63.1386 72.8904 64.3886 73.2804 65.7286 73.2804C69.4686 73.2804 72.5086 70.2404 72.5086 66.5004C72.5086 62.7604 69.4686 59.7204 65.7286 59.7204C64.3686 59.7204 63.0986 60.1304 62.0386 60.8204L54.2886 54.2304C54.7386 53.3604 55.0486 52.4104 55.1886 51.4004L65.5286 50.5104C66.5186 53.0204 68.9686 54.8004 71.8286 54.8004C75.5686 54.8004 78.6086 51.7604 78.6086 48.0204C78.6086 44.2804 75.7686 41.4504 72.1886 41.2604L69.7986 31.3704C70.6986 30.9204 71.5086 30.3304 72.1986 29.6104L81.0886 34.9604C80.9486 35.5004 80.8686 36.0704 80.8686 36.6504C80.8686 40.3904 83.9086 43.4304 87.6486 43.4304C91.3886 43.4304 94.4286 40.3904 94.4286 36.6504C94.4286 34.5204 93.4486 32.6304 91.9186 31.3904L95.7986 21.9804C96.2686 22.0604 96.7486 22.1104 97.2386 22.1104C97.7586 22.1104 98.2686 22.0604 98.7686 21.9704L102.809 31.5204C101.309 32.7604 100.349 34.6404 100.349 36.7504C100.349 40.4904 103.389 43.5304 107.129 43.5304C110.869 43.5304 113.909 40.4904 113.909 36.7504C113.909 36.1404 113.819 35.5604 113.669 35.0004L122.329 29.6704C123.029 30.3804 123.839 30.9604 124.749 31.4004L122.399 41.5104C118.849 41.7304 116.039 44.6704 116.039 48.2704C116.039 51.8704 119.079 55.0504 122.819 55.0504C125.709 55.0504 128.169 53.2404 129.139 50.7004L139.289 51.4804C139.439 52.4904 139.749 53.4404 140.209 54.3104L132.379 61.1004C131.329 60.4304 130.079 60.0404 128.749 60.0404C125.009 60.0404 121.969 63.0804 121.969 66.8204C121.969 70.5604 125.009 73.6004 128.749 73.6004C130.109 73.6004 131.379 73.1904 132.439 72.5004L140.179 79.0904C139.729 79.9604 139.419 80.9104 139.279 81.9204L128.939 82.8104C127.949 80.3004 125.499 78.5204 122.639 78.5204C118.899 78.5204 115.859 81.5604 115.859 85.3004C115.859 89.0404 118.709 91.8804 122.279 92.0604L124.669 101.95C123.769 102.4 122.959 102.99 122.269 103.71V103.7Z" fill="#000A8D"/>
</g>
<defs>
<clipPath id="clip0_847_1272">
<rect width="568.4" height="133.3" fill="white"/>
</clipPath>
</defs>
</svg>
