<svg width="616" height="183" viewBox="0 0 616 183" fill="none" xmlns="http://www.w3.org/2000/svg">
<path d="M359.57 22.4128C359.7 22.4213 359.831 22.4298 359.962 22.4383C360.012 23.5262 360.09 24.614 360.111 25.7019C360.172 29.1829 360.19 32.6657 360.262 36.1468C360.323 39.1452 360.455 42.1418 360.509 45.1402C360.56 47.9125 360.555 50.6848 360.565 53.457C360.567 53.9381 360.747 54.1981 361.259 54.1981C363.095 54.1947 364.932 54.227 366.768 54.1777C367.005 54.1709 367.435 53.7732 367.435 53.5556C367.429 51.2372 367.382 48.9187 367.297 46.6037C367.16 42.8217 366.961 39.0398 366.834 35.2578C366.644 29.6351 366.493 24.0106 366.326 18.3861C366.276 16.7748 366.215 15.1634 366.173 13.5504C366.161 13.0778 366.093 12.7158 365.488 12.7192C362.804 12.7379 360.119 12.7192 357.437 12.7702C357.14 12.7753 356.707 13.0829 356.58 13.3617C356.182 14.232 355.887 15.1498 355.575 16.0592C353.95 20.7862 352.338 25.5183 350.713 30.2453C349.448 33.9303 348.173 37.6103 346.906 41.2937C346.484 42.5209 346.097 43.7617 345.652 44.9787C345.56 45.2303 345.275 45.4104 345.08 45.6229C344.921 45.3883 344.719 45.1708 344.615 44.9124C344.48 44.5759 344.446 44.2002 344.327 43.8569C342.325 38.0641 340.317 32.2731 338.307 26.4837C336.803 22.1511 335.287 17.8235 333.792 13.4892C333.624 13.003 333.4 12.7328 332.839 12.7345C330.127 12.7481 327.414 12.7345 324.703 12.7209C324.172 12.7175 323.95 12.9317 323.933 13.4773C323.736 19.3312 323.521 25.1834 323.319 31.0357C323.229 33.638 323.165 36.2386 323.083 38.8409C322.936 43.6478 322.799 48.4564 322.62 53.2633C322.592 54.052 322.902 54.2253 323.609 54.2066C325.162 54.1658 326.719 54.1471 328.271 54.21C329.054 54.2423 329.32 53.9857 329.334 53.2157C329.429 47.7 329.583 42.186 329.659 36.672C329.722 32.1694 329.7 27.6668 329.727 23.1641C329.727 22.9007 329.843 22.6389 329.905 22.3755C329.992 22.3738 330.078 22.3721 330.166 22.3704C330.511 23.3426 330.855 24.3149 331.199 25.2888C332.637 29.3648 334.075 33.4425 335.513 37.5185C337.393 42.8489 339.279 48.1776 341.141 53.5148C341.322 54.0367 341.6 54.21 342.131 54.2032C343.997 54.1794 345.862 54.1573 347.725 54.2134C348.451 54.2355 348.809 53.9806 349.019 53.3092C349.389 52.1261 349.811 50.9601 350.216 49.7907C351.902 44.9294 353.591 40.0681 355.278 35.2069C356.54 31.5711 357.803 27.9353 359.053 24.2962C359.265 23.6809 359.405 23.0401 359.578 22.4111L359.57 22.4128ZM399.022 118.138C399.022 117.524 399.022 117.021 399.022 116.519C399.024 103.549 399.019 90.5778 399.046 77.6071C399.046 76.8354 398.805 76.6416 398.079 76.6637C396.47 76.7113 394.857 76.7113 393.248 76.6637C392.543 76.6416 392.355 76.9204 392.4 77.5578C392.453 78.2921 392.475 79.0281 392.477 79.7641C392.507 88.3444 392.531 96.9247 392.56 105.505C392.56 105.957 392.604 106.413 392.575 106.863C392.565 107.025 392.397 107.178 392.302 107.334C392.151 107.239 391.946 107.181 391.854 107.045C389.831 104.001 387.827 100.943 385.804 97.8987C381.234 91.0147 376.651 84.1392 372.093 77.2467C371.799 76.8048 371.489 76.6671 370.99 76.6722C369.013 76.6943 367.033 76.7283 365.059 76.662C364.17 76.6314 363.982 76.9357 363.984 77.7736C364.009 90.6594 364.002 103.545 364.002 116.431C364.002 116.771 363.921 117.135 364.018 117.442C364.097 117.696 364.384 118.064 364.587 118.07C366.422 118.119 368.26 118.119 370.095 118.071C370.285 118.066 370.626 117.663 370.626 117.446C370.627 115.326 370.561 113.205 370.534 111.085C370.449 104.348 370.361 97.6114 370.302 90.8736C370.292 89.6804 370.409 88.4872 370.466 87.2939C370.556 87.2514 370.646 87.2107 370.738 87.1682C371.119 87.7189 371.511 88.2645 371.881 88.822C375.018 93.5507 378.153 98.2794 381.285 103.011C384.464 107.815 387.647 112.617 390.81 117.432C391.161 117.966 391.558 118.182 392.197 118.153C393.269 118.104 394.344 118.139 395.417 118.139C396.594 118.139 397.772 118.139 399.02 118.139L399.022 118.138ZM532.484 105.857H532.481C532.481 102.967 532.469 100.078 532.489 97.1899C532.494 96.51 532.314 96.2618 531.567 96.2686C526.454 96.306 521.34 96.3009 516.226 96.2686C515.566 96.2635 515.379 96.4658 515.39 97.0811C515.413 98.5531 515.434 100.028 515.383 101.499C515.357 102.247 515.593 102.479 516.346 102.469C519.227 102.427 522.11 102.452 524.992 102.44C525.548 102.439 526.059 102.496 526.064 103.204C526.081 105.605 526.103 108.009 526.047 110.411C526.039 110.771 525.698 111.327 525.384 111.441C523.727 112.042 522.06 112.71 520.338 113.016C518.003 113.431 515.674 113.246 513.316 112.632C509.465 111.633 506.706 109.362 504.968 105.921C502.857 101.743 502.562 97.263 503.552 92.7178C504.975 86.1959 510.204 81.7358 517.201 81.7409C518.735 81.7409 520.277 81.9992 521.803 82.2134C524.267 82.5601 526.507 83.5545 528.611 84.831C529.313 85.2576 529.605 85.1421 529.856 84.4452C530.429 82.8525 531.005 81.2615 531.597 79.6757C531.763 79.232 531.602 79.0247 531.212 78.8122C529.274 77.7533 527.243 76.934 525.065 76.5719C522.679 76.1759 520.285 75.6796 517.881 75.5946C514.777 75.4841 511.718 76.0365 508.8 77.1957C506.116 78.2615 503.776 79.8354 501.798 81.9414C497.981 86.0055 496.477 90.9722 496.354 96.4131C496.31 98.3525 496.498 100.311 496.75 102.238C497.466 107.73 500.05 112.158 504.583 115.36C508.169 117.894 512.269 118.914 516.592 119.098C519.168 119.207 521.696 118.794 524.236 118.345C526.944 117.867 529.445 116.932 531.845 115.666C532.155 115.503 532.448 114.976 532.453 114.612C532.503 111.696 532.481 108.777 532.481 105.86L532.484 105.857ZM403.358 154.516H403.361C403.361 156.837 403.349 159.159 403.365 161.483C403.387 164.649 403.19 167.826 403.819 170.967C404.496 174.35 405.969 177.268 408.677 179.471C411.121 181.46 413.971 182.356 417.066 182.753C420.805 183.235 424.427 182.935 427.966 181.638C433.389 179.65 436.506 174.443 436.624 169.351C436.829 160.548 436.714 151.738 436.738 142.932C436.738 142.424 436.709 141.902 436.807 141.409C436.938 140.751 436.75 140.545 436.085 140.564C434.617 140.607 433.148 140.588 431.678 140.586C429.984 140.584 429.97 140.581 429.97 142.328C429.97 149.182 430.009 156.035 429.967 162.889C429.953 165.171 429.925 167.485 429.565 169.728C429.024 173.104 426.937 175.683 423.374 176.582C421.229 177.122 419.184 177.105 417.042 176.522C414.707 175.888 412.976 174.615 411.872 172.499C410.904 170.646 410.393 168.663 410.397 166.551C410.407 158.197 410.397 149.843 410.426 141.489C410.429 140.729 410.212 140.523 409.462 140.549C407.741 140.608 406.015 140.613 404.294 140.552C403.516 140.525 403.344 140.788 403.349 141.516C403.378 145.849 403.365 150.181 403.365 154.514L403.358 154.516ZM350.878 76.73C350.539 76.7079 350.318 76.6807 350.099 76.6807C341.653 76.6773 333.205 76.6875 324.759 76.6603C323.906 76.6569 323.729 76.9748 323.733 77.755C323.76 83.9284 323.75 90.1019 323.75 96.2754C323.75 103.214 323.755 110.152 323.736 117.089C323.735 117.789 323.906 118.119 324.677 118.117C333.181 118.098 341.684 118.1 350.188 118.114C350.773 118.114 350.898 117.879 350.888 117.354C350.861 115.911 350.834 114.464 350.895 113.021C350.929 112.205 350.625 112.032 349.864 112.037C343.763 112.071 337.66 112.061 331.559 112.076C330.826 112.078 330.502 111.837 330.514 111.034C330.555 107.948 330.534 104.861 330.534 101.774C330.534 100.406 330.533 100.409 331.886 100.411C336.802 100.414 341.717 100.411 346.633 100.419C347.095 100.419 347.5 100.409 347.498 99.7871C347.491 98.2012 347.493 96.6154 347.488 95.0295C347.488 94.5281 347.278 94.2374 346.728 94.2374C341.673 94.251 336.619 94.251 331.564 94.2748C330.914 94.2782 330.499 94.2051 330.509 93.3824C330.546 90.1546 330.553 86.9268 330.521 83.699C330.514 82.9324 330.807 82.7182 331.511 82.725C333.743 82.7505 335.974 82.742 338.206 82.742C342.133 82.742 346.06 82.742 349.986 82.7386C350.396 82.7386 350.881 82.8491 350.879 82.1675C350.873 80.3862 350.878 78.6065 350.878 76.7317V76.73ZM413.797 97.3445H413.793C413.793 103.86 413.8 110.375 413.788 116.89C413.787 118.107 413.754 118.104 414.957 118.104C423.181 118.102 431.405 118.104 439.627 118.102C439.882 118.102 440.163 118.172 440.382 118.083C440.589 118 440.872 117.755 440.875 117.577C440.906 115.964 440.884 114.351 440.877 112.737C440.875 112.251 440.665 112.037 440.15 112.039C433.96 112.058 427.773 112.052 421.583 112.078C420.917 112.081 420.569 111.908 420.573 111.187C420.585 107.91 420.6 104.633 420.563 101.358C420.554 100.566 420.886 100.396 421.577 100.401C424.43 100.421 427.284 100.406 430.14 100.407C432.288 100.407 434.435 100.413 436.584 100.421C437.028 100.423 437.496 100.441 437.501 99.8296C437.514 98.2148 437.506 96.6001 437.486 94.987C437.479 94.4295 437.169 94.2323 436.599 94.2374C431.542 94.2748 426.487 94.2816 421.431 94.3071C420.883 94.3105 420.574 94.1252 420.574 93.5286C420.574 90.2787 420.59 87.0305 420.547 83.7806C420.535 82.8712 420.936 82.7199 421.733 82.7233C427.808 82.7505 433.884 82.7301 439.96 82.7522C440.67 82.7556 440.904 82.5142 440.886 81.8123C440.845 80.3403 440.852 78.8666 440.884 77.3946C440.896 76.8286 440.696 76.6671 440.146 76.6688C431.612 76.6824 423.077 76.6807 414.543 76.6688C413.958 76.6688 413.776 76.8541 413.778 77.4592C413.8 84.0882 413.792 90.7155 413.792 97.3445H413.797ZM354.062 173.226C353.542 173.587 353.14 173.94 352.679 174.175C348.37 176.356 343.974 177.792 339.02 176.534C335.774 175.71 333.292 173.962 331.394 171.302C329.781 169.042 329.039 166.405 328.725 163.708C328.362 160.601 328.622 157.499 329.69 154.509C331.842 148.483 336.457 145.696 342.401 145.529C346.172 145.424 349.669 146.646 352.936 148.481C353.637 148.876 353.871 148.667 354.091 148.024C354.586 146.585 355.066 145.135 355.649 143.731C355.916 143.092 355.739 142.794 355.217 142.509C352.818 141.195 350.233 140.369 347.557 139.956C344.717 139.519 341.857 139.352 338.962 139.818C335.028 140.45 331.52 141.846 328.506 144.535C324.735 147.9 322.673 152.155 322.041 157.058C321.588 160.562 321.571 164.112 322.395 167.614C323.346 171.658 325.171 175.195 328.286 177.979C332.549 181.79 337.709 183.007 343.25 182.998C344.259 182.998 345.268 182.798 346.277 182.682C349.241 182.342 352.068 181.521 354.752 180.212C355.212 179.988 355.541 179.651 355.42 179.072C355.102 177.556 354.788 176.038 354.456 174.523C354.367 174.122 354.22 173.733 354.064 173.225L354.062 173.226ZM539.65 76.628C539.84 77.1022 539.926 77.4201 540.084 77.6989C541.712 80.5663 543.353 83.4287 544.99 86.2911C547.577 90.8175 550.167 95.3422 552.748 99.8721C553.372 100.968 554.057 102.021 554.045 103.389C554.006 108.005 554.045 112.624 554.007 117.24C554.002 117.925 554.186 118.136 554.855 118.122C556.549 118.087 558.247 118.068 559.941 118.124C560.709 118.149 560.907 117.889 560.902 117.153C560.868 112.311 560.867 107.468 560.873 102.626C560.873 102.272 560.946 101.874 561.116 101.57C562.791 98.5667 564.487 95.5768 566.189 92.5886C569.082 87.5115 571.987 82.4412 574.876 77.3606C574.975 77.1855 575.049 76.8949 574.968 76.7521C574.9 76.6314 574.592 76.6076 574.39 76.6076C572.47 76.6076 570.549 76.6773 568.633 76.6076C567.924 76.5821 567.532 76.7793 567.212 77.3691C565.279 80.9352 563.327 84.4894 561.385 88.0503C560.239 90.1512 559.106 92.2572 557.95 94.3513C557.84 94.5502 557.626 94.7558 557.421 94.8102C557.295 94.8425 557.033 94.6266 556.939 94.4618C555.949 92.6923 554.988 90.9059 554.002 89.1314C551.796 85.1625 549.577 81.2003 547.379 77.2263C547.126 76.7708 546.835 76.5804 546.304 76.6127C545.488 76.662 544.668 76.6263 543.849 76.6263C542.506 76.6263 541.163 76.6263 539.653 76.6263L539.65 76.628ZM416.905 12.7124C416.905 12.7124 416.905 12.726 416.905 12.7328C411.282 12.7328 405.659 12.743 400.036 12.7192C399.361 12.7158 399.215 12.9962 399.222 13.5793C399.241 14.9951 399.276 16.4127 399.21 17.8252C399.173 18.619 399.414 18.8536 400.204 18.8451C403.877 18.8077 407.551 18.8077 411.224 18.8349C413.664 18.8536 413.458 18.3555 413.463 21.1159C413.486 31.8515 413.475 42.5855 413.454 53.3211C413.454 53.9891 413.651 54.2236 414.322 54.2083C416.016 54.1709 417.714 54.1624 419.408 54.2083C420.152 54.227 420.398 53.9857 420.379 53.2344C420.312 50.4043 420.276 47.5742 420.273 44.7424C420.271 42.5634 420.359 40.3843 420.366 38.2052C420.383 32.1762 420.374 26.1455 420.381 20.1165C420.381 18.8281 420.39 18.8281 421.68 18.8281C425.692 18.8281 429.706 18.8281 433.718 18.8366C434.182 18.8366 434.574 18.8264 434.564 18.1975C434.539 16.5844 434.523 14.973 434.518 13.36C434.518 12.8926 434.318 12.709 433.852 12.709C428.202 12.7158 422.552 12.7141 416.9 12.7141L416.905 12.7124ZM368.057 161.138C368.057 161.138 368.07 161.138 368.077 161.138C368.077 161.393 368.077 161.648 368.077 161.903C368.069 168.246 368.067 174.588 368.043 180.931C368.04 181.627 368.133 182.04 368.993 182.036C377.271 182.012 385.548 182.019 393.826 182.029C394.439 182.029 394.686 181.824 394.667 181.183C394.628 179.769 394.61 178.349 394.661 176.937C394.69 176.155 394.459 175.924 393.655 175.929C387.807 175.966 381.96 175.948 376.111 175.956C375.431 175.956 374.994 175.834 374.997 174.977C375.028 169.173 375.023 163.368 375.024 157.563C375.026 152.211 375.014 146.86 375.033 141.507C375.036 140.79 374.855 140.516 374.071 140.547C372.323 140.615 370.568 140.59 368.818 140.559C368.22 140.549 368.043 140.748 368.045 141.343C368.064 147.941 368.057 154.539 368.057 161.136V161.138ZM381.239 33.4901C381.239 40.0902 381.248 46.6903 381.227 53.2905C381.226 53.9534 381.431 54.2117 382.096 54.2032C383.876 54.1811 385.657 54.176 387.437 54.2083C388.117 54.2202 388.314 53.95 388.305 53.3007C388.268 50.4689 388.259 47.6371 388.254 44.8053C388.244 39.1129 388.232 33.4204 388.241 27.728C388.249 23.0842 388.275 18.4405 388.322 13.7968C388.331 12.9928 388.066 12.6954 387.242 12.7226C385.577 12.777 383.908 12.7549 382.241 12.7294C381.553 12.7192 381.224 12.9011 381.226 13.688C381.251 20.2882 381.241 26.8883 381.241 33.4884L381.239 33.4901Z" fill="white"/>
<path d="M359.569 22.4127C359.396 23.0416 359.255 23.6824 359.043 24.2977C357.795 27.9386 356.53 31.5726 355.269 35.2084C353.583 40.0697 351.894 44.931 350.207 49.7922C349.802 50.9634 349.38 52.1294 349.01 53.3107C348.8 53.9804 348.444 54.2354 347.716 54.215C345.852 54.1606 343.987 54.1827 342.122 54.2048C341.591 54.2116 341.313 54.0382 341.132 53.5164C339.27 48.1792 337.382 42.8505 335.504 37.5201C334.066 33.4441 332.628 29.3664 331.19 25.2904C330.847 24.3181 330.501 23.3442 330.157 22.3719C330.071 22.3736 329.984 22.3753 329.896 22.377C329.835 22.6405 329.72 22.9022 329.718 23.1657C329.691 27.6683 329.713 32.1709 329.65 36.6736C329.574 42.1893 329.419 47.7032 329.324 53.2172C329.311 53.9889 329.046 54.2439 328.261 54.2116C326.71 54.1487 325.153 54.1674 323.6 54.2082C322.893 54.2269 322.582 54.0535 322.611 53.2648C322.788 48.4579 322.925 43.651 323.074 38.8425C323.154 36.2401 323.22 33.6378 323.31 31.0372C323.512 25.185 323.727 19.331 323.924 13.4788C323.942 12.9349 324.164 12.719 324.694 12.7224C327.405 12.7377 330.118 12.7496 332.83 12.736C333.391 12.7326 333.615 13.0046 333.782 13.4907C335.278 17.8251 336.794 22.1526 338.298 26.4853C340.309 32.2746 342.315 38.0657 344.318 43.8584C344.437 44.2035 344.47 44.5791 344.606 44.914C344.71 45.1723 344.913 45.3899 345.071 45.6245C345.266 45.412 345.551 45.2318 345.642 44.9803C346.088 43.7615 346.477 42.5224 346.897 41.2952C348.162 37.6118 349.439 33.9302 350.704 30.2468C352.327 25.5181 353.941 20.7877 355.565 16.0607C355.877 15.1531 356.173 14.2335 356.571 13.3632C356.698 13.0845 357.129 12.7785 357.427 12.7717C360.11 12.719 362.794 12.7377 365.479 12.7207C366.084 12.7173 366.15 13.0794 366.164 13.5519C366.206 15.1633 366.269 16.7746 366.316 18.3877C366.486 24.0122 366.635 29.6366 366.825 35.2594C366.952 39.043 367.151 42.8233 367.288 46.6052C367.373 48.922 367.42 51.2404 367.425 53.5572C367.425 53.773 366.996 54.1725 366.759 54.1793C364.924 54.2286 363.086 54.1963 361.249 54.1997C360.736 54.1997 360.558 53.9413 360.556 53.4586C360.544 50.6863 360.551 47.914 360.5 45.1417C360.444 42.1434 360.312 39.1467 360.252 36.1484C360.183 32.6673 360.163 29.1845 360.101 25.7034C360.083 24.6156 360.005 23.5277 359.952 22.4399C359.822 22.4314 359.691 22.4229 359.561 22.4144L359.569 22.4127Z" fill="#000A8D"/>
<path d="M399.023 118.138C397.775 118.138 396.599 118.138 395.42 118.138C394.347 118.138 393.272 118.102 392.2 118.151C391.561 118.182 391.164 117.964 390.813 117.43C387.65 112.615 384.467 107.813 381.288 103.01C378.156 98.2777 375.021 93.549 371.884 88.8203C371.512 88.2611 371.122 87.7171 370.741 87.1664C370.651 87.2089 370.561 87.2497 370.469 87.2922C370.412 88.4854 370.293 89.6787 370.305 90.8719C370.364 97.6097 370.453 104.346 370.537 111.084C370.564 113.205 370.631 115.324 370.629 117.444C370.629 117.662 370.288 118.064 370.098 118.07C368.263 118.117 366.425 118.117 364.59 118.068C364.387 118.063 364.102 117.694 364.021 117.441C363.922 117.133 364.005 116.769 364.005 116.429C364.005 103.543 364.012 90.6577 363.987 77.7719C363.987 76.9339 364.172 76.6297 365.062 76.6603C367.037 76.7283 369.016 76.6943 370.993 76.6705C371.492 76.6654 371.804 76.8014 372.096 77.245C376.654 84.1375 381.237 91.013 385.807 97.8969C387.828 100.943 389.833 103.999 391.857 107.043C391.947 107.179 392.152 107.237 392.305 107.332C392.4 107.176 392.568 107.023 392.578 106.861C392.607 106.411 392.564 105.957 392.563 105.503C392.536 96.923 392.51 88.3427 392.48 79.7623C392.476 79.0263 392.456 78.2886 392.403 77.556C392.358 76.9169 392.546 76.6399 393.251 76.662C394.86 76.7113 396.473 76.7113 398.082 76.662C398.808 76.6399 399.051 76.8337 399.049 77.6053C399.023 90.5761 399.028 103.547 399.025 116.518C399.025 117.021 399.025 117.524 399.025 118.136L399.023 118.138Z" fill="#000A8D"/>
<path d="M532.485 105.855C532.485 108.772 532.507 111.69 532.458 114.607C532.451 114.971 532.159 115.497 531.849 115.661C529.45 116.927 526.948 117.86 524.24 118.339C521.698 118.788 519.172 119.201 516.596 119.092C512.274 118.909 508.174 117.891 504.587 115.355C500.056 112.152 497.47 107.724 496.755 102.233C496.504 100.305 496.314 98.347 496.358 96.4076C496.482 90.9667 497.986 86 501.803 81.9359C503.78 79.8316 506.118 78.2559 508.804 77.1902C511.724 76.031 514.783 75.4786 517.885 75.589C520.289 75.674 522.684 76.1704 525.07 76.5664C527.247 76.9284 529.278 77.7477 531.216 78.8067C531.608 79.0208 531.768 79.2265 531.601 79.6701C531.01 81.256 530.433 82.847 529.86 84.4396C529.609 85.1365 529.319 85.2504 528.615 84.8255C526.511 83.549 524.271 82.5546 521.807 82.2079C520.279 81.9937 518.74 81.737 517.205 81.7353C510.21 81.7302 504.979 86.1904 503.556 92.7123C502.564 97.2574 502.861 101.738 504.972 105.916C506.71 109.355 509.469 111.625 513.32 112.627C515.679 113.238 518.007 113.425 520.342 113.011C522.065 112.705 523.73 112.037 525.388 111.435C525.702 111.321 526.043 110.765 526.051 110.405C526.107 108.003 526.085 105.6 526.068 103.198C526.063 102.491 525.555 102.433 524.997 102.435C522.114 102.447 519.231 102.421 516.35 102.464C515.599 102.474 515.362 102.241 515.387 101.493C515.438 100.021 515.419 98.5475 515.394 97.0756C515.384 96.4602 515.57 96.258 516.23 96.2631C521.342 96.2971 526.457 96.3005 531.571 96.2631C532.319 96.258 532.498 96.5061 532.493 97.1843C532.471 100.074 532.485 102.963 532.485 105.851H532.488L532.485 105.855Z" fill="#000A8D"/>
<path d="M403.359 154.514C403.359 150.181 403.374 145.849 403.344 141.516C403.339 140.789 403.51 140.523 404.288 140.552C406.009 140.614 407.736 140.61 409.457 140.549C410.206 140.523 410.423 140.729 410.42 141.489C410.391 149.843 410.403 158.197 410.391 166.552C410.388 168.663 410.9 170.646 411.866 172.499C412.97 174.614 414.703 175.888 417.037 176.522C419.178 177.104 421.223 177.122 423.368 176.582C426.931 175.683 429.018 173.104 429.559 169.729C429.919 167.485 429.946 165.171 429.961 162.889C430.004 156.035 429.965 149.182 429.965 142.329C429.965 140.58 429.978 140.583 431.672 140.586C433.141 140.588 434.611 140.607 436.079 140.564C436.744 140.546 436.932 140.751 436.802 141.409C436.703 141.902 436.734 142.424 436.732 142.932C436.71 151.738 436.824 160.548 436.619 169.351C436.5 174.444 433.383 179.65 427.96 181.639C424.423 182.936 420.801 183.235 417.06 182.754C413.967 182.356 411.115 181.46 408.672 179.471C405.964 177.269 404.49 174.35 403.814 170.968C403.186 167.826 403.381 164.651 403.359 161.483C403.344 159.161 403.356 156.839 403.356 154.516H403.352L403.359 154.514Z" fill="#000A8D"/>
<path d="M350.879 76.7277C350.879 78.6025 350.874 80.3838 350.881 82.1635C350.884 82.8451 350.398 82.7346 349.987 82.7346C346.06 82.738 342.133 82.7397 338.207 82.738C335.976 82.738 333.744 82.7482 331.513 82.721C330.809 82.7125 330.514 82.9283 330.522 83.6949C330.555 86.9228 330.548 90.1506 330.51 93.3784C330.5 94.2028 330.916 94.2742 331.565 94.2708C336.62 94.247 341.675 94.247 346.73 94.2334C347.279 94.2334 347.488 94.524 347.49 95.0255C347.495 96.6113 347.493 98.1972 347.5 99.783C347.503 100.405 347.096 100.417 346.635 100.415C341.719 100.409 336.803 100.41 331.887 100.407C330.534 100.407 330.536 100.402 330.536 101.77C330.536 104.857 330.555 107.944 330.516 111.03C330.505 111.833 330.829 112.074 331.56 112.072C337.661 112.057 343.764 112.067 349.865 112.033C350.627 112.028 350.93 112.201 350.896 113.017C350.837 114.459 350.864 115.905 350.889 117.35C350.9 117.875 350.774 118.111 350.189 118.11C341.685 118.096 333.183 118.094 324.679 118.113C323.907 118.113 323.736 117.785 323.738 117.085C323.756 110.146 323.751 103.208 323.751 96.2714C323.751 90.0979 323.762 83.9244 323.734 77.7509C323.731 76.9707 323.907 76.6529 324.76 76.6563C333.207 76.6852 341.655 76.6733 350.101 76.6767C350.321 76.6767 350.54 76.7039 350.879 76.726V76.7277Z" fill="#000A8D"/>
<path d="M413.799 97.3447C413.799 90.7157 413.807 84.0884 413.785 77.4593C413.783 76.8542 413.965 76.6673 414.55 76.669C423.084 76.6809 431.619 76.6809 440.153 76.669C440.701 76.669 440.903 76.8304 440.891 77.3947C440.86 78.8667 440.852 80.3404 440.893 81.8124C440.911 82.5144 440.679 82.7541 439.967 82.7524C433.891 82.7303 427.815 82.7524 421.74 82.7235C420.941 82.7201 420.543 82.8713 420.554 83.7807C420.597 87.0289 420.582 90.2788 420.582 93.5288C420.582 94.1254 420.888 94.3089 421.438 94.3072C426.494 94.2818 431.549 94.2732 436.606 94.2376C437.176 94.2342 437.486 94.4296 437.493 94.9871C437.513 96.6019 437.522 98.2167 437.508 99.8297C437.503 100.44 437.033 100.423 436.591 100.421C434.442 100.413 432.295 100.409 430.147 100.408C427.293 100.408 424.439 100.421 421.584 100.401C420.894 100.396 420.559 100.567 420.57 101.358C420.607 104.635 420.592 107.91 420.58 111.187C420.576 111.908 420.924 112.082 421.59 112.078C427.78 112.053 433.967 112.058 440.157 112.039C440.672 112.039 440.882 112.251 440.884 112.738C440.891 114.351 440.913 115.964 440.882 117.577C440.879 117.755 440.596 118.002 440.389 118.083C440.17 118.172 439.889 118.102 439.634 118.102C431.41 118.102 423.186 118.102 414.964 118.104C413.761 118.104 413.794 118.109 413.795 116.89C413.807 110.375 413.8 103.86 413.8 97.3447H413.804H413.799Z" fill="#000A8D"/>
<path d="M354.063 173.226C354.219 173.734 354.367 174.123 354.455 174.525C354.787 176.037 355.101 177.555 355.42 179.073C355.542 179.653 355.211 179.991 354.752 180.214C352.069 181.522 349.242 182.343 346.277 182.683C345.268 182.799 344.259 182.998 343.25 182.999C337.706 183.008 332.546 181.791 328.285 177.98C325.17 175.196 323.346 171.659 322.394 167.615C321.57 164.114 321.589 160.563 322.04 157.06C322.672 152.156 324.736 147.901 328.506 144.536C331.519 141.847 335.027 140.451 338.961 139.819C341.856 139.353 344.716 139.52 347.557 139.957C350.231 140.368 352.815 141.196 355.216 142.51C355.739 142.795 355.915 143.093 355.649 143.732C355.064 145.136 354.584 146.584 354.09 148.025C353.87 148.668 353.636 148.877 352.936 148.483C349.668 146.647 346.171 145.425 342.4 145.53C336.457 145.695 331.841 148.484 329.689 154.51C328.621 157.5 328.363 160.604 328.724 163.709C329.04 166.405 329.781 169.043 331.393 171.304C333.291 173.964 335.773 175.713 339.019 176.535C343.974 177.793 348.369 176.359 352.678 174.176C353.139 173.942 353.541 173.588 354.061 173.228L354.063 173.226Z" fill="#000A8D"/>
<path d="M539.652 76.6276C541.163 76.6276 542.506 76.6276 543.847 76.6276C544.666 76.6276 545.487 76.6633 546.302 76.614C546.833 76.5817 547.126 76.7721 547.377 77.2276C549.575 81.2016 551.796 85.162 554.001 89.1326C554.986 90.9055 555.948 92.6919 556.938 94.463C557.031 94.6279 557.294 94.8455 557.419 94.8115C557.625 94.7588 557.84 94.5514 557.948 94.3526C559.105 92.2585 560.239 90.1525 561.384 88.0516C563.326 84.4906 565.277 80.9364 567.21 77.3704C567.531 76.7789 567.923 76.5817 568.631 76.6089C570.548 76.6803 572.469 76.6089 574.388 76.6089C574.59 76.6089 574.899 76.6327 574.967 76.7534C575.046 76.8961 574.973 77.1885 574.875 77.3619C571.985 82.4424 569.082 87.5128 566.188 92.5899C564.485 95.5781 562.79 98.5679 561.114 101.571C560.945 101.876 560.872 102.273 560.872 102.627C560.865 107.47 560.865 112.312 560.901 117.155C560.906 117.891 560.707 118.151 559.939 118.125C558.245 118.069 556.548 118.088 554.854 118.124C554.186 118.137 554.001 117.926 554.006 117.241C554.042 112.625 554.004 108.007 554.043 103.39C554.055 102.024 553.372 100.97 552.746 99.8733C550.165 95.3435 547.576 90.8188 544.988 86.2923C543.352 83.4283 541.712 80.5676 540.083 77.7001C539.925 77.4231 539.838 77.1052 539.648 76.6293L539.652 76.6276Z" fill="#000A8D"/>
<path d="M416.904 12.7121C422.554 12.7121 428.204 12.7155 433.856 12.707C434.322 12.707 434.521 12.8906 434.523 13.358C434.528 14.9711 434.541 16.5825 434.568 18.1955C434.578 18.8244 434.187 18.8363 433.722 18.8346C429.71 18.8261 425.696 18.8278 421.684 18.8261C420.392 18.8261 420.385 18.8261 420.385 20.1145C420.38 26.1435 420.387 32.1742 420.37 38.2033C420.363 40.3823 420.275 42.5614 420.277 44.7405C420.28 47.5706 420.316 50.4023 420.384 53.2324C420.402 53.9854 420.157 54.2268 419.412 54.2064C417.718 54.1622 416.021 54.1707 414.327 54.2064C413.655 54.2217 413.457 53.9871 413.459 53.3191C413.479 42.5835 413.489 31.8496 413.467 21.114C413.46 18.3536 413.667 18.8516 411.229 18.8329C407.556 18.8057 403.881 18.8057 400.208 18.8431C399.418 18.8516 399.177 18.6171 399.215 17.8233C399.281 16.4108 399.245 14.9932 399.226 13.5773C399.218 12.9943 399.364 12.7138 400.04 12.7172C405.663 12.7427 411.286 12.7308 416.909 12.7308C416.909 12.724 416.909 12.7172 416.909 12.7104L416.904 12.7121Z" fill="#000A8D"/>
<path d="M368.057 161.137C368.057 154.539 368.063 147.94 368.045 141.344C368.045 140.749 368.221 140.548 368.818 140.56C370.57 140.591 372.323 140.616 374.071 140.548C374.853 140.518 375.034 140.791 375.033 141.509C375.014 146.861 375.026 152.212 375.024 157.564C375.023 163.369 375.028 169.174 374.997 174.978C374.992 175.833 375.431 175.957 376.111 175.957C381.96 175.949 387.806 175.968 393.655 175.93C394.46 175.925 394.689 176.156 394.66 176.938C394.61 178.352 394.627 179.77 394.667 181.184C394.686 181.823 394.437 182.031 393.826 182.031C385.548 182.02 377.271 182.015 368.993 182.037C368.135 182.039 368.041 181.628 368.043 180.932C368.067 174.589 368.068 168.247 368.077 161.904C368.077 161.649 368.077 161.394 368.077 161.139C368.07 161.139 368.063 161.139 368.057 161.139V161.137Z" fill="#000A8D"/>
<path d="M381.242 33.4902C381.242 26.8901 381.254 20.2899 381.227 13.6898C381.223 12.9028 381.554 12.721 382.242 12.7312C383.909 12.7567 385.578 12.7788 387.243 12.7244C388.067 12.6972 388.332 12.9929 388.323 13.7986C388.276 18.4423 388.248 23.086 388.242 27.7297C388.232 33.4222 388.245 39.1147 388.255 44.8071C388.26 47.6389 388.269 50.4707 388.306 53.3025C388.315 53.9518 388.118 54.222 387.438 54.2101C385.657 54.1778 383.877 54.1829 382.096 54.205C381.432 54.2135 381.227 53.9535 381.228 53.2923C381.249 46.6921 381.24 40.092 381.24 33.4919L381.242 33.4902Z" fill="#000A8D"/>
<path d="M216.296 87.1873C212.988 86.9646 211.265 89.8151 211.278 92.0775C211.297 95.0538 213.364 97.1105 216.381 97.1139C219.236 97.1173 221.232 95.0809 221.232 92.1591C221.232 89.0332 219.399 87.1873 216.294 87.1873H216.296ZM234.097 87.1567C231.428 86.963 228.978 89.3783 229.207 92.4973C229.402 95.1591 231.379 97.0731 234.287 97.068C237.211 97.0629 239.19 94.9552 239.193 91.9636C239.196 89.618 237.341 86.9528 234.097 87.1584V87.1567ZM193.465 92.1183C193.184 94.5863 195.361 97.1495 198.45 97.1274C201.331 97.107 203.402 95.0724 203.417 92.154C203.432 89.1879 201.414 87.2638 198.396 87.1686C195.354 87.0717 193.212 89.7318 193.465 92.1183ZM175.623 92.1608C175.301 94.9246 177.803 97.2005 180.593 97.1359C183.472 97.0696 185.588 95.0096 185.563 92.1472C185.538 89.2338 183.486 87.2723 180.579 87.1635C177.926 87.0649 175.287 89.3596 175.623 92.1591V92.1608ZM226.153 75.386C225.817 78.0716 228.454 80.3815 230.962 80.3815C233.631 80.3815 235.99 78.3656 235.971 75.369C235.958 73.0114 234.199 70.5298 231.11 70.5043C227.991 70.4788 225.844 73.0148 226.153 75.386ZM226.146 60.5897C226.423 57.8922 224.281 55.5669 221.22 55.606C218.502 55.6417 216.413 57.7273 216.36 60.435C216.304 63.3008 218.85 65.3031 220.893 65.4135C224.127 65.5886 226.455 63.0254 226.146 60.5897ZM211.568 50.3742C211.572 47.6257 209.491 45.5418 206.742 45.5418C203.795 45.5418 202.011 47.4166 201.879 50.3555C201.748 53.2603 204.082 55.3187 206.641 55.3034C209.508 55.2864 211.567 53.2161 211.568 50.3742ZM189.344 41.9366C186.253 41.6681 184.41 44.4064 184.449 46.6126C184.503 49.6756 186.558 51.4756 189.282 51.547C191.793 51.6116 194.109 49.645 194.103 46.7214C194.096 44.0222 192.036 41.6613 189.346 41.9366H189.344ZM171.821 54.4961C174.521 54.7051 176.655 52.3969 176.63 49.7232C176.605 47.0852 174.346 44.8211 171.735 44.8959C169.259 44.9656 166.904 47.0512 166.988 49.9339C167.053 52.1368 169.015 54.7816 171.821 54.4978V54.4961ZM161.165 58.8236C161.374 56.2808 159.02 53.9895 156.446 54.0337C153.669 54.0796 151.713 56.0054 151.717 58.793C151.72 61.6333 153.764 63.7172 156.589 63.5897C159.325 63.4656 161.247 61.4395 161.164 58.8236H161.165ZM149.126 72.0001C149.295 69.3349 146.913 67.2782 144.466 67.2663C142.075 67.2544 139.733 69.1802 139.716 72.0664C139.699 74.6857 141.807 76.7288 144.495 76.7288C147.208 76.7288 149.131 74.7656 149.126 72.0001ZM137.598 93.0837C140.334 93.337 142.297 91.1069 142.34 88.5879C142.385 85.8003 140.188 83.8864 137.773 83.866C134.88 83.8422 133.12 86.1046 133.049 88.3295C132.966 90.9387 134.955 93.2894 137.597 93.0837H137.598ZM136.471 110.902C139.342 110.906 141.144 109.124 141.149 106.277C141.154 103.643 139.213 101.657 136.556 101.683C134.136 101.707 131.933 103.335 131.974 106.369C132.011 109.095 133.781 110.899 136.471 110.901V110.902ZM135.984 123.779C135.867 126.693 138.041 128.369 140.566 128.335C143.138 128.301 145.026 126.611 145.087 123.732C145.141 121.094 143.128 119.153 140.49 119.117C138.338 119.088 135.815 120.83 135.986 123.779H135.984ZM154.42 138.815C154.423 135.941 152.863 134.284 150.158 134.265C147.188 134.245 145.592 136.098 145.531 138.693C145.47 141.28 147.298 143.286 150.043 143.228C152.877 143.169 154.415 141.674 154.418 138.814L154.42 138.815ZM164.246 153.911C166.68 154.178 168.803 151.802 168.837 149.422C168.871 147.005 166.612 144.912 164.399 144.918C161.635 144.924 159.812 146.944 159.754 149.405C159.702 151.671 161.601 154.086 164.245 153.909L164.246 153.911ZM185.424 155.645C185.663 152.692 183.175 151.101 181.049 151.11C178.506 151.122 176.764 152.942 176.649 155.5C176.525 158.247 178.848 160.027 180.947 160.066C183.298 160.108 185.699 158.206 185.422 155.645H185.424ZM198.783 152.947C196.719 152.636 194.396 154.757 194.432 157.316C194.469 159.981 196.465 161.782 198.852 161.738C201.408 161.691 203.168 159.904 203.217 157.333C203.264 154.769 201.089 152.691 198.783 152.947ZM216.316 158.497C218.841 158.5 220.695 156.653 220.706 154.122C220.718 151.555 218.912 149.753 216.326 149.75C213.798 149.747 211.975 151.538 211.958 154.072C211.94 156.682 214.024 158.59 216.316 158.499V158.497ZM236.499 145.835C236.483 143.061 234.379 141.634 232.137 141.634C229.533 141.634 227.752 143.738 227.898 146.422C228.028 148.824 230.024 150.508 232.632 150.314C234.86 150.149 236.717 148.346 236.499 145.834V145.835ZM245.035 137.804C247.724 137.804 249.206 136.307 249.206 133.589C249.206 131.002 247.599 129.429 245.094 129.322C243.003 129.232 240.75 130.852 240.748 133.621C240.748 136.092 242.644 138.057 245.035 137.804ZM257.856 117.956C257.856 115.498 256.099 113.744 253.632 113.739C251.136 113.734 249.559 115.374 249.555 117.977C249.552 120.543 251.18 122.275 253.606 122.284C256.035 122.292 257.856 120.439 257.856 117.958V117.956ZM257.327 104.652C259.925 104.669 261.541 103.095 261.558 100.535C261.573 98.0113 259.931 96.3915 257.381 96.3439C254.692 96.2929 253.12 98.4838 253.14 100.534C253.164 102.942 254.86 104.637 257.329 104.652H257.327ZM261.056 82.6762C261.295 80.3883 259.26 78.4064 256.891 78.4761C254.48 78.5458 252.828 80.1674 252.813 82.6082C252.798 85.1085 254.427 86.674 256.91 86.7811C259.257 86.8831 261.31 84.8349 261.057 82.6745L261.056 82.6762ZM255.972 65.5818C256.223 63.2328 254.259 61.4735 252.107 61.4293C249.347 61.3732 247.821 63.4299 247.858 65.4186C247.906 67.9666 249.394 69.5201 251.943 69.5898C254.251 69.6527 256.199 67.8034 255.972 65.5818ZM242.535 54.3159C245.069 54.3108 246.527 52.7793 246.649 50.296C246.741 48.428 245.111 46.1843 242.474 46.2421C240.344 46.2897 238.44 47.8313 238.538 50.2994C238.638 52.8252 240.043 54.321 242.535 54.3159ZM229.885 41.7496C232.28 41.957 233.946 39.7133 233.948 37.7705C233.948 35.4861 232.197 33.7387 229.846 33.6996C227.499 33.6588 225.875 35.3637 225.838 37.796C225.802 40.1587 227.861 41.9587 229.884 41.7496H229.885ZM218.522 28.3896C218.836 25.9301 216.533 24.3884 214.668 24.4394C212.282 24.504 210.609 26.1222 210.612 28.4984C210.617 30.737 212.323 32.3279 214.646 32.3976C216.53 32.4554 218.828 30.9868 218.522 28.3896ZM197.423 20.1781C195.142 19.8977 193.402 22.1277 193.407 24.0043C193.414 26.2139 195.284 28.1126 197.384 28.0208C199.687 27.9188 201.299 26.3601 201.365 24.0859C201.425 22.0751 199.72 19.9691 197.423 20.1781ZM175.667 24.6077C175.458 26.6525 177.385 28.6123 179.618 28.5103C181.853 28.41 183.54 26.814 183.537 24.5975C183.533 22.4337 181.831 20.8138 179.652 20.7238C177.23 20.6235 175.421 22.7957 175.667 24.606V24.6077ZM162.305 33.2628C164.618 33.426 166.193 31.7228 166.241 29.5675C166.291 27.2678 164.636 25.5136 162.356 25.5561C160.102 25.5986 158.581 27.2814 158.489 29.3347C158.393 31.5104 160.304 33.4566 162.305 33.2628ZM142.945 38.034C142.689 40.1587 144.595 41.9179 146.726 41.8839C148.965 41.8482 150.484 40.3389 150.486 38.0731C150.486 35.6883 149.133 34.422 146.776 34.2928C144.452 34.1654 142.758 35.9994 142.945 38.034ZM137.129 49.9713C137.258 47.369 135.333 46.1656 133.425 46.1265C131.487 46.0857 129.663 47.6087 129.661 49.9577C129.661 52.5328 131.628 53.7924 133.498 53.789C135.457 53.7856 137.327 52.2252 137.129 49.9713ZM123.139 68.281C125.286 68.2742 126.905 66.6985 126.882 64.6385C126.858 62.4152 125.284 60.8446 123.088 60.848C120.825 60.8514 119.376 62.3574 119.412 64.669C119.446 66.8396 120.942 68.2895 123.137 68.281H123.139ZM119.999 81.1515C120.279 78.9231 118.211 77.3696 116.416 77.4631C114.199 77.5786 112.714 78.9384 112.709 81.1073C112.704 83.3272 114.15 84.6972 116.367 84.7873C118.462 84.8706 120.24 83.1827 119.999 81.1515ZM110.038 98.8187C110.033 101.19 111.59 102.41 113.706 102.517C115.698 102.618 117.392 100.855 117.391 98.8629C117.391 96.6957 115.814 95.1574 113.618 95.1795C111.463 95.1999 110.03 96.6583 110.038 98.8187ZM111.522 116.635C111.327 118.719 113.043 120.268 115.088 120.251C117.267 120.234 118.635 118.838 118.632 116.617C118.629 114.397 117.208 113.023 114.937 113.047C112.933 113.069 111.305 114.699 111.524 116.634L111.522 116.635ZM124.029 133.64C124.323 131.748 122.379 130.021 120.565 130.131C118.354 130.264 116.999 131.5 117.021 133.675C117.043 135.79 118.488 137.238 120.575 137.238C122.707 137.238 124.029 135.861 124.029 133.64ZM129.817 145.451C127.936 145.293 126.232 147.039 126.28 149.021C126.322 150.817 127.597 152.47 129.864 152.42C131.93 152.376 133.33 151.067 133.34 149.089C133.352 146.845 132.001 145.45 129.819 145.451H129.817ZM145.751 161.774C145.753 159.619 144.415 158.254 142.299 158.252C140.227 158.25 138.948 159.615 138.858 161.703C138.755 164.087 140.771 165.328 142.321 165.275C144.061 165.218 145.88 164.038 145.753 161.774H145.751ZM157.336 174.641C159.565 174.648 160.816 173.375 160.807 171.109C160.799 169.168 159.386 167.779 157.416 167.777C155.396 167.776 153.974 169.204 153.964 171.243C153.953 173.257 155.32 174.634 157.336 174.641ZM174.256 180.26C176.564 180.504 177.798 178.421 177.792 176.907C177.785 175.005 176.335 173.637 174.426 173.509C172.693 173.393 170.897 174.903 170.929 176.733C170.966 178.907 172.194 180.255 174.256 180.259V180.26ZM195.434 178.882C195.339 176.609 194.111 175.515 192.11 175.494C190.135 175.474 188.766 176.58 188.751 179.001C188.739 180.935 190.174 182.285 192.18 182.249C194.077 182.215 195.444 180.801 195.434 178.882ZM209.829 180.935C211.811 180.944 213.198 179.586 213.21 177.624C213.222 175.705 211.833 174.248 209.969 174.226C207.99 174.204 206.663 175.544 206.654 177.57C206.646 179.604 207.892 180.927 209.829 180.935ZM223.83 172.827C223.823 174.763 225.2 176.176 227.091 176.176C228.981 176.176 230.355 174.811 230.369 172.921C230.382 170.924 229.104 169.632 227.108 169.623C225.193 169.617 223.837 170.941 223.832 172.827H223.83ZM239.89 164.905C239.661 166.605 241.36 168.128 243.103 168.058C245.075 167.98 246.274 166.834 246.288 164.862C246.301 162.874 245.018 161.628 242.968 161.638C241.084 161.646 239.887 162.918 239.89 164.907V164.905ZM257.017 150.566C255.031 150.566 253.834 151.749 253.837 153.704C253.84 155.663 255.034 156.818 257.05 156.814C258.987 156.811 260.191 155.624 260.194 153.717C260.198 151.762 258.992 150.566 257.017 150.568V150.566ZM267.418 142.388C269.293 142.412 270.665 141.119 270.669 139.325C270.67 137.481 269.466 136.261 267.757 136.126C265.631 135.96 264.335 137.498 264.356 139.24C264.378 141.074 265.612 142.366 267.418 142.39V142.388ZM271.801 122.926C271.806 124.798 273.032 126.054 274.842 126.04C276.665 126.027 277.984 124.74 278.001 122.96C278.018 121.133 276.683 119.816 274.837 119.833C272.941 119.851 271.798 121.017 271.801 122.926ZM282.252 105.619C282.254 103.797 281.06 102.522 279.339 102.505C277.492 102.487 276.275 103.711 276.212 105.55C276.156 107.197 277.421 108.602 279.191 108.608C281.101 108.614 282.466 107.275 282.252 105.619ZM280.27 90.716C282.182 90.7381 283.361 89.6027 283.386 87.7108C283.41 86.0111 282.115 84.6887 280.404 84.6683C278.676 84.6462 277.412 85.8853 277.392 87.6242C277.368 89.5619 278.421 90.6956 280.27 90.7177V90.716ZM280.58 70.0403C280.58 68.0668 279.651 67.1439 277.658 67.1405C275.788 67.1371 274.718 68.2215 274.738 70.098C274.759 71.8505 275.913 72.9893 277.67 72.9944C279.532 72.9978 280.578 71.9355 280.58 70.0403ZM271.474 56.189C273.221 56.3862 274.438 54.7884 274.421 53.2059C274.404 51.5504 273.163 50.3198 271.515 50.313C269.746 50.3045 268.569 51.4977 268.574 53.2909C268.579 55.0842 269.685 56.189 271.472 56.189H271.474ZM259.25 38.0595C259.248 39.9632 260.191 40.8879 262.131 40.8845C263.881 40.8828 264.939 39.8 264.937 38.0102C264.937 36.375 263.757 35.1699 262.138 35.1495C260.399 35.1274 259.251 36.2849 259.25 38.0578V38.0595ZM247.059 24.8524C247.046 26.6746 248.131 27.8117 249.883 27.8134C251.572 27.8134 252.609 26.7885 252.643 25.0853C252.679 23.2666 251.648 22.1294 249.937 22.1022C248.246 22.0751 247.071 23.1986 247.059 24.8507V24.8524ZM235.344 17.2818C237.207 17.2818 238.142 16.3384 238.145 14.4534C238.148 12.8233 237.028 11.7287 235.364 11.7372C233.692 11.7457 232.598 12.8709 232.603 14.5775C232.609 16.3112 233.592 17.2818 235.345 17.2835L235.344 17.2818ZM216.348 7.15466C216.347 8.82891 217.425 9.93035 219.077 9.93885C220.723 9.94735 221.868 8.82552 221.873 7.19716C221.878 5.545 220.751 4.40447 219.126 4.42147C217.434 4.43846 216.352 5.50251 216.35 7.15466H216.348ZM204.278 3.27244C204.284 1.41801 203.431 0.522245 201.654 0.520545C200.029 0.520545 198.937 1.58459 198.91 3.20105C198.883 4.77671 200.005 5.89005 201.625 5.89345C203.415 5.89685 204.273 5.05037 204.278 3.27244ZM186.467 2.79991C186.492 1.19534 185.439 0.027618 183.95 0.00722105C182.287 -0.0165754 181.134 1.06446 181.093 2.68602C181.056 4.15801 182.19 5.33763 183.671 5.36483C185.4 5.39712 186.441 4.44356 186.467 2.80161V2.79991ZM168.786 5.63849C168.804 3.91494 167.938 3.02767 166.225 3.01408C164.521 3.00048 163.673 3.85035 163.578 5.47701C163.475 7.26175 164.686 8.18811 166.188 8.21191C167.76 8.2374 168.767 7.22605 168.784 5.63849H168.786ZM146.821 11.5978C146.826 13.1837 147.854 14.2358 149.382 14.2222C150.871 14.2069 152.005 13.0732 152.008 11.5978C152.012 10.1292 150.915 9.01079 149.465 9.00739C147.776 9.00229 146.815 9.94565 146.821 11.5995V11.5978ZM131.37 20.4314C131.353 22.0717 132.279 23.0099 133.92 23.0201C135.375 23.0286 136.415 21.9901 136.418 20.5232C136.423 18.9356 135.409 17.8733 133.875 17.858C132.401 17.8427 131.385 18.888 131.37 20.4314ZM120.109 34.4254C121.65 34.4254 122.71 33.4107 122.707 31.9353C122.703 30.5228 121.594 29.3925 120.202 29.3806C118.691 29.367 117.674 30.3902 117.667 31.9285C117.66 33.4736 118.591 34.4254 120.109 34.4254ZM106.269 45.671C106.272 47.2415 107.179 48.1764 108.699 48.1781C110.13 48.1798 111.139 47.1276 111.145 45.6268C111.152 44.2347 110.143 43.1893 108.785 43.1825C107.176 43.1723 106.264 44.0732 106.267 45.671H106.269ZM102.314 61.2543C102.306 59.7993 101.304 58.793 99.8775 58.8083C98.4786 58.8219 97.4866 59.8333 97.5018 61.2271C97.5205 62.7908 98.387 63.6781 99.8979 63.6764C101.417 63.6764 102.323 62.7687 102.313 61.2543H102.314ZM93.6797 95.1965C93.6831 93.6345 92.8997 92.8135 91.3905 92.8016C89.8576 92.788 89.0081 93.6073 88.9962 95.1081C88.9843 96.5767 89.9628 97.6255 91.3414 97.6272C92.6911 97.6272 93.6763 96.6056 93.6797 95.1965ZM96.5726 78.2177C96.5726 76.7509 95.7146 75.8262 94.3512 75.8228C92.7674 75.8177 91.9043 76.6863 91.9026 78.284C91.9009 79.7356 92.7234 80.5158 94.2597 80.5158C95.9079 80.5158 96.576 79.8546 96.5743 78.2177H96.5726Z" fill="white"/>
<path d="M216.297 87.1871C219.402 87.1871 221.235 89.033 221.235 92.1588C221.235 95.079 219.239 97.117 216.384 97.1136C213.365 97.1102 211.3 95.0535 211.281 92.0773C211.268 89.8149 212.991 86.9644 216.299 87.1871H216.297Z" fill="#000A8D"/>
<path d="M234.101 87.1571C237.344 86.9515 239.2 89.6184 239.196 91.9623C239.193 94.9539 237.212 97.0616 234.291 97.0667C231.384 97.0718 229.407 95.1578 229.21 92.496C228.981 89.377 231.43 86.9617 234.101 87.1554V87.1571Z" fill="#000A8D"/>
<path d="M193.466 92.1163C193.213 89.7299 195.355 87.0697 198.397 87.1666C201.415 87.2618 203.435 89.1859 203.418 92.152C203.403 95.0722 201.331 97.1051 198.451 97.1255C195.362 97.1475 193.184 94.5843 193.466 92.1163Z" fill="#000A8D"/>
<path d="M175.623 92.1589C175.287 89.3594 177.926 87.063 180.579 87.1633C183.486 87.2721 185.537 89.2336 185.563 92.147C185.588 95.0094 183.472 97.0695 180.593 97.1357C177.803 97.2003 175.301 94.9244 175.623 92.1606V92.1589Z" fill="#000A8D"/>
<path d="M226.154 75.3838C225.846 73.0127 227.993 70.4766 231.111 70.5021C234.201 70.5276 235.959 73.0093 235.973 75.3668C235.991 78.3635 233.633 80.3811 230.963 80.3794C228.456 80.3794 225.819 78.0694 226.154 75.3838Z" fill="#000A8D"/>
<path d="M226.146 60.5877C226.455 63.0251 224.127 65.5866 220.893 65.4115C218.848 65.3011 216.304 63.3005 216.36 60.433C216.413 57.7236 218.502 55.638 221.22 55.604C224.281 55.5649 226.423 57.8902 226.146 60.5877Z" fill="#000A8D"/>
<path d="M211.569 50.3724C211.566 53.2144 209.508 55.2847 206.642 55.3017C204.083 55.317 201.75 53.2569 201.88 50.3537C202.012 47.4166 203.796 45.54 206.744 45.54C209.492 45.54 211.571 47.6239 211.569 50.3724Z" fill="#000A8D"/>
<path d="M189.347 41.935C192.036 41.6596 194.097 44.0206 194.103 46.7198C194.11 49.6434 191.794 51.61 189.283 51.5454C186.561 51.474 184.506 49.6739 184.45 46.611C184.411 44.4047 186.256 41.6664 189.345 41.935H189.347Z" fill="#000A8D"/>
<path d="M171.823 54.4942C169.015 54.7781 167.055 52.1333 166.991 49.9304C166.906 47.0476 169.259 44.9637 171.737 44.8923C174.348 44.8193 176.607 47.0816 176.632 49.7196C176.658 52.3933 174.523 54.7016 171.823 54.4925V54.4942Z" fill="#000A8D"/>
<path d="M161.166 58.8217C161.25 61.4376 159.327 63.4637 156.591 63.5878C153.764 63.7153 151.722 61.6314 151.719 58.7911C151.715 56.0035 153.671 54.0777 156.448 54.0318C159.02 53.9893 161.376 56.2806 161.167 58.8217H161.166Z" fill="#000A8D"/>
<path d="M149.128 71.9985C149.133 74.764 147.209 76.7289 144.497 76.7272C141.81 76.7272 139.704 74.6841 139.719 72.0648C139.737 69.1786 142.079 67.2528 144.468 67.2647C146.915 67.2766 149.298 69.3333 149.128 71.9985Z" fill="#000A8D"/>
<path d="M137.601 93.0822C134.959 93.2878 132.97 90.9371 133.053 88.328C133.125 86.103 134.885 83.8406 137.778 83.8644C140.192 83.8831 142.39 85.7988 142.344 88.5863C142.302 91.1071 140.338 93.3354 137.603 93.0822H137.601Z" fill="#000A8D"/>
<path d="M136.474 110.901C133.785 110.897 132.014 109.095 131.977 106.369C131.936 103.333 134.141 101.707 136.559 101.683C139.216 101.656 141.158 103.643 141.153 106.277C141.146 109.124 139.345 110.906 136.474 110.902V110.901Z" fill="#000A8D"/>
<path d="M135.985 123.778C135.814 120.829 138.337 119.085 140.489 119.116C143.127 119.151 145.142 121.094 145.086 123.73C145.026 126.61 143.137 128.299 140.565 128.333C138.042 128.367 135.866 126.691 135.983 123.778H135.985Z" fill="#000A8D"/>
<path d="M154.42 138.813C154.417 141.674 152.879 143.166 150.045 143.228C147.3 143.285 145.472 141.28 145.533 138.693C145.594 136.095 147.189 134.244 150.16 134.265C152.863 134.284 154.425 135.941 154.422 138.815L154.42 138.813Z" fill="#000A8D"/>
<path d="M164.249 153.911C161.604 154.086 159.705 151.672 159.759 149.406C159.817 146.945 161.639 144.926 164.403 144.919C166.616 144.914 168.875 147.006 168.841 149.423C168.807 151.803 166.684 154.179 164.251 153.912L164.249 153.911Z" fill="#000A8D"/>
<path d="M185.427 155.643C185.701 158.205 183.302 160.107 180.952 160.064C178.853 160.025 176.529 158.246 176.653 155.499C176.768 152.941 178.508 151.12 181.054 151.108C183.178 151.098 185.666 152.689 185.428 155.643H185.427Z" fill="#000A8D"/>
<path d="M198.785 152.945C201.091 152.689 203.269 154.766 203.219 157.331C203.172 159.902 201.412 161.689 198.855 161.737C196.467 161.781 194.471 159.981 194.434 157.314C194.398 154.756 196.721 152.634 198.785 152.945Z" fill="#000A8D"/>
<path d="M216.315 158.495C214.024 158.588 211.94 156.679 211.957 154.069C211.974 151.534 213.797 149.743 216.325 149.746C218.911 149.749 220.715 151.551 220.705 154.118C220.693 156.649 218.84 158.496 216.315 158.493V158.495Z" fill="#000A8D"/>
<path d="M236.5 145.832C236.718 148.342 234.862 150.146 232.633 150.312C230.027 150.506 228.03 148.822 227.899 146.42C227.753 143.736 229.534 141.632 232.138 141.632C234.378 141.632 236.484 143.06 236.5 145.834V145.832Z" fill="#000A8D"/>
<path d="M245.037 137.801C242.646 138.054 240.748 136.089 240.75 133.618C240.75 130.847 243.005 129.229 245.096 129.319C247.602 129.428 249.208 131 249.208 133.585C249.208 136.303 247.726 137.802 245.037 137.801Z" fill="#000A8D"/>
<path d="M257.859 117.953C257.859 120.435 256.038 122.288 253.61 122.279C251.185 122.271 249.557 120.54 249.559 117.972C249.562 115.37 251.139 113.729 253.635 113.734C256.102 113.739 257.859 115.494 257.859 117.951V117.953Z" fill="#000A8D"/>
<path d="M257.325 104.649C254.856 104.632 253.161 102.937 253.137 100.531C253.117 98.4807 254.688 96.2897 257.378 96.3407C259.928 96.39 261.57 98.0082 261.554 100.532C261.539 103.092 259.921 104.666 257.324 104.649H257.325Z" fill="#000A8D"/>
<path d="M261.057 82.6728C261.31 84.8332 259.258 86.8814 256.909 86.7794C254.427 86.6706 252.797 85.1069 252.813 82.6065C252.828 80.1657 254.481 78.5441 256.891 78.4744C259.26 78.4048 261.296 80.3867 261.055 82.6745L261.057 82.6728Z" fill="#000A8D"/>
<path d="M255.974 65.5783C256.201 67.7999 254.253 69.6492 251.945 69.5864C249.395 69.5184 247.908 67.9631 247.86 65.4152C247.823 63.4265 249.349 61.3715 252.109 61.4259C254.261 61.4684 256.223 63.2293 255.974 65.5783Z" fill="#000A8D"/>
<path d="M242.536 54.3122C240.043 54.3173 238.639 52.8215 238.539 50.2957C238.44 47.8277 240.346 46.286 242.475 46.2384C245.111 46.1806 246.741 48.4243 246.649 50.2923C246.527 52.7756 245.069 54.3071 242.536 54.3122Z" fill="#000A8D"/>
<path d="M229.886 41.746C227.863 41.9551 225.803 40.1551 225.84 37.7924C225.878 35.3601 227.502 33.6552 229.849 33.696C232.199 33.7368 233.951 35.4842 233.951 37.7669C233.951 39.7097 232.282 41.9517 229.888 41.746H229.886Z" fill="#000A8D"/>
<path d="M218.524 28.3841C218.831 30.9796 216.531 32.4482 214.647 32.3921C212.323 32.3224 210.617 30.7314 210.613 28.4928C210.608 26.1166 212.284 24.5001 214.669 24.4338C216.535 24.3829 218.837 25.9262 218.524 28.3841Z" fill="#000A8D"/>
<path d="M197.426 20.1744C199.723 19.9653 201.427 22.073 201.368 24.0821C201.3 26.3547 199.688 27.9151 197.387 28.0171C195.287 28.1105 193.417 26.2119 193.41 24.0005C193.405 22.124 195.145 19.894 197.426 20.1744Z" fill="#000A8D"/>
<path d="M175.667 24.6024C175.421 22.7921 177.229 20.6199 179.652 20.7201C181.831 20.8102 183.533 22.4301 183.537 24.5939C183.54 26.812 181.853 28.4064 179.618 28.5067C177.385 28.607 175.458 26.6472 175.667 24.6041V24.6024Z" fill="#000A8D"/>
<path d="M162.307 33.2572C160.306 33.451 158.395 31.5065 158.492 29.3291C158.583 27.2758 160.104 25.5931 162.358 25.5506C164.639 25.5081 166.294 27.2622 166.243 29.562C166.195 31.7172 164.62 33.4204 162.307 33.2572Z" fill="#000A8D"/>
<path d="M142.945 38.0305C142.759 35.9959 144.453 34.1635 146.776 34.2893C149.133 34.4185 150.488 35.6848 150.486 38.0696C150.486 40.3353 148.965 41.8447 146.726 41.8804C144.595 41.9144 142.689 40.1552 142.945 38.0305Z" fill="#000A8D"/>
<path d="M137.132 49.9657C137.33 52.2196 135.46 53.7817 133.501 53.7834C131.631 53.7851 129.664 52.5273 129.664 49.9522C129.664 47.6031 131.489 46.0801 133.429 46.1209C135.336 46.16 137.261 47.3634 137.132 49.9657Z" fill="#000A8D"/>
<path d="M123.14 68.2758C120.944 68.2826 119.449 66.8327 119.415 64.6638C119.379 62.3522 120.827 60.8479 123.091 60.8428C125.287 60.8394 126.861 62.4099 126.884 64.6332C126.906 66.6933 125.287 68.269 123.142 68.2758H123.14Z" fill="#000A8D"/>
<path d="M120.001 81.1466C120.242 83.1778 118.464 84.8656 116.369 84.7823C114.152 84.6939 112.708 83.3222 112.711 81.1024C112.714 78.9335 114.2 77.5737 116.418 77.4581C118.213 77.3646 120.279 78.9182 120.001 81.1466Z" fill="#000A8D"/>
<path d="M110.039 98.8132C110.031 96.6529 111.463 95.1945 113.619 95.1741C115.816 95.152 117.392 96.6902 117.392 98.8574C117.392 100.85 115.699 102.612 113.707 102.512C111.591 102.406 110.036 101.184 110.039 98.8132Z" fill="#000A8D"/>
<path d="M111.524 116.631C111.305 114.696 112.933 113.065 114.937 113.044C117.209 113.019 118.629 114.394 118.632 116.614C118.635 118.834 117.269 120.229 115.088 120.248C113.043 120.265 111.327 118.715 111.522 116.632L111.524 116.631Z" fill="#000A8D"/>
<path d="M124.028 133.634C124.028 135.856 122.707 137.233 120.574 137.233C118.487 137.233 117.042 135.784 117.02 133.67C116.998 131.494 118.353 130.259 120.564 130.126C122.378 130.017 124.321 131.742 124.028 133.634Z" fill="#000A8D"/>
<path d="M129.817 145.446C132 145.446 133.351 146.842 133.339 149.084C133.329 151.062 131.928 152.371 129.863 152.415C127.596 152.463 126.321 150.811 126.278 149.016C126.232 147.034 127.937 145.288 129.815 145.446H129.817Z" fill="#000A8D"/>
<path d="M145.75 161.767C145.879 164.031 144.058 165.212 142.318 165.268C140.768 165.319 138.752 164.08 138.855 161.696C138.945 159.608 140.224 158.243 142.296 158.245C144.412 158.247 145.752 159.612 145.748 161.767H145.75Z" fill="#000A8D"/>
<path d="M157.338 174.634C155.321 174.627 153.955 173.25 153.965 171.236C153.975 169.197 155.398 167.769 157.417 167.771C159.389 167.772 160.802 169.159 160.809 171.102C160.817 173.368 159.566 174.641 157.338 174.634Z" fill="#000A8D"/>
<path d="M174.253 180.253C172.191 180.25 170.964 178.902 170.926 176.728C170.894 174.896 172.69 173.386 174.423 173.503C176.332 173.631 177.782 174.999 177.789 176.901C177.794 178.416 176.559 180.498 174.253 180.255V180.253Z" fill="#000A8D"/>
<path d="M195.433 178.875C195.443 180.794 194.076 182.208 192.179 182.242C190.173 182.278 188.738 180.928 188.75 178.994C188.765 176.574 190.135 175.467 192.109 175.488C194.108 175.508 195.338 176.604 195.433 178.875Z" fill="#000A8D"/>
<path d="M209.827 180.928C207.89 180.919 206.644 179.597 206.652 177.562C206.661 175.536 207.99 174.197 209.967 174.219C211.829 174.241 213.22 175.698 213.208 177.617C213.196 179.578 211.809 180.936 209.827 180.928Z" fill="#000A8D"/>
<path d="M223.83 172.82C223.837 170.934 225.191 169.609 227.106 169.616C229.102 169.625 230.382 170.917 230.367 172.914C230.353 174.804 228.98 176.167 227.089 176.169C225.198 176.169 223.823 174.756 223.828 172.82H223.83Z" fill="#000A8D"/>
<path d="M239.892 164.898C239.889 162.909 241.086 161.637 242.97 161.629C245.021 161.62 246.303 162.866 246.29 164.853C246.276 166.827 245.077 167.971 243.105 168.049C241.362 168.119 239.663 166.596 239.892 164.896V164.898Z" fill="#000A8D"/>
<path d="M257.015 150.559C258.991 150.559 260.197 151.754 260.193 153.709C260.19 155.618 258.986 156.802 257.049 156.806C255.033 156.809 253.841 155.655 253.836 153.695C253.833 151.742 255.03 150.559 257.015 150.558V150.559Z" fill="#000A8D"/>
<path d="M267.418 142.38C265.612 142.356 264.376 141.066 264.356 139.231C264.335 137.49 265.629 135.952 267.757 136.117C269.467 136.251 270.672 137.471 270.669 139.316C270.667 141.111 269.295 142.402 267.418 142.379V142.38Z" fill="#000A8D"/>
<path d="M271.801 122.919C271.796 121.01 272.94 119.844 274.836 119.825C276.683 119.807 278.017 121.126 278 122.953C277.983 124.733 276.664 126.019 274.841 126.033C273.03 126.046 271.804 124.79 271.801 122.919Z" fill="#000A8D"/>
<path d="M282.253 105.612C282.466 107.269 281.103 108.607 279.192 108.6C277.422 108.594 276.157 107.19 276.213 105.542C276.275 103.703 277.491 102.481 279.34 102.498C281.062 102.515 282.256 103.79 282.253 105.612Z" fill="#000A8D"/>
<path d="M280.269 90.7089C278.42 90.6868 277.366 89.5547 277.391 87.6153C277.413 85.8765 278.675 84.6374 280.403 84.6595C282.114 84.6816 283.407 86.0023 283.385 87.702C283.36 89.5955 282.181 90.731 280.269 90.7072V90.7089Z" fill="#000A8D"/>
<path d="M280.58 70.0336C280.58 71.9288 279.532 72.9911 277.67 72.9877C275.914 72.9843 274.759 71.8438 274.739 70.0914C274.717 68.2148 275.788 67.1304 277.659 67.1338C279.651 67.1372 280.582 68.0602 280.58 70.0336Z" fill="#000A8D"/>
<path d="M271.476 56.1817C269.689 56.1817 268.583 55.0769 268.578 53.2837C268.573 51.4904 269.75 50.2989 271.518 50.3057C273.167 50.3125 274.406 51.5448 274.425 53.1987C274.442 54.7794 273.224 56.3789 271.478 56.1817H271.476Z" fill="#000A8D"/>
<path d="M259.25 38.0531C259.25 36.2803 260.4 35.1227 262.138 35.1448C263.759 35.1652 264.937 36.3687 264.937 38.0055C264.937 39.7954 263.881 40.8781 262.131 40.8798C260.191 40.8832 259.248 39.9585 259.25 38.0548V38.0531Z" fill="#000A8D"/>
<path d="M247.059 24.8476C247.071 23.1955 248.246 22.0719 249.936 22.0991C251.646 22.1263 252.677 23.2617 252.643 25.0822C252.61 26.7836 251.571 27.8103 249.882 27.8103C248.13 27.8103 247.045 26.6714 247.059 24.8493V24.8476Z" fill="#000A8D"/>
<path d="M235.344 17.2748C233.592 17.2748 232.608 16.3043 232.602 14.5688C232.596 12.8623 233.69 11.7371 235.362 11.7286C237.026 11.7201 238.147 12.8164 238.143 14.4448C238.14 16.3298 237.205 17.2748 235.342 17.2731L235.344 17.2748Z" fill="#000A8D"/>
<path d="M216.349 7.14744C216.351 5.49529 217.433 4.43125 219.125 4.41425C220.75 4.39725 221.877 5.53778 221.872 7.18994C221.867 8.8183 220.724 9.94013 219.076 9.93163C217.426 9.92313 216.346 8.8217 216.348 7.14744H216.349Z" fill="#000A8D"/>
<path d="M204.279 3.26557C204.274 5.0435 203.416 5.89168 201.625 5.88658C200.008 5.88318 198.885 4.76984 198.911 3.19418C198.938 1.57772 200.03 0.511974 201.654 0.513674C203.431 0.513674 204.284 1.41114 204.279 3.26557Z" fill="#000A8D"/>
<path d="M186.468 2.79472C186.443 4.43668 185.402 5.39024 183.672 5.35794C182.192 5.33074 181.057 4.15112 181.095 2.67914C181.135 1.05758 182.288 -0.0217637 183.952 0.00033304C185.441 0.02073 186.494 1.19016 186.468 2.79302V2.79472Z" fill="#000A8D"/>
<path d="M168.786 5.63332C168.769 7.22089 167.762 8.23224 166.19 8.20674C164.688 8.18295 163.477 7.25658 163.58 5.47185C163.674 3.84519 164.523 2.99701 166.227 3.00891C167.94 3.02251 168.807 3.90978 168.788 5.63332H168.786Z" fill="#000A8D"/>
<path d="M146.82 11.5931C146.814 9.93926 147.775 8.9959 149.464 9.001C150.912 9.0044 152.009 10.1228 152.007 11.5914C152.004 13.0685 150.871 14.2022 149.381 14.2158C147.853 14.2311 146.827 13.179 146.82 11.5914V11.5931Z" fill="#000A8D"/>
<path d="M131.371 20.4261C131.387 18.8828 132.404 17.8374 133.876 17.8527C135.41 17.868 136.426 18.932 136.419 20.5179C136.414 21.9848 135.377 23.0233 133.922 23.0148C132.279 23.0063 131.354 22.0664 131.371 20.4261Z" fill="#000A8D"/>
<path d="M120.11 34.42C118.592 34.42 117.661 33.4681 117.668 31.9231C117.675 30.3848 118.691 29.3615 120.203 29.3751C121.597 29.387 122.706 30.5191 122.708 31.9299C122.711 33.4035 121.65 34.42 120.11 34.42Z" fill="#000A8D"/>
<path d="M106.27 45.6662C106.266 44.0702 107.177 43.1693 108.788 43.1778C110.146 43.1863 111.153 44.2299 111.148 45.622C111.141 47.1212 110.131 48.1751 108.701 48.1734C107.182 48.1717 106.275 47.2368 106.271 45.6662H106.27Z" fill="#000A8D"/>
<path d="M102.315 61.2488C102.323 62.7633 101.419 63.6709 99.9001 63.6709C98.391 63.6709 97.5228 62.7837 97.5041 61.2216C97.4872 59.8278 98.4808 58.8165 99.8798 58.8029C101.306 58.7893 102.308 59.7938 102.317 61.2488H102.315Z" fill="#000A8D"/>
<path d="M93.6797 95.191C93.6763 96.6001 92.6928 97.6234 91.3414 97.6217C89.9611 97.6217 88.9843 96.5712 88.9962 95.1026C89.0081 93.6017 89.8576 92.7825 91.3905 92.7961C92.8997 92.8097 93.6848 93.6289 93.6797 95.191Z" fill="#000A8D"/>
<path d="M96.574 78.2104C96.574 79.8473 95.9076 80.5102 94.2594 80.5085C92.7231 80.5085 91.9007 79.7283 91.9023 78.2767C91.9057 76.6772 92.7688 75.8104 94.3509 75.8155C95.7143 75.8206 96.5723 76.7435 96.5723 78.2104H96.574Z" fill="#000A8D"/>
<path d="M485.828 116.718C482.947 112.103 480.069 107.488 477.188 102.874C476.441 101.675 476.454 101.708 477.709 101.096C479.973 99.9908 481.804 98.3692 483.005 96.1476C484.816 92.7957 484.931 89.2212 484.019 85.6041C483.246 82.5411 481.36 80.2873 478.606 78.7813C476.008 77.3603 473.204 76.7008 470.251 76.6906C465.193 76.6753 460.135 76.6804 455.077 76.6787C453.99 76.6787 453.996 76.6804 453.996 77.8056C453.996 90.9481 453.996 104.091 453.973 117.233C453.973 117.93 454.202 118.119 454.848 118.108C456.514 118.081 458.183 118.062 459.848 118.117C460.618 118.142 460.783 117.877 460.777 117.141C460.742 113.12 460.75 109.098 460.774 105.078C460.781 103.774 460.981 103.596 462.307 103.531C464.393 103.429 466.484 103.407 468.562 103.237C469.37 103.171 469.788 103.416 470.187 104.075C472.87 108.522 475.593 112.945 478.275 117.389C478.596 117.921 478.967 118.122 479.571 118.115C481.633 118.091 483.697 118.115 485.759 118.11C485.998 118.11 486.237 118.061 486.661 118.015C486.327 117.493 486.072 117.109 485.828 116.718ZM468.939 97.7318C466.543 97.8491 464.137 97.7505 461.736 97.7828C460.988 97.793 460.676 97.5618 460.693 96.7612C460.737 94.5822 460.708 92.4014 460.708 90.2223C460.711 90.2223 460.715 90.2223 460.718 90.2223C460.718 88.0143 460.737 85.8064 460.706 83.5984C460.696 82.91 460.986 82.7213 461.617 82.7264C464.442 82.7519 467.272 82.6448 470.09 82.791C472.34 82.9083 474.508 83.5287 476.068 85.3423C478.164 87.7815 478.04 92.279 475.957 94.7827C474.107 97.0094 471.599 97.5992 468.937 97.7284L468.939 97.7318Z" fill="#000A8D"/>
<path d="M476.022 161.109C475.734 161.01 475.481 160.804 475.213 160.65C475.45 160.439 475.659 160.169 475.932 160.029C477.772 159.094 479.177 157.738 480.195 155.929C481.161 154.209 481.16 152.357 481.1 150.484C481.029 148.199 480.261 146.178 478.774 144.439C476.31 141.556 472.914 140.746 469.412 140.639C463.485 140.457 457.55 140.579 451.621 140.559C451.088 140.557 450.881 140.681 450.883 141.273C450.903 147.925 450.897 154.58 450.897 161.233H450.886C450.886 167.858 450.898 174.482 450.871 181.108C450.868 181.924 451.246 182.036 451.909 182.034C456.852 182.021 461.795 182.029 466.738 182.027C469.683 182.027 472.595 181.817 475.418 180.856C478.535 179.797 480.617 177.713 481.807 174.661C482.493 172.908 482.228 171.09 482.318 169.293C482.496 165.766 479.501 162.297 476.022 161.11V161.109ZM458.527 146.249C462.271 146.358 466.061 145.855 469.748 146.72C472.898 147.46 474.679 149.807 474.117 153.376C473.699 156.042 471.464 158.064 468.868 158.205C465.8 158.372 462.726 158.386 459.655 158.472C457.598 158.532 457.488 158.642 457.571 156.344C457.618 155.015 457.579 153.684 457.579 152.353H457.552C457.552 150.684 457.564 149.013 457.547 147.344C457.54 146.651 457.834 146.229 458.527 146.249ZM470.016 175.857C466.468 176.224 462.868 176.078 459.29 176.158C459.009 176.165 458.726 176.218 458.449 176.19C457.878 176.133 457.523 175.879 457.532 175.215C457.556 173.49 457.54 171.764 457.54 170.041C457.549 170.041 457.556 170.041 457.564 170.041C457.564 168.401 457.566 166.759 457.564 165.118C457.562 164.141 457.761 163.9 458.748 163.893C461.571 163.872 464.401 163.745 467.213 163.918C469.214 164.041 471.247 164.309 473.08 165.327C474.55 166.143 475.301 167.466 475.499 169.009C476.017 173.02 473.571 175.494 470.016 175.861V175.857Z" fill="#000A8D"/>
</svg>
