<svg width="488" height="183" viewBox="0 0 488 183" fill="none" xmlns="http://www.w3.org/2000/svg">
<path d="M271.57 22.4128C271.7 22.4213 271.831 22.4298 271.962 22.4383C272.012 23.5262 272.09 24.614 272.111 25.7019C272.172 29.1829 272.19 32.6657 272.262 36.1468C272.323 39.1452 272.455 42.1418 272.509 45.1402C272.56 47.9125 272.555 50.6848 272.565 53.457C272.567 53.9381 272.747 54.1981 273.259 54.1981C275.095 54.1947 276.932 54.227 278.768 54.1777C279.005 54.1709 279.435 53.7732 279.435 53.5556C279.429 51.2372 279.382 48.9187 279.297 46.6037C279.16 42.8217 278.961 39.0398 278.834 35.2578C278.644 29.6351 278.493 24.0106 278.326 18.3861C278.276 16.7748 278.215 15.1634 278.173 13.5504C278.161 13.0778 278.093 12.7158 277.488 12.7192C274.804 12.7379 272.119 12.7192 269.437 12.7702C269.14 12.7753 268.707 13.0829 268.58 13.3617C268.182 14.232 267.887 15.1498 267.575 16.0592C265.95 20.7862 264.338 25.5183 262.713 30.2453C261.448 33.9303 260.173 37.6103 258.906 41.2937C258.484 42.5209 258.097 43.7617 257.652 44.9787C257.56 45.2303 257.275 45.4104 257.08 45.6229C256.921 45.3883 256.719 45.1708 256.615 44.9124C256.48 44.5759 256.446 44.2002 256.327 43.8569C254.325 38.0641 252.317 32.2731 250.307 26.4837C248.803 22.1511 247.287 17.8235 245.792 13.4892C245.624 13.003 245.4 12.7328 244.839 12.7345C242.127 12.7481 239.414 12.7345 236.703 12.7209C236.172 12.7175 235.95 12.9317 235.933 13.4773C235.736 19.3312 235.521 25.1834 235.319 31.0357C235.229 33.638 235.165 36.2386 235.083 38.8409C234.936 43.6478 234.799 48.4564 234.62 53.2633C234.592 54.052 234.902 54.2253 235.609 54.2066C237.162 54.1658 238.719 54.1471 240.271 54.21C241.054 54.2423 241.32 53.9857 241.334 53.2157C241.429 47.7 241.583 42.186 241.659 36.672C241.722 32.1694 241.7 27.6668 241.727 23.1641C241.727 22.9007 241.843 22.6389 241.905 22.3755C241.992 22.3738 242.078 22.3721 242.166 22.3704C242.511 23.3426 242.855 24.3149 243.199 25.2888C244.637 29.3648 246.075 33.4425 247.513 37.5185C249.393 42.8489 251.279 48.1776 253.141 53.5148C253.322 54.0367 253.6 54.21 254.131 54.2032C255.997 54.1794 257.862 54.1573 259.725 54.2134C260.451 54.2355 260.809 53.9806 261.019 53.3092C261.389 52.1261 261.811 50.9601 262.216 49.7907C263.902 44.9294 265.591 40.0681 267.278 35.2069C268.54 31.5711 269.803 27.9353 271.053 24.2962C271.265 23.6809 271.405 23.0401 271.578 22.4111L271.57 22.4128ZM311.022 118.138C311.022 117.524 311.022 117.021 311.022 116.519C311.024 103.549 311.019 90.5778 311.046 77.6071C311.046 76.8354 310.805 76.6416 310.079 76.6637C308.47 76.7113 306.857 76.7113 305.248 76.6637C304.543 76.6416 304.355 76.9204 304.4 77.5578C304.453 78.2921 304.475 79.0281 304.477 79.7641C304.507 88.3444 304.531 96.9247 304.56 105.505C304.56 105.957 304.604 106.413 304.575 106.863C304.565 107.025 304.397 107.178 304.302 107.334C304.151 107.239 303.946 107.181 303.854 107.045C301.831 104.001 299.827 100.943 297.804 97.8987C293.234 91.0147 288.651 84.1392 284.093 77.2467C283.799 76.8048 283.489 76.6671 282.99 76.6722C281.013 76.6943 279.033 76.7283 277.059 76.662C276.17 76.6314 275.982 76.9357 275.984 77.7736C276.009 90.6594 276.002 103.545 276.002 116.431C276.002 116.771 275.921 117.135 276.018 117.442C276.097 117.696 276.384 118.064 276.587 118.07C278.422 118.119 280.26 118.119 282.095 118.071C282.285 118.066 282.626 117.663 282.626 117.446C282.627 115.326 282.561 113.205 282.534 111.085C282.449 104.348 282.361 97.6114 282.302 90.8736C282.292 89.6804 282.409 88.4872 282.466 87.2939C282.556 87.2514 282.646 87.2107 282.738 87.1682C283.119 87.7189 283.511 88.2645 283.881 88.822C287.018 93.5507 290.153 98.2794 293.285 103.011C296.464 107.815 299.647 112.617 302.81 117.432C303.161 117.966 303.558 118.182 304.197 118.153C305.269 118.104 306.344 118.139 307.417 118.139C308.594 118.139 309.772 118.139 311.02 118.139L311.022 118.138ZM444.484 105.857H444.481C444.481 102.967 444.469 100.078 444.489 97.1899C444.494 96.51 444.314 96.2618 443.567 96.2686C438.454 96.306 433.34 96.3009 428.226 96.2686C427.566 96.2635 427.379 96.4658 427.39 97.0811C427.413 98.5531 427.434 100.028 427.383 101.499C427.357 102.247 427.593 102.479 428.346 102.469C431.227 102.427 434.11 102.452 436.992 102.44C437.548 102.439 438.059 102.496 438.064 103.204C438.081 105.605 438.103 108.009 438.047 110.411C438.039 110.771 437.698 111.327 437.384 111.441C435.727 112.042 434.06 112.71 432.338 113.016C430.003 113.431 427.674 113.246 425.316 112.632C421.465 111.633 418.706 109.362 416.968 105.921C414.857 101.743 414.562 97.263 415.552 92.7178C416.975 86.1959 422.204 81.7358 429.201 81.7409C430.735 81.7409 432.277 81.9992 433.803 82.2134C436.267 82.5601 438.507 83.5545 440.611 84.831C441.313 85.2576 441.605 85.1421 441.856 84.4452C442.429 82.8525 443.005 81.2615 443.597 79.6757C443.763 79.232 443.602 79.0247 443.212 78.8122C441.274 77.7533 439.243 76.934 437.065 76.5719C434.679 76.1759 432.285 75.6796 429.881 75.5946C426.777 75.4841 423.718 76.0365 420.8 77.1957C418.116 78.2615 415.776 79.8354 413.798 81.9414C409.981 86.0055 408.477 90.9722 408.354 96.4131C408.31 98.3525 408.498 100.311 408.75 102.238C409.466 107.73 412.05 112.158 416.583 115.36C420.169 117.894 424.269 118.914 428.592 119.098C431.168 119.207 433.696 118.794 436.236 118.345C438.944 117.867 441.445 116.932 443.845 115.666C444.155 115.503 444.448 114.976 444.453 114.612C444.503 111.696 444.481 108.777 444.481 105.86L444.484 105.857ZM315.358 154.516H315.361C315.361 156.837 315.349 159.159 315.365 161.483C315.387 164.649 315.19 167.826 315.819 170.967C316.496 174.35 317.969 177.268 320.677 179.471C323.121 181.46 325.971 182.356 329.066 182.753C332.805 183.235 336.427 182.935 339.966 181.638C345.389 179.65 348.506 174.443 348.624 169.351C348.829 160.548 348.714 151.738 348.738 142.932C348.738 142.424 348.709 141.902 348.807 141.409C348.938 140.751 348.75 140.545 348.085 140.564C346.617 140.607 345.148 140.588 343.678 140.586C341.984 140.584 341.97 140.581 341.97 142.328C341.97 149.182 342.009 156.035 341.967 162.889C341.953 165.171 341.925 167.485 341.565 169.728C341.024 173.104 338.937 175.683 335.374 176.582C333.229 177.122 331.184 177.105 329.042 176.522C326.707 175.888 324.976 174.615 323.872 172.499C322.904 170.646 322.393 168.663 322.397 166.551C322.407 158.197 322.397 149.843 322.426 141.489C322.429 140.729 322.212 140.523 321.462 140.549C319.741 140.608 318.015 140.613 316.294 140.552C315.516 140.525 315.344 140.788 315.349 141.516C315.378 145.849 315.365 150.181 315.365 154.514L315.358 154.516ZM262.878 76.73C262.539 76.7079 262.318 76.6807 262.099 76.6807C253.653 76.6773 245.205 76.6875 236.759 76.6603C235.906 76.6569 235.729 76.9748 235.733 77.755C235.76 83.9284 235.75 90.1019 235.75 96.2754C235.75 103.214 235.755 110.152 235.736 117.089C235.735 117.789 235.906 118.119 236.677 118.117C245.181 118.098 253.684 118.1 262.188 118.114C262.773 118.114 262.898 117.879 262.888 117.354C262.861 115.911 262.834 114.464 262.895 113.021C262.929 112.205 262.625 112.032 261.864 112.037C255.763 112.071 249.66 112.061 243.559 112.076C242.826 112.078 242.502 111.837 242.514 111.034C242.555 107.948 242.534 104.861 242.534 101.774C242.534 100.406 242.533 100.409 243.886 100.411C248.802 100.414 253.717 100.411 258.633 100.419C259.095 100.419 259.5 100.409 259.498 99.7871C259.491 98.2012 259.493 96.6154 259.488 95.0295C259.488 94.5281 259.278 94.2374 258.728 94.2374C253.673 94.251 248.619 94.251 243.564 94.2748C242.914 94.2782 242.499 94.2051 242.509 93.3824C242.546 90.1546 242.553 86.9268 242.521 83.699C242.514 82.9324 242.807 82.7182 243.511 82.725C245.743 82.7505 247.974 82.742 250.206 82.742C254.133 82.742 258.06 82.742 261.986 82.7386C262.396 82.7386 262.881 82.8491 262.879 82.1675C262.873 80.3862 262.878 78.6065 262.878 76.7317V76.73ZM325.797 97.3445H325.793C325.793 103.86 325.8 110.375 325.788 116.89C325.787 118.107 325.754 118.104 326.957 118.104C335.181 118.102 343.405 118.104 351.627 118.102C351.882 118.102 352.163 118.172 352.382 118.083C352.589 118 352.872 117.755 352.875 117.577C352.906 115.964 352.884 114.351 352.877 112.737C352.875 112.251 352.665 112.037 352.15 112.039C345.96 112.058 339.773 112.052 333.583 112.078C332.917 112.081 332.569 111.908 332.573 111.187C332.585 107.91 332.6 104.633 332.563 101.358C332.554 100.566 332.886 100.396 333.577 100.401C336.43 100.421 339.284 100.406 342.14 100.407C344.288 100.407 346.435 100.413 348.584 100.421C349.028 100.423 349.496 100.441 349.501 99.8296C349.514 98.2148 349.506 96.6001 349.486 94.987C349.479 94.4295 349.169 94.2323 348.599 94.2374C343.542 94.2748 338.487 94.2816 333.431 94.3071C332.883 94.3105 332.574 94.1252 332.574 93.5286C332.574 90.2787 332.59 87.0305 332.547 83.7806C332.535 82.8712 332.936 82.7199 333.733 82.7233C339.808 82.7505 345.884 82.7301 351.96 82.7522C352.67 82.7556 352.904 82.5142 352.886 81.8123C352.845 80.3403 352.852 78.8666 352.884 77.3946C352.896 76.8286 352.696 76.6671 352.146 76.6688C343.612 76.6824 335.077 76.6807 326.543 76.6688C325.958 76.6688 325.776 76.8541 325.778 77.4592C325.8 84.0882 325.792 90.7155 325.792 97.3445H325.797ZM266.062 173.226C265.542 173.587 265.14 173.94 264.679 174.175C260.37 176.356 255.974 177.792 251.02 176.534C247.774 175.71 245.292 173.962 243.394 171.302C241.781 169.042 241.039 166.405 240.725 163.708C240.362 160.601 240.622 157.499 241.69 154.509C243.842 148.483 248.457 145.696 254.401 145.529C258.172 145.424 261.669 146.646 264.936 148.481C265.637 148.876 265.871 148.667 266.091 148.024C266.586 146.585 267.066 145.135 267.649 143.731C267.916 143.092 267.739 142.794 267.217 142.509C264.818 141.195 262.233 140.369 259.557 139.956C256.717 139.519 253.857 139.352 250.962 139.818C247.028 140.45 243.52 141.846 240.506 144.535C236.735 147.9 234.673 152.155 234.041 157.058C233.588 160.562 233.571 164.112 234.395 167.614C235.346 171.658 237.171 175.195 240.286 177.979C244.549 181.79 249.709 183.007 255.25 182.998C256.259 182.998 257.268 182.798 258.277 182.682C261.241 182.342 264.068 181.521 266.752 180.212C267.212 179.988 267.541 179.651 267.42 179.072C267.102 177.556 266.788 176.038 266.456 174.523C266.367 174.122 266.22 173.733 266.064 173.225L266.062 173.226ZM451.65 76.628C451.84 77.1022 451.926 77.4201 452.084 77.6989C453.712 80.5663 455.353 83.4287 456.99 86.2911C459.577 90.8175 462.167 95.3422 464.748 99.8721C465.372 100.968 466.057 102.021 466.045 103.389C466.006 108.005 466.045 112.624 466.007 117.24C466.002 117.925 466.186 118.136 466.855 118.122C468.549 118.087 470.247 118.068 471.941 118.124C472.709 118.149 472.907 117.889 472.902 117.153C472.868 112.311 472.867 107.468 472.873 102.626C472.873 102.272 472.946 101.874 473.116 101.57C474.791 98.5667 476.487 95.5768 478.189 92.5886C481.082 87.5115 483.987 82.4412 486.876 77.3606C486.975 77.1855 487.049 76.8949 486.968 76.7521C486.9 76.6314 486.592 76.6076 486.39 76.6076C484.47 76.6076 482.549 76.6773 480.633 76.6076C479.924 76.5821 479.532 76.7793 479.212 77.3691C477.279 80.9352 475.327 84.4894 473.385 88.0503C472.239 90.1512 471.106 92.2572 469.95 94.3513C469.84 94.5502 469.626 94.7558 469.421 94.8102C469.295 94.8425 469.033 94.6266 468.939 94.4618C467.949 92.6923 466.988 90.9059 466.002 89.1314C463.796 85.1625 461.577 81.2003 459.379 77.2263C459.126 76.7708 458.835 76.5804 458.304 76.6127C457.488 76.662 456.668 76.6263 455.849 76.6263C454.506 76.6263 453.163 76.6263 451.653 76.6263L451.65 76.628ZM328.905 12.7124C328.905 12.7124 328.905 12.726 328.905 12.7328C323.282 12.7328 317.659 12.743 312.036 12.7192C311.361 12.7158 311.215 12.9962 311.222 13.5793C311.241 14.9951 311.276 16.4127 311.21 17.8252C311.173 18.619 311.414 18.8536 312.204 18.8451C315.877 18.8077 319.551 18.8077 323.224 18.8349C325.664 18.8536 325.458 18.3555 325.463 21.1159C325.486 31.8515 325.475 42.5855 325.454 53.3211C325.454 53.9891 325.651 54.2236 326.322 54.2083C328.016 54.1709 329.714 54.1624 331.408 54.2083C332.152 54.227 332.398 53.9857 332.379 53.2344C332.312 50.4043 332.276 47.5742 332.273 44.7424C332.271 42.5634 332.359 40.3843 332.366 38.2052C332.383 32.1762 332.374 26.1455 332.381 20.1165C332.381 18.8281 332.39 18.8281 333.68 18.8281C337.692 18.8281 341.706 18.8281 345.718 18.8366C346.182 18.8366 346.574 18.8264 346.564 18.1975C346.539 16.5844 346.523 14.973 346.518 13.36C346.518 12.8926 346.318 12.709 345.852 12.709C340.202 12.7158 334.552 12.7141 328.9 12.7141L328.905 12.7124ZM280.057 161.138C280.057 161.138 280.07 161.138 280.077 161.138C280.077 161.393 280.077 161.648 280.077 161.903C280.069 168.246 280.067 174.588 280.043 180.931C280.04 181.627 280.133 182.04 280.993 182.036C289.271 182.012 297.548 182.019 305.826 182.029C306.439 182.029 306.686 181.824 306.667 181.183C306.628 179.769 306.61 178.349 306.661 176.937C306.69 176.155 306.459 175.924 305.655 175.929C299.807 175.966 293.96 175.948 288.111 175.956C287.431 175.956 286.994 175.834 286.997 174.977C287.028 169.173 287.023 163.368 287.024 157.563C287.026 152.211 287.014 146.86 287.033 141.507C287.036 140.79 286.855 140.516 286.071 140.547C284.323 140.615 282.568 140.59 280.818 140.559C280.22 140.549 280.043 140.748 280.045 141.343C280.064 147.941 280.057 154.539 280.057 161.136V161.138ZM293.239 33.4901C293.239 40.0902 293.248 46.6903 293.227 53.2905C293.226 53.9534 293.431 54.2117 294.096 54.2032C295.876 54.1811 297.657 54.176 299.437 54.2083C300.117 54.2202 300.314 53.95 300.305 53.3007C300.268 50.4689 300.259 47.6371 300.254 44.8053C300.244 39.1129 300.232 33.4204 300.241 27.728C300.249 23.0842 300.275 18.4405 300.322 13.7968C300.331 12.9928 300.066 12.6954 299.242 12.7226C297.577 12.777 295.908 12.7549 294.241 12.7294C293.553 12.7192 293.224 12.9011 293.226 13.688C293.251 20.2882 293.241 26.8883 293.241 33.4884L293.239 33.4901Z" fill="white"/>
<path d="M271.569 22.4127C271.396 23.0416 271.255 23.6824 271.043 24.2977C269.795 27.9386 268.53 31.5726 267.269 35.2084C265.583 40.0697 263.894 44.931 262.207 49.7922C261.802 50.9634 261.38 52.1294 261.01 53.3107C260.8 53.9804 260.444 54.2354 259.716 54.215C257.852 54.1606 255.987 54.1827 254.122 54.2048C253.591 54.2116 253.313 54.0382 253.132 53.5164C251.27 48.1792 249.382 42.8505 247.504 37.5201C246.066 33.4441 244.628 29.3664 243.19 25.2904C242.847 24.3181 242.501 23.3442 242.157 22.3719C242.071 22.3736 241.984 22.3753 241.896 22.377C241.835 22.6405 241.72 22.9022 241.718 23.1657C241.691 27.6683 241.713 32.1709 241.65 36.6736C241.574 42.1893 241.419 47.7032 241.324 53.2172C241.311 53.9889 241.046 54.2439 240.261 54.2116C238.71 54.1487 237.153 54.1674 235.6 54.2082C234.893 54.2269 234.582 54.0535 234.611 53.2648C234.788 48.4579 234.925 43.651 235.074 38.8425C235.154 36.2401 235.22 33.6378 235.31 31.0372C235.512 25.185 235.727 19.331 235.924 13.4788C235.942 12.9349 236.164 12.719 236.694 12.7224C239.405 12.7377 242.118 12.7496 244.83 12.736C245.391 12.7326 245.615 13.0046 245.782 13.4907C247.278 17.8251 248.794 22.1526 250.298 26.4853C252.309 32.2746 254.315 38.0657 256.318 43.8584C256.437 44.2035 256.47 44.5791 256.606 44.914C256.71 45.1723 256.913 45.3899 257.071 45.6245C257.266 45.412 257.551 45.2318 257.642 44.9803C258.088 43.7615 258.477 42.5224 258.897 41.2952C260.162 37.6118 261.439 33.9302 262.704 30.2468C264.327 25.5181 265.941 20.7877 267.565 16.0607C267.877 15.1531 268.173 14.2335 268.571 13.3632C268.698 13.0845 269.129 12.7785 269.427 12.7717C272.11 12.719 274.794 12.7377 277.479 12.7207C278.084 12.7173 278.15 13.0794 278.164 13.5519C278.206 15.1633 278.269 16.7746 278.316 18.3877C278.486 24.0122 278.635 29.6366 278.825 35.2594C278.952 39.043 279.151 42.8233 279.288 46.6052C279.373 48.922 279.42 51.2404 279.425 53.5572C279.425 53.773 278.996 54.1725 278.759 54.1793C276.924 54.2286 275.086 54.1963 273.249 54.1997C272.736 54.1997 272.558 53.9413 272.556 53.4586C272.544 50.6863 272.551 47.914 272.5 45.1417C272.444 42.1434 272.312 39.1467 272.252 36.1484C272.183 32.6673 272.163 29.1845 272.101 25.7034C272.083 24.6156 272.005 23.5277 271.952 22.4399C271.822 22.4314 271.691 22.4229 271.561 22.4144L271.569 22.4127Z" fill="#000A8D"/>
<path d="M311.023 118.138C309.775 118.138 308.599 118.138 307.42 118.138C306.347 118.138 305.272 118.102 304.2 118.151C303.561 118.182 303.164 117.964 302.813 117.43C299.65 112.615 296.467 107.813 293.288 103.01C290.156 98.2777 287.021 93.549 283.884 88.8203C283.512 88.2611 283.122 87.7171 282.741 87.1664C282.651 87.2089 282.561 87.2497 282.469 87.2922C282.412 88.4854 282.293 89.6787 282.305 90.8719C282.364 97.6097 282.453 104.346 282.537 111.084C282.564 113.205 282.631 115.324 282.629 117.444C282.629 117.662 282.288 118.064 282.098 118.07C280.263 118.117 278.425 118.117 276.59 118.068C276.387 118.063 276.102 117.694 276.021 117.441C275.922 117.133 276.005 116.769 276.005 116.429C276.005 103.543 276.012 90.6577 275.987 77.7719C275.987 76.9339 276.172 76.6297 277.062 76.6603C279.037 76.7283 281.016 76.6943 282.993 76.6705C283.492 76.6654 283.804 76.8014 284.096 77.245C288.654 84.1375 293.237 91.013 297.807 97.8969C299.828 100.943 301.833 103.999 303.857 107.043C303.947 107.179 304.152 107.237 304.305 107.332C304.4 107.176 304.568 107.023 304.578 106.861C304.607 106.411 304.564 105.957 304.563 105.503C304.536 96.923 304.51 88.3427 304.48 79.7623C304.476 79.0263 304.456 78.2886 304.403 77.556C304.358 76.9169 304.546 76.6399 305.251 76.662C306.86 76.7113 308.473 76.7113 310.082 76.662C310.808 76.6399 311.051 76.8337 311.049 77.6053C311.023 90.5761 311.028 103.547 311.025 116.518C311.025 117.021 311.025 117.524 311.025 118.136L311.023 118.138Z" fill="#000A8D"/>
<path d="M444.485 105.855C444.485 108.772 444.507 111.69 444.458 114.607C444.451 114.971 444.159 115.497 443.849 115.661C441.45 116.927 438.948 117.86 436.24 118.339C433.698 118.788 431.172 119.201 428.596 119.092C424.274 118.909 420.174 117.891 416.587 115.355C412.056 112.152 409.47 107.724 408.755 102.233C408.504 100.305 408.314 98.347 408.358 96.4076C408.482 90.9667 409.986 86 413.803 81.9359C415.78 79.8316 418.118 78.2559 420.804 77.1902C423.724 76.031 426.783 75.4786 429.885 75.589C432.289 75.674 434.684 76.1704 437.07 76.5664C439.247 76.9284 441.278 77.7477 443.216 78.8067C443.608 79.0208 443.768 79.2265 443.601 79.6701C443.01 81.256 442.433 82.847 441.86 84.4396C441.609 85.1365 441.319 85.2504 440.615 84.8255C438.511 83.549 436.271 82.5546 433.807 82.2079C432.279 81.9937 430.74 81.737 429.205 81.7353C422.21 81.7302 416.979 86.1904 415.556 92.7123C414.564 97.2574 414.861 101.738 416.972 105.916C418.71 109.355 421.469 111.625 425.32 112.627C427.679 113.238 430.007 113.425 432.342 113.011C434.065 112.705 435.73 112.037 437.388 111.435C437.702 111.321 438.043 110.765 438.051 110.405C438.107 108.003 438.085 105.6 438.068 103.198C438.063 102.491 437.555 102.433 436.997 102.435C434.114 102.447 431.231 102.421 428.35 102.464C427.599 102.474 427.362 102.241 427.387 101.493C427.438 100.021 427.419 98.5475 427.394 97.0756C427.384 96.4602 427.57 96.258 428.23 96.2631C433.342 96.2971 438.457 96.3005 443.571 96.2631C444.319 96.258 444.498 96.5061 444.493 97.1843C444.471 100.074 444.485 102.963 444.485 105.851H444.488L444.485 105.855Z" fill="#000A8D"/>
<path d="M315.359 154.514C315.359 150.181 315.374 145.849 315.344 141.516C315.339 140.789 315.51 140.523 316.288 140.552C318.009 140.614 319.736 140.61 321.457 140.549C322.206 140.523 322.423 140.729 322.42 141.489C322.391 149.843 322.403 158.197 322.391 166.552C322.388 168.663 322.9 170.646 323.866 172.499C324.97 174.614 326.703 175.888 329.037 176.522C331.178 177.104 333.223 177.122 335.368 176.582C338.931 175.683 341.018 173.104 341.559 169.729C341.919 167.485 341.946 165.171 341.961 162.889C342.004 156.035 341.965 149.182 341.965 142.329C341.965 140.58 341.978 140.583 343.672 140.586C345.141 140.588 346.611 140.607 348.079 140.564C348.744 140.546 348.932 140.751 348.802 141.409C348.703 141.902 348.734 142.424 348.732 142.932C348.71 151.738 348.824 160.548 348.619 169.351C348.5 174.444 345.383 179.65 339.96 181.639C336.423 182.936 332.801 183.235 329.06 182.754C325.967 182.356 323.115 181.46 320.672 179.471C317.964 177.269 316.49 174.35 315.814 170.968C315.186 167.826 315.381 164.651 315.359 161.483C315.344 159.161 315.356 156.839 315.356 154.516H315.352L315.359 154.514Z" fill="#000A8D"/>
<path d="M262.879 76.7277C262.879 78.6025 262.874 80.3838 262.881 82.1635C262.884 82.8451 262.398 82.7346 261.987 82.7346C258.06 82.738 254.133 82.7397 250.207 82.738C247.976 82.738 245.744 82.7482 243.513 82.721C242.809 82.7125 242.514 82.9283 242.522 83.6949C242.555 86.9228 242.548 90.1506 242.51 93.3784C242.5 94.2028 242.916 94.2742 243.565 94.2708C248.62 94.247 253.675 94.247 258.73 94.2334C259.279 94.2334 259.488 94.524 259.49 95.0255C259.495 96.6113 259.493 98.1972 259.5 99.783C259.503 100.405 259.096 100.417 258.635 100.415C253.719 100.409 248.803 100.41 243.887 100.407C242.534 100.407 242.536 100.402 242.536 101.77C242.536 104.857 242.555 107.944 242.516 111.03C242.505 111.833 242.829 112.074 243.56 112.072C249.661 112.057 255.764 112.067 261.865 112.033C262.627 112.028 262.93 112.201 262.896 113.017C262.837 114.459 262.864 115.905 262.889 117.35C262.9 117.875 262.774 118.111 262.189 118.11C253.685 118.096 245.183 118.094 236.679 118.113C235.907 118.113 235.736 117.785 235.738 117.085C235.756 110.146 235.751 103.208 235.751 96.2714C235.751 90.0979 235.762 83.9244 235.734 77.7509C235.731 76.9707 235.907 76.6529 236.76 76.6563C245.207 76.6852 253.655 76.6733 262.101 76.6767C262.321 76.6767 262.54 76.7039 262.879 76.726V76.7277Z" fill="#000A8D"/>
<path d="M325.799 97.3447C325.799 90.7157 325.807 84.0884 325.785 77.4593C325.783 76.8542 325.965 76.6673 326.55 76.669C335.084 76.6809 343.619 76.6809 352.153 76.669C352.701 76.669 352.903 76.8304 352.891 77.3947C352.86 78.8667 352.852 80.3404 352.893 81.8124C352.911 82.5144 352.679 82.7541 351.967 82.7524C345.891 82.7303 339.815 82.7524 333.74 82.7235C332.941 82.7201 332.543 82.8713 332.554 83.7807C332.597 87.0289 332.582 90.2788 332.582 93.5288C332.582 94.1254 332.888 94.3089 333.438 94.3072C338.494 94.2818 343.549 94.2732 348.606 94.2376C349.176 94.2342 349.486 94.4296 349.493 94.9871C349.513 96.6019 349.522 98.2167 349.508 99.8297C349.503 100.44 349.033 100.423 348.591 100.421C346.442 100.413 344.295 100.409 342.147 100.408C339.293 100.408 336.439 100.421 333.584 100.401C332.894 100.396 332.559 100.567 332.57 101.358C332.607 104.635 332.592 107.91 332.58 111.187C332.576 111.908 332.924 112.082 333.59 112.078C339.78 112.053 345.967 112.058 352.157 112.039C352.672 112.039 352.882 112.251 352.884 112.738C352.891 114.351 352.913 115.964 352.882 117.577C352.879 117.755 352.596 118.002 352.389 118.083C352.17 118.172 351.889 118.102 351.634 118.102C343.41 118.102 335.186 118.102 326.964 118.104C325.761 118.104 325.794 118.109 325.795 116.89C325.807 110.375 325.8 103.86 325.8 97.3447H325.804H325.799Z" fill="#000A8D"/>
<path d="M266.063 173.226C266.219 173.734 266.367 174.123 266.455 174.525C266.787 176.037 267.101 177.555 267.42 179.073C267.542 179.653 267.211 179.991 266.752 180.214C264.069 181.522 261.242 182.343 258.277 182.683C257.268 182.799 256.259 182.998 255.25 182.999C249.706 183.008 244.546 181.791 240.285 177.98C237.17 175.196 235.346 171.659 234.394 167.615C233.57 164.114 233.589 160.563 234.04 157.06C234.672 152.156 236.736 147.901 240.506 144.536C243.519 141.847 247.027 140.451 250.961 139.819C253.856 139.353 256.716 139.52 259.557 139.957C262.231 140.368 264.815 141.196 267.216 142.51C267.739 142.795 267.915 143.093 267.649 143.732C267.064 145.136 266.584 146.584 266.09 148.025C265.87 148.668 265.636 148.877 264.936 148.483C261.668 146.647 258.171 145.425 254.4 145.53C248.457 145.695 243.841 148.484 241.689 154.51C240.621 157.5 240.363 160.604 240.724 163.709C241.04 166.405 241.781 169.043 243.393 171.304C245.291 173.964 247.773 175.713 251.019 176.535C255.974 177.793 260.369 176.359 264.678 174.176C265.139 173.942 265.541 173.588 266.061 173.228L266.063 173.226Z" fill="#000A8D"/>
<path d="M451.652 76.6276C453.163 76.6276 454.506 76.6276 455.847 76.6276C456.666 76.6276 457.487 76.6633 458.302 76.614C458.833 76.5817 459.126 76.7721 459.377 77.2276C461.575 81.2016 463.796 85.162 466.001 89.1326C466.986 90.9055 467.948 92.6919 468.938 94.463C469.031 94.6279 469.294 94.8455 469.419 94.8115C469.625 94.7588 469.84 94.5514 469.948 94.3526C471.105 92.2585 472.239 90.1525 473.384 88.0516C475.326 84.4906 477.277 80.9364 479.21 77.3704C479.531 76.7789 479.923 76.5817 480.631 76.6089C482.548 76.6803 484.469 76.6089 486.388 76.6089C486.59 76.6089 486.899 76.6327 486.967 76.7534C487.046 76.8961 486.973 77.1885 486.875 77.3619C483.985 82.4424 481.082 87.5128 478.188 92.5899C476.485 95.5781 474.79 98.5679 473.114 101.571C472.945 101.876 472.872 102.273 472.872 102.627C472.865 107.47 472.865 112.312 472.901 117.155C472.906 117.891 472.707 118.151 471.939 118.125C470.245 118.069 468.548 118.088 466.854 118.124C466.186 118.137 466.001 117.926 466.006 117.241C466.042 112.625 466.004 108.007 466.043 103.39C466.055 102.024 465.372 100.97 464.746 99.8733C462.165 95.3435 459.576 90.8188 456.988 86.2923C455.352 83.4283 453.712 80.5676 452.083 77.7001C451.925 77.4231 451.838 77.1052 451.648 76.6293L451.652 76.6276Z" fill="#000A8D"/>
<path d="M328.904 12.7121C334.554 12.7121 340.204 12.7155 345.856 12.707C346.322 12.707 346.521 12.8906 346.523 13.358C346.528 14.9711 346.541 16.5825 346.568 18.1955C346.578 18.8244 346.187 18.8363 345.722 18.8346C341.71 18.8261 337.696 18.8278 333.684 18.8261C332.392 18.8261 332.385 18.8261 332.385 20.1145C332.38 26.1435 332.387 32.1742 332.37 38.2033C332.363 40.3823 332.275 42.5614 332.277 44.7405C332.28 47.5706 332.316 50.4023 332.384 53.2324C332.402 53.9854 332.157 54.2268 331.412 54.2064C329.718 54.1622 328.021 54.1707 326.327 54.2064C325.655 54.2217 325.457 53.9871 325.459 53.3191C325.479 42.5835 325.489 31.8496 325.467 21.114C325.46 18.3536 325.667 18.8516 323.229 18.8329C319.556 18.8057 315.881 18.8057 312.208 18.8431C311.418 18.8516 311.177 18.6171 311.215 17.8233C311.281 16.4108 311.245 14.9932 311.226 13.5773C311.218 12.9943 311.364 12.7138 312.04 12.7172C317.663 12.7427 323.286 12.7308 328.909 12.7308C328.909 12.724 328.909 12.7172 328.909 12.7104L328.904 12.7121Z" fill="#000A8D"/>
<path d="M280.057 161.137C280.057 154.539 280.063 147.94 280.045 141.344C280.045 140.749 280.221 140.548 280.818 140.56C282.57 140.591 284.323 140.616 286.071 140.548C286.853 140.518 287.034 140.791 287.033 141.509C287.014 146.861 287.026 152.212 287.024 157.564C287.023 163.369 287.028 169.174 286.997 174.978C286.992 175.833 287.431 175.957 288.111 175.957C293.96 175.949 299.806 175.968 305.655 175.93C306.46 175.925 306.689 176.156 306.66 176.938C306.61 178.352 306.627 179.77 306.667 181.184C306.686 181.823 306.437 182.031 305.826 182.031C297.548 182.02 289.271 182.015 280.993 182.037C280.135 182.039 280.041 181.628 280.043 180.932C280.067 174.589 280.068 168.247 280.077 161.904C280.077 161.649 280.077 161.394 280.077 161.139C280.07 161.139 280.063 161.139 280.057 161.139V161.137Z" fill="#000A8D"/>
<path d="M293.242 33.4902C293.242 26.8901 293.254 20.2899 293.227 13.6898C293.223 12.9028 293.554 12.721 294.242 12.7312C295.909 12.7567 297.578 12.7788 299.243 12.7244C300.067 12.6972 300.332 12.9929 300.323 13.7986C300.276 18.4423 300.248 23.086 300.242 27.7297C300.232 33.4222 300.245 39.1147 300.255 44.8071C300.26 47.6389 300.269 50.4707 300.306 53.3025C300.315 53.9518 300.118 54.222 299.438 54.2101C297.657 54.1778 295.877 54.1829 294.096 54.205C293.432 54.2135 293.227 53.9535 293.228 53.2923C293.249 46.6921 293.24 40.092 293.24 33.4919L293.242 33.4902Z" fill="#000A8D"/>
<path d="M128.296 87.1873C124.988 86.9646 123.265 89.8151 123.278 92.0775C123.297 95.0538 125.364 97.1105 128.381 97.1139C131.236 97.1173 133.232 95.0809 133.232 92.1591C133.232 89.0332 131.399 87.1873 128.294 87.1873H128.296ZM146.097 87.1567C143.428 86.963 140.978 89.3783 141.207 92.4973C141.402 95.1591 143.379 97.0731 146.287 97.068C149.211 97.0629 151.19 94.9552 151.193 91.9636C151.196 89.618 149.341 86.9528 146.097 87.1584V87.1567ZM105.465 92.1183C105.184 94.5863 107.361 97.1495 110.45 97.1274C113.331 97.107 115.402 95.0724 115.417 92.154C115.432 89.1879 113.414 87.2638 110.396 87.1686C107.354 87.0717 105.212 89.7318 105.465 92.1183ZM87.6228 92.1608C87.3006 94.9246 89.8035 97.2005 92.5929 97.1359C95.4722 97.0696 97.5885 95.0096 97.563 92.1472C97.5376 89.2338 95.4858 87.2723 92.5794 87.1635C89.9256 87.0649 87.2871 89.3596 87.6228 92.1591V92.1608ZM138.153 75.386C137.817 78.0716 140.454 80.3815 142.962 80.3815C145.631 80.3815 147.99 78.3656 147.971 75.369C147.958 73.0114 146.199 70.5298 143.11 70.5043C139.991 70.4788 137.844 73.0148 138.153 75.386ZM138.146 60.5897C138.423 57.8922 136.281 55.5669 133.22 55.606C130.502 55.6417 128.413 57.7273 128.36 60.435C128.304 63.3008 130.85 65.3031 132.893 65.4135C136.127 65.5886 138.455 63.0254 138.146 60.5897ZM123.568 50.3742C123.572 47.6257 121.491 45.5418 118.742 45.5418C115.795 45.5418 114.011 47.4166 113.879 50.3555C113.748 53.2603 116.082 55.3187 118.641 55.3034C121.508 55.2864 123.567 53.2161 123.568 50.3742ZM101.344 41.9366C98.2532 41.6681 96.41 44.4064 96.449 46.6126C96.5032 49.6756 98.5584 51.4756 101.282 51.547C103.793 51.6116 106.109 49.645 106.103 46.7214C106.096 44.0222 104.036 41.6613 101.346 41.9366H101.344ZM83.8211 54.4961C86.5206 54.7051 88.6555 52.3969 88.6301 49.7232C88.6046 47.0852 86.346 44.8211 83.7346 44.8959C81.2589 44.9656 78.9035 47.0512 78.9883 49.9339C79.0527 52.1368 81.0147 54.7816 83.8211 54.4978V54.4961ZM73.1653 58.8236C73.3738 56.2808 71.0202 53.9895 68.4461 54.0337C65.6686 54.0796 63.7134 56.0054 63.7168 58.793C63.7202 61.6333 65.7635 63.7172 68.5886 63.5897C71.3254 63.4656 73.2467 61.4395 73.1636 58.8236H73.1653ZM61.1258 72.0001C61.2954 69.3349 58.9129 67.2782 56.466 67.2663C54.0751 67.2544 51.7333 69.1802 51.7163 72.0664C51.6994 74.6857 53.8071 76.7288 56.4948 76.7288C59.2079 76.7288 61.1309 74.7656 61.1258 72.0001ZM49.5984 93.0837C52.3336 93.337 54.2972 91.1069 54.3396 88.5879C54.3854 85.8003 52.1877 83.8864 49.7731 83.866C46.8802 83.8422 45.1201 86.1046 45.0488 88.3295C44.9657 90.9387 46.9548 93.2894 49.5967 93.0837H49.5984ZM48.4708 110.902C51.3416 110.906 53.1441 109.124 53.1492 106.277C53.1543 103.643 51.2127 101.657 48.5555 101.683C46.1358 101.707 43.9331 103.335 43.9738 106.369C44.0111 109.095 45.7814 110.899 48.4708 110.901V110.902ZM47.9841 123.779C47.8671 126.693 50.041 128.369 52.5659 128.335C55.1383 128.301 57.0256 126.611 57.0866 123.732C57.1409 121.094 55.1281 119.153 52.4896 119.117C50.3377 119.088 47.8145 120.83 47.9858 123.779H47.9841ZM66.4198 138.815C66.4232 135.941 64.8631 134.284 62.1585 134.265C59.1876 134.245 57.5919 136.098 57.5309 138.693C57.4699 141.28 59.2978 143.286 62.0432 143.228C64.8767 143.169 66.4147 141.674 66.4181 138.814L66.4198 138.815ZM76.2464 153.911C78.6797 154.178 80.8027 151.802 80.8366 149.422C80.8705 147.005 78.6119 144.912 76.399 144.918C73.635 144.924 71.8121 146.944 71.7544 149.405C71.7019 151.671 73.6011 154.086 76.2447 153.909L76.2464 153.911ZM97.424 155.645C97.6631 152.692 95.1755 151.101 93.0491 151.11C90.5055 151.122 88.764 152.942 88.6487 155.5C88.5249 158.247 90.848 160.027 92.9473 160.066C95.2976 160.108 97.6987 158.206 97.4223 155.645H97.424ZM110.783 152.947C108.719 152.636 106.396 154.757 106.432 157.316C106.469 159.981 108.465 161.782 110.852 161.738C113.408 161.691 115.168 159.904 115.217 157.333C115.264 154.769 113.089 152.691 110.783 152.947ZM128.316 158.497C130.841 158.5 132.695 156.653 132.706 154.122C132.718 151.555 130.912 149.753 128.326 149.75C125.798 149.747 123.975 151.538 123.958 154.072C123.94 156.682 126.024 158.59 128.316 158.499V158.497ZM148.499 145.835C148.483 143.061 146.379 141.634 144.137 141.634C141.533 141.634 139.752 143.738 139.898 146.422C140.028 148.824 142.024 150.508 144.632 150.314C146.86 150.149 148.717 148.346 148.499 145.834V145.835ZM157.035 137.804C159.724 137.804 161.206 136.307 161.206 133.589C161.206 131.002 159.599 129.429 157.094 129.322C155.003 129.232 152.75 130.852 152.748 133.621C152.748 136.092 154.644 138.057 157.035 137.804ZM169.856 117.956C169.856 115.498 168.099 113.744 165.632 113.739C163.136 113.734 161.559 115.374 161.555 117.977C161.552 120.543 163.18 122.275 165.606 122.284C168.035 122.292 169.856 120.439 169.856 117.958V117.956ZM169.327 104.652C171.925 104.669 173.541 103.095 173.558 100.535C173.573 98.0113 171.931 96.3915 169.381 96.3439C166.692 96.2929 165.12 98.4838 165.14 100.534C165.164 102.942 166.86 104.637 169.329 104.652H169.327ZM173.056 82.6762C173.295 80.3883 171.26 78.4064 168.891 78.4761C166.48 78.5458 164.828 80.1674 164.813 82.6082C164.798 85.1085 166.427 86.674 168.91 86.7811C171.257 86.8831 173.31 84.8349 173.057 82.6745L173.056 82.6762ZM167.972 65.5818C168.223 63.2328 166.259 61.4735 164.107 61.4293C161.347 61.3732 159.821 63.4299 159.858 65.4186C159.906 67.9666 161.394 69.5201 163.943 69.5898C166.251 69.6527 168.199 67.8034 167.972 65.5818ZM154.535 54.3159C157.069 54.3108 158.527 52.7793 158.649 50.296C158.741 48.428 157.111 46.1843 154.474 46.2421C152.344 46.2897 150.44 47.8313 150.538 50.2994C150.638 52.8252 152.043 54.321 154.535 54.3159ZM141.885 41.7496C144.28 41.957 145.946 39.7133 145.948 37.7705C145.948 35.4861 144.197 33.7387 141.846 33.6996C139.499 33.6588 137.875 35.3637 137.838 37.796C137.802 40.1587 139.861 41.9587 141.884 41.7496H141.885ZM130.522 28.3896C130.836 25.9301 128.533 24.3884 126.668 24.4394C124.282 24.504 122.609 26.1222 122.612 28.4984C122.617 30.737 124.323 32.3279 126.646 32.3976C128.53 32.4554 130.828 30.9868 130.522 28.3896ZM109.423 20.1781C107.142 19.8977 105.402 22.1277 105.407 24.0043C105.414 26.2139 107.284 28.1126 109.384 28.0208C111.687 27.9188 113.299 26.3601 113.365 24.0859C113.425 22.0751 111.72 19.9691 109.423 20.1781ZM87.6669 24.6077C87.4583 26.6525 89.3846 28.6123 91.6179 28.5103C93.8528 28.41 95.5401 26.814 95.5367 24.5975C95.5333 22.4337 93.8308 20.8138 91.6518 20.7238C89.2303 20.6235 87.421 22.7957 87.6669 24.606V24.6077ZM74.3048 33.2628C76.6177 33.426 78.193 31.7228 78.2405 29.5675C78.2914 27.2678 76.6364 25.5136 74.3556 25.5561C72.1021 25.5986 70.581 27.2814 70.4894 29.3347C70.3928 31.5104 72.3038 33.4566 74.3048 33.2628ZM54.945 38.034C54.6889 40.1587 56.5949 41.9179 58.7264 41.8839C60.9647 41.8482 62.484 40.3389 62.4857 38.0731C62.4857 35.6883 61.1326 34.422 58.7755 34.2928C56.4524 34.1654 54.7584 35.9994 54.945 38.034ZM49.1287 49.9713C49.2576 47.369 47.3329 46.1656 45.4253 46.1265C43.4871 46.0857 41.6625 47.6087 41.6608 49.9577C41.6608 52.5328 43.6278 53.7924 45.4982 53.789C47.4567 53.7856 49.3271 52.2252 49.1287 49.9713ZM35.1392 68.281C37.2859 68.2742 38.9053 66.6985 38.8816 64.6385C38.8578 62.4152 37.2842 60.8446 35.0883 60.848C32.8245 60.8514 31.3764 62.3574 31.412 64.669C31.4459 66.8396 32.9415 68.2895 35.1375 68.281H35.1392ZM31.9987 81.1515C32.2785 78.9231 30.2114 77.3696 28.4157 77.4631C26.1994 77.5786 24.714 78.9384 24.7089 81.1073C24.7038 83.3272 26.1502 84.6972 28.3665 84.7873C30.4624 84.8706 32.2395 83.1827 31.9987 81.1515ZM22.0382 98.8187C22.0331 101.19 23.5897 102.41 25.706 102.517C27.6984 102.618 29.3924 100.855 29.3907 98.8629C29.3907 96.6957 27.8137 95.1574 25.6178 95.1795C23.4626 95.1999 22.0297 96.6583 22.0382 98.8187ZM23.5219 116.635C23.3269 118.719 25.0429 120.268 27.088 120.251C29.2669 120.234 30.6354 118.838 30.632 116.617C30.6286 114.397 29.2076 113.023 26.937 113.047C24.9327 113.069 23.3049 114.699 23.5236 116.634L23.5219 116.635ZM36.0294 133.64C36.3228 131.748 34.3795 130.021 32.5651 130.131C30.3539 130.264 28.999 131.5 29.0211 133.675C29.0431 135.79 30.4878 137.238 32.5753 137.238C34.7068 137.238 36.0294 135.861 36.0294 133.64ZM41.8168 145.451C39.9363 145.293 38.2321 147.039 38.2796 149.021C38.322 150.817 39.5972 152.47 41.8643 152.42C43.9297 152.376 45.3303 151.067 45.3405 149.089C45.3524 146.845 44.0009 145.45 41.8185 145.451H41.8168ZM57.7513 161.774C57.753 159.619 56.4151 158.254 54.2989 158.252C52.2267 158.25 50.9482 159.615 50.8583 161.703C50.7549 164.087 52.7711 165.328 54.3209 165.275C56.0607 165.218 57.8802 164.038 57.753 161.774H57.7513ZM69.3364 174.641C71.5645 174.648 72.816 173.375 72.8075 171.109C72.799 169.168 71.3865 167.779 69.4161 167.777C67.3965 167.776 65.9738 169.204 65.9636 171.243C65.9534 173.257 67.3202 174.634 69.3364 174.641ZM86.2561 180.26C88.5639 180.504 89.7984 178.421 89.7916 176.907C89.7848 175.005 88.335 173.637 86.4257 173.509C84.6926 173.393 82.8969 174.903 82.9291 176.733C82.9664 178.907 84.1941 180.255 86.2561 180.259V180.26ZM107.434 178.882C107.339 176.609 106.111 175.515 104.11 175.494C102.135 175.474 100.766 176.58 100.751 179.001C100.739 180.935 102.174 182.285 104.18 182.249C106.077 182.215 107.444 180.801 107.434 178.882ZM121.829 180.935C123.811 180.944 125.198 179.586 125.21 177.624C125.222 175.705 123.833 174.248 121.969 174.226C119.99 174.204 118.663 175.544 118.654 177.57C118.646 179.604 119.892 180.927 121.829 180.935ZM135.83 172.827C135.823 174.763 137.2 176.176 139.091 176.176C140.981 176.176 142.355 174.811 142.369 172.921C142.382 170.924 141.104 169.632 139.108 169.623C137.193 169.617 135.837 170.941 135.832 172.827H135.83ZM151.89 164.905C151.661 166.605 153.36 168.128 155.103 168.058C157.075 167.98 158.274 166.834 158.288 164.862C158.301 162.874 157.018 161.628 154.968 161.638C153.084 161.646 151.887 162.918 151.89 164.907V164.905ZM169.017 150.566C167.031 150.566 165.834 151.749 165.837 153.704C165.84 155.663 167.034 156.818 169.05 156.814C170.987 156.811 172.191 155.624 172.194 153.717C172.198 151.762 170.992 150.566 169.017 150.568V150.566ZM179.418 142.388C181.293 142.412 182.665 141.119 182.669 139.325C182.67 137.481 181.466 136.261 179.757 136.126C177.631 135.96 176.335 137.498 176.356 139.24C176.378 141.074 177.612 142.366 179.418 142.39V142.388ZM183.801 122.926C183.806 124.798 185.032 126.054 186.842 126.04C188.665 126.027 189.984 124.74 190.001 122.96C190.018 121.133 188.683 119.816 186.837 119.833C184.941 119.851 183.798 121.017 183.801 122.926ZM194.252 105.619C194.254 103.797 193.06 102.522 191.339 102.505C189.492 102.487 188.275 103.711 188.212 105.55C188.156 107.197 189.421 108.602 191.191 108.608C193.101 108.614 194.466 107.275 194.252 105.619ZM192.27 90.716C194.182 90.7381 195.361 89.6027 195.386 87.7108C195.41 86.0111 194.115 84.6887 192.404 84.6683C190.676 84.6462 189.412 85.8853 189.392 87.6242C189.368 89.5619 190.421 90.6956 192.27 90.7177V90.716ZM192.58 70.0403C192.58 68.0668 191.651 67.1439 189.658 67.1405C187.788 67.1371 186.718 68.2215 186.738 70.098C186.759 71.8505 187.913 72.9893 189.67 72.9944C191.532 72.9978 192.578 71.9355 192.58 70.0403ZM183.474 56.189C185.221 56.3862 186.438 54.7884 186.421 53.2059C186.404 51.5504 185.163 50.3198 183.515 50.313C181.746 50.3045 180.569 51.4977 180.574 53.2909C180.579 55.0842 181.685 56.189 183.472 56.189H183.474ZM171.25 38.0595C171.248 39.9632 172.191 40.8879 174.131 40.8845C175.881 40.8828 176.939 39.8 176.937 38.0102C176.937 36.375 175.757 35.1699 174.138 35.1495C172.399 35.1274 171.251 36.2849 171.25 38.0578V38.0595ZM159.059 24.8524C159.046 26.6746 160.131 27.8117 161.883 27.8134C163.572 27.8134 164.609 26.7885 164.643 25.0853C164.679 23.2666 163.648 22.1294 161.937 22.1022C160.246 22.0751 159.071 23.1986 159.059 24.8507V24.8524ZM147.344 17.2818C149.207 17.2818 150.142 16.3384 150.145 14.4534C150.148 12.8233 149.028 11.7287 147.364 11.7372C145.692 11.7457 144.598 12.8709 144.603 14.5775C144.609 16.3112 145.592 17.2818 147.345 17.2835L147.344 17.2818ZM128.348 7.15466C128.347 8.82891 129.425 9.93035 131.077 9.93885C132.723 9.94735 133.868 8.82552 133.873 7.19716C133.878 5.545 132.751 4.40447 131.126 4.42147C129.434 4.43846 128.352 5.50251 128.35 7.15466H128.348ZM116.278 3.27244C116.284 1.41801 115.431 0.522245 113.654 0.520545C112.029 0.520545 110.937 1.58459 110.91 3.20105C110.883 4.77671 112.005 5.89005 113.625 5.89345C115.415 5.89685 116.273 5.05037 116.278 3.27244ZM98.4668 2.79991C98.4923 1.19534 97.4392 0.027618 95.9504 0.00722105C94.2869 -0.0165754 93.1338 1.06446 93.0932 2.68602C93.0558 4.15801 94.1903 5.33763 95.6706 5.36483C97.4002 5.39712 98.4414 4.44356 98.4668 2.80161V2.79991ZM80.7858 5.63849C80.8044 3.91494 79.9379 3.02767 78.2252 3.01408C76.5211 3.00048 75.6732 3.85035 75.5783 5.47701C75.4748 7.26175 76.6855 8.18811 78.1879 8.21191C79.7598 8.2374 80.7671 7.22605 80.7841 5.63849H80.7858ZM58.8213 11.5978C58.8264 13.1837 59.854 14.2358 61.3818 14.2222C62.8707 14.2069 64.0051 13.0732 64.0085 11.5978C64.0119 10.1292 62.9147 9.01079 61.4649 9.00739C59.776 9.00229 58.8145 9.94565 58.8213 11.5995V11.5978ZM43.3701 20.4314C43.3531 22.0717 44.279 23.0099 45.9204 23.0201C47.3753 23.0286 48.4148 21.9901 48.4182 20.5232C48.4233 18.9356 47.4093 17.8733 45.8746 17.858C44.4011 17.8427 43.3854 18.888 43.3701 20.4314ZM32.1089 34.4254C33.6503 34.4254 34.7101 33.4107 34.7068 31.9353C34.7034 30.5228 33.5944 29.3925 32.2022 29.3806C30.6913 29.367 29.6739 30.3902 29.6671 31.9285C29.6603 33.4736 30.5913 34.4254 32.1089 34.4254ZM18.2686 45.671C18.272 47.2415 19.1792 48.1764 20.6986 48.1781C22.1297 48.1798 23.1387 47.1276 23.1455 45.6268C23.1522 44.2347 22.1433 43.1893 20.785 43.1825C19.1758 43.1723 18.2635 44.0732 18.2669 45.671H18.2686ZM14.3142 61.2543C14.3058 59.7993 13.3036 58.793 11.8775 58.8083C10.4786 58.8219 9.48658 59.8333 9.50184 61.2271C9.52049 62.7908 10.387 63.6781 11.8979 63.6764C13.4172 63.6764 14.3227 62.7687 14.3125 61.2543H14.3142ZM5.67973 95.1965C5.68312 93.6345 4.89971 92.8135 3.39053 92.8016C1.85762 92.788 1.00807 93.6073 0.996201 95.1081C0.984331 96.5767 1.96275 97.6255 3.34136 97.6272C4.69113 97.6272 5.67634 96.6056 5.67973 95.1965ZM8.5726 78.2177C8.5726 76.7509 7.71457 75.8262 6.35123 75.8228C4.76744 75.8177 3.90433 76.6863 3.90263 78.284C3.90094 79.7356 4.72335 80.5158 6.25966 80.5158C7.90788 80.5158 8.57599 79.8546 8.57429 78.2177H8.5726Z" fill="white"/>
<path d="M128.297 87.1871C131.402 87.1871 133.235 89.033 133.235 92.1588C133.235 95.079 131.239 97.117 128.384 97.1136C125.365 97.1102 123.3 95.0535 123.281 92.0773C123.268 89.8149 124.991 86.9644 128.299 87.1871H128.297Z" fill="#000A8D"/>
<path d="M146.101 87.1571C149.344 86.9515 151.2 89.6184 151.196 91.9623C151.193 94.9539 149.212 97.0616 146.291 97.0667C143.384 97.0718 141.407 95.1578 141.21 92.496C140.981 89.377 143.43 86.9617 146.101 87.1554V87.1571Z" fill="#000A8D"/>
<path d="M105.466 92.1163C105.213 89.7299 107.355 87.0697 110.397 87.1666C113.415 87.2618 115.435 89.1859 115.418 92.152C115.403 95.0722 113.331 97.1051 110.451 97.1255C107.362 97.1475 105.184 94.5843 105.466 92.1163Z" fill="#000A8D"/>
<path d="M87.6227 92.1589C87.287 89.3594 89.9255 87.063 92.5793 87.1633C95.4857 87.2721 97.5375 89.2336 97.5629 92.147C97.5884 95.0094 95.4721 97.0695 92.5928 97.1357C89.8034 97.2003 87.3005 94.9244 87.6227 92.1606V92.1589Z" fill="#000A8D"/>
<path d="M138.154 75.3838C137.846 73.0127 139.993 70.4766 143.111 70.5021C146.201 70.5276 147.959 73.0093 147.973 75.3668C147.991 78.3635 145.633 80.3811 142.963 80.3794C140.456 80.3794 137.819 78.0694 138.154 75.3838Z" fill="#000A8D"/>
<path d="M138.146 60.5877C138.455 63.0251 136.127 65.5866 132.893 65.4115C130.848 65.3011 128.304 63.3005 128.36 60.433C128.413 57.7236 130.502 55.638 133.22 55.604C136.281 55.5649 138.423 57.8902 138.146 60.5877Z" fill="#000A8D"/>
<path d="M123.569 50.3724C123.566 53.2144 121.508 55.2847 118.642 55.3017C116.083 55.317 113.75 53.2569 113.88 50.3537C114.012 47.4166 115.796 45.54 118.744 45.54C121.492 45.54 123.571 47.6239 123.569 50.3724Z" fill="#000A8D"/>
<path d="M101.347 41.935C104.036 41.6596 106.097 44.0206 106.103 46.7198C106.11 49.6434 103.794 51.61 101.283 51.5454C98.561 51.474 96.5058 49.6739 96.4498 46.611C96.4108 44.4047 98.2557 41.6664 101.345 41.935H101.347Z" fill="#000A8D"/>
<path d="M83.8233 54.4942C81.0152 54.7781 79.0549 52.1333 78.9905 49.9304C78.9057 47.0476 81.2594 44.9637 83.7368 44.8923C86.3482 44.8193 88.6068 47.0816 88.6323 49.7196C88.6577 52.3933 86.5228 54.7016 83.8233 54.4925V54.4942Z" fill="#000A8D"/>
<path d="M73.1655 58.8217C73.2503 61.4376 71.3274 63.4637 68.5905 63.5878C65.7638 63.7153 63.7221 61.6314 63.7188 58.7911C63.7154 56.0035 65.6705 54.0777 68.4481 54.0318C71.0204 53.9893 73.3758 56.2806 73.1672 58.8217H73.1655Z" fill="#000A8D"/>
<path d="M61.1283 71.9985C61.1334 74.764 59.2088 76.7289 56.4973 76.7272C53.8096 76.7272 51.7036 74.6841 51.7188 72.0648C51.7375 69.1786 54.0793 67.2528 56.4685 67.2647C58.9154 67.2766 61.2979 69.3333 61.1283 71.9985Z" fill="#000A8D"/>
<path d="M49.6012 93.0822C46.9593 93.2878 44.9702 90.9371 45.0533 88.328C45.1245 86.103 46.8847 83.8406 49.7775 83.8644C52.1922 83.8831 54.3898 85.7988 54.344 88.5863C54.3017 91.1071 52.338 93.3354 49.6029 93.0822H49.6012Z" fill="#000A8D"/>
<path d="M48.4741 110.901C45.7847 110.897 44.0144 109.095 43.9771 106.369C43.9364 103.333 46.1408 101.707 48.5589 101.683C51.2161 101.656 53.1576 103.643 53.1526 106.277C53.1458 109.124 51.3449 110.906 48.4741 110.902V110.901Z" fill="#000A8D"/>
<path d="M47.9848 123.778C47.8136 120.829 50.3368 119.085 52.4886 119.116C55.1271 119.151 57.1416 121.094 57.0857 123.73C57.0263 126.61 55.1373 128.299 52.5649 128.333C50.0417 128.367 47.8661 126.691 47.9831 123.778H47.9848Z" fill="#000A8D"/>
<path d="M66.4199 138.813C66.4165 141.674 64.8785 143.166 62.045 143.228C59.2997 143.285 57.4717 141.28 57.5327 138.693C57.5938 136.095 59.1894 134.244 62.1603 134.265C64.8633 134.284 66.425 135.941 66.4216 138.815L66.4199 138.813Z" fill="#000A8D"/>
<path d="M76.2492 153.911C73.6039 154.086 71.7047 151.672 71.7589 149.406C71.8166 146.945 73.6395 144.926 76.4035 144.919C78.6164 144.914 80.875 147.006 80.8411 149.423C80.8072 151.803 78.6842 154.179 76.2509 153.912L76.2492 153.911Z" fill="#000A8D"/>
<path d="M97.4267 155.643C97.7014 158.205 95.302 160.107 92.9518 160.064C90.8525 160.025 88.5294 158.246 88.6532 155.499C88.7685 152.941 90.5083 151.12 93.0535 151.108C95.1782 151.098 97.6658 152.689 97.4284 155.643H97.4267Z" fill="#000A8D"/>
<path d="M110.785 152.945C113.091 152.689 115.269 154.766 115.219 157.331C115.172 159.902 113.412 161.689 110.855 161.737C108.467 161.781 106.471 159.981 106.434 157.314C106.398 154.756 108.721 152.634 110.785 152.945Z" fill="#000A8D"/>
<path d="M128.315 158.495C126.024 158.588 123.94 156.679 123.957 154.069C123.974 151.534 125.797 149.743 128.325 149.746C130.911 149.749 132.715 151.551 132.705 154.118C132.693 156.649 130.84 158.496 128.315 158.493V158.495Z" fill="#000A8D"/>
<path d="M148.5 145.832C148.718 148.342 146.862 150.146 144.633 150.312C142.027 150.506 140.03 148.822 139.899 146.42C139.753 143.736 141.534 141.632 144.138 141.632C146.378 141.632 148.484 143.06 148.5 145.834V145.832Z" fill="#000A8D"/>
<path d="M157.037 137.801C154.646 138.054 152.748 136.089 152.75 133.618C152.75 130.847 155.005 129.229 157.096 129.319C159.602 129.428 161.208 131 161.208 133.585C161.208 136.303 159.726 137.802 157.037 137.801Z" fill="#000A8D"/>
<path d="M169.859 117.953C169.859 120.435 168.038 122.288 165.61 122.279C163.185 122.271 161.557 120.54 161.559 117.972C161.562 115.37 163.139 113.729 165.635 113.734C168.102 113.739 169.859 115.494 169.859 117.951V117.953Z" fill="#000A8D"/>
<path d="M169.325 104.649C166.856 104.632 165.161 102.937 165.137 100.531C165.117 98.4807 166.688 96.2897 169.378 96.3407C171.928 96.39 173.57 98.0082 173.554 100.532C173.539 103.092 171.921 104.666 169.324 104.649H169.325Z" fill="#000A8D"/>
<path d="M173.057 82.6728C173.31 84.8332 171.258 86.8814 168.909 86.7794C166.427 86.6706 164.797 85.1069 164.813 82.6065C164.828 80.1657 166.481 78.5441 168.891 78.4744C171.26 78.4048 173.296 80.3867 173.055 82.6745L173.057 82.6728Z" fill="#000A8D"/>
<path d="M167.974 65.5783C168.201 67.7999 166.253 69.6492 163.945 69.5864C161.395 69.5184 159.908 67.9631 159.86 65.4152C159.823 63.4265 161.349 61.3715 164.109 61.4259C166.261 61.4684 168.223 63.2293 167.974 65.5783Z" fill="#000A8D"/>
<path d="M154.536 54.3122C152.043 54.3173 150.639 52.8215 150.539 50.2957C150.44 47.8277 152.346 46.286 154.475 46.2384C157.111 46.1806 158.741 48.4243 158.649 50.2923C158.527 52.7756 157.069 54.3071 154.536 54.3122Z" fill="#000A8D"/>
<path d="M141.886 41.746C139.863 41.9551 137.803 40.1551 137.84 37.7924C137.878 35.3601 139.502 33.6552 141.849 33.696C144.199 33.7368 145.951 35.4842 145.951 37.7669C145.951 39.7097 144.282 41.9517 141.888 41.746H141.886Z" fill="#000A8D"/>
<path d="M130.524 28.3841C130.831 30.9796 128.531 32.4482 126.647 32.3921C124.323 32.3224 122.617 30.7314 122.613 28.4928C122.608 26.1166 124.284 24.5001 126.669 24.4338C128.535 24.3829 130.837 25.9262 130.524 28.3841Z" fill="#000A8D"/>
<path d="M109.426 20.1744C111.723 19.9653 113.427 22.073 113.368 24.0821C113.3 26.3547 111.688 27.9151 109.387 28.0171C107.287 28.1105 105.417 26.2119 105.41 24.0005C105.405 22.124 107.145 19.894 109.426 20.1744Z" fill="#000A8D"/>
<path d="M87.6669 24.6024C87.4211 22.7921 89.2287 20.6199 91.6518 20.7201C93.8308 20.8102 95.5333 22.4301 95.5367 24.5939C95.5401 26.812 93.8528 28.4064 91.6179 28.5067C89.3847 28.607 87.4584 26.6472 87.6669 24.6041V24.6024Z" fill="#000A8D"/>
<path d="M74.3071 33.2572C72.3062 33.451 70.3951 31.5065 70.4918 29.3291C70.5834 27.2758 72.1044 25.5931 74.358 25.5506C76.6387 25.5081 78.2937 27.2622 78.2428 29.562C78.1954 31.7172 76.6201 33.4204 74.3071 33.2572Z" fill="#000A8D"/>
<path d="M54.945 38.0305C54.7585 35.9959 56.4525 34.1635 58.7756 34.2893C61.1327 34.4185 62.4875 35.6848 62.4858 38.0696C62.4858 40.3353 60.9648 41.8447 58.7265 41.8804C56.595 41.9144 54.689 40.1552 54.945 38.0305Z" fill="#000A8D"/>
<path d="M49.1319 49.9657C49.3303 52.2196 47.46 53.7817 45.5014 53.7834C43.6311 53.7851 41.6641 52.5273 41.6641 49.9522C41.6641 47.6031 43.4886 46.0801 45.4285 46.1209C47.3362 46.16 49.2608 47.3634 49.1319 49.9657Z" fill="#000A8D"/>
<path d="M35.1402 68.2758C32.9442 68.2826 31.4486 66.8327 31.4147 64.6638C31.3791 62.3522 32.8272 60.8479 35.091 60.8428C37.2869 60.8394 38.8605 62.4099 38.8843 64.6332C38.9063 66.6933 37.2869 68.269 35.1419 68.2758H35.1402Z" fill="#000A8D"/>
<path d="M32.0008 81.1466C32.2416 83.1778 30.4645 84.8656 28.3686 84.7823C26.1523 84.6939 24.7076 83.3222 24.7109 81.1024C24.7143 78.9335 26.1998 77.5737 28.4177 77.4581C30.2135 77.3646 32.2789 78.9182 32.0008 81.1466Z" fill="#000A8D"/>
<path d="M22.0391 98.8132C22.0306 96.6529 23.4635 95.1945 25.6187 95.1741C27.8164 95.152 29.3917 96.6902 29.3917 98.8574C29.3917 100.85 27.6994 102.612 25.7069 102.512C23.5907 102.406 22.0357 101.184 22.0391 98.8132Z" fill="#000A8D"/>
<path d="M23.5237 116.631C23.3049 114.696 24.9328 113.065 26.9371 113.044C29.2093 113.019 30.6286 114.394 30.632 116.614C30.6354 118.834 29.2687 120.229 27.088 120.248C25.043 120.265 23.327 118.715 23.522 116.632L23.5237 116.631Z" fill="#000A8D"/>
<path d="M36.0281 133.634C36.0281 135.856 34.7072 137.233 32.574 137.233C30.4866 137.233 29.0418 135.784 29.0198 133.67C28.9978 131.494 30.3526 130.259 32.5638 130.126C34.3782 130.017 36.3215 131.742 36.0281 133.634Z" fill="#000A8D"/>
<path d="M41.8172 145.446C43.9995 145.446 45.351 146.842 45.3391 149.084C45.329 151.062 43.9283 152.371 41.863 152.415C39.5958 152.463 38.3206 150.811 38.2782 149.016C38.2325 147.034 39.9366 145.288 41.8155 145.446H41.8172Z" fill="#000A8D"/>
<path d="M57.7501 161.767C57.879 164.031 56.0578 165.212 54.318 165.268C52.7681 165.319 50.7519 164.08 50.8554 161.696C50.9453 159.608 52.2238 158.243 54.296 158.245C56.4122 158.247 57.7518 159.612 57.7484 161.767H57.7501Z" fill="#000A8D"/>
<path d="M69.3377 174.634C67.3215 174.627 65.9547 173.25 65.9649 171.236C65.9751 169.197 67.3978 167.769 69.4174 167.771C71.3895 167.772 72.802 169.159 72.8088 171.102C72.8172 173.368 71.5658 174.641 69.3377 174.634Z" fill="#000A8D"/>
<path d="M86.2532 180.253C84.1912 180.25 82.9635 178.902 82.9262 176.728C82.894 174.896 84.6897 173.386 86.4227 173.503C88.3321 173.631 89.7819 174.999 89.7887 176.901C89.7938 178.416 88.5593 180.498 86.2532 180.255V180.253Z" fill="#000A8D"/>
<path d="M107.433 178.875C107.443 180.794 106.076 182.208 104.179 182.242C102.173 182.278 100.738 180.928 100.75 178.994C100.765 176.574 102.135 175.467 104.109 175.488C106.108 175.508 107.338 176.604 107.433 178.875Z" fill="#000A8D"/>
<path d="M121.827 180.928C119.89 180.919 118.644 179.597 118.652 177.562C118.661 175.536 119.99 174.197 121.967 174.219C123.829 174.241 125.22 175.698 125.208 177.617C125.196 179.578 123.809 180.936 121.827 180.928Z" fill="#000A8D"/>
<path d="M135.83 172.82C135.837 170.934 137.191 169.609 139.106 169.616C141.102 169.625 142.382 170.917 142.367 172.914C142.353 174.804 140.98 176.167 139.089 176.169C137.198 176.169 135.823 174.756 135.828 172.82H135.83Z" fill="#000A8D"/>
<path d="M151.892 164.898C151.889 162.909 153.086 161.637 154.97 161.629C157.021 161.62 158.303 162.866 158.29 164.853C158.276 166.827 157.077 167.971 155.105 168.049C153.362 168.119 151.663 166.596 151.892 164.896V164.898Z" fill="#000A8D"/>
<path d="M169.015 150.559C170.991 150.559 172.197 151.754 172.193 153.709C172.19 155.618 170.986 156.802 169.049 156.806C167.033 156.809 165.841 155.655 165.836 153.695C165.833 151.742 167.03 150.559 169.015 150.558V150.559Z" fill="#000A8D"/>
<path d="M179.418 142.38C177.612 142.356 176.376 141.066 176.356 139.231C176.335 137.49 177.629 135.952 179.757 136.117C181.467 136.251 182.672 137.471 182.669 139.316C182.667 141.111 181.295 142.402 179.418 142.379V142.38Z" fill="#000A8D"/>
<path d="M183.801 122.919C183.796 121.01 184.94 119.844 186.836 119.825C188.683 119.807 190.017 121.126 190 122.953C189.983 124.733 188.664 126.019 186.841 126.033C185.03 126.046 183.804 124.79 183.801 122.919Z" fill="#000A8D"/>
<path d="M194.253 105.612C194.466 107.269 193.103 108.607 191.192 108.6C189.422 108.594 188.157 107.19 188.213 105.542C188.275 103.703 189.491 102.481 191.34 102.498C193.062 102.515 194.256 103.79 194.253 105.612Z" fill="#000A8D"/>
<path d="M192.269 90.7089C190.42 90.6868 189.366 89.5547 189.391 87.6153C189.413 85.8765 190.675 84.6374 192.403 84.6595C194.114 84.6816 195.407 86.0023 195.385 87.702C195.36 89.5955 194.181 90.731 192.269 90.7072V90.7089Z" fill="#000A8D"/>
<path d="M192.58 70.0336C192.58 71.9288 191.532 72.9911 189.67 72.9877C187.914 72.9843 186.759 71.8438 186.739 70.0914C186.717 68.2148 187.788 67.1304 189.659 67.1338C191.651 67.1372 192.582 68.0602 192.58 70.0336Z" fill="#000A8D"/>
<path d="M183.476 56.1817C181.689 56.1817 180.583 55.0769 180.578 53.2837C180.573 51.4904 181.75 50.2989 183.518 50.3057C185.167 50.3125 186.406 51.5448 186.425 53.1987C186.442 54.7794 185.224 56.3789 183.478 56.1817H183.476Z" fill="#000A8D"/>
<path d="M171.25 38.0531C171.25 36.2803 172.4 35.1227 174.138 35.1448C175.759 35.1652 176.937 36.3687 176.937 38.0055C176.937 39.7954 175.881 40.8781 174.131 40.8798C172.191 40.8832 171.248 39.9585 171.25 38.0548V38.0531Z" fill="#000A8D"/>
<path d="M159.059 24.8476C159.071 23.1955 160.246 22.0719 161.936 22.0991C163.646 22.1263 164.677 23.2617 164.643 25.0822C164.61 26.7836 163.571 27.8103 161.882 27.8103C160.13 27.8103 159.045 26.6714 159.059 24.8493V24.8476Z" fill="#000A8D"/>
<path d="M147.344 17.2748C145.592 17.2748 144.608 16.3043 144.602 14.5688C144.596 12.8623 145.69 11.7371 147.362 11.7286C149.026 11.7201 150.147 12.8164 150.143 14.4448C150.14 16.3298 149.205 17.2748 147.342 17.2731L147.344 17.2748Z" fill="#000A8D"/>
<path d="M128.349 7.14744C128.351 5.49529 129.433 4.43125 131.125 4.41425C132.75 4.39725 133.877 5.53778 133.872 7.18994C133.867 8.8183 132.724 9.94013 131.076 9.93163C129.426 9.92313 128.346 8.8217 128.348 7.14744H128.349Z" fill="#000A8D"/>
<path d="M116.279 3.26557C116.274 5.0435 115.416 5.89168 113.625 5.88658C112.008 5.88318 110.885 4.76984 110.911 3.19418C110.938 1.57772 112.03 0.511974 113.654 0.513674C115.431 0.513674 116.284 1.41114 116.279 3.26557Z" fill="#000A8D"/>
<path d="M98.4683 2.79472C98.4429 4.43668 97.4017 5.39024 95.6721 5.35794C94.1918 5.33074 93.0573 4.15112 93.0946 2.67914C93.1353 1.05758 94.2884 -0.0217637 95.9519 0.00033304C97.4407 0.02073 98.4938 1.19016 98.4683 2.79302V2.79472Z" fill="#000A8D"/>
<path d="M80.7862 5.63332C80.7692 7.22089 79.762 8.23224 78.1901 8.20674C76.6877 8.18295 75.477 7.25658 75.5804 5.47185C75.6737 3.84519 76.5232 2.99701 78.2274 3.00891C79.94 3.02251 80.8065 3.90978 80.7879 5.63332H80.7862Z" fill="#000A8D"/>
<path d="M58.8203 11.5931C58.8136 9.93926 59.775 8.9959 61.4639 9.001C62.9121 9.0044 64.0092 10.1228 64.0075 11.5914C64.0041 13.0685 62.8714 14.2022 61.3809 14.2158C59.853 14.2311 58.8271 13.179 58.8203 11.5914V11.5931Z" fill="#000A8D"/>
<path d="M43.3713 20.4261C43.3866 18.8828 44.404 17.8374 45.8759 17.8527C47.4105 17.868 48.4262 18.932 48.4194 20.5179C48.4143 21.9848 47.3766 23.0233 45.9217 23.0148C44.2785 23.0063 43.3544 22.0664 43.3713 20.4261Z" fill="#000A8D"/>
<path d="M32.1098 34.42C30.5922 34.42 29.6612 33.4681 29.668 31.9231C29.6748 30.3848 30.6905 29.3615 32.2031 29.3751C33.5969 29.387 34.7059 30.5191 34.7076 31.9299C34.711 33.4035 33.6495 34.42 32.1098 34.42Z" fill="#000A8D"/>
<path d="M18.2695 45.6662C18.2661 44.0702 19.1767 43.1693 20.7877 43.1778C22.1459 43.1863 23.1532 44.2299 23.1481 45.622C23.1413 47.1212 22.1307 48.1751 20.7012 48.1734C19.1818 48.1717 18.2746 47.2368 18.2712 45.6662H18.2695Z" fill="#000A8D"/>
<path d="M14.3148 61.2488C14.3233 62.7633 13.4195 63.6709 11.9001 63.6709C10.391 63.6709 9.52277 62.7837 9.50412 61.2216C9.48716 59.8278 10.4808 58.8165 11.8798 58.8029C13.3059 58.7893 14.308 59.7938 14.3165 61.2488H14.3148Z" fill="#000A8D"/>
<path d="M5.67973 95.191C5.67634 96.6001 4.69283 97.6234 3.34136 97.6217C1.96106 97.6217 0.984331 96.5712 0.996201 95.1026C1.00807 93.6017 1.85762 92.7825 3.39053 92.7961C4.89971 92.8097 5.68482 93.6289 5.67973 95.191Z" fill="#000A8D"/>
<path d="M8.574 78.2104C8.574 79.8473 7.90759 80.5102 6.25937 80.5085C4.72307 80.5085 3.90065 79.7283 3.90235 78.2767C3.90574 76.6772 4.76885 75.8104 6.35094 75.8155C7.71428 75.8206 8.57231 76.7435 8.57231 78.2104H8.574Z" fill="#000A8D"/>
<path d="M397.828 116.718C394.947 112.103 392.069 107.488 389.188 102.874C388.441 101.675 388.454 101.708 389.709 101.096C391.973 99.9908 393.804 98.3692 395.005 96.1476C396.816 92.7957 396.931 89.2212 396.019 85.6041C395.246 82.5411 393.36 80.2873 390.606 78.7813C388.008 77.3603 385.204 76.7008 382.251 76.6906C377.193 76.6753 372.135 76.6804 367.077 76.6787C365.99 76.6787 365.996 76.6804 365.996 77.8056C365.996 90.9481 365.996 104.091 365.973 117.233C365.973 117.93 366.202 118.119 366.848 118.108C368.514 118.081 370.183 118.062 371.848 118.117C372.618 118.142 372.783 117.877 372.777 117.141C372.742 113.12 372.75 109.098 372.774 105.078C372.781 103.774 372.981 103.596 374.307 103.531C376.393 103.429 378.484 103.407 380.562 103.237C381.37 103.171 381.788 103.416 382.187 104.075C384.87 108.522 387.593 112.945 390.275 117.389C390.596 117.921 390.967 118.122 391.571 118.115C393.633 118.091 395.697 118.115 397.759 118.11C397.998 118.11 398.237 118.061 398.661 118.015C398.327 117.493 398.072 117.109 397.828 116.718ZM380.939 97.7318C378.543 97.8491 376.137 97.7505 373.736 97.7828C372.988 97.793 372.676 97.5618 372.693 96.7612C372.737 94.5822 372.708 92.4014 372.708 90.2223C372.711 90.2223 372.715 90.2223 372.718 90.2223C372.718 88.0143 372.737 85.8064 372.706 83.5984C372.696 82.91 372.986 82.7213 373.617 82.7264C376.442 82.7519 379.272 82.6448 382.09 82.791C384.34 82.9083 386.508 83.5287 388.068 85.3423C390.164 87.7815 390.04 92.279 387.957 94.7827C386.107 97.0094 383.599 97.5992 380.937 97.7284L380.939 97.7318Z" fill="#000A8D"/>
<path d="M388.022 161.109C387.734 161.01 387.481 160.804 387.213 160.65C387.45 160.439 387.659 160.169 387.932 160.029C389.772 159.094 391.177 157.738 392.195 155.929C393.161 154.209 393.16 152.357 393.1 150.484C393.029 148.199 392.261 146.178 390.774 144.439C388.31 141.556 384.914 140.746 381.412 140.639C375.485 140.457 369.55 140.579 363.621 140.559C363.088 140.557 362.881 140.681 362.883 141.273C362.903 147.925 362.897 154.58 362.897 161.233H362.886C362.886 167.858 362.898 174.482 362.871 181.108C362.868 181.924 363.246 182.036 363.909 182.034C368.852 182.021 373.795 182.029 378.738 182.027C381.683 182.027 384.595 181.817 387.418 180.856C390.535 179.797 392.617 177.713 393.807 174.661C394.493 172.908 394.228 171.09 394.318 169.293C394.496 165.766 391.501 162.297 388.022 161.11V161.109ZM370.527 146.249C374.271 146.358 378.061 145.855 381.748 146.72C384.898 147.46 386.679 149.807 386.117 153.376C385.699 156.042 383.464 158.064 380.868 158.205C377.8 158.372 374.726 158.386 371.655 158.472C369.598 158.532 369.488 158.642 369.571 156.344C369.618 155.015 369.579 153.684 369.579 152.353H369.552C369.552 150.684 369.564 149.013 369.547 147.344C369.54 146.651 369.834 146.229 370.527 146.249ZM382.016 175.857C378.468 176.224 374.868 176.078 371.29 176.158C371.009 176.165 370.726 176.218 370.449 176.19C369.878 176.133 369.523 175.879 369.532 175.215C369.556 173.49 369.54 171.764 369.54 170.041C369.549 170.041 369.556 170.041 369.564 170.041C369.564 168.401 369.566 166.759 369.564 165.118C369.562 164.141 369.761 163.9 370.748 163.893C373.571 163.872 376.401 163.745 379.213 163.918C381.214 164.041 383.247 164.309 385.08 165.327C386.55 166.143 387.301 167.466 387.499 169.009C388.017 173.02 385.571 175.494 382.016 175.861V175.857Z" fill="#000A8D"/>
</svg>
