<svg width="569" height="134" viewBox="0 0 569 134" fill="none" xmlns="http://www.w3.org/2000/svg">
<g clip-path="url(#clip0_848_1264)">
<mask id="mask0_848_1264" style="mask-type:luminance" maskUnits="userSpaceOnUse" x="63" y="6" width="443" height="122">
<path d="M505.289 6.03027H63.1094V127.27H505.289V6.03027Z" fill="white"/>
</mask>
<g mask="url(#mask0_848_1264)">
<path d="M180.91 71.3906V29.3906H210.93V36.1906H188.82V47.4506H208.73V54.2506H188.82V71.4106H180.91V71.3806V71.3906Z" fill="#000A8D"/>
<path fill-rule="evenodd" clip-rule="evenodd" d="M218.852 34.2106V27.1006H226.282V34.2106H218.852ZM218.852 71.3906V39.1706H226.282V71.3906H218.852Z" fill="#000A8D"/>
<path d="M235.719 71.3906V27.1006H243.149V71.3906H235.719Z" fill="#000A8D"/>
<path fill-rule="evenodd" clip-rule="evenodd" d="M266.318 72.1102C262.918 72.1102 260.058 71.5102 257.808 70.3002C255.518 69.1002 253.838 67.2602 252.698 64.7602C251.558 62.2602 250.988 59.1002 250.988 55.2802C250.988 51.4602 251.558 48.2302 252.698 45.7702C253.838 43.3002 255.528 41.4602 257.808 40.2602C260.098 39.0602 262.918 38.4502 266.318 38.4502C269.418 38.4502 272.008 39.0202 274.078 40.2002C276.158 41.3702 277.748 43.1502 278.798 45.5602C279.848 47.9702 280.388 51.1002 280.388 54.9202V57.1202H258.578C258.668 59.1102 258.968 60.7902 259.478 62.1802C260.018 63.5302 260.828 64.5602 261.948 65.2502C263.058 65.9102 264.538 66.2702 266.368 66.2702C267.298 66.2702 268.168 66.1502 268.988 65.9102C269.798 65.6702 270.518 65.2802 271.128 64.7702C271.728 64.2602 272.208 63.6302 272.568 62.8402C272.898 62.0602 273.078 61.1502 273.078 60.1302H280.388C280.388 62.1802 280.028 63.9502 279.338 65.4602C278.618 66.9702 277.628 68.2302 276.358 69.1902C275.068 70.1802 273.588 70.9102 271.878 71.3902C270.168 71.8702 268.328 72.1102 266.338 72.1102H266.308H266.318ZM258.708 51.8502H272.668C272.668 50.5002 272.518 49.3502 272.218 48.4202C271.918 47.4902 271.498 46.7002 270.958 46.1002C270.418 45.5002 269.758 45.0502 268.968 44.7802C268.188 44.5102 267.318 44.3902 266.348 44.3902C264.758 44.3902 263.428 44.6602 262.348 45.1702C261.268 45.7102 260.448 46.5202 259.878 47.6102C259.308 48.7202 258.918 50.1102 258.738 51.8302L258.708 51.8602V51.8502Z" fill="#000A8D"/>
<path d="M301.601 72.1102C298.261 72.1102 295.491 71.5102 293.301 70.3002C291.071 69.1002 289.421 67.2602 288.341 64.7602C287.261 62.2602 286.691 59.1002 286.691 55.2802C286.691 51.4602 287.261 48.2302 288.371 45.7702C289.481 43.3002 291.141 41.4602 293.361 40.2602C295.591 39.0602 298.321 38.4502 301.601 38.4502C303.771 38.4502 305.661 38.7202 307.321 39.2302C308.971 39.7702 310.421 40.5502 311.621 41.6402C312.821 42.7202 313.731 44.0502 314.331 45.6402C314.931 47.2402 315.231 49.1002 315.231 51.2102H307.681C307.681 49.7002 307.471 48.4402 307.021 47.4802C306.571 46.4902 305.911 45.7602 304.971 45.2502C304.071 44.7402 302.891 44.5002 301.481 44.5002C299.831 44.5002 298.441 44.8902 297.391 45.6702C296.341 46.4502 295.561 47.6002 295.041 49.1302C294.531 50.6702 294.291 52.5902 294.291 54.9102V55.6902C294.291 57.9802 294.531 59.9102 295.041 61.4402C295.551 63.0102 296.361 64.1502 297.451 64.9002C298.531 65.6502 299.981 66.0402 301.781 66.0402C303.161 66.0402 304.311 65.8002 305.211 65.2902C306.111 64.7802 306.841 64.0302 307.321 63.0002C307.801 61.9802 308.041 60.7402 308.041 59.3302H315.231C315.231 61.3202 314.931 63.1202 314.331 64.7202C313.731 66.3202 312.831 67.6702 311.651 68.7502C310.481 69.8602 309.031 70.6802 307.351 71.2502C305.661 71.8202 303.741 72.0902 301.601 72.0902V72.1102Z" fill="#000A8D"/>
<path fill-rule="evenodd" clip-rule="evenodd" d="M337.31 72.1102C333.82 72.1102 330.9 71.5102 328.56 70.3002C326.21 69.1002 324.44 67.2602 323.27 64.7602C322.1 62.2602 321.5 59.1002 321.5 55.2802C321.5 51.4602 322.1 48.2302 323.27 45.7702C324.44 43.3002 326.22 41.4602 328.56 40.2602C330.91 39.0602 333.82 38.4502 337.31 38.4502C340.8 38.4502 343.78 39.0502 346.09 40.2602C348.44 41.4602 350.18 43.3002 351.35 45.7702C352.52 48.2402 353.12 51.4302 353.12 55.2802C353.12 59.1302 352.52 62.3002 351.35 64.7602C350.18 67.2602 348.43 69.1002 346.09 70.3002C343.74 71.5002 340.83 72.1102 337.31 72.1102ZM337.31 66.0002C339.27 66.0002 340.83 65.6102 342.03 64.8602C343.23 64.1102 344.11 62.9602 344.65 61.4302C345.19 59.8902 345.46 58.0002 345.46 55.7102V54.8702C345.46 52.5802 345.19 50.6902 344.65 49.1502C344.11 47.6102 343.24 46.4702 342.03 45.7202C340.83 44.9702 339.26 44.5802 337.31 44.5802C335.36 44.5802 333.79 44.9702 332.59 45.7202C331.39 46.4702 330.51 47.6202 329.97 49.1502C329.43 50.6902 329.16 52.5802 329.16 54.8702V55.7102C329.16 58.0002 329.43 59.9002 329.97 61.4302C330.51 62.9702 331.38 64.1102 332.59 64.8602C333.8 65.6102 335.36 66.0002 337.31 66.0002Z" fill="#000A8D"/>
<path fill-rule="evenodd" clip-rule="evenodd" d="M361.02 34.2106V27.1006H368.45V34.2106H361.02ZM361.02 71.3906V39.1706H368.45V71.3906H361.02Z" fill="#000A8D"/>
<path d="M377.86 71.3902V39.1702H384.06L384.66 43.4502H385.08C385.8 42.4602 386.67 41.6102 387.67 40.8602C388.66 40.1102 389.81 39.5102 391.07 39.0802C392.33 38.6602 393.75 38.4502 395.31 38.4502C397.33 38.4502 399.13 38.8102 400.69 39.5602C402.25 40.2802 403.49 41.4902 404.36 43.1102C405.26 44.7402 405.68 46.9302 405.68 49.6702V71.4102H398.19V51.0302C398.19 49.8902 398.07 48.9202 397.8 48.1702C397.53 47.4202 397.14 46.8202 396.66 46.3302C396.15 45.8502 395.52 45.5202 394.79 45.3102C394.07 45.1002 393.26 45.0102 392.35 45.0102C391 45.0102 389.79 45.3402 388.74 46.0002C387.66 46.6602 386.82 47.5702 386.18 48.7102C385.55 49.8502 385.25 51.1802 385.25 52.6802V71.4402H377.82L377.85 71.3802L377.86 71.3902Z" fill="#000A8D"/>
<path d="M180.91 126.52V84.4902H210.93V91.2902H188.82V102.55H208.73V109.35H188.82V126.51H180.91V126.52Z" fill="#000A8D"/>
<path fill-rule="evenodd" clip-rule="evenodd" d="M231.271 127.27C227.781 127.27 224.861 126.67 222.521 125.46C220.171 124.26 218.401 122.42 217.231 119.92C216.061 117.42 215.461 114.26 215.461 110.44C215.461 106.62 216.061 103.39 217.231 100.93C218.401 98.4604 220.181 96.6203 222.521 95.4203C224.871 94.2203 227.781 93.6104 231.271 93.6104C234.761 93.6104 237.741 94.2103 240.051 95.4203C242.401 96.6203 244.141 98.4604 245.311 100.93C246.481 103.4 247.081 106.59 247.081 110.44C247.081 114.29 246.481 117.45 245.311 119.92C244.141 122.42 242.361 124.26 240.051 125.46C237.701 126.66 234.791 127.27 231.271 127.27ZM231.271 121.16C233.231 121.16 234.791 120.77 235.991 120.02C237.191 119.27 238.071 118.12 238.611 116.59C239.151 115.05 239.421 113.16 239.421 110.87V110.03C239.421 107.74 239.151 105.85 238.611 104.31C238.071 102.77 237.201 101.63 235.991 100.88C234.791 100.13 233.221 99.7403 231.271 99.7403C229.321 99.7403 227.751 100.13 226.551 100.88C225.351 101.63 224.471 102.78 223.931 104.31C223.391 105.85 223.121 107.74 223.121 110.03V110.87C223.121 113.16 223.391 115.05 223.931 116.59C224.471 118.13 225.341 119.27 226.551 120.02C227.761 120.77 229.321 121.16 231.271 121.16Z" fill="#000A8D"/>
<path d="M265.109 127.241C262.009 127.241 259.509 126.401 257.589 124.711C255.669 123.021 254.699 120.131 254.699 116.041V94.3005H262.129V114.681C262.129 115.821 262.249 116.761 262.519 117.541C262.789 118.291 263.179 118.901 263.659 119.381C264.169 119.861 264.769 120.191 265.529 120.401C266.249 120.611 267.059 120.701 267.969 120.701C269.319 120.701 270.529 120.371 271.579 119.711C272.659 119.051 273.499 118.141 274.139 116.971C274.769 115.801 275.069 114.501 275.069 113.031V94.2705H282.499V126.491H276.359L275.759 122.211H275.339C274.619 123.201 273.749 124.051 272.749 124.801C271.759 125.551 270.609 126.161 269.349 126.581C268.059 127.001 266.669 127.211 265.109 127.211V127.241Z" fill="#000A8D"/>
<path d="M291.979 126.52V94.3098H298.179L298.779 98.5898H299.199C299.919 97.5998 300.789 96.7498 301.789 95.9998C302.779 95.2498 303.929 94.6498 305.189 94.2198C306.449 93.7998 307.869 93.5898 309.429 93.5898C311.449 93.5898 313.249 93.9498 314.809 94.6998C316.369 95.4198 317.609 96.6298 318.479 98.2498C319.379 99.8798 319.829 102.07 319.829 104.81V126.55H312.339V106.17C312.339 105.03 312.219 104.09 311.949 103.31C311.679 102.56 311.289 101.96 310.809 101.47C310.299 100.99 309.699 100.66 308.939 100.45C308.219 100.24 307.409 100.15 306.499 100.15C305.179 100.15 303.939 100.48 302.889 101.14C301.809 101.8 300.959 102.71 300.329 103.85C299.699 104.99 299.399 106.32 299.399 107.82V126.58H291.969V126.52H291.979Z" fill="#000A8D"/>
<path fill-rule="evenodd" clip-rule="evenodd" d="M340.172 127.271C337.582 127.271 335.332 126.671 333.402 125.491C331.502 124.321 330.032 122.481 328.982 119.981C327.962 117.481 327.422 114.291 327.422 110.381C327.422 106.471 327.962 103.331 329.012 100.871C330.062 98.4007 331.542 96.5607 333.402 95.3907C335.262 94.2207 337.372 93.6107 339.752 93.6107C341.222 93.6107 342.552 93.7607 343.782 94.0907C344.982 94.4207 346.072 94.9007 347.002 95.6007C347.932 96.2607 348.712 97.1107 349.382 98.0707H349.742V82.2607H357.172V126.551H351.032L350.432 122.271H350.012C348.992 123.961 347.632 125.191 345.892 126.031C344.182 126.871 342.282 127.291 340.202 127.291L340.172 127.261V127.271ZM342.492 120.831C344.202 120.831 345.592 120.441 346.642 119.661C347.692 118.881 348.472 117.761 348.992 116.291C349.502 114.811 349.742 113.011 349.742 110.901V110.121C349.742 108.521 349.592 107.111 349.322 105.841C349.052 104.581 348.602 103.521 348.032 102.651C347.432 101.781 346.682 101.141 345.772 100.691C344.872 100.241 343.782 100.031 342.522 100.031C340.692 100.031 339.242 100.391 338.162 101.111C337.082 101.831 336.332 102.921 335.842 104.421C335.362 105.931 335.152 107.791 335.152 110.081V110.921C335.152 113.181 335.392 115.011 335.842 116.491C336.292 117.971 337.072 119.051 338.162 119.771C339.242 120.491 340.692 120.851 342.522 120.851L342.492 120.821V120.831Z" fill="#000A8D"/>
<path fill-rule="evenodd" clip-rule="evenodd" d="M374.818 127.27C373.918 127.27 372.888 127.15 371.748 126.94C370.608 126.73 369.458 126.31 368.408 125.68C367.328 125.08 366.448 124.14 365.758 122.94C365.068 121.74 364.738 120.14 364.738 118.18C364.738 115.98 365.218 114.15 366.208 112.7C367.168 111.25 368.558 110.11 370.328 109.27C372.108 108.43 374.208 107.85 376.678 107.49C379.148 107.13 381.818 106.98 384.738 106.98V104.36C384.738 103.43 384.588 102.58 384.318 101.86C384.018 101.14 383.508 100.54 382.758 100.11C382.008 99.6901 380.888 99.4801 379.388 99.4801C377.888 99.4801 376.708 99.6601 375.868 100.02C375.028 100.38 374.428 100.83 374.098 101.37C373.768 101.91 373.618 102.45 373.618 103.03V103.87H366.428C366.398 103.66 366.368 103.45 366.368 103.27V102.55C366.368 100.71 366.908 99.1201 368.018 97.7601C369.098 96.4101 370.638 95.3801 372.588 94.6601C374.548 93.9401 376.798 93.5801 379.358 93.5801C382.278 93.5801 384.678 94.0001 386.578 94.8101C388.478 95.6201 389.888 96.8001 390.818 98.3001C391.748 99.8101 392.228 101.64 392.228 103.81V119.01C392.228 119.79 392.438 120.34 392.888 120.67C393.338 121 393.818 121.15 394.358 121.15H396.318V126.3C395.928 126.45 395.328 126.66 394.548 126.87C393.768 127.08 392.838 127.2 391.688 127.2C390.638 127.2 389.698 127.02 388.858 126.69C388.018 126.36 387.328 125.85 386.758 125.18C386.188 124.51 385.798 123.76 385.528 122.86H385.168C384.478 123.7 383.668 124.49 382.698 125.15C381.738 125.81 380.618 126.35 379.358 126.71C378.098 127.07 376.618 127.25 374.938 127.25H374.818V127.27ZM377.078 121.13C378.278 121.13 379.368 120.95 380.328 120.59C381.288 120.23 382.078 119.72 382.708 119.05C383.338 118.38 383.818 117.6 384.178 116.67C384.508 115.74 384.688 114.71 384.688 113.6V112.12C382.458 112.12 380.388 112.27 378.518 112.54C376.618 112.81 375.118 113.35 374.008 114.14C372.898 114.92 372.318 116.01 372.318 117.45C372.318 118.17 372.498 118.83 372.828 119.38C373.188 119.92 373.698 120.37 374.418 120.67C375.138 120.97 376.008 121.12 377.068 121.12L377.078 121.13Z" fill="#000A8D"/>
<path d="M410.442 127.24C408.452 127.24 406.892 126.85 405.752 126.04C404.612 125.26 403.822 124.23 403.342 122.97C402.892 121.74 402.652 120.44 402.652 119.15V100.39H398.832V94.2803H402.832L404.152 85.2803H410.052V94.2803H415.592V100.39H410.052V118.39C410.052 119.23 410.262 119.93 410.712 120.38C411.162 120.86 411.822 121.07 412.732 121.07H415.592V126.22C415.172 126.37 414.692 126.52 414.092 126.67C413.492 126.82 412.892 126.94 412.232 127.03C411.572 127.12 410.972 127.18 410.402 127.18L410.462 127.24H410.442Z" fill="#000A8D"/>
<path fill-rule="evenodd" clip-rule="evenodd" d="M422.621 89.3405V82.2305H430.051V89.3405H422.621ZM422.621 126.52V94.3005H430.051V126.52H422.621Z" fill="#000A8D"/>
<path fill-rule="evenodd" clip-rule="evenodd" d="M453.732 127.27C450.242 127.27 447.322 126.67 444.982 125.46C442.642 124.25 440.862 122.42 439.692 119.92C438.522 117.42 437.922 114.26 437.922 110.44C437.922 106.62 438.522 103.39 439.692 100.93C440.862 98.4604 442.642 96.6203 444.982 95.4203C447.332 94.2203 450.242 93.6104 453.732 93.6104C457.222 93.6104 460.202 94.2103 462.512 95.4203C464.862 96.6203 466.602 98.4604 467.772 100.93C468.942 103.4 469.542 106.59 469.542 110.44C469.542 114.29 468.972 117.45 467.772 119.92C466.602 122.42 464.852 124.26 462.512 125.46C460.162 126.66 457.252 127.27 453.732 127.27ZM453.732 121.16C455.692 121.16 457.252 120.77 458.452 120.02C459.652 119.27 460.532 118.12 461.072 116.59C461.612 115.05 461.882 113.16 461.882 110.87V110.03C461.882 107.74 461.612 105.85 461.072 104.31C460.532 102.77 459.662 101.63 458.452 100.88C457.252 100.13 455.682 99.7403 453.732 99.7403C451.782 99.7403 450.212 100.13 449.012 100.88C447.812 101.63 446.932 102.78 446.392 104.31C445.852 105.85 445.582 107.74 445.582 110.03V110.87C445.582 113.16 445.852 115.05 446.392 116.59C446.932 118.13 447.802 119.27 449.012 120.02C450.222 120.77 451.782 121.16 453.732 121.16Z" fill="#000A8D"/>
<path d="M477.411 126.52V94.3098H483.611L484.211 98.5898H484.631C485.351 97.5998 486.221 96.7498 487.221 95.9998C488.211 95.2498 489.361 94.6498 490.621 94.2198C491.881 93.7998 493.301 93.5898 494.861 93.5898C496.881 93.5898 498.681 93.9498 500.241 94.6998C501.801 95.4198 503.041 96.6298 503.911 98.2498C504.811 99.8798 505.231 102.07 505.231 104.81V126.55H497.741V106.17C497.741 105.03 497.621 104.09 497.351 103.31C497.081 102.56 496.691 101.96 496.211 101.47C495.701 100.99 495.071 100.66 494.341 100.45C493.621 100.24 492.811 100.15 491.901 100.15C490.551 100.15 489.341 100.48 488.291 101.14C487.211 101.8 486.371 102.71 485.731 103.85C485.101 104.99 484.801 106.32 484.801 107.82V126.58H477.371L477.401 126.52H477.411Z" fill="#000A8D"/>
<path d="M133.71 6.03027C131.72 6.03027 125.62 6.03027 118.25 13.0503C111.39 19.5803 107.57 31.2003 106.58 34.6103L106.52 34.8203L105.77 37.3503C99.2402 37.4103 94.0402 39.4003 92.2002 40.4503C86.2102 43.4303 75.2002 53.0703 76.4702 68.0903C77.7302 83.0203 88.1402 90.7903 93.5902 92.8703C92.6902 97.0203 91.5402 101.09 90.3702 105.39L90.0402 106.56C89.0802 109.84 87.8102 113.03 86.2802 116.1C84.3202 119.98 80.8002 121.52 79.2102 121.79C77.4102 122.15 75.9602 121.97 74.9702 121.28C74.6102 121.01 74.3102 120.65 74.0702 120.26C73.8302 119.87 73.7102 119.42 73.6502 118.97C73.2002 115.15 70.8202 113.13 69.4402 112.74C67.6002 112.26 66.0702 112.47 64.9302 113.37C64.3902 113.82 63.9402 114.39 63.6402 115.06C63.3402 115.72 63.1602 116.42 63.1602 117.14C63.1602 124.43 72.0602 126.44 76.7602 126.47C78.7502 126.47 84.8502 126.47 92.2202 119.46C99.0502 112.96 103.29 100.88 104.58 95.3103C120.52 95.1603 129.04 84.7703 131.29 79.2903C133.03 76.1603 135.59 67.6103 132.91 57.5503C130.23 47.5803 121.21 41.6503 116.7 39.8503L118.02 34.8503V34.7303C118.71 32.1703 119.43 29.5803 120.13 27.1103L120.46 25.9403C121.42 22.6603 122.69 19.4703 124.22 16.4003C126.18 12.5203 129.7 10.9803 131.29 10.7103C133.1 10.3503 134.54 10.5303 135.53 11.2503C135.89 11.5203 136.22 11.8803 136.43 12.2703C136.67 12.6603 136.82 13.1103 136.85 13.5603C137.33 17.3803 139.68 19.4003 141.06 19.7903C142.9 20.2703 144.43 20.0603 145.57 19.1603C146.11 18.7103 146.56 18.1403 146.86 17.4703C147.16 16.8403 147.34 16.1203 147.34 15.3903C147.34 8.07027 138.41 6.06027 133.71 6.03027ZM104.02 44.6003L95.1502 85.6103C89.4902 82.8103 80.3502 73.7803 84.7702 58.9903C86.0002 54.5303 91.6002 45.8303 104.02 44.6003ZM126.7 70.5803C123.78 84.4303 112.53 87.9803 106.54 87.9803H106.24L115.2 46.6703C127.14 53.6503 127.96 65.3403 126.69 70.5803H126.7Z" fill="#000A8D"/>
</g>
</g>
<defs>
<clipPath id="clip0_848_1264">
<rect width="568.4" height="133.3" fill="white"/>
</clipPath>
</defs>
</svg>
