<svg width="569" height="134" viewBox="0 0 569 134" fill="none" xmlns="http://www.w3.org/2000/svg">
<g clip-path="url(#clip0_847_1261)">
<path d="M117.5 21.5599C116.43 21.5599 115.55 20.6899 115.55 19.6099C115.55 18.8699 115.96 18.2299 116.56 17.8999C115.84 17.5899 115.04 17.4199 114.21 17.4199C110.92 17.4199 108.25 20.0899 108.25 23.3799C108.25 26.6699 110.92 29.3399 114.21 29.3399C117.5 29.3399 120.17 26.6699 120.17 23.3799C120.17 22.2499 119.86 21.1999 119.32 20.2999C119.04 21.0299 118.33 21.5499 117.5 21.5499V21.5599Z" fill="#000A8D"/>
<path d="M202.64 50.4996C202.64 48.7696 202.6 47.0696 202.42 45.3896C199.87 20.9196 179.13 1.84961 153.99 1.84961H130.39C130.31 1.84961 130.23 1.84961 130.15 1.84961C98.18 1.84961 72.25 27.7696 72.25 59.7496C72.25 83.8396 86.97 104.5 107.9 113.22L111.04 91.0096C111.04 91.0096 111.64 107.46 117.45 116.25C121.53 117.16 125.78 117.64 130.14 117.64C135.95 117.64 141.56 116.78 146.85 115.19C137.87 105.25 134.26 90.3996 134.11 75.7296C144.98 137.36 201.9 132.12 201.9 132.12C199.34 92.0596 176.19 56.2696 136.35 54.0196C136.61 52.8196 136.89 51.6496 137.2 50.4996H202.64ZM153.99 6.95961C169.2 6.95961 182.62 14.7496 190.41 26.5596C182.65 29.8896 176.81 36.8996 175.16 45.3896H129.14L134.81 6.95961H154H153.99ZM96.68 74.6696C90.4 68.7996 86.12 58.3096 89.85 39.6196C94.24 17.6496 108.78 10.4396 118.93 8.11961C124.44 6.85961 128.62 11.8396 127.81 17.4396L121.8 58.7796C119.82 72.3696 106.72 84.0496 96.69 74.6696H96.68Z" fill="#000A8D"/>
<path d="M283.068 39.8301H235.238V50.5001H253.488V97.6001H264.818V50.5001H283.068V39.8301Z" fill="#000A8D"/>
<path d="M481.639 56.4492C477.319 56.4492 472.509 58.3192 470.069 62.4792V57.5092H459.559V97.5992H470.399V74.5392C470.399 69.8992 473.169 66.2292 477.899 66.2292C483.119 66.2292 485.319 69.7292 485.319 74.2192V97.6092H496.159V72.3492C496.159 63.5492 491.599 56.4592 481.649 56.4592L481.639 56.4492Z" fill="#000A8D"/>
<path d="M298.02 56.29C286.04 56.29 277 65.17 277 77.56C277 89.95 286.05 98.83 298.02 98.83C309.99 98.83 319.04 89.87 319.04 77.56C319.04 65.25 309.99 56.29 298.02 56.29ZM298.02 88.97C292.72 88.97 287.83 85.06 287.83 77.56C287.83 70.06 292.72 66.15 298.02 66.15C303.32 66.15 308.21 69.98 308.21 77.56C308.21 85.14 303.32 88.97 298.02 88.97Z" fill="#000A8D"/>
<path d="M450.4 57.5091H439.89V62.4791C438.91 60.1991 435.57 56.3691 428.4 56.3691C416.75 56.3691 409.09 65.6591 409.09 77.3891C409.09 89.1191 416.91 98.7391 428.73 98.7391C434.11 98.7391 438.26 95.9691 439.98 92.1391V92.6291C439.98 94.5891 440.22 96.6991 440.39 97.5991H450.74C450.66 96.6991 450.41 93.9291 450.41 90.3491V57.5091H450.4ZM430.03 89.3691C424.16 89.3691 420.01 84.6391 420.01 77.3891C420.01 70.1391 424.25 65.7391 430.03 65.7391C435.81 65.7391 439.89 70.0591 439.89 77.3891C439.89 84.7191 435.65 89.3691 430.03 89.3691Z" fill="#000A8D"/>
<path d="M388.229 88.8795C382.689 88.8795 377.959 84.8095 377.959 77.5495C377.959 70.2895 382.609 66.2995 388.149 66.2995C393.689 66.2995 396.049 69.7195 397.029 73.0595L406.729 69.7995C405.019 63.0395 398.829 56.2695 387.909 56.2695C376.259 56.2695 367.129 65.1495 367.129 77.5395C367.129 89.9295 376.419 98.8095 388.239 98.8095C398.919 98.8095 405.189 91.9595 406.979 85.2795L397.449 82.0995C396.549 85.1995 393.779 88.8595 388.239 88.8595L388.229 88.8795Z" fill="#000A8D"/>
<path d="M361.18 57.5098H350.34V80.8198C350.34 85.4598 347.57 88.7198 342.76 88.7198C337.71 88.7198 335.43 85.1298 335.43 80.6498V57.5098H324.59V82.8498C324.59 91.5698 330.13 98.6598 339.83 98.6598C344.07 98.6598 348.71 97.0298 350.91 93.2798C350.91 94.9098 351.07 96.7798 351.24 97.5998H361.59C361.43 96.2098 361.18 93.4398 361.18 90.3498V57.5098Z" fill="#000A8D"/>
</g>
<defs>
<clipPath id="clip0_847_1261">
<rect width="568.4" height="133.3" fill="white"/>
</clipPath>
</defs>
</svg>
