<svg width="569" height="134" viewBox="0 0 569 134" fill="none" xmlns="http://www.w3.org/2000/svg">
<g clip-path="url(#clip0_1115_1447)">
<path fill-rule="evenodd" clip-rule="evenodd" d="M185.959 26H105.375V106.997H185.957V78.7235H172.584C167.974 89.0378 157.598 96.2216 145.723 96.2216C129.353 96.2216 116.095 82.7815 116.095 66.4418C116.095 50.1024 129.353 36.7771 145.723 36.7771C157.828 36.7771 168.204 44.1937 172.816 54.7378H185.959V26ZM263.998 78.7219C259.273 89.0359 249.012 96.2194 237.023 96.2201C221.113 96.2201 208.086 83.4738 207.51 67.5986H277.372V26H196.788V106.995H277.372V78.7219H263.998ZM265.031 57.634H208.773C212.346 44.3086 224.219 36.7772 237.016 36.7772C249.813 36.7772 260.882 43.8443 265.031 57.634ZM451.384 66.4402C451.384 82.8948 438.241 96.2201 421.87 96.2201C405.615 96.2201 392.357 82.7796 392.357 66.4402C392.357 50.1007 405.501 36.7754 421.87 36.7754C438.241 36.7754 451.384 49.9859 451.384 66.4402ZM462.219 26H381.635V106.997H462.219V26ZM358.187 78.7219H371.56V106.995H288.095V26H301.698V66.4402C301.698 84.5174 315.072 96.105 330.98 96.105C343.315 96.105 354.152 89.3825 358.187 78.7219Z" fill="#000A8D"/>
</g>
<defs>
<clipPath id="clip0_1115_1447">
<rect width="568.4" height="133.3" fill="white"/>
</clipPath>
</defs>
</svg>
