<svg width="569" height="134" viewBox="0 0 569 134" fill="none" xmlns="http://www.w3.org/2000/svg">
<g clip-path="url(#clip0_845_1341)">
<path d="M264.679 65.1905L250.239 40.8005H239.159L259.609 73.8505V95.2405H269.149V73.8505L289.559 40.8005H278.839L264.669 65.1905H264.679ZM214.739 61.6905H192.629V40.8005H180.629V95.2405H192.629V71.7705H214.739V95.2405H226.739V40.8005H214.739V61.6905ZM397.059 64.4405H364.629V40.8005H359.439V95.2405H364.629V68.8805H397.039V95.2405H402.229V40.8005H397.039V64.4405H397.059ZM326.689 40.8005H302.769V95.2405H310.019V72.9905H326.689C332.199 73.0305 336.359 71.6505 339.179 68.8005C342.019 65.9505 343.429 61.9805 343.429 56.9105C343.429 51.8405 342.019 47.8705 339.179 45.0605C336.339 42.2505 332.179 40.8205 326.689 40.8205V40.8005ZM333.289 64.3705C331.379 66.0905 328.369 66.9505 324.229 66.8905H310.019V46.9005H324.229C328.349 46.9005 331.379 47.7405 333.289 49.4605C335.199 51.1805 336.169 53.6305 336.169 56.8805C336.169 60.1305 335.219 62.6305 333.289 64.3505V64.3705ZM509.679 40.8005V93.2905H509.529L472.239 40.8005H469.949V95.2405H471.479V42.6805H471.629L508.919 95.1705H511.209V40.7305L509.699 40.7905H509.679V40.8005ZM423.569 68.4005H454.909V65.4905H423.569V43.7005H456.879V40.7905H420.199V95.2305H457.209V92.3105H423.559V68.4005H423.569Z" fill="#000A8D"/>
<path d="M110.487 28.5503C121.337 38.2603 127.978 51.7703 129.738 55.6503C131.398 59.0703 132.257 62.8403 132.257 66.6603C132.257 68.0003 132.147 69.3203 131.938 70.6403C135.527 64.2603 138.177 57.4303 139.837 50.3003C143.007 35.5103 135.947 27.0803 135.637 26.7303C132.797 23.6703 128.217 21.5303 124.517 21.5303H99.1875C103.347 23.1403 107.198 25.5103 110.478 28.5603L110.487 28.5503Z" fill="#000A8D"/>
<path d="M75.6184 44.4904C90.2284 39.7504 106.158 41.1304 109.208 41.4504C114.208 41.9304 118.958 43.8604 122.848 47.0504C119.108 40.7804 114.508 35.0504 109.188 30.0404C101.118 22.7804 93.2784 21.6904 89.3084 21.6904C88.4084 21.6904 87.5184 21.7304 86.6384 21.8804C82.5584 22.8404 78.3984 25.7004 76.5684 28.8604L63.8984 50.8204C67.3884 48.0104 71.3784 45.8704 75.6684 44.5504" fill="#000A8D"/>
<path d="M72.0188 82.6003C75.3188 67.1203 85.1088 53.4503 86.2288 51.9803C89.1288 47.9303 93.1688 44.8103 97.8288 43.0303C90.4888 43.1103 83.2188 44.2503 76.1988 46.3603C61.7788 51.0203 58.0188 61.3303 57.8688 61.7503C56.6488 65.7303 57.0688 70.7703 58.8988 73.9603L71.5688 95.9003C70.8788 91.4703 71.0188 86.9703 72.0088 82.6003H72.0188Z" fill="#000A8D"/>
<path d="M138.168 88.8105C123.498 93.5505 107.608 92.1705 104.558 91.8505C99.558 91.3705 94.808 89.4405 90.918 86.2505C94.658 92.5405 99.288 98.2905 104.648 103.301C115.898 113.431 126.738 111.541 127.198 111.461C131.278 110.501 135.438 107.641 137.288 104.461L149.958 82.5205C146.468 85.3305 142.478 87.4705 138.208 88.7905L137.918 87.8705" fill="#000A8D"/>
<path d="M103.298 104.75C92.1577 94.7502 85.3077 80.4402 84.0477 77.6502C81.7977 72.9902 81.0377 67.7702 81.8377 62.6602C78.2477 69.0402 75.5977 75.8902 73.9377 83.0002C70.7677 97.7902 77.8277 106.22 78.1377 106.57C80.9777 109.63 85.5577 111.77 89.2577 111.77H114.628C110.448 110.15 106.598 107.79 103.298 104.74V104.75Z" fill="#000A8D"/>
<path d="M142.179 37.4004C142.869 41.8304 142.729 46.3304 141.759 50.7004C138.439 66.1604 128.669 79.8504 127.549 81.3204C124.649 85.3904 120.609 88.5104 115.949 90.3004C123.289 90.2004 130.559 89.0804 137.579 86.9704C151.999 82.3104 155.779 72.0004 155.929 71.5604C157.169 67.5804 156.729 62.5404 154.899 59.3504L142.199 37.4104H142.179V37.4004Z" fill="#000A8D"/>
<path opacity="0.6" d="M142.207 37.4004C142.897 41.8304 142.757 46.3304 141.767 50.7004C138.447 66.1604 128.677 79.8504 127.557 81.3204C124.657 85.3904 120.617 88.5104 115.957 90.3004C123.297 90.2004 130.567 89.0804 137.587 86.9704C152.027 82.3104 155.787 72.0004 155.937 71.5604C157.177 67.5804 156.737 62.5404 154.907 59.3504L142.237 37.4104H142.217L142.207 37.4004Z" fill="#000A8D"/>
<path opacity="0.6" d="M81.8388 62.6501C81.4788 63.2801 81.1488 63.9501 80.7888 64.6001L80.7088 64.7501C80.3488 65.4401 80.0188 66.1301 79.6588 66.8701C79.6588 66.8701 79.6588 66.9701 79.5788 67.0201C79.2188 67.7501 78.8888 68.4901 78.5288 69.2601C78.5288 69.3201 78.5288 69.3601 78.4688 69.4301C78.1288 70.2101 77.7988 71.0001 77.4988 71.8001L77.4388 71.9501C77.0988 72.7701 76.7888 73.6101 76.4688 74.4501C76.4688 74.4901 76.4488 74.5301 76.4288 74.5801C76.1088 75.4401 75.8188 76.3201 75.5488 77.2001V77.3001C75.2788 78.2001 74.9988 79.1001 74.7488 80.0301C74.4988 80.9901 74.2688 81.9201 74.0588 82.8801C70.8888 97.6701 77.9488 106.1 78.2588 106.43C81.0988 109.49 85.6788 111.63 89.3788 111.63H114.749L114.389 111.5L113.819 111.27C113.549 111.16 113.289 111.04 113.019 110.91L112.409 110.64L111.609 110.24L110.979 109.92L110.159 109.46L109.509 109.08C109.239 108.91 108.939 108.72 108.649 108.56L108.019 108.16L107.119 107.53C106.909 107.38 106.719 107.26 106.509 107.11C106.299 106.96 105.839 106.59 105.479 106.31L104.979 105.91C104.479 105.49 104.009 105.05 103.449 104.59C92.3088 94.5901 85.4588 80.2801 84.1988 77.4901C82.5388 74.0701 81.6788 70.3001 81.6788 66.5001C81.6388 65.2001 81.7188 63.9001 81.8888 62.6201L81.8688 62.6401L81.8388 62.6501Z" fill="#000A8D"/>
<path opacity="0.6" d="M122.85 46.9503C122.47 46.3603 122.09 45.7503 121.69 45.1303L121.58 44.9603C121.14 44.2903 120.7 43.6203 120.23 42.9303C120.21 42.8903 120.17 42.8503 120.15 42.8003C119.69 42.1303 119.18 41.4803 118.72 40.7903L118.57 40.5803C118.09 39.9303 117.6 39.2603 117.1 38.6303C117.04 38.5503 116.97 38.4603 116.91 38.3803C116.38 37.7303 115.88 37.0803 115.33 36.4303L115.12 36.1803C114.57 35.5303 114.01 34.8803 113.44 34.2303L113.25 34.0203C112.64 33.3503 112.03 32.7203 111.4 32.0703C111.36 32.0303 111.32 31.9903 111.27 31.9403C110.6 31.2703 109.9 30.6203 109.19 29.9903C108.73 29.5903 108.29 29.2103 107.84 28.8403L107.48 28.5503C107.1 28.2603 106.72 27.9603 106.34 27.6903L106.11 27.5203C105.67 27.2103 105.23 26.8903 104.81 26.6203L104.47 26.4103C104.13 26.1803 103.78 25.9703 103.5 25.7803L103.16 25.5903C102.74 25.3403 102.32 25.1103 101.92 24.9003L101.63 24.7503L100.66 24.2903L100.28 24.1203L99.1198 23.6203L98.9298 23.5603C98.5898 23.4303 98.2598 23.3103 97.9598 23.2003L97.5598 23.0703L96.7198 22.8003L96.4298 22.7203L95.4598 22.4503L95.0598 22.3703L94.3898 22.2203L93.9498 22.0903L93.0698 21.9403L92.7098 21.8803L92.1598 21.8203H86.6498C82.5698 22.7803 78.4098 25.6403 76.5798 28.8003L63.8398 50.7803L64.0698 50.6103L64.7598 50.0603L65.1198 49.7903C65.4098 49.5803 65.7098 49.3703 65.9998 49.1603L66.2098 49.0103C66.5898 48.7603 66.9898 48.5103 67.3898 48.2503L67.7298 48.0403L68.6998 47.4903L69.0798 47.2803L70.3598 46.6103H70.4398C70.8998 46.3803 71.3898 46.1503 71.9098 45.9403L72.3098 45.7703L73.4198 45.2703L73.8798 45.1003C74.4098 44.8903 74.9698 44.7003 75.5398 44.5103C90.1498 39.7703 106.1 41.1503 109.13 41.4703C114.13 41.9503 118.88 43.8803 122.77 47.0703V46.9903L122.79 46.9503H122.85Z" fill="#000A8D"/>
<path opacity="0.6" d="M97.8405 43.0303H97.7305L95.5905 43.1103H95.3405L93.0305 43.2603H92.8205C92.0205 43.3203 91.2005 43.3903 90.3805 43.4703H90.1705C89.3305 43.5503 88.4905 43.6603 87.6305 43.7803H87.4405C86.5805 43.9103 85.7005 44.0303 84.8105 44.1803H84.6605C83.7805 44.3303 82.8705 44.5203 81.9705 44.7003H81.8405C80.9205 44.9103 80.0105 45.1403 79.0905 45.3703H79.0305C78.0605 45.6203 77.1605 45.8903 76.2305 46.1903C61.7905 51.0103 58.0305 61.3303 57.8805 61.7503C56.6605 65.7303 57.0805 70.7703 58.9105 73.9603L71.5805 95.9003V95.6303C71.5805 95.3403 71.5005 95.0403 71.4505 94.7503L71.3905 94.3103C71.3905 93.9503 71.3305 93.6203 71.2805 93.2403V92.9703C71.2805 92.5303 71.2805 92.0703 71.2205 91.6103V89.6403C71.2205 89.2203 71.2205 88.7603 71.2805 88.3203V88.1103C71.2805 87.5903 71.3605 87.0603 71.4305 86.5403L71.4905 86.0403C71.4905 85.6403 71.6005 85.2403 71.6605 84.8203C71.6605 84.6503 71.7005 84.4803 71.7405 84.3203C71.8505 83.7503 71.9505 83.1903 72.0805 82.6003C75.4005 67.1203 85.1705 53.4503 86.2905 51.9803C89.1705 47.9303 93.1805 44.8303 97.8305 43.0303V43.0503L97.8405 43.0303Z" fill="#000A8D"/>
<path opacity="0.6" d="M131.93 70.6403C135.52 64.2603 138.17 57.4303 139.83 50.3003C143 35.4903 135.94 27.0803 135.63 26.7303C132.79 23.6703 128.21 21.5303 124.51 21.5303H99.1797L99.4497 21.6303L100.27 21.9403L100.69 22.1303C101.01 22.2603 101.34 22.4203 101.66 22.5703L101.89 22.6703C102.29 22.8603 102.69 23.0703 103.11 23.3003L103.49 23.5103L104.46 24.0303C104.59 24.1103 104.73 24.1803 104.86 24.2803C105.26 24.5103 105.64 24.7603 106.02 25.0103L106.15 25.0903C106.57 25.3603 107.01 25.6803 107.45 26.0103L107.85 26.3003C108.17 26.5503 108.5 26.8003 108.82 27.0603L109.22 27.3703C109.66 27.7503 110.1 28.1203 110.54 28.5203C121.39 38.2303 128.03 51.7403 129.79 55.6203C131.45 59.0403 132.31 62.8103 132.31 66.6303C132.29 67.9703 132.14 69.2903 131.91 70.6103H131.93V70.6403Z" fill="#000A8D"/>
<path opacity="0.6" d="M137.248 104.47L149.918 82.5303C146.428 85.3403 142.438 87.4803 138.168 88.8003C123.498 93.5403 107.608 92.1603 104.558 91.8403C99.558 91.3603 94.808 89.4303 90.918 86.2403L90.978 86.3203C91.338 86.9103 91.718 87.5203 92.118 88.1403L92.248 88.3303C92.668 89.0003 93.128 89.6703 93.598 90.3403C93.618 90.3803 93.658 90.4403 93.708 90.4903C94.148 91.1403 94.628 91.7903 95.118 92.4403L95.288 92.6703C95.748 93.3203 96.258 93.9703 96.758 94.6203C96.818 94.7003 96.888 94.8103 96.968 94.8903C97.468 95.5403 97.938 96.1703 98.498 96.8403L98.728 97.1103C99.258 97.7403 99.818 98.3903 100.388 99.0003L100.598 99.2303C101.188 99.8803 101.798 100.53 102.428 101.18L102.578 101.33C103.248 102 103.948 102.67 104.678 103.28C115.928 113.41 126.768 111.52 127.228 111.44C131.268 110.52 135.428 107.64 137.278 104.46H137.258L137.248 104.47Z" fill="#000A8D"/>
</g>
<defs>
<clipPath id="clip0_845_1341">
<rect width="568.4" height="133.3" fill="white"/>
</clipPath>
</defs>
</svg>
