<svg width="454" height="107" viewBox="0 0 454 107" fill="none" xmlns="http://www.w3.org/2000/svg">
<path d="M125.858 62.9585C123.253 61.4446 120.314 61.008 117.402 60.9127C114.96 60.8308 111.32 59.262 111.32 54.7746C111.335 53.1582 111.978 51.6115 113.115 50.4644C114.251 49.3177 115.79 48.6618 117.402 48.6369C120.314 48.5346 123.253 48.0981 125.858 46.5908C128.198 45.2328 130.14 43.2816 131.489 40.9332C132.839 38.5847 133.548 35.9218 133.546 33.2117C133.544 30.5015 132.831 27.8396 131.478 25.4932C130.125 23.1468 128.18 21.1985 125.838 19.844C123.497 18.4894 120.841 17.7763 118.138 17.7761C115.434 17.776 112.778 18.4889 110.437 19.8433C108.095 21.1976 106.15 23.1457 104.797 25.492C103.444 27.8382 102.731 30.5001 102.728 33.2102C102.728 36.2042 103.789 38.9594 105.15 41.5168C106.286 43.6651 106.864 47.6549 102.953 49.9121C101.539 50.7006 99.8731 50.9027 98.3126 50.4741C96.752 50.0458 95.4211 49.0213 94.6054 47.6207C93.0747 45.1655 91.2039 42.8467 88.6392 41.3668C86.2966 40.0122 83.6398 39.2996 80.9355 39.3004C78.2312 39.3012 75.5747 40.0155 73.233 41.3715C70.8913 42.7274 68.9468 44.6773 67.5949 47.0253C66.243 49.3733 65.5312 52.0363 65.5312 54.7473C65.5312 57.4584 66.243 60.1217 67.5949 62.4698C68.9468 64.8174 70.8913 66.7676 73.233 68.1233C75.5747 69.4793 78.2312 70.1936 80.9355 70.1946C83.6398 70.1953 86.2966 69.4827 88.6392 68.1281C91.2243 66.6277 93.0747 64.3294 94.6054 61.8743C95.8639 59.8282 99.0001 57.2912 102.953 59.5826C104.341 60.4164 105.348 61.7624 105.758 63.3322C106.167 64.9017 105.947 66.5697 105.143 67.9778C103.783 70.5355 102.728 73.2908 102.728 76.2847C102.728 78.9971 103.441 81.6615 104.793 84.0106C106.146 86.3593 108.092 88.3101 110.435 89.6665C112.778 91.0229 115.436 91.7371 118.142 91.7375C120.847 91.7378 123.505 91.0242 125.849 89.6685C128.192 88.3129 130.138 86.3631 131.492 84.0144C132.845 81.6657 133.558 79.0016 133.559 76.2892C133.56 73.5768 132.849 70.912 131.498 68.5626C130.146 66.2128 128.201 64.2613 125.858 62.9039V62.9585Z" fill="#000A8D"/>
<path d="M154.762 31.3359H165.49V36.4098C166.92 34.6649 168.718 33.2583 170.753 32.2904C172.789 31.3225 175.013 30.8172 177.266 30.8107C178.794 30.7533 180.322 30.9304 181.797 31.3359V43.6116C181.797 43.6116 180.314 43.0865 176.742 43.0865C170.619 43.0865 166.538 47.1786 166.538 53.3164V78.3795H154.762V31.3359ZM212.417 31.3359H223.145V35.8847C226.808 32.6428 231.519 30.8403 236.405 30.8107C248.18 30.8107 258.385 41.0406 258.385 54.8575C258.385 68.6749 248.18 78.9045 236.405 78.9045C231.905 78.9159 227.558 77.2677 224.193 74.2738V95.2585H212.417V31.3359ZM246.609 54.8575C246.609 47.1648 241.548 42.0908 234.921 42.0908C228.295 42.0908 223.145 47.1444 223.145 54.8575C223.145 62.571 228.289 67.6041 234.928 67.6041C241.568 67.6041 246.609 62.5572 246.609 54.8575ZM267.018 31.3359H277.746V35.8847C281.41 32.6444 286.12 30.8422 291.006 30.8107C302.781 30.8107 312.986 41.0406 312.986 54.8575C312.986 68.6749 302.781 78.9045 291.006 78.9045C286.507 78.9121 282.161 77.2646 278.794 74.2738V95.2585H267.018V31.3359ZM301.217 54.8575C301.217 47.1648 296.155 42.0908 289.523 42.0908C282.889 42.0908 277.746 47.1444 277.746 54.8575C277.746 62.571 282.896 67.6041 289.523 67.6041C296.149 67.6041 301.217 62.5572 301.217 54.8575ZM321.626 13.9383H333.402V78.3795H321.626V13.9383ZM342.035 54.8575C342.035 41.5725 352.763 30.8107 365.498 30.8107C377.791 30.8107 387.996 40.5222 387.996 54.8575C387.947 56.4153 387.772 57.9661 387.472 59.4952H354.77C355.818 64.0441 359.423 67.6041 365.498 67.6041C370.995 67.6041 373.179 65.0737 373.179 65.0737H385.914C383.554 71.2118 376.227 78.8842 365.505 78.8842C352.763 78.9045 342.035 68.1495 342.035 54.8575ZM376.73 51.2771C376.195 48.6821 374.784 46.3516 372.734 44.6782C370.684 43.0049 368.121 42.0912 365.478 42.0912C362.835 42.0912 360.272 43.0049 358.222 44.6782C356.173 46.3516 354.761 48.6821 354.226 51.2771H376.73ZM188.668 19.0055C188.668 17.2311 189.371 15.5294 190.623 14.2747C191.874 13.0201 193.572 12.3152 195.341 12.3152C197.111 12.3152 198.809 13.0201 200.061 14.2747C201.312 15.5294 202.015 17.2311 202.015 19.0055C202.015 20.7799 201.312 22.4816 200.061 23.7363C198.809 24.9909 197.111 25.6958 195.341 25.6958C193.572 25.6958 191.874 24.9909 190.623 23.7363C189.371 22.4816 188.668 20.7799 188.668 19.0055ZM189.457 31.3359H201.253V78.393H189.477L189.457 31.3359Z" fill="#000A8D"/>
</svg>
