<svg width="454" height="107" viewBox="0 0 454 107" fill="none" xmlns="http://www.w3.org/2000/svg">
<path d="M121.718 63.3349C119.005 61.7588 115.946 61.3043 112.915 61.2051C110.372 61.1199 106.583 59.4867 106.583 54.815C106.598 53.1322 107.268 51.522 108.451 50.3278C109.634 49.134 111.236 48.4512 112.915 48.4253C115.946 48.3189 119.005 47.8644 121.718 46.2953C124.153 44.8814 126.175 42.8501 127.58 40.4053C128.985 37.9605 129.723 35.1882 129.721 32.3668C129.719 29.5454 128.976 26.7742 127.568 24.3315C126.16 21.8888 124.135 19.8605 121.697 18.4503C119.259 17.0402 116.495 16.2978 113.68 16.2976C110.866 16.2975 108.101 17.0397 105.663 18.4496C103.225 19.8596 101.2 21.8876 99.7919 24.3302C98.3834 26.7728 97.6405 29.5439 97.638 32.3653C97.638 35.4822 98.7428 38.3505 100.159 41.0129C101.342 43.2494 101.944 47.403 97.8719 49.7529C96.3998 50.5738 94.6657 50.7841 93.0411 50.3379C91.4166 49.892 90.031 48.8255 89.1818 47.3674C87.5883 44.8114 85.6406 42.3974 82.9706 40.8568C80.5319 39.4466 77.766 38.7047 74.9507 38.7055C72.1354 38.7064 69.3698 39.45 66.932 40.8616C64.4941 42.2732 62.4698 44.3032 61.0624 46.7475C59.655 49.1919 58.9141 51.9643 58.9141 54.7866C58.9141 57.6089 59.655 60.3816 61.0624 62.8261C62.4698 65.2701 64.4941 67.3003 66.932 68.7116C69.3698 70.1234 72.1354 70.867 74.9507 70.868C77.766 70.8688 80.5319 70.1269 82.9706 68.7167C85.6619 67.1547 87.5883 64.762 89.1818 62.2061C90.492 60.076 93.7569 57.4349 97.8719 59.8203C99.317 60.6884 100.365 62.0896 100.792 63.7239C101.218 65.3579 100.989 67.0943 100.152 68.5603C98.7359 71.2229 97.638 74.0913 97.638 77.2081C97.6384 80.0319 98.3798 82.8057 99.788 85.2512C101.197 87.6963 103.222 89.7272 105.661 91.1393C108.101 92.5513 110.868 93.295 113.684 93.2953C116.501 93.2957 119.268 92.5528 121.708 91.1414C124.147 89.7301 126.173 87.7003 127.583 85.2551C128.992 82.81 129.734 80.0366 129.735 77.2128C129.736 74.389 128.996 71.6149 127.589 69.169C126.181 66.7228 124.157 64.6912 121.718 63.2781V63.3349Z" fill="#000A8D"/>
<path d="M151.809 30.4141H162.977V35.6964C164.466 33.8798 166.338 32.4154 168.457 31.4078C170.576 30.4002 172.891 29.8742 175.237 29.8674C176.828 29.8076 178.418 29.992 179.953 30.4141V43.1938C179.953 43.1938 178.41 42.6471 174.692 42.6471C168.317 42.6471 164.068 46.9072 164.068 53.2969V79.389H151.809V30.4141ZM211.831 30.4141H223V35.1497C226.813 31.7747 231.717 29.8982 236.803 29.8674C249.062 29.8674 259.686 40.5172 259.686 54.9014C259.686 69.286 249.062 79.9356 236.803 79.9356C232.119 79.9475 227.594 78.2316 224.091 75.1147V96.9609H211.831V30.4141ZM247.426 54.9014C247.426 46.8928 242.157 41.6106 235.259 41.6106C228.361 41.6106 223 46.8716 223 54.9014C223 62.9315 228.354 68.1713 235.266 68.1713C242.178 68.1713 247.426 62.9171 247.426 54.9014ZM268.673 30.4141H279.842V35.1497C283.657 31.7764 288.559 29.9002 293.646 29.8674C305.905 29.8674 316.529 40.5172 316.529 54.9014C316.529 69.286 305.905 79.9356 293.646 79.9356C288.962 79.9435 284.438 78.2283 280.933 75.1147V96.9609H268.673V30.4141ZM304.276 54.9014C304.276 46.8928 299.007 41.6106 292.102 41.6106C285.196 41.6106 279.842 46.8716 279.842 54.9014C279.842 62.9315 285.204 68.1713 292.102 68.1713C299 68.1713 304.276 62.9171 304.276 54.9014ZM325.523 12.3023H337.783V79.389H325.523V12.3023ZM346.77 54.9014C346.77 41.071 357.939 29.8674 371.197 29.8674C383.994 29.8674 394.618 39.9776 394.618 54.9014C394.567 56.5231 394.384 58.1376 394.072 59.7294H360.028C361.119 64.4651 364.872 68.1713 371.197 68.1713C376.919 68.1713 379.193 65.537 379.193 65.537H392.451C389.993 71.9271 382.366 79.9144 371.204 79.9144C357.939 79.9356 346.77 68.739 346.77 54.9014ZM382.89 51.174C382.332 48.4725 380.863 46.0462 378.729 44.3042C376.595 42.5622 373.927 41.611 371.176 41.611C368.424 41.611 365.756 42.5622 363.622 44.3042C361.488 46.0462 360.019 48.4725 359.462 51.174H382.89ZM187.106 17.5775C187.106 15.7303 187.839 13.9587 189.142 12.6525C190.444 11.3464 192.212 10.6125 194.054 10.6125C195.897 10.6125 197.664 11.3464 198.967 12.6525C200.27 13.9587 201.002 15.7303 201.002 17.5775C201.002 19.4247 200.27 21.1963 198.967 22.5025C197.664 23.8087 195.897 24.5425 194.054 24.5425C192.212 24.5425 190.444 23.8087 189.142 22.5025C187.839 21.1963 187.106 19.4247 187.106 17.5775ZM187.928 30.4141H200.209V79.4031H187.949L187.928 30.4141Z" fill="#000A8D"/>
</svg>
