<svg width="570" height="183" viewBox="0 0 570 183" fill="none" xmlns="http://www.w3.org/2000/svg">
<path fill-rule="evenodd" clip-rule="evenodd" d="M22.9494 43.473L22.9494 43.473C25.0943 41.708 27.2277 39.9525 29.0297 37.7C29.5477 36.9815 30.0629 36.2518 30.5813 35.5175L30.5815 35.5173C33.1658 31.8571 35.8315 28.0817 39.3297 25C38.8081 25.2104 38.2799 25.4192 37.748 25.6295C32.4662 27.7169 26.8186 29.949 23.7297 35.4C22.2828 37.3099 21.6733 39.5548 21.0676 41.7856C20.6268 43.4094 20.1879 45.0257 19.4297 46.5C20.57 45.4309 21.7612 44.4508 22.9488 43.4735L22.9489 43.4734L22.949 43.4734L22.949 43.4733L22.9491 43.4733L22.9491 43.4732L22.9492 43.4732L22.9492 43.4731L22.9493 43.4731L22.9493 43.473L22.9494 43.473ZM12.54 63.1998C13.94 60.3998 16.34 57.7998 18.84 55.5998C24.94 51.2998 31.34 45.1998 31.44 37.5998C30.0751 41.353 26.8942 43.6161 23.7084 45.8826L23.7084 45.8826L23.7084 45.8826L23.7083 45.8826L23.7083 45.8827L23.7083 45.8827L23.7083 45.8827L23.7082 45.8827L23.7082 45.8828L23.7082 45.8828L23.7081 45.8828L23.7081 45.8828L23.7081 45.8829L23.7081 45.8829C22.2255 46.9376 20.742 47.9931 19.44 49.1998C17.34 51.1998 15.74 53.5998 14.74 56.0998L14.64 55.9998C14.9138 54.7948 15.3377 53.6499 15.7636 52.4992C16.1154 51.549 16.4686 50.5948 16.74 49.5998C17.2205 48.0515 17.5442 46.4178 17.869 44.7784C18.7611 40.2764 19.6615 35.732 23.84 32.7998C20.94 33.4998 18.34 35.2998 16.24 37.8998C11.54 42.8998 12.04 50.4998 12.64 57.1998C12.7495 58.3497 12.6791 59.4396 12.6094 60.5187C12.5518 61.4105 12.4947 62.2949 12.54 63.1998ZM353.14 54.1002C351.64 53.2002 350.34 52.7002 348.74 52.7002C345.94 52.7002 343.24 54.5002 343.24 61.5002C343.24 68.5002 344.84 69.7002 347.54 69.7002C349.14 69.7002 350.84 68.9002 353.14 67.3002V54.1002ZM354.04 72.4002C351.24 74.3002 348.64 75.6002 345.34 75.6002C339.54 75.6002 335.84 72.4002 335.84 61.7002C335.84 51.0002 340.94 47.1002 347.44 47.1002C349.64 47.1002 351.64 47.6002 353.44 48.5002L353.54 48.4002C353.34 46.4002 353.24 44.7002 353.24 42.8002V34.2002H360.64V75.1002H354.64L354.04 72.4002ZM281.33 75.0998V47.5998H273.93V75.0998H281.33ZM273.43 38.7998C273.43 41.8998 274.33 42.7998 277.63 42.7998C280.93 42.7998 281.83 41.9998 281.83 38.7998C281.83 35.5998 280.93 34.7998 277.63 34.7998C274.33 34.7998 273.43 35.6998 273.43 38.7998ZM212.539 36.5996V59.3996C212.539 67.1996 213.939 69.9996 219.939 69.9996C225.939 69.9996 227.139 67.0996 227.139 59.2996V36.5996H234.639V58.9996C234.639 70.7996 230.839 75.7996 219.639 75.7996C208.439 75.7996 205.039 71.2996 205.039 59.4996V36.5996H212.539ZM241.84 47.5996H247.84L248.24 50.3996C251.54 48.2996 254.44 47.0996 258.04 47.0996C263.84 47.0996 266.34 49.7996 266.34 56.0996V75.0996H259.04V57.5996C259.04 53.9996 257.94 52.9996 255.64 52.9996C253.84 52.9996 251.74 53.7996 249.24 55.4996V75.0996H241.84V47.5996ZM289.939 47.6004V39.9004L297.339 38.9004V47.6004H303.339V53.1004H297.339V66.2004C297.339 69.0004 298.139 70.0004 300.139 70.0004C301.339 70.0004 302.339 69.8004 303.339 69.5004L303.939 74.8004C302.239 75.3004 300.239 75.6004 297.939 75.6004C292.039 75.6004 290.039 73.4004 290.039 68.1004V53.1004H286.039V47.6004H289.939ZM319.73 52.3998C323.03 52.3998 324.23 53.5998 324.33 58.7998H314.83C314.93 53.6998 316.43 52.3998 319.73 52.3998ZM320.13 75.5998C323.73 75.5998 326.63 75.1998 329.63 74.4998L329.03 69.0998L328.863 69.1306C326.243 69.6161 324.172 69.9998 321.43 69.9998C316.63 69.9998 315.03 69.0998 314.83 63.4998H330.73C330.83 62.0998 330.93 60.6998 330.93 59.2998C330.93 49.3998 327.63 46.7998 320.03 46.7998C312.43 46.7998 307.43 49.7998 307.43 61.4998C307.43 73.1998 311.93 75.5998 320.13 75.5998ZM393.239 36.5996H383.739H383.539V75.0996H390.039V54.7996C390.039 52.0516 389.787 48.8842 389.514 45.4509L389.512 45.4212L389.439 44.4996H389.539C391.039 48.2996 392.539 51.3996 394.239 54.7996L404.739 75.0996H414.339V36.5996H407.839V56.8996C407.839 59.8996 408.039 63.2996 408.539 67.1996H408.439L408.372 67.0415C406.803 63.3134 405.514 60.2523 403.739 56.8996L393.239 36.5996ZM438.23 54.0996C436.63 53.1996 435.43 52.6996 433.83 52.6996C431.03 52.6996 428.33 54.4996 428.33 61.4996C428.33 68.4996 429.83 69.6996 432.63 69.6996C434.23 69.6996 435.93 68.8996 438.23 67.2996V54.0996ZM439.13 72.3996C436.33 74.2996 433.73 75.5996 430.43 75.5996C424.63 75.5996 420.93 72.3996 420.93 61.6996C420.93 50.9996 426.03 47.0996 432.53 47.0996C435.23 47.0996 437.03 47.7996 439.33 48.8996L439.63 47.5996H445.63V75.0996H439.63L439.13 72.3996ZM454.33 39.9004V47.6004H450.43V53.1004H454.43V68.1004C454.43 73.4004 456.43 75.6004 462.33 75.6004C464.63 75.6004 466.63 75.3004 468.33 74.8004L467.73 69.5004C466.73 69.8004 465.73 70.0004 464.53 70.0004C462.53 70.0004 461.73 69.0004 461.73 66.2004V53.1004H467.73V47.6004H461.73V38.9004L454.33 39.9004ZM473.33 47.5998H480.73V75.0998H473.33V47.5998ZM476.93 42.7998C473.63 42.7998 472.73 41.8998 472.73 38.7998C472.73 35.6998 473.63 34.7998 476.93 34.7998C480.23 34.7998 481.13 35.5998 481.13 38.7998C481.23 41.8998 480.33 42.7998 476.93 42.7998ZM494.439 61.3002C494.439 54.0002 496.039 52.4002 499.739 52.4002C503.439 52.4002 505.139 54.0002 505.039 61.4002C505.039 68.7002 503.539 70.3002 499.739 70.3002C495.939 70.3002 494.439 68.6002 494.439 61.3002ZM487.039 61.4002C487.039 72.8002 491.539 75.8002 499.639 75.8002C507.739 75.8002 512.539 72.4002 512.439 61.1002C512.439 49.6002 507.839 46.7002 499.839 46.7002C491.839 46.7002 487.039 50.0002 487.039 61.4002ZM518.94 47.5996H524.94L525.34 50.3996C528.64 48.2996 531.54 47.0996 535.14 47.0996C540.94 47.0996 543.44 49.7996 543.44 56.0996V75.0996H536.04V57.5996C536.04 53.9996 534.94 52.9996 532.64 52.9996C530.84 52.9996 528.74 53.7996 526.24 55.4996V75.0996H518.84V47.5996H518.94ZM557.33 70.2996C555.13 70.2996 552.83 69.8996 550.03 69.1996L549.53 74.6996C552.03 75.3996 554.33 75.7996 557.13 75.7996C565.83 75.7996 569.23 72.6996 569.23 67.1996C569.23 62.3996 567.13 60.8996 561.73 58.6996C557.33 56.8996 556.33 56.2996 556.33 54.9996C556.33 53.1996 557.93 52.4996 560.83 52.4996C562.93 52.4996 565.03 52.7996 567.03 53.2996L567.73 47.9996C565.83 47.4996 563.43 47.0996 561.03 47.0996C553.23 47.0996 549.43 49.8996 549.43 55.4996C549.43 59.7996 551.43 61.3996 556.53 63.4996C561.13 65.3996 562.23 65.8996 562.23 67.5996C562.23 69.3996 560.63 70.2996 557.33 70.2996ZM228.541 145.2C226.141 145.9 223.141 146.4 220.141 146.4C210.341 146.4 205.641 143.2 205.641 126.7C205.641 110.2 210.941 106.8 220.441 106.8C223.441 106.8 226.341 107.2 228.541 107.9L228.141 110.5C225.941 109.9 223.141 109.4 220.541 109.4C213.141 109.4 209.041 112 209.041 126.5C209.041 141 212.841 143.7 220.541 143.7C223.041 143.7 225.841 143.1 228.141 142.5L228.541 145.2ZM239.23 105H235.93V145.9H239.23V105ZM249.739 118.8H253.039V145.9H249.739V118.8ZM251.439 112C249.539 112 249.039 111.5 249.039 109.7C249.039 107.9 249.539 107.4 251.439 107.4C253.239 107.4 253.739 107.9 253.739 109.7C253.739 111.5 253.239 112 251.439 112ZM265.239 118.8H262.539V146H265.839V124.6C269.539 122.4 272.439 121.1 274.939 121.1C278.239 121.1 280.039 122.9 280.039 127.8V146H283.239V127.6C283.239 126.2 283.139 125.6 282.939 124.7C286.939 122.3 289.839 121 292.339 121C295.739 121 297.439 122.8 297.439 127.7V145.9H300.739V127.2C300.739 120.9 298.239 118.3 293.039 118.3C289.739 118.3 286.439 119.8 282.339 122.2C281.339 120.1 279.439 118.3 275.539 118.3C272.339 118.3 268.939 119.8 265.439 121.8L265.239 118.8ZM327.639 123.1C325.239 121.7 323.239 120.9 320.739 120.9C316.539 120.9 312.339 123.3 312.339 132.5C312.339 141.7 314.939 143.8 319.339 143.8C321.739 143.8 324.239 142.6 327.639 140.4V123.1ZM327.939 143C324.839 144.9 321.939 146.4 318.639 146.4C312.639 146.4 309.039 143.4 309.039 132.6C309.039 121.8 314.539 118.2 320.539 118.2C323.339 118.2 325.539 119.1 328.039 120.4L328.239 118.8H330.939V145.9H328.239L327.939 143ZM341.839 110.5V118.8V118.9H337.539V121.4H341.739V140.5C341.739 144.5 343.239 146.2 347.439 146.2C349.039 146.2 350.439 145.9 351.739 145.5L351.439 143.1C350.439 143.4 349.339 143.6 348.139 143.6C345.939 143.6 345.039 142.7 345.039 139.8V121.3H351.539V118.8H345.139V110L341.839 110.5ZM374.53 130.4C374.43 122.4 372.43 120.7 367.83 120.7C363.23 120.7 360.53 122.6 360.23 130.4H374.53ZM376.23 145.3C373.53 145.9 370.83 146.4 367.93 146.4C361.13 146.4 356.73 144.3 356.73 132.4C356.73 120.5 361.13 118 367.93 118C374.73 118 377.53 120.6 377.53 130.7C377.53 131.4 377.53 131.9 377.43 132.7H360.03C360.13 142.4 363.03 143.7 368.53 143.7C371.23 143.7 373.33 143.3 375.83 142.7L376.23 145.3ZM410.84 146.4C413.84 146.4 416.84 145.9 419.24 145.2L418.84 142.5C416.54 143.1 413.74 143.7 411.24 143.7C403.54 143.7 399.74 141 399.74 126.5C399.74 112 403.84 109.4 411.24 109.4C413.84 109.4 416.64 109.9 418.84 110.5L419.24 107.9C417.04 107.2 414.14 106.8 411.14 106.8C401.64 106.8 396.34 110.2 396.34 126.7C396.34 143.2 401.04 146.4 410.84 146.4ZM426.741 105H429.941V114.7C429.941 116.562 429.862 118.581 429.774 120.827V120.828V120.828V120.828V120.829V120.829V120.83V120.831V120.832V120.833V120.834L429.741 121.7L429.841 121.8C433.141 119.9 436.741 118.4 440.341 118.4C445.941 118.4 448.541 121 448.541 127.3V146H445.241V127.8C445.241 122.9 443.441 121.1 439.641 121.1C436.841 121.1 433.741 122.4 430.041 124.6V146H426.741V105ZM468.239 120.9C470.739 120.9 472.739 121.7 475.139 123.1V140.4C471.739 142.6 469.239 143.8 466.839 143.8C462.439 143.8 459.839 141.7 459.839 132.5C459.839 123.3 464.039 120.9 468.239 120.9ZM466.139 146.4C469.439 146.4 472.339 144.9 475.439 143L475.739 145.9H478.439V118.8H475.739L475.539 120.4C473.039 119.1 470.839 118.2 468.039 118.2C462.039 118.2 456.539 121.8 456.539 132.6C456.539 143.4 460.139 146.4 466.139 146.4ZM487.93 118.8H490.63L490.83 121.8C494.33 119.8 497.93 118.3 501.43 118.3C507.03 118.3 509.63 120.9 509.63 127.2V145.9H506.33V127.7C506.33 122.8 504.53 121 500.63 121C497.83 121 494.73 122.3 491.03 124.5V145.9H487.73V118.8H487.93ZM529.64 120.9C532.14 120.9 534.14 121.7 536.54 123.1V140.4C533.14 142.6 530.64 143.8 528.24 143.8C523.84 143.8 521.24 141.7 521.24 132.5C521.24 123.3 525.44 120.9 529.64 120.9ZM527.94 158.3C535.94 158.3 539.74 155.1 539.74 147.3V118.8H537.04L536.84 120.4C534.34 119.1 532.14 118.2 529.34 118.2C523.34 118.2 517.84 121.8 517.84 132.6C517.84 143.4 521.44 146.4 527.44 146.4C530.54 146.4 533.44 145 536.34 143.2L536.44 143.3V147.6C536.44 153.5 533.94 155.7 527.94 155.7C525.04 155.7 522.64 155.4 520.14 154.9L519.74 157.4C522.44 157.9 524.74 158.3 527.94 158.3ZM566.341 130.4C566.241 122.4 564.141 120.7 559.541 120.7C554.941 120.7 552.241 122.6 551.941 130.4H566.341ZM568.041 145.3C565.341 145.9 562.641 146.4 559.741 146.4C552.941 146.4 548.641 144.3 548.641 132.4C548.641 120.5 553.041 118 559.741 118C566.441 118 569.341 120.6 569.341 130.7C569.341 131.4 569.341 131.9 569.241 132.7H551.741C551.841 142.4 554.741 143.7 560.241 143.7C562.941 143.7 565.041 143.3 567.541 142.7L568.041 145.3ZM112.889 144.452C113.676 144.805 114.459 145.156 115.239 145.5C121.439 147.9 129.639 147.5 134.939 143.8C132.239 147.3 128.639 149.4 124.839 150.8C117.839 153.5 109.539 151.7 103.739 147.6C102.446 146.876 101.2 145.971 99.9501 145.064C96.3678 142.464 92.7581 139.843 87.9391 141.4C94.5391 144.5 100.639 148.8 106.139 154.4L102.739 157.3C98.7391 151.9 93.4391 147.5 88.0391 144.1C87.788 143.963 87.5473 143.821 87.31 143.681L87.3098 143.681L87.3096 143.681L87.3094 143.68L87.309 143.68C86.5068 143.206 85.7419 142.754 84.7391 142.6C83.8834 142.743 83.1802 143.14 82.4121 143.573C82.103 143.748 81.7834 143.928 81.4391 144.1C76.1391 147.5 70.7391 151.9 66.7391 157.3L63.3391 154.4C68.8391 148.8 74.8391 144.5 81.5391 141.4C76.6543 139.846 73.0843 142.455 69.5315 145.051C68.2839 145.962 67.0385 146.872 65.7391 147.6C59.9391 151.7 51.6391 153.6 44.6391 150.8C40.8391 149.3 37.2391 147.2 34.5391 143.8C40.0391 147.6 48.2391 148 54.5391 145.5C55.3236 145.154 56.1108 144.801 56.9015 144.446C64.5764 141 72.5824 137.406 81.7391 139.4C82.3532 139.4 82.9362 139.587 83.5054 139.77C83.9557 139.914 84.3974 140.056 84.8391 140.1C85.3444 140.054 85.8075 139.903 86.2672 139.752C86.8081 139.575 87.3444 139.4 87.9391 139.4C97.1916 137.404 105.21 141.004 112.889 144.452ZM21.8309 61.7004C23.1309 58.8004 24.1309 55.7004 24.4309 52.6004C23.9309 53.9004 23.0309 55.1004 22.0309 56.2004C21.6344 56.5632 21.2329 56.9266 20.8294 57.2919C16.4504 61.2563 11.8381 65.4319 10.8309 71.2004C10.7509 71.5604 10.7029 71.9204 10.6549 72.2804C10.5829 72.8204 10.5109 73.3604 10.3309 73.9004C10.1906 73.9705 10.1487 73.893 10.1017 73.806C10.0817 73.769 10.0607 73.7302 10.0309 73.7004L10.6309 66.0004C10.6957 63.5694 10.3613 61.0438 10.0261 58.5121C9.32712 53.2335 8.6247 47.9287 11.5309 43.4004C11.4809 43.4004 11.4309 43.4254 11.3809 43.4504C11.3309 43.4754 11.2809 43.5004 11.2309 43.5004C7.2309 48.6004 4.4309 54.1004 4.6309 60.9004C4.41182 65.4464 5.90263 69.2724 7.3946 73.1013C8.62667 76.2633 9.85952 79.4273 10.1309 83.0004C10.9629 77.6881 14.0481 73.3589 17.1052 69.0691C18.8245 66.6564 20.535 64.2561 21.8309 61.7004ZM25.6121 120.367C25.9725 121.111 26.3295 121.848 26.63 122.6C25.0308 121.503 23.3279 120.419 21.59 119.314L21.5897 119.314L21.5894 119.313L21.5891 119.313L21.5888 119.313L21.5885 119.313L21.5883 119.313L21.588 119.312L21.5877 119.312L21.5874 119.312L21.5871 119.312L21.587 119.312C13.9799 114.473 5.70434 109.209 2.52998 100.5C0.929978 96.7996 0.829978 92.1996 1.12998 87.9996C1.57226 94.0021 5.8071 98.2479 10.1014 102.553C12.6036 105.062 15.126 107.591 16.93 110.5C17.17 110.849 17.4052 111.207 17.6419 111.568L17.6422 111.569C18.4904 112.862 19.3574 114.183 20.53 115.2C20.4239 114.669 20.0925 114.166 19.7599 113.662C19.4658 113.216 19.1708 112.769 19.03 112.3C17.33 109 16.73 105.1 17.13 101.1C17.2784 99.282 17.6606 97.5195 18.042 95.7609C18.6889 92.7786 19.3332 89.8078 18.83 86.5996C21.2989 91.9591 21.846 98.1888 22.3927 104.415C22.7539 108.529 23.115 112.641 24.03 116.5C24.4046 117.873 25.0131 119.13 25.6121 120.367ZM14.5299 103.7L14.1299 103.4C12.8396 101.028 11.0122 98.8458 9.18143 96.6598C6.61364 93.5937 4.03905 90.5196 2.92987 86.9002C1.42987 81.8002 0.429875 76.0002 1.42987 70.5002C1.50493 70.1699 1.57774 69.8397 1.65032 69.5104C2.06124 67.6464 2.46498 65.815 3.22987 64.2002C2.11311 70.0468 4.31924 74.8577 6.53142 79.6818C7.68674 82.2012 8.84371 84.7242 9.52987 87.4002C9.82987 88.4877 10.0455 89.6173 10.2611 90.747L10.2611 90.7471C10.6205 92.6299 10.9799 94.5127 11.7299 96.2002C11.8299 96.3002 11.9299 96.2002 12.0299 96.1002C9.02987 87.8002 13.2299 80.1002 17.5299 73.6002C18.5299 71.9002 19.1299 69.9002 19.6299 67.9002C20.0112 70.7218 19.5201 73.8923 19.0438 76.9682C18.8955 77.9258 18.7486 78.8743 18.6299 79.8002C17.9632 83.0669 17.0299 86.2446 16.0965 89.4224C15.6299 91.0113 15.1632 92.6002 14.7299 94.2002C13.8299 97.2002 14.0299 100.6 14.5299 103.7ZM159.63 73.4996L159.03 65.7996C158.966 63.3897 159.294 60.887 159.623 58.3775C160.318 53.077 161.017 47.7468 158.03 43.1996C158.13 43.0996 158.23 43.1996 158.33 43.2996C162.33 48.3996 165.13 53.8996 164.93 60.6996C165.263 65.2992 163.753 69.1618 162.238 73.0361C161.02 76.153 159.798 79.2775 159.53 82.7996C158.759 77.5304 155.676 73.2109 152.589 68.8859L152.588 68.8858C150.871 66.4802 149.153 64.073 147.83 61.4996C146.53 58.5996 145.63 55.4996 145.23 52.3996C145.73 53.6996 146.63 54.8996 147.63 55.9996C147.897 56.2387 148.166 56.4785 148.436 56.7191L148.444 56.7258L148.445 56.7272C153.024 60.8111 157.887 65.1483 158.83 70.9996C158.91 71.3596 158.958 71.7196 159.006 72.0796C159.078 72.6196 159.15 73.1596 159.33 73.6996C159.471 73.7698 159.513 73.6923 159.56 73.6052C159.58 73.5682 159.601 73.5295 159.63 73.4996ZM160.241 87.4002C159.94 88.4918 159.724 89.6118 159.507 90.7334C159.149 92.5915 158.789 94.4542 158.041 96.2002C157.941 96.3002 157.841 96.2002 157.741 96.1002C160.641 87.8002 156.441 80.1002 152.141 73.7002C151.141 72.0002 150.541 70.0002 149.941 68.0002C149.56 70.8218 150.051 73.9923 150.527 77.0683C150.675 78.0259 150.822 78.9743 150.941 79.9002C151.608 83.1669 152.541 86.3447 153.474 89.5225C153.941 91.1114 154.408 92.7002 154.841 94.3002C155.741 97.3002 155.541 100.7 155.041 103.8L155.441 103.5C156.74 101.07 158.583 98.8677 160.426 96.6657C162.982 93.6128 165.537 90.5603 166.641 86.9002C168.141 81.9002 169.141 76.0002 168.141 70.5002C168.049 70.1151 167.961 69.7266 167.872 69.3367L167.872 69.3348C167.477 67.5988 167.076 65.8328 166.341 64.2002C167.599 70.1584 165.394 74.977 163.18 79.8168C162.05 82.2876 160.917 84.7639 160.241 87.4002ZM153.989 52.3951C153.647 51.4818 153.304 50.5703 153.04 49.6004C152.564 48.0416 152.242 46.406 151.921 44.7729C151.025 40.2249 150.134 35.6964 145.94 32.9004C148.94 33.7004 151.54 35.4004 153.54 38.0004C158.24 42.9004 157.84 50.6004 157.14 57.3004C157.039 58.3053 157.116 59.3103 157.191 60.3025V60.3027V60.3029V60.3031V60.3033V60.3035V60.3037V60.3039V60.3041V60.3043C157.266 61.2862 157.339 62.2556 157.24 63.2004C155.94 60.3004 153.44 57.8004 150.94 55.6004C144.84 51.3004 138.44 45.3004 138.34 37.6004C139.712 41.3728 142.965 43.6868 146.165 45.9623C147.63 47.0043 149.083 48.0382 150.34 49.2004C152.44 51.2004 154.14 53.6004 155.04 56.1004L155.14 56.0004C154.86 54.7144 154.424 53.5534 153.989 52.3951ZM140.739 37.7996C142.541 40.0521 144.674 41.8076 146.819 43.5726L146.819 43.5726C148.007 44.5501 149.199 45.5304 150.339 46.5996C149.643 45.1262 149.216 43.5522 148.788 41.9806C148.172 39.7124 147.557 37.449 146.139 35.4996C142.874 29.8088 137.085 27.5993 131.694 25.5422L131.694 25.5419C131.306 25.3941 130.921 25.2471 130.539 25.0996C133.796 27.9592 136.296 31.513 138.79 35.059C139.436 35.9771 140.081 36.8947 140.739 37.7996ZM134.841 130.9C136.241 130.1 137.541 129.2 138.741 128.1C141.621 125.789 144.981 124.185 148.328 122.589C154.393 119.695 160.412 116.824 163.441 109.8C162.141 117.7 155.941 124.9 149.041 129.2C148.141 129.8 147.141 130.3 146.141 130.8C142.792 132.332 139.09 132.93 135.398 133.527C132.585 133.981 129.779 134.435 127.141 135.3C128.841 133.9 130.141 132.4 131.241 130.8C133.437 127.506 134.691 123.741 135.94 119.989L135.941 119.989C136.512 118.274 137.082 116.562 137.741 114.9C139.641 110.6 142.541 106.6 145.741 102.8C144.172 105.938 143.648 109.518 143.123 113.099V113.099C142.479 117.506 141.834 121.914 139.241 125.5C138.135 127.342 136.351 129.015 134.747 130.518L134.64 130.619C134.539 130.713 134.439 130.807 134.341 130.9C134.141 131 134.041 131.1 133.941 131.2L134.041 131.3C134.341 131.2 134.541 131.1 134.841 130.9ZM168.53 88C168.09 93.9754 163.891 98.21 159.667 102.471C157.175 104.984 154.674 107.506 152.93 110.4C152.691 110.749 152.456 111.107 152.219 111.468L152.219 111.468L152.218 111.469C151.37 112.762 150.503 114.084 149.33 115.1C149.437 114.569 149.768 114.067 150.101 113.563C150.395 113.117 150.69 112.669 150.83 112.2C152.53 108.9 153.13 105 152.73 101C152.555 99.2787 152.194 97.6068 151.835 95.9409C151.171 92.8644 150.511 89.8085 151.03 86.5C148.493 91.9366 147.963 98.176 147.434 104.403V104.403C147.087 108.484 146.741 112.559 145.83 116.4C145.48 117.626 144.925 118.784 144.365 119.954C143.965 120.787 143.563 121.626 143.23 122.5C144.717 121.497 146.294 120.501 147.904 119.482C155.608 114.611 164.087 109.25 167.23 100.4C168.73 96.8 168.93 92.2 168.53 88ZM119.667 138.356L119.667 138.356C120.093 138.258 120.517 138.161 120.94 138.1C124.081 137.395 127.447 137.183 130.826 136.97C137.99 136.519 145.208 136.065 150.44 130.9C150.59 130.751 150.715 130.601 150.839 130.451L150.84 130.451L150.84 130.451L150.84 130.451L150.84 130.45C150.965 130.3 151.09 130.15 151.24 130C151.14 130.15 151.065 130.3 150.99 130.45C150.915 130.6 150.84 130.75 150.74 130.9C147.74 136.2 142.14 140.4 136.64 142.1C128.904 144.708 120.867 142.556 113.446 140.57C112.329 140.27 111.226 139.975 110.14 139.7C109.608 139.567 109.017 139.513 108.428 139.459C107.688 139.391 106.952 139.323 106.34 139.1C110.94 138.1 115.34 136.6 119.04 133.4C119.49 133 119.915 132.575 120.34 132.15C120.765 131.725 121.19 131.3 121.64 130.9C122.114 130.449 122.585 129.998 123.053 129.55C126.73 126.029 130.259 122.65 134.34 119.9C132.904 121.795 131.832 123.986 130.762 126.172L130.762 126.172C129.968 127.793 129.177 129.41 128.24 130.9C126.54 133.6 124.34 136 120.84 137.2C120.232 137.528 119.536 137.68 118.845 137.832C118.059 138.004 117.278 138.175 116.64 138.6C117.686 138.81 118.684 138.581 119.667 138.356ZM59.6391 139.7C60.1711 139.567 60.7621 139.513 61.3511 139.459C62.0906 139.391 62.8268 139.323 63.4391 139.1C58.7391 138.1 54.3391 136.7 50.7391 133.4C49.8391 132.6 48.9391 131.7 48.1391 130.9C44.0391 126.9 40.0391 123 35.4391 119.9C36.8257 121.807 37.9119 123.981 39.0063 126.171C39.806 127.771 40.6102 129.38 41.5391 130.9C43.2391 133.6 45.4391 136 48.9391 137.2C49.5473 137.528 50.2431 137.68 50.9343 137.832C51.7204 138.004 52.5005 138.175 53.1391 138.6C52.1118 138.737 51.1783 138.546 50.2102 138.348C49.7647 138.256 49.3118 138.163 48.8391 138.1C45.6983 137.395 42.3315 137.183 38.9527 136.97C31.789 136.519 24.5713 136.065 19.3391 130.9L19.339 130.9C19.039 130.6 18.739 130.3 18.5391 130C18.6391 130.15 18.7141 130.3 18.7891 130.45L18.7891 130.45C18.8641 130.6 18.9391 130.75 19.0391 130.9C22.0391 136.2 27.6391 140.4 33.1391 142.1C40.6276 144.625 48.3286 142.618 55.5867 140.726C56.9547 140.37 58.3069 140.018 59.6391 139.7ZM34.2728 133.627C30.5815 133.031 26.8788 132.433 23.5305 130.9C22.5305 130.4 21.5305 129.9 20.6305 129.3C13.7305 125 7.53047 117.8 6.23047 109.9C9.28981 116.784 15.2334 119.646 21.2131 122.525C24.6154 124.163 28.0294 125.807 30.9305 128.2C32.1305 129.3 33.4305 130.3 34.8305 131C34.9805 131.05 35.1055 131.125 35.2305 131.2C35.3555 131.275 35.4805 131.35 35.6305 131.4L35.7305 131.3C35.6805 131.25 35.6055 131.2 35.5305 131.15C35.4555 131.1 35.3805 131.05 35.3305 131C33.5305 129.4 31.6305 127.6 30.4305 125.6C27.908 121.981 27.2499 117.61 26.5928 113.246C26.0516 109.652 25.5112 106.062 23.9305 102.9C27.1305 106.7 30.0305 110.7 31.9305 115C32.5893 116.663 33.1595 118.375 33.7307 120.09C34.9803 123.841 36.2344 127.606 38.4305 130.9C39.5305 132.5 40.8305 134.1 42.5305 135.4C39.8923 134.535 37.0858 134.082 34.2728 133.627ZM84.8297 127.2C104.83 127.2 122.13 115.4 130.13 98.3998L118.83 93.0998C112.83 105.9 99.9297 114.7 84.9297 114.7C64.2297 114.7 47.4297 97.8998 47.4297 77.2998C47.4297 56.6998 64.2297 39.7998 84.9297 39.7998C99.9297 39.7998 112.93 48.6998 118.83 61.3998L130.13 56.0998C122.13 39.0998 104.93 27.2998 84.8297 27.2998C57.2297 27.2998 34.9297 49.5998 34.9297 77.1998C34.9297 104.8 57.3297 127.2 84.8297 127.2ZM98.1398 68.0004C95.2398 63.8004 90.3398 61.1004 84.8398 61.1004C75.9398 61.1004 68.6398 68.6004 68.6398 77.5004C68.6398 86.4004 75.8398 93.7004 84.8398 93.7004C90.3398 93.7004 95.2398 91.0004 98.1398 86.8004L107.34 93.2004C102.34 100.3 94.1398 104.9 84.8398 104.9C69.6398 104.9 57.3398 92.6004 57.3398 77.4004C57.3398 62.2004 69.6398 49.9004 84.8398 49.9004C94.1398 49.9004 102.34 54.5004 107.34 61.6004L98.1398 68.0004Z" fill="#000A8D"/>
</svg>
