<svg width="569" height="134" viewBox="0 0 569 134" fill="none" xmlns="http://www.w3.org/2000/svg">
<g clip-path="url(#clip0_845_1311)">
<mask id="mask0_845_1311" style="mask-type:luminance" maskUnits="userSpaceOnUse" x="74" y="1" width="420" height="132">
<path d="M494.001 1.03027H74.3906V132.89H494.001V1.03027Z" fill="white"/>
</mask>
<g mask="url(#mask0_845_1311)">
<path d="M186.519 111.15C182.159 116.89 176.699 121.33 170.499 124.89C163.579 128.85 156.119 131.38 148.229 132.4C140.979 133.34 133.759 132.91 126.549 131.38C118.099 129.61 110.369 126.32 103.299 121.5C94.549 115.55 87.579 107.98 82.449 98.6801C78.529 91.5701 76.079 83.9901 75.019 76.0501C73.439 64.2301 74.759 52.6501 79.459 41.5801C82.249 35.0101 86.029 29.1001 90.689 23.6601C96.689 16.6701 103.879 11.2901 112.129 7.31005C118.049 4.46005 124.259 2.42005 130.859 1.80005C134.269 1.48005 137.709 0.910051 141.109 1.05005C149.239 1.38005 157.209 2.77005 164.629 6.29005C167.939 7.86005 171.119 9.70005 174.289 11.5401C174.789 11.8301 175.299 12.9001 175.129 13.3601C174.759 14.3401 173.889 14.6101 172.799 14.0401C167.259 11.1101 161.299 9.35005 155.149 8.37005C149.169 7.42005 143.179 7.27005 137.089 8.13005C130.389 9.09005 124.009 10.9501 118.059 14.0001C104.929 20.7101 95.289 30.86 89.439 44.42C87.299 49.38 86.029 54.59 85.389 60C84.309 69.17 85.419 78.0501 88.349 86.7201C90.679 93.6101 94.399 99.7301 99.149 105.3C107.669 115.3 118.499 121.56 131.089 124.6C136.579 125.93 142.429 126.52 148.079 126.32C161.179 125.86 172.989 121.26 183.589 113.58C184.609 112.83 185.549 111.96 186.519 111.16V111.14V111.15Z" fill="#000A8D"/>
<path d="M175.781 100.15C177.221 97.79 178.681 95.44 180.111 93.08C183.071 88.16 184.801 82.82 185.661 77.17C187.201 67.16 185.751 57.63 181.001 48.68C174.861 37.1 165.271 29.78 152.581 26.59C139.051 23.19 126.721 26.26 115.801 34.55C106.951 41.27 101.521 50.35 99.3409 61.29C97.4309 70.85 98.7709 80.03 102.601 88.93C102.651 89.05 102.761 89.18 102.751 89.3C102.651 90.23 102.551 91.14 102.431 92.07C101.601 91.64 100.431 91.43 99.9909 90.75C96.4509 85.35 93.7909 79.53 92.9409 73.09C92.4009 68.97 91.9109 64.76 92.1609 60.63C92.7409 51.31 96.0109 42.84 101.581 35.29C107.911 26.72 116.291 20.85 126.281 17.42C133.251 15.03 140.481 14.3 147.931 15.17C154.011 15.88 159.801 17.41 165.121 20.2C176.611 26.25 185.141 35.03 189.701 47.44C191.761 53.05 192.941 58.79 192.821 64.68C192.591 75.07 189.571 84.67 183.181 92.99C181.111 95.68 178.511 97.97 176.161 100.45L175.761 100.16H175.781V100.15Z" fill="#000A8D"/>
<path d="M120.57 44.8802C124.45 38.4502 130.49 35.0402 137.45 33.2402C145.15 31.2602 152.75 32.2402 159.75 35.8302C170.47 41.3302 176.9 50.1202 178.59 62.1202C180.37 74.7402 176.22 85.2902 166.67 93.5702C159.49 99.8002 150.88 102.38 141.41 101.43C136.32 100.91 131.49 99.3102 127.3 96.2202C126.81 95.8602 126.23 95.5502 125.92 95.0702C125.62 94.6102 125.29 93.6402 125.5 93.4402C125.95 93.0102 126.78 92.6702 127.38 92.7802C128.62 92.9902 129.79 93.5602 131.01 93.8902C141.42 96.7002 150.79 94.8102 158.94 87.6402C165.69 81.7002 168.94 74.1702 168.44 65.2302C168.08 58.9402 165.7 53.3502 161.4 48.6102C157.22 44.0002 152.15 40.9402 146.06 39.5802C137.03 37.5602 128.82 39.5802 121.19 44.5102C120.99 44.6402 120.78 44.7502 120.57 44.8802Z" fill="#000A8D"/>
<path d="M321.128 40.2099C322.798 37.1399 324.928 34.8199 328.178 34.0399C336.528 32.0399 343.088 35.3699 344.798 44.2599C345.768 49.2999 345.788 54.5299 346.088 59.6799C346.208 61.8199 346.378 63.7999 348.248 65.2499C348.618 65.5399 348.958 66.4599 348.778 66.7299C348.458 67.1999 347.738 67.6299 347.168 67.6499C344.378 67.7499 341.588 67.7299 338.798 67.6499C338.278 67.6499 337.448 67.3099 337.358 66.9599C337.198 66.4099 337.318 65.4499 337.708 65.1299C339.618 63.5399 339.758 61.7399 339.378 59.3699C338.858 56.1999 339.128 52.9099 338.838 49.6899C338.618 47.1899 338.258 44.6599 337.588 42.2299C336.678 38.9299 333.708 36.7599 330.688 36.7199C327.918 36.6899 324.558 39.1599 323.718 42.2099C323.268 43.8699 323.278 45.6799 323.268 47.4299C323.208 52.0399 323.308 56.6599 323.228 61.2699C323.198 62.7899 323.488 63.9999 324.728 64.9999C325.218 65.3999 325.368 66.2199 325.668 66.8399C324.968 67.1199 324.268 67.6099 323.558 67.6299C321.048 67.7299 318.518 67.7499 315.998 67.6299C315.308 67.5899 314.408 67.1099 314.088 66.5599C313.878 66.1799 314.338 65.0399 314.818 64.7199C316.318 63.7799 316.438 62.4499 316.418 60.9099C316.368 56.3699 316.538 51.8099 316.358 47.2699C316.208 43.4199 315.128 39.7999 311.448 37.7499C307.598 35.6099 302.718 37.6299 301.218 41.9199C300.718 43.3499 300.438 44.8999 300.408 46.3999C300.308 51.4899 300.408 56.5699 300.358 61.6699C300.358 62.9599 300.498 63.9599 301.818 64.6999C302.378 65.0099 302.628 66.1299 302.698 66.8899C302.718 67.0999 301.568 67.6199 300.938 67.6499C298.288 67.7399 295.628 67.7199 292.978 67.6499C292.368 67.6299 291.308 67.3499 291.258 67.0699C291.158 66.3799 291.278 65.2799 291.738 64.9299C293.448 63.6499 293.578 61.9999 293.548 60.0799C293.468 54.3199 293.508 48.5399 293.528 42.7799C293.528 41.2799 293.268 40.1399 291.818 39.2299C290.028 38.1099 290.228 36.9699 292.158 36.0299C293.668 35.2999 295.158 34.5299 296.728 33.9599C299.218 33.0499 299.928 33.5899 299.958 36.1899C299.958 36.7099 299.998 37.2099 300.038 37.8599C305.968 30.8499 317.298 32.7599 321.138 40.1899L321.128 40.2099Z" fill="#000A8D"/>
<path d="M215.309 101.15C215.269 95.5401 216.739 90.3801 219.969 85.8301C223.279 81.1801 227.799 78.2601 233.479 77.1601C241.209 75.6601 248.019 77.6901 253.799 82.8101C255.369 84.2001 256.369 86.3501 257.279 88.3201C258.059 90.0201 257.079 92.2201 255.699 92.8701C254.309 93.5101 251.809 92.7701 250.809 91.3201C249.489 89.4001 248.289 87.3901 246.999 85.4501C243.479 80.1801 235.849 78.7601 230.439 82.1901C224.869 85.7201 222.649 90.9501 222.339 97.2001C222.049 103.05 223.419 108.51 226.819 113.32C230.039 117.85 234.449 120.97 240.059 121.04C246.229 121.1 250.779 117.69 253.819 112.37C254.309 111.51 254.519 110.4 255.189 109.72C255.689 109.21 256.769 108.93 257.449 109.09C257.919 109.2 258.519 110.31 258.449 110.89C257.479 118.97 250.709 125.4 242.709 126.86C229.269 129.31 218.079 118.4 215.919 106.77C215.579 104.93 215.519 103.04 215.319 101.18L215.309 101.15Z" fill="#000A8D"/>
<path d="M215.417 41.2102C215.317 34.9402 217.537 28.4602 223.057 23.3602C226.387 20.2802 230.387 18.7002 234.907 18.0402C241.167 17.1202 246.727 18.6402 251.767 22.2102C254.257 23.9702 256.257 26.2102 257.157 29.2902C257.657 31.0002 257.657 32.5202 256.197 33.6602C255.257 34.4102 252.227 33.8902 251.377 32.8002C249.947 30.9602 248.637 29.0102 247.357 27.0602C243.077 20.5702 234.907 19.4502 228.907 24.2502C224.477 27.8002 222.617 32.5702 222.337 38.0202C222.017 44.4302 223.597 50.3002 227.597 55.4602C232.427 61.7102 241.997 64.7402 249.207 58.8102C251.667 56.7902 253.317 54.3002 254.787 51.6002C255.307 50.6602 255.747 49.5102 257.157 49.8902C258.597 50.2902 258.487 51.4402 258.277 52.6202C257.107 59.2802 251.867 66.0202 244.087 67.6302C236.277 69.2402 229.347 67.4902 223.557 61.7302C218.137 56.3402 215.347 49.9402 215.417 41.1902V41.2102Z" fill="#000A8D"/>
<path d="M131.289 55.9502C130.819 57.7902 130.399 59.5002 129.949 61.2102C128.219 67.9102 133.179 76.3302 141.149 77.2502C148.349 78.0802 154.719 71.9302 154.979 65.2402C155.049 63.4502 154.689 61.6402 154.639 59.8302C154.619 59.2902 154.879 58.3002 155.109 58.2602C155.819 58.1602 156.829 58.1702 157.279 58.6102C159.739 60.9502 161.079 63.9602 161.399 67.2802C162.369 77.4502 155.749 85.4802 146.729 87.3902C140.799 88.6402 135.099 87.6002 130.159 83.5502C125.719 79.9202 123.739 75.2902 123.259 69.7102C122.869 65.1002 126.059 58.6402 130.189 56.3702C130.509 56.1902 130.879 56.1002 131.279 55.9502H131.289Z" fill="#000A8D"/>
<path d="M373.408 64.9102C369.068 69.3302 359.768 68.7702 355.888 66.5602C352.278 64.5102 350.618 61.1902 350.758 57.2002C350.908 52.4202 353.508 49.2602 358.138 47.8502C362.608 46.5002 366.958 46.7602 371.408 49.1302C371.708 45.6602 370.868 42.6202 369.338 39.7402C368.058 37.3202 365.818 36.2702 363.178 36.3702C360.618 36.4702 358.818 37.8702 357.828 40.2702C357.498 41.0702 357.088 41.8402 356.668 42.6002C355.848 44.0802 354.478 44.3602 353.008 43.9702C351.578 43.6002 351.038 42.5002 351.088 41.0502C351.188 38.2402 352.908 36.7002 355.138 35.3402C359.968 32.4102 370.438 32.5402 374.718 38.2502C376.998 41.2902 377.978 44.7702 378.348 48.4602C378.798 52.9202 379.128 57.4002 379.638 61.8502C379.788 63.1702 380.308 64.3502 381.968 64.7402C382.618 64.8902 383.088 65.8702 383.638 66.4702C382.988 66.8702 382.388 67.4102 381.688 67.6402C380.818 67.9302 379.858 68.0502 378.938 68.0702C375.888 68.1202 374.808 67.4902 373.388 64.8902V64.9102H373.408ZM372.348 57.7002C372.348 52.9102 369.778 50.2102 365.208 50.1902C359.938 50.1602 357.588 53.1902 357.618 56.8702C357.658 61.8602 360.298 65.0802 365.308 65.3202C368.878 65.5002 372.858 62.7202 372.348 57.6902V57.7002Z" fill="#000A8D"/>
<path d="M463.871 109.64C463.591 103.3 466.081 98.3196 471.341 94.7396C476.601 91.1796 484.751 91.3896 489.601 95.4296C492.181 97.5796 493.611 100.44 493.191 103.97C492.941 106.02 491.361 106.64 489.771 107.2C485.671 108.6 481.551 109.93 477.431 111.3C475.921 111.81 474.441 112.45 472.891 112.85C471.701 113.16 471.371 113.52 471.811 114.81C473.011 118.36 476.771 121.67 480.261 121.97C484.841 122.37 488.641 121.03 491.101 116.94C491.661 116 492.281 114.97 493.361 115.66C493.891 116 494.161 117.43 493.931 118.17C492.111 123.79 487.681 126.38 482.221 127.11C476.771 127.84 471.741 126.33 467.981 122.09C464.881 118.59 463.621 114.33 463.861 109.65L463.871 109.64ZM470.591 110.23C475.701 108.33 480.281 106.51 484.971 104.96C486.751 104.37 487.041 103.27 486.691 101.89C485.881 98.6796 483.861 96.3096 480.651 95.4996C477.751 94.7696 475.201 95.8796 473.351 98.2996C470.701 101.77 469.971 105.68 470.591 110.23Z" fill="#000A8D"/>
<path d="M334.768 113.4C336.218 117.52 338.438 120.52 342.738 121.69C346.948 122.84 351.628 121.26 354.068 117.63C354.408 117.13 354.658 116.51 355.118 116.18C355.568 115.86 356.478 115.56 356.768 115.78C357.238 116.15 357.728 117.05 357.598 117.56C356.238 122.75 352.538 125.57 347.508 126.73C339.908 128.48 331.788 125.58 328.708 117.47C325.838 109.91 326.548 99.9003 335.058 94.6203C340.718 91.1103 347.898 91.3403 353.148 95.4803C355.778 97.5603 357.158 100.49 356.718 104.02C356.478 105.98 354.958 106.64 353.438 107.16C349.278 108.59 345.068 109.91 340.898 111.29C338.878 111.96 336.868 112.67 334.758 113.39L334.768 113.4ZM334.248 110.11C339.308 108.31 344.258 106.61 349.158 104.76C349.698 104.56 350.258 103.49 350.238 102.84C350.118 98.6603 345.528 94.3003 340.738 95.6203C335.618 97.0403 333.028 104.87 334.248 110.11Z" fill="#000A8D"/>
<path d="M413.911 54.5103C415.091 58.2803 417.081 61.1303 420.811 62.4703C425.191 64.0503 430.471 62.9003 433.241 58.7703C433.431 58.4903 433.731 58.2603 433.841 57.9603C434.281 56.6903 435.351 56.3703 436.201 57.0103C436.701 57.3903 436.871 58.7903 436.591 59.5003C435.141 63.3403 432.411 66.0403 428.461 67.2503C422.211 69.1703 416.331 68.5103 411.381 63.9703C408.981 61.7803 407.611 58.8503 406.941 55.6103C405.981 50.9803 406.061 46.4303 408.321 42.1903C411.241 36.6803 415.771 33.6703 422.211 33.5003C426.631 33.3903 430.541 34.3703 433.441 37.7903C434.611 39.1603 435.491 40.9703 435.921 42.7203C436.651 45.6803 435.561 47.1703 432.611 48.1703C426.431 50.2603 420.241 52.3503 413.931 54.4903L413.911 54.5103ZM413.181 51.3703C418.401 49.4503 423.341 47.7003 428.191 45.7703C428.831 45.5103 429.591 44.2103 429.461 43.5803C428.801 40.4003 426.931 38.0203 423.841 36.8203C421.061 35.7303 418.751 36.7903 416.751 38.6903C413.191 42.0703 412.951 46.4203 413.201 51.3903L413.181 51.3703Z" fill="#000A8D"/>
<path d="M378.53 121.98C382.79 122.21 385.54 119.95 387.53 116.44C388 115.6 388.53 114.47 389.59 115.21C390.19 115.64 390.64 117.01 390.42 117.72C388.69 123.26 384.72 126.42 379.03 127.08C373.52 127.71 368.35 126.34 364.44 122.24C360.48 118.09 358.79 113.05 359.6 107.18C360.08 103.68 361.24 100.66 363.48 97.9202C365.89 94.9502 369.14 93.5202 372.67 92.6602C377.4 91.5102 381.88 92.4502 385.96 95.0302C388.08 96.3802 390 97.9902 390.24 100.77C390.34 101.95 390.36 103.3 388.87 103.51C387.72 103.67 386.16 103.72 385.38 103.1C384.06 102.06 383.23 100.41 382.16 99.0402C380.59 97.0402 378.81 95.5402 376.03 95.3302C371.33 94.9802 368.14 98.5602 367.02 102C365.36 107.14 365.85 112.16 368.89 116.75C371.14 120.17 374.25 122.12 378.54 121.96L378.53 121.98Z" fill="#000A8D"/>
<path d="M448.459 120.5C451.499 113.03 454.389 105.84 457.359 98.66C457.959 97.22 456.989 96.64 456.239 95.82C455.709 95.24 455.349 94.51 454.909 93.85C455.659 93.58 456.399 93.13 457.159 93.08C459.129 92.97 461.109 93.01 463.079 93.08C463.549 93.1 464.339 93.36 464.419 93.65C464.569 94.22 464.549 95.26 464.209 95.49C460.089 98.09 459.739 102.75 458.019 106.63C455.479 112.34 453.259 118.2 450.859 123.98C450.359 125.18 449.949 126.55 448.099 126.39C446.279 126.25 444.569 126.72 443.529 124.29C439.989 116.08 436.199 108 432.379 99.91C431.689 98.44 430.349 97.27 429.449 95.87C429.059 95.26 428.839 94.4 428.919 93.7C428.949 93.43 430.019 93.1 430.619 93.09C433.409 93.03 436.209 93.02 438.989 93.09C439.619 93.11 440.609 93.41 440.789 93.85C440.989 94.37 440.729 95.42 440.279 95.79C438.869 96.99 439.079 98.2 439.699 99.69C442.349 106.02 444.889 112.37 447.489 118.71C447.709 119.24 448.059 119.73 448.499 120.51L448.459 120.5Z" fill="#000A8D"/>
<path d="M387.468 37.5499C385.908 37.5499 384.608 37.6799 383.348 37.4999C382.758 37.4099 381.978 36.7899 381.818 36.2399C381.518 35.1899 381.908 34.2199 383.208 33.9999C383.608 33.9399 384.038 33.9299 384.428 33.9999C388.118 34.5499 389.908 31.6299 390.368 28.8399C390.518 27.9399 390.928 26.7399 391.608 26.3599C392.988 25.5799 394.238 26.6599 394.308 28.5099C394.368 30.2599 394.308 32.0099 394.308 33.9899C397.058 33.9899 399.628 33.9499 402.188 34.0199C402.868 34.0399 403.658 34.2799 404.158 34.6999C404.588 35.0699 405.018 36.0799 404.818 36.3699C404.438 36.9299 403.618 37.4699 402.948 37.4999C400.168 37.6199 397.388 37.5499 394.318 37.5499V57.9399C394.318 60.3599 395.528 62.5699 397.008 62.8799C399.578 63.4199 401.788 62.0999 402.898 59.5199C403.148 58.9399 403.898 58.5799 404.408 58.1099C404.858 58.7499 405.658 59.3799 405.688 60.0399C405.908 63.8399 401.778 68.0699 397.928 68.0699C396.448 68.0699 394.948 68.0699 393.498 67.8099C389.508 67.0899 387.598 63.2299 387.498 59.5799C387.318 53.0799 387.448 46.5499 387.448 40.0399V37.5399L387.468 37.5499Z" fill="#000A8D"/>
<path d="M403.298 93.0497C406.228 93.0497 408.938 93.1297 411.638 93.0097C413.148 92.9497 413.828 93.6497 413.888 94.9497C413.938 96.3997 412.878 96.6297 411.658 96.6197C408.948 96.5797 406.248 96.6197 403.428 96.6197C403.388 97.3897 403.318 97.9697 403.318 98.5597C403.318 104.66 403.318 110.77 403.318 116.87C403.318 119.69 404.478 121.45 406.618 121.94C408.548 122.39 410.878 120.82 411.938 118.52C412.208 117.94 412.928 117.57 413.448 117.09C413.888 117.75 414.668 118.38 414.718 119.07C414.978 123.03 410.938 126.98 406.588 127.16C400.208 127.42 396.498 123.85 396.488 117.46V96.6197H392.608C391.338 96.6197 390.758 95.9597 390.778 94.7297C390.808 93.4897 391.398 93.0397 392.678 93.0297C397.538 92.9797 398.398 92.1997 399.378 87.4497C399.648 86.1697 400.038 85.0197 401.858 85.2897C403.578 85.5497 403.308 86.7397 403.328 87.8497C403.358 89.4697 403.328 91.0997 403.328 93.0697V93.0397L403.298 93.0497Z" fill="#000A8D"/>
<path d="M307.301 99.2001C307.301 106.38 307.321 113.57 307.301 120.76C307.301 121.96 307.361 122.93 308.651 123.59C309.201 123.88 309.381 124.88 309.731 125.56C309.041 125.83 308.371 126.29 307.671 126.32C305.021 126.41 302.371 126.4 299.711 126.32C299.151 126.3 298.141 125.86 298.131 125.58C298.111 124.88 298.321 123.77 298.821 123.5C300.351 122.64 300.471 121.38 300.471 119.91C300.471 108.11 300.451 96.3201 300.471 84.5301C300.471 82.8501 300.181 81.4401 298.681 80.3501C297.541 79.5201 297.681 78.0201 298.921 77.3301C300.601 76.3801 302.361 75.5001 304.141 74.7601C306.141 73.9301 307.281 74.8001 307.291 77.0401C307.291 84.4301 307.291 91.8101 307.291 99.2101L307.301 99.2001Z" fill="#000A8D"/>
<path d="M322.011 99.1105C322.011 106.091 322.051 113.091 321.971 120.071C321.951 121.541 322.311 122.641 323.421 123.621C323.941 124.081 324.091 124.961 324.401 125.651C323.691 125.881 322.971 126.281 322.261 126.311C319.681 126.391 317.091 126.381 314.501 126.311C313.911 126.291 312.861 125.931 312.831 125.661C312.781 124.951 312.951 123.821 313.441 123.561C315.041 122.671 315.161 121.341 315.151 119.791C315.131 107.851 315.121 95.9005 315.151 83.9705C315.151 82.4605 314.841 81.2705 313.551 80.2905C312.171 79.2505 312.361 77.9805 313.941 77.1605C315.781 76.2205 317.671 75.3605 319.581 74.5505C320.861 74.0105 321.921 74.8605 321.981 76.5205C322.041 78.6205 322.001 80.7305 322.001 82.8305V99.1205L322.011 99.1105Z" fill="#000A8D"/>
<path d="M269.709 39.6403C269.709 46.6903 269.749 53.7403 269.669 60.7903C269.649 62.5003 270.199 63.7503 271.469 64.8403C271.959 65.2603 272.169 65.9903 272.509 66.5903C271.859 66.9603 271.219 67.6103 270.549 67.6403C267.899 67.7603 265.249 67.7503 262.589 67.6403C261.979 67.6103 260.939 67.0603 260.919 66.6903C260.869 65.9903 261.369 65.2203 261.699 64.5103C262.199 63.4103 263.169 62.3203 263.179 61.2103C263.289 49.1503 263.299 37.0703 263.179 25.0103C263.179 23.8303 262.319 22.5203 261.559 21.5003C260.399 19.9203 260.439 19.0803 262.159 18.2003C263.659 17.4403 265.149 16.6903 266.689 16.0203C268.879 15.0303 269.699 15.5503 269.699 17.8903V39.6503L269.709 39.6403Z" fill="#000A8D"/>
<path d="M284.828 48.3898C284.828 52.5998 284.858 56.7998 284.808 61.0098C284.788 62.6198 285.198 63.8398 286.718 64.6998C287.208 64.9898 287.738 66.0798 287.558 66.4698C287.288 67.0298 286.388 67.5998 285.738 67.6298C283.088 67.7498 280.428 67.7398 277.778 67.6298C277.168 67.5998 276.098 67.0898 276.058 66.7198C275.988 66.0098 276.468 65.2198 276.788 64.4998C277.288 63.3998 278.278 62.3398 278.308 61.2498C278.458 55.2798 278.478 49.2998 278.308 43.3398C278.268 42.0098 277.518 40.5698 276.718 39.4498C275.578 37.8698 275.558 36.9998 277.258 36.1398C278.758 35.3798 280.238 34.6098 281.788 33.9498C283.488 33.2198 285.008 33.1698 284.888 35.7698C284.688 39.9698 284.838 44.1798 284.838 48.3898H284.828Z" fill="#000A8D"/>
<path d="M415.961 126.35C416.631 125 417.111 124.07 417.541 123.11C418.031 122 418.841 120.86 418.871 119.72C419.001 113.96 419.031 108.2 418.871 102.45C418.831 101.12 418.111 99.6604 417.301 98.5604C416.061 96.8904 416.081 95.9204 417.911 95.0104C419.471 94.2304 421.011 93.4204 422.581 92.6704C424.431 91.7904 425.381 92.3804 425.391 94.4804C425.411 102.94 425.421 111.42 425.391 119.88C425.391 121.46 425.631 122.71 427.161 123.6C427.711 123.92 427.881 124.9 428.231 125.58C427.541 125.84 426.871 126.31 426.171 126.33C422.991 126.41 419.811 126.37 416.001 126.37H415.981L415.961 126.35Z" fill="#000A8D"/>
<path d="M426.588 82.7701C426.588 85.8201 425.138 87.2301 421.998 87.2401C418.898 87.2401 416.938 85.5701 416.888 82.8901C416.828 79.9301 418.728 77.9801 421.698 77.9601C424.698 77.9401 426.598 79.8001 426.598 82.7501L426.588 82.7701Z" fill="#000A8D"/>
<path d="M281.299 28.19C278.149 28.19 276.349 26.57 276.359 23.75C276.359 21.1 278.589 18.97 281.379 18.94C284.009 18.9 286.489 21.19 286.399 23.88C286.319 26.34 284.579 28.64 281.299 28.19Z" fill="#000A8D"/>
<path d="M295.048 110.23C295.338 119.82 287.968 127.52 278.088 127.21C268.168 126.9 260.038 119.74 260.398 108.55C260.688 99.2399 267.478 92.2299 277.418 92.2599C287.548 92.2999 295.268 100.2 295.058 110.21L295.048 110.23ZM282.998 98.1099C279.328 94.2999 272.818 94.2899 269.318 99.4699C265.048 105.8 267.608 118.05 273.888 122.44C279.998 127.14 286.588 122.44 287.678 118.26C289.778 110.2 286.738 101.98 282.998 98.1099Z" fill="#000A8D"/>
</g>
</g>
<defs>
<clipPath id="clip0_845_1311">
<rect width="568.4" height="133.3" fill="white"/>
</clipPath>
</defs>
</svg>
