<svg width="569" height="134" viewBox="0 0 569 134" fill="none" xmlns="http://www.w3.org/2000/svg">
<path fill-rule="evenodd" clip-rule="evenodd" d="M255.606 105.249L310.894 29H321.122L265.866 105.249H255.606ZM111.875 42.9209C126.378 42.9209 135.181 53.3616 135.181 67.0611C135.181 80.7606 126.378 91.2962 111.875 91.2962C97.3722 91.2962 88.5057 80.8555 88.5057 67.0611C88.5057 53.2667 97.2455 42.9209 111.875 42.9209ZM111.875 83.0386C121.216 83.0386 125.713 76.7425 125.713 67.0928C125.713 57.443 121.153 51.2102 111.875 51.2102C102.597 51.2102 97.9738 57.5063 97.9738 67.0928C97.9738 76.6792 102.534 83.0386 111.875 83.0386ZM18.0811 43.7752H0V90.442H19.6644C31.7291 90.442 40.3422 88.1956 40.3422 77.9448C40.3422 70.6046 35.7823 66.5549 28.4042 65.8272C32.2991 65.0363 36.8906 62.1888 36.8906 55.1018C36.8906 46.0215 30.4624 43.7752 18.0811 43.7752ZM27.9608 56.8735C27.9608 62.1571 24.3193 62.5052 18.8728 62.5052H9.27806V51.1786H18.8728C24.446 51.1786 27.9608 51.3684 27.9608 56.8735ZM31.0641 76.2046C31.0641 82.1527 27.0109 82.6273 20.1394 82.6273H9.27806V69.782H20.1394C26.8842 69.782 31.0641 70.4464 31.0641 76.2046ZM50.7918 85.2849V43.7752H59.9749V82.4374H82.9009V90.442H56.0167C52.7235 90.442 50.7918 88.6702 50.7918 85.2849ZM169.095 42.9209C154.465 42.9209 145.567 53.3616 145.567 67.0611C145.567 80.7606 154.434 91.2962 169.095 91.2962C181.825 91.2962 190.279 84.0826 191.673 72.3764H182.205C181.223 79.0521 176.378 83.0386 169.158 83.0386C160.355 83.0386 155.035 77.2171 155.035 67.0928C155.035 56.9684 160.324 51.2102 169.158 51.2102C176.378 51.2102 181.223 55.1018 182.205 61.8091H191.673C190.279 50.1662 181.793 42.9526 169.095 42.9526V42.9209ZM211.749 43.7752H202.534V90.4103H211.749V69.9719L231.635 90.4103H243.636L220.045 66.3334L243.288 43.7752H231.825L211.749 63.1696V43.7752ZM349.716 42.9209C335.404 42.9209 326.537 52.5707 326.537 67.4724C326.537 81.425 334.232 91.2329 348.26 91.2329C358.076 91.2329 362.319 86.2024 364.029 82.4374V90.442H373.244V69.8453C373.244 66.46 371.312 64.6882 367.956 64.6882H349.4V71.712H363.903C363.903 78.9255 358.995 83.2284 350.445 83.2284C340.122 83.2284 336.005 76.5527 336.005 67.4724C336.005 57.3481 341.103 50.8622 350.191 50.8622C356.81 50.8622 361.528 54.5006 362.446 60.4487H371.914C370.331 49.7865 361.654 42.9209 349.716 42.9209ZM403.39 43.7752H384.327H384.295V90.4103H393.573V73.3255H414.156V90.4103H423.308V74.7809C423.308 71.269 421.598 68.1052 416.499 68.1052H413.903C418.874 66.9978 423.054 63.6125 423.054 56.3357C423.054 46.0215 414.125 43.7752 403.39 43.7752ZM413.871 58.6136C413.871 64.8781 409.755 65.4159 403.39 65.4159V65.4475H393.605V51.8114H403.39C409.628 51.8114 413.871 52.3492 413.871 58.6136ZM468.78 43.7752H433.821V90.442H468.78V82.4374H443.067V70.921H465.455V63.2329H443.067V51.7797H468.78V43.7752ZM513.745 43.7752H478.786V90.442H513.745V82.4374H488.032V70.921H510.42V63.2329H488.032V51.7797H513.745V43.7752ZM541.041 43.7752H523.751V90.442H532.966V46.8441L551.111 90.442H568.4V43.7752H559.185V87.373L541.041 43.7752Z" fill="#000A8D"/>
</svg>
