<svg width="569" height="134" viewBox="0 0 569 134" fill="none" xmlns="http://www.w3.org/2000/svg">
<g clip-path="url(#clip0_848_1261)">
<path fill-rule="evenodd" clip-rule="evenodd" d="M193.791 1.76027L167.961 16.5503C167.171 16.9403 167.171 18.1303 167.961 18.5203L194.181 33.5103C194.771 33.9003 195.761 33.9003 196.351 33.5103L222.181 18.7203C222.971 18.3303 222.971 17.1403 222.181 16.7503L195.961 1.76027C195.371 1.37027 194.581 1.37027 193.791 1.76027ZM124.781 1.96027L98.9509 16.7503C98.1609 17.1403 98.1609 18.3303 98.9509 18.7203L159.681 53.4203C160.271 53.8103 161.261 53.8103 161.851 53.4203L187.681 38.6303C188.471 38.2403 188.471 37.0503 187.681 36.6603L126.951 1.96027C126.361 1.57027 125.571 1.57027 124.781 1.96027ZM163.431 90.6903V60.9203C163.431 60.1303 163.821 59.3403 164.611 58.9503L190.241 44.1603C190.831 43.7703 191.821 44.3603 191.821 45.1503V75.7103C191.821 76.1003 191.621 76.5003 191.231 76.7003L165.011 91.6903C164.421 92.0803 163.431 91.4903 163.431 90.7003V90.6903ZM198.921 39.2303L224.751 24.4403C225.541 24.0503 226.331 24.6403 226.331 25.4303V95.0303C226.331 95.8203 225.941 96.6103 225.151 97.0003L165.011 131.51C164.221 131.9 163.431 131.31 163.431 130.52V100.75C163.431 99.9603 163.821 99.1703 164.611 98.7803L196.951 80.2403C197.541 79.8503 198.131 79.0603 198.131 78.2703V41.0003C197.931 40.4103 198.331 39.6203 198.921 39.2303ZM157.311 91.2903L157.511 60.7303C157.511 59.9403 157.121 59.1503 156.521 58.9603L95.7909 24.2603C95.2009 23.8703 94.2109 24.4603 94.2109 25.2503V95.0503C94.2109 95.8403 94.8009 96.6303 95.3909 97.0203L121.221 111.81C121.811 112.2 122.801 111.61 122.801 110.82V74.9303C122.801 74.1403 123.591 73.5503 124.381 73.9403L156.131 92.0803C156.721 92.2803 157.311 91.8803 157.311 91.2903ZM130.301 83.8003L156.331 98.7903C156.921 99.1803 157.511 99.9703 157.511 100.76V130.73C157.511 131.52 156.521 132.11 155.931 131.72L129.901 116.73C129.311 116.34 128.721 115.55 128.721 114.76V84.7903C128.721 83.8003 129.711 83.4103 130.301 83.8003ZM466.101 53.8303V12.8103H474.181V53.8203H466.101V53.8303ZM462.351 38.4503C462.351 47.9103 456.631 54.8203 446.381 54.8203C436.131 54.8203 430.411 47.9203 430.411 38.4503C430.411 28.9803 436.131 22.0803 446.381 22.0803C456.631 22.0803 462.351 28.9803 462.351 38.4503ZM454.071 38.4503C454.071 31.7503 451.111 27.8003 446.381 27.8003C441.651 27.8003 438.691 31.7403 438.691 38.4503C438.691 45.1603 441.651 49.1003 446.381 49.1003C451.111 49.1003 454.071 44.9603 454.071 38.4503ZM273.651 38.4503C279.571 37.6603 284.501 33.5203 284.501 26.2203C284.501 18.9203 279.771 14.7803 273.651 13.8003C271.481 13.6003 270.101 13.6003 267.731 13.6003H253.731V53.8203H261.811V38.6403H267.731C270.101 38.6403 271.671 38.6403 273.641 38.4403L273.651 38.4503ZM271.281 20.3103C274.041 20.7003 276.011 22.4803 276.011 26.2303C276.011 29.9803 274.041 31.7503 271.281 32.3403C270.491 32.5403 269.111 32.5403 267.731 32.5403H262.011V20.1203H267.731C269.111 20.1203 270.491 20.1203 271.281 20.3203V20.3103ZM306.381 22.4803V28.9903C299.681 28.6003 296.321 31.5503 296.321 39.8303V54.0303H288.241V23.0703H296.321V28.7903L298.691 24.4503C300.271 23.0703 302.241 22.2803 304.011 22.2803C305.191 22.0803 305.781 22.2803 306.381 22.4803ZM323.931 54.8203C334.181 54.8203 339.901 47.9203 339.901 38.4503C339.901 28.9803 334.181 22.0803 323.931 22.0803C313.681 22.0803 307.961 28.9803 307.961 38.4503C307.961 47.9203 313.681 54.8203 323.931 54.8203ZM323.931 27.8103C328.661 27.8103 331.621 31.7503 331.621 38.4603C331.621 45.1703 328.661 49.1103 323.931 49.1103C319.201 49.1103 316.241 45.1703 316.241 38.4603C316.241 31.7503 319.201 27.8103 323.931 27.8103ZM354.491 42.8003V45.5603C354.691 48.5203 355.871 49.3103 360.411 48.9103V54.2303C358.641 54.4303 356.861 54.6203 355.091 54.6203C349.171 54.6203 347.011 52.6503 346.611 48.3103C346.411 46.9303 346.411 45.5503 346.411 43.7703V28.5903H341.871V23.2703H346.411V13.0203H354.491V23.2703H360.801V28.5903H354.491V42.7903V42.8003ZM379.141 54.8303C389.391 54.8303 395.111 47.9303 395.111 38.4603C395.111 28.9903 389.391 22.0903 379.141 22.0903C368.891 22.0903 363.171 28.9903 363.171 38.4603C363.171 47.9303 368.891 54.8303 379.141 54.8303ZM379.141 27.8203C383.871 27.8203 386.831 31.7603 386.831 38.4703C386.831 45.1803 383.871 49.1203 379.141 49.1203C374.411 49.1203 371.451 45.1803 371.451 38.4703C371.451 31.7603 374.411 27.8203 379.141 27.8203ZM427.651 34.1303H419.761C418.971 29.5903 416.601 27.8203 413.451 27.8203C409.311 27.8203 406.551 31.1703 406.551 38.2703C406.551 45.9603 409.511 49.1103 413.451 49.1103C416.601 49.1103 418.971 47.1403 419.761 43.1903H427.841C426.461 50.8803 420.741 54.6303 413.051 54.6303C404.571 54.6303 398.261 49.3103 398.261 38.6603C398.261 28.0103 405.161 22.1003 413.641 22.1003C422.121 22.1003 427.051 27.2303 427.641 34.1303H427.651ZM254.131 107.68H283.121V100.98H262.221V66.6703H254.141V107.68H254.131ZM304.811 103.14L303.231 106.49C301.061 107.87 298.501 108.46 295.541 108.46C290.221 108.46 285.681 105.31 285.681 99.3903C285.681 92.4903 291.601 88.7403 302.641 88.7403H304.611V88.1503C304.611 87.1603 304.611 86.3803 304.411 85.1903C304.211 83.0203 302.831 81.4403 299.681 81.4403C296.531 81.4403 294.751 83.2203 294.551 86.7603H286.661C286.861 79.8603 292.581 75.9103 299.871 75.9103C308.551 75.9103 311.701 79.6603 312.291 84.9803C312.491 86.3603 312.491 88.1303 312.491 89.7103V99.7703C312.491 102.14 312.691 104.11 313.081 107.66H305.191L304.801 103.12L304.811 103.14ZM304.611 96.2403V93.6803C298.301 93.2903 293.961 94.6703 293.961 98.8103C293.961 101.57 295.731 102.75 298.691 102.75C301.841 102.75 304.611 100.58 304.611 96.2403ZM335.961 108.47C343.851 108.47 350.751 102.75 350.751 91.5103C350.751 82.4403 345.621 75.7403 337.141 75.9303C333.991 75.9303 330.831 76.7203 329.061 78.1003L326.691 81.4503V66.6603H318.611V107.67H326.691V103.53L328.661 106.68C330.241 107.86 333.391 108.46 335.951 108.46L335.961 108.47ZM334.581 81.4603C339.511 81.4603 342.471 85.8003 342.471 92.1103C342.471 99.2103 339.121 102.76 334.191 102.56C330.441 102.56 326.501 100.19 326.501 93.1003V91.7203C326.501 84.2303 330.251 81.4703 334.581 81.4703V81.4603ZM379.141 85.6003H371.061C370.471 82.8403 368.891 81.0603 366.331 81.0603C363.961 81.0603 362.581 82.4403 362.581 84.4103C362.581 86.7803 364.551 87.9603 369.681 89.1403C375.991 90.7203 379.741 93.2803 379.741 99.0003C379.741 105.31 374.021 108.27 366.921 108.27C359.431 108.27 354.101 104.92 353.311 98.0203H361.391C361.981 101.37 364.351 102.95 367.111 102.95C369.671 102.95 371.651 101.77 371.651 99.6003C371.651 97.2303 369.681 95.8503 364.351 94.4703C358.631 93.0903 354.691 90.5303 354.691 85.2003C354.691 79.2803 359.621 75.7303 366.911 75.7303C374.201 75.7303 378.351 79.8703 379.131 85.5903L379.141 85.6003Z" fill="#000A8D"/>
</g>
<defs>
<clipPath id="clip0_848_1261">
<rect width="568.4" height="133.3" fill="white"/>
</clipPath>
</defs>
</svg>
