<svg width="569" height="134" viewBox="0 0 569 134" fill="none" xmlns="http://www.w3.org/2000/svg">
<g clip-path="url(#clip0_845_1261)">
<mask id="mask0_845_1261" style="mask-type:luminance" maskUnits="userSpaceOnUse" x="0" y="0" width="569" height="134">
<path d="M568.439 0H0.0390625V133.3H568.439V0Z" fill="white"/>
</mask>
<g mask="url(#mask0_845_1261)">
<path d="M211.539 11.5996V34.3996C211.539 42.1996 212.939 44.9996 218.939 44.9996C224.939 44.9996 226.139 42.0996 226.139 34.2996V11.5996H233.639V33.9996C233.639 45.7996 229.839 50.7996 218.639 50.7996C207.439 50.7996 204.039 46.2996 204.039 34.4996V11.5996H211.539Z" fill="#000A8D"/>
<path d="M240.84 22.5996H246.84L247.24 25.3996C250.54 23.2996 253.44 22.0996 257.04 22.0996C262.84 22.0996 265.34 24.7996 265.34 31.0996V50.0996H258.04V32.5996C258.04 28.9996 256.94 27.9996 254.64 27.9996C252.84 27.9996 250.74 28.7996 248.24 30.4996V50.0996H240.84V22.5996Z" fill="#000A8D"/>
<path d="M272.93 22.5998H280.33V50.0998H272.93V22.5998ZM276.63 17.7998C273.33 17.7998 272.43 16.8998 272.43 13.7998C272.43 10.6998 273.33 9.7998 276.63 9.7998C279.93 9.7998 280.83 10.5998 280.83 13.7998C280.83 16.9998 279.93 17.7998 276.63 17.7998Z" fill="#000A8D"/>
<path d="M288.939 22.6004V14.9004L296.339 13.9004V22.6004H302.339V28.1004H296.339V41.2004C296.339 44.0004 297.139 45.0004 299.139 45.0004C300.339 45.0004 301.339 44.8004 302.339 44.5004L302.939 49.8004C301.239 50.3004 299.239 50.6004 296.939 50.6004C291.039 50.6004 289.039 48.4004 289.039 43.1004V28.1004H285.039V22.6004H288.939Z" fill="#000A8D"/>
<path d="M323.33 33.7998C323.23 28.5998 322.03 27.3998 318.73 27.3998C315.43 27.3998 313.93 28.6998 313.83 33.7998H323.33ZM328.63 49.4998C325.63 50.1998 322.73 50.5998 319.13 50.5998C310.93 50.5998 306.43 48.1998 306.43 36.4998C306.43 24.7998 311.43 21.7998 319.03 21.7998C326.63 21.7998 329.93 24.3998 329.93 34.2998C329.93 35.6998 329.83 37.0998 329.73 38.4998H313.83C314.03 44.0998 315.63 44.9998 320.43 44.9998C323.23 44.9998 325.33 44.5998 328.03 44.0998L328.63 49.4998Z" fill="#000A8D"/>
<path d="M352.14 29.1002C350.64 28.2002 349.34 27.7002 347.74 27.7002C344.94 27.7002 342.24 29.5002 342.24 36.5002C342.24 43.5002 343.84 44.7002 346.54 44.7002C348.14 44.7002 349.84 43.9002 352.14 42.3002V29.1002ZM353.04 47.4002C350.24 49.3002 347.64 50.6002 344.34 50.6002C338.54 50.6002 334.84 47.4002 334.84 36.7002C334.84 26.0002 339.94 22.1002 346.44 22.1002C348.64 22.1002 350.64 22.6002 352.44 23.5002L352.54 23.4002C352.34 21.4002 352.24 19.7002 352.24 17.8002V9.2002H359.64V50.1002H353.64L353.04 47.4002Z" fill="#000A8D"/>
<path d="M382.739 11.5996H392.239L402.739 31.8996C404.539 35.2996 405.839 38.3996 407.439 42.1996H407.539C407.039 38.2996 406.839 34.8996 406.839 31.8996V11.5996H413.339V50.0996H403.739L393.239 29.7996C391.539 26.3996 390.039 23.2996 388.539 19.4996H388.439C388.739 23.2996 389.039 26.7996 389.039 29.7996V50.0996H382.539V11.5996" fill="#000A8D"/>
<path d="M437.23 29.0996C435.63 28.1996 434.43 27.6996 432.83 27.6996C430.03 27.6996 427.33 29.4996 427.33 36.4996C427.33 43.4996 428.83 44.6996 431.63 44.6996C433.23 44.6996 434.93 43.8996 437.23 42.2996V29.0996ZM438.13 47.3996C435.33 49.2996 432.73 50.5996 429.43 50.5996C423.63 50.5996 419.93 47.3996 419.93 36.6996C419.93 25.9996 425.03 22.0996 431.53 22.0996C434.23 22.0996 436.03 22.7996 438.33 23.8996L438.63 22.5996H444.63V50.0996H438.63L438.13 47.3996Z" fill="#000A8D"/>
<path d="M453.33 22.6004V14.9004L460.73 13.9004V22.6004H466.73V28.1004H460.73V41.2004C460.73 44.0004 461.53 45.0004 463.53 45.0004C464.73 45.0004 465.73 44.8004 466.73 44.5004L467.33 49.8004C465.63 50.3004 463.63 50.6004 461.33 50.6004C455.43 50.6004 453.43 48.4004 453.43 43.1004V28.1004H449.43V22.6004H453.33Z" fill="#000A8D"/>
<path d="M472.33 22.5998H479.73V50.0998H472.33V22.5998ZM475.93 17.7998C472.63 17.7998 471.73 16.8998 471.73 13.7998C471.73 10.6998 472.63 9.7998 475.93 9.7998C479.23 9.7998 480.13 10.5998 480.13 13.7998C480.23 16.8998 479.33 17.7998 475.93 17.7998Z" fill="#000A8D"/>
<path d="M498.739 27.4002C495.039 27.4002 493.439 29.0002 493.439 36.3002C493.439 43.6002 494.939 45.3002 498.739 45.3002C502.539 45.3002 504.039 43.7002 504.039 36.4002C504.139 29.0002 502.439 27.4002 498.739 27.4002ZM498.639 50.8002C490.539 50.8002 486.039 47.8002 486.039 36.4002C486.039 25.0002 490.839 21.7002 498.839 21.7002C506.839 21.7002 511.439 24.6002 511.439 36.1002C511.539 47.4002 506.739 50.8002 498.639 50.8002Z" fill="#000A8D"/>
<path d="M517.94 22.5996H523.94L524.34 25.3996C527.64 23.2996 530.54 22.0996 534.14 22.0996C539.94 22.0996 542.44 24.7996 542.44 31.0996V50.0996H535.04V32.5996C535.04 28.9996 533.94 27.9996 531.64 27.9996C529.84 27.9996 527.74 28.7996 525.24 30.4996V50.0996H517.84V22.5996" fill="#000A8D"/>
<path d="M549.03 44.1996C551.83 44.8996 554.13 45.2996 556.33 45.2996C559.63 45.2996 561.23 44.3996 561.23 42.5996C561.23 40.8996 560.13 40.3996 555.53 38.4996C550.43 36.3996 548.43 34.7996 548.43 30.4996C548.43 24.8996 552.23 22.0996 560.03 22.0996C562.43 22.0996 564.83 22.4996 566.73 22.9996L566.03 28.2996C564.03 27.7996 561.93 27.4996 559.83 27.4996C556.93 27.4996 555.33 28.1996 555.33 29.9996C555.33 31.2996 556.33 31.8996 560.73 33.6996C566.13 35.8996 568.23 37.3996 568.23 42.1996C568.23 47.6996 564.83 50.7996 556.13 50.7996C553.33 50.7996 551.03 50.3996 548.53 49.6996L549.03 44.1996Z" fill="#000A8D"/>
<path d="M227.541 120.2C225.141 120.9 222.141 121.4 219.141 121.4C209.341 121.4 204.641 118.2 204.641 101.7C204.641 85.1998 209.941 81.7998 219.441 81.7998C222.441 81.7998 225.341 82.1998 227.541 82.8998L227.141 85.4998C224.941 84.8998 222.141 84.3998 219.541 84.3998C212.141 84.3998 208.041 86.9998 208.041 101.5C208.041 116 211.841 118.7 219.541 118.7C222.041 118.7 224.841 118.1 227.141 117.5L227.541 120.2Z" fill="#000A8D"/>
<path d="M234.93 80H238.23V120.9H234.93V80Z" fill="#000A8D"/>
<path d="M248.739 93.8004H252.039V120.9H248.739V93.8004ZM250.439 87.0004C248.539 87.0004 248.039 86.5004 248.039 84.7004C248.039 82.9004 248.539 82.4004 250.439 82.4004C252.239 82.4004 252.739 82.9004 252.739 84.7004C252.739 86.5004 252.239 87.0004 250.439 87.0004Z" fill="#000A8D"/>
<path d="M261.539 93.7998H264.239L264.439 96.7998C267.939 94.7998 271.339 93.2998 274.539 93.2998C278.439 93.2998 280.339 95.0998 281.339 97.1998C285.439 94.7998 288.739 93.2998 292.039 93.2998C297.239 93.2998 299.739 95.8998 299.739 102.2V120.9H296.439V102.7C296.439 97.7998 294.739 95.9998 291.339 95.9998C288.839 95.9998 285.939 97.2998 281.939 99.6998C282.139 100.6 282.239 101.2 282.239 102.6V121H279.039V102.8C279.039 97.8998 277.239 96.0998 273.939 96.0998C271.439 96.0998 268.539 97.3998 264.839 99.5998V121H261.539V93.7998Z" fill="#000A8D"/>
<path d="M326.639 98.1002C324.239 96.7002 322.239 95.9002 319.739 95.9002C315.539 95.9002 311.339 98.3002 311.339 107.5C311.339 116.7 313.939 118.8 318.339 118.8C320.739 118.8 323.239 117.6 326.639 115.4V98.1002ZM326.939 118C323.839 119.9 320.939 121.4 317.639 121.4C311.639 121.4 308.039 118.4 308.039 107.6C308.039 96.8002 313.539 93.2002 319.539 93.2002C322.339 93.2002 324.539 94.1002 327.039 95.4002L327.239 93.8002H329.939V120.9H327.239L326.939 118Z" fill="#000A8D"/>
<path d="M340.839 93.8V85.5L344.139 85V93.8H350.539V96.3H344.039V114.8C344.039 117.7 344.939 118.6 347.139 118.6C348.339 118.6 349.439 118.4 350.439 118.1L350.739 120.5C349.439 120.9 348.039 121.2 346.439 121.2C342.239 121.2 340.739 119.5 340.739 115.5V96.4H336.539V93.9H340.839" fill="#000A8D"/>
<path d="M373.53 105.4C373.43 97.4 371.43 95.7 366.83 95.7C362.23 95.7 359.53 97.6 359.23 105.4H373.53ZM375.23 120.3C372.53 120.9 369.83 121.4 366.93 121.4C360.13 121.4 355.73 119.3 355.73 107.4C355.73 95.5 360.13 93 366.93 93C373.73 93 376.53 95.6 376.53 105.7C376.53 106.4 376.53 106.9 376.43 107.7H359.03C359.13 117.4 362.03 118.7 367.53 118.7C370.23 118.7 372.33 118.3 374.83 117.7L375.23 120.3Z" fill="#000A8D"/>
<path d="M418.24 120.2C415.84 120.9 412.84 121.4 409.84 121.4C400.04 121.4 395.34 118.2 395.34 101.7C395.34 85.1998 400.64 81.7998 410.14 81.7998C413.14 81.7998 416.04 82.1998 418.24 82.8998L417.84 85.4998C415.64 84.8998 412.84 84.3998 410.24 84.3998C402.84 84.3998 398.74 86.9998 398.74 101.5C398.74 116 402.54 118.7 410.24 118.7C412.74 118.7 415.54 118.1 417.84 117.5L418.24 120.2Z" fill="#000A8D"/>
<path d="M425.641 80H428.941V89.7C428.941 91.8 428.841 94.1 428.741 96.7L428.841 96.8C432.141 94.9 435.741 93.4 439.341 93.4C444.941 93.4 447.541 96 447.541 102.3V121H444.241V102.8C444.241 97.9 442.441 96.1 438.641 96.1C435.841 96.1 432.741 97.4 429.041 99.6V121H425.741V80" fill="#000A8D"/>
<path d="M474.139 98.1002C471.739 96.7002 469.739 95.9002 467.239 95.9002C463.039 95.9002 458.839 98.3002 458.839 107.5C458.839 116.7 461.439 118.8 465.839 118.8C468.239 118.8 470.739 117.6 474.139 115.4V98.1002ZM474.439 118C471.339 119.9 468.439 121.4 465.139 121.4C459.139 121.4 455.539 118.4 455.539 107.6C455.539 96.8002 461.039 93.2002 467.039 93.2002C469.839 93.2002 472.039 94.1002 474.539 95.4002L474.739 93.8002H477.439V120.9H474.739L474.439 118Z" fill="#000A8D"/>
<path d="M486.93 93.7998H489.63L489.83 96.7998C493.33 94.7998 496.93 93.2998 500.43 93.2998C506.03 93.2998 508.63 95.8998 508.63 102.2V120.9H505.33V102.7C505.33 97.7998 503.53 95.9998 499.63 95.9998C496.83 95.9998 493.73 97.2998 490.03 99.4998V120.9H486.73V93.7998" fill="#000A8D"/>
<path d="M535.54 98.1002C533.14 96.7002 531.14 95.9002 528.64 95.9002C524.44 95.9002 520.24 98.3002 520.24 107.5C520.24 116.7 522.84 118.8 527.24 118.8C529.64 118.8 532.14 117.6 535.54 115.4V98.1002ZM538.74 122.3C538.74 130.1 534.94 133.3 526.94 133.3C523.74 133.3 521.44 132.9 518.74 132.4L519.14 129.9C521.64 130.4 524.04 130.7 526.94 130.7C532.94 130.7 535.44 128.5 535.44 122.6V118.3L535.34 118.2C532.44 120 529.54 121.4 526.44 121.4C520.44 121.4 516.84 118.4 516.84 107.6C516.84 96.8002 522.34 93.2002 528.34 93.2002C531.14 93.2002 533.34 94.1002 535.84 95.4002L536.04 93.8002H538.74V122.3Z" fill="#000A8D"/>
<path d="M565.341 105.4C565.241 97.4 563.141 95.7 558.541 95.7C553.941 95.7 551.241 97.6 550.941 105.4H565.341ZM567.041 120.3C564.341 120.9 561.641 121.4 558.741 121.4C551.941 121.4 547.641 119.3 547.641 107.4C547.641 95.5 552.041 93 558.741 93C565.441 93 568.341 95.6 568.341 105.7C568.341 106.4 568.341 106.9 568.241 107.7H550.741C550.841 117.4 553.741 118.7 559.241 118.7C561.941 118.7 564.041 118.3 566.541 117.7L567.041 120.3Z" fill="#000A8D"/>
<path d="M114.239 120.5C105.839 116.8 97.1391 112.2 86.9391 114.4C85.8391 114.4 84.9391 115 83.8391 115.1C82.8391 115 81.8391 114.4 80.7391 114.4C70.6391 112.2 61.9391 116.8 53.5391 120.5C47.2391 123 39.0391 122.6 33.5391 118.8C36.2391 122.2 39.8391 124.3 43.6391 125.8C50.6391 128.6 58.9391 126.7 64.7391 122.6C69.7391 119.8 73.9391 114.3 80.5391 116.4C73.8391 119.5 67.8391 123.8 62.3391 129.4L65.7391 132.3C69.7391 126.9 75.1391 122.5 80.4391 119.1C81.6391 118.5 82.5391 117.8 83.7391 117.6C85.0391 117.8 85.9391 118.5 87.0391 119.1C92.4391 122.5 97.7391 126.9 101.739 132.3L105.139 129.4C99.6391 123.8 93.5391 119.5 86.9391 116.4C93.4391 114.3 97.7391 119.8 102.739 122.6C108.539 126.7 116.839 128.5 123.839 125.8C127.639 124.4 131.239 122.3 133.939 118.8C128.639 122.5 120.439 122.9 114.239 120.5Z" fill="#000A8D"/>
<path d="M20.8309 36.7004C22.1309 33.8004 23.1309 30.7004 23.4309 27.6004C22.9309 28.9004 22.0309 30.1004 21.0309 31.2004C16.3309 35.5004 10.9309 39.9004 9.8309 46.2004C9.6309 47.1004 9.6309 48.0004 9.3309 48.9004C9.1309 49.0004 9.1309 48.8004 9.0309 48.7004L9.6309 41.0004C9.8309 33.5004 6.2309 25.1004 10.5309 18.4004C10.4309 18.4004 10.3309 18.5004 10.2309 18.5004C6.2309 23.6004 3.4309 29.1004 3.6309 35.9004C3.2309 44.2004 8.5309 50.1004 9.1309 58.0004C10.4309 49.7004 17.2309 43.8004 20.8309 36.7004Z" fill="#000A8D"/>
<path d="M25.63 97.5996C24.83 95.5996 23.63 93.6996 23.03 91.4996C20.73 81.7996 21.93 70.4996 17.83 61.5996C18.63 66.6996 16.53 71.1996 16.13 76.0996C15.73 80.0996 16.33 83.9996 18.03 87.2996C18.33 88.2996 19.33 89.1996 19.53 90.1996C18.03 88.8996 17.03 87.0996 15.93 85.4996C11.03 77.5996 0.829978 72.4996 0.129978 62.9996C-0.170022 67.1996 -0.070022 71.7996 1.52998 75.4996C5.42998 86.1996 17.03 91.6996 25.63 97.5996Z" fill="#000A8D"/>
<path d="M11.54 38.1998C12.94 35.3998 15.34 32.7998 17.84 30.5998C23.94 26.2998 30.34 20.1998 30.44 12.5998C28.44 18.0998 22.54 20.3998 18.44 24.1998C16.34 26.1998 14.74 28.5998 13.74 31.0998L13.64 30.9998C14.14 28.7998 15.14 26.7998 15.74 24.5998C17.54 18.7998 17.14 11.7998 22.84 7.7998C19.94 8.4998 17.34 10.2998 15.24 12.8998C10.54 17.8998 11.04 25.4998 11.64 32.1998C11.84 34.2998 11.44 36.1998 11.54 38.1998Z" fill="#000A8D"/>
<path d="M13.1299 78.4002L13.5299 78.7002C13.0299 75.6002 12.8299 72.2002 13.7299 69.2002C15.0299 64.4002 16.6299 59.7002 17.6299 54.8002C18.1299 50.9002 19.1299 46.6002 18.6299 42.9002C18.1299 44.9002 17.5299 46.9002 16.5299 48.6002C12.2299 55.1002 8.02987 62.8002 11.0299 71.1002C10.9299 71.2002 10.8299 71.3002 10.7299 71.2002C9.52987 68.5002 9.32987 65.3002 8.52987 62.4002C6.52987 54.6002 0.529875 48.1002 2.22987 39.2002C1.32987 41.1002 0.929875 43.3002 0.429875 45.5002C-0.570125 51.0002 0.429874 56.8002 1.92987 61.9002C3.82987 68.1002 10.0299 72.7002 13.1299 78.4002Z" fill="#000A8D"/>
<path d="M18.4297 21.5C21.6297 18.5 25.2297 16.2 28.0297 12.7C31.1297 8.4 34.1297 3.7 38.3297 0C32.6297 2.3 26.1297 4.4 22.7297 10.4C20.2297 13.7 20.2297 18 18.4297 21.5Z" fill="#000A8D"/>
<path d="M158.03 40.7996L158.63 48.4996C158.53 48.5996 158.53 48.7996 158.33 48.6996C158.03 47.7996 158.03 46.8996 157.83 45.9996C156.83 39.7996 151.43 35.2996 146.63 30.9996C145.63 29.8996 144.73 28.6996 144.23 27.3996C144.63 30.4996 145.53 33.5996 146.83 36.4996C150.53 43.6996 157.33 49.5996 158.53 57.7996C159.13 49.8996 164.53 43.9996 163.93 35.6996C164.13 28.8996 161.33 23.3996 157.33 18.2996C157.23 18.1996 157.13 18.0996 157.03 18.1996C161.43 24.8996 157.83 33.2996 158.03 40.7996Z" fill="#000A8D"/>
<path d="M159.241 62.4002C158.441 65.3002 158.241 68.4002 157.041 71.2002C156.941 71.3002 156.841 71.2002 156.741 71.1002C159.641 62.8002 155.441 55.1002 151.141 48.7002C150.141 47.0002 149.541 45.0002 148.941 43.0002C148.441 46.7002 149.441 51.0002 149.941 54.9002C150.941 59.8002 152.541 64.5002 153.841 69.3002C154.741 72.3002 154.541 75.7002 154.041 78.8002L154.441 78.5002C157.541 72.7002 163.741 68.2002 165.641 61.9002C167.141 56.9002 168.141 51.0002 167.141 45.5002C166.641 43.4002 166.241 41.2002 165.341 39.2002C167.241 48.2002 161.241 54.6002 159.241 62.4002Z" fill="#000A8D"/>
<path d="M152.04 24.6004C152.64 26.8004 153.64 28.7004 154.14 31.0004L154.04 31.1004C153.14 28.6004 151.44 26.2004 149.34 24.2004C145.34 20.5004 139.34 18.1004 137.34 12.6004C137.44 20.3004 143.84 26.3004 149.94 30.6004C152.44 32.8004 154.94 35.3004 156.24 38.2004C156.44 36.3004 155.94 34.3004 156.14 32.3004C156.84 25.6004 157.24 17.9004 152.54 13.0004C150.54 10.4004 147.94 8.70039 144.94 7.90039C150.64 11.7004 150.24 18.7004 152.04 24.6004Z" fill="#000A8D"/>
<path d="M139.739 12.7996C142.539 16.2996 146.139 18.5996 149.339 21.5996C147.639 17.9996 147.539 13.7996 145.139 10.4996C141.639 4.39961 135.239 2.29961 129.539 0.0996094C133.639 3.69961 136.539 8.39961 139.739 12.7996Z" fill="#000A8D"/>
<path d="M137.741 103.1C136.541 104.2 135.241 105.1 133.841 105.9C133.541 106.1 133.341 106.2 133.041 106.3L132.941 106.2C133.041 106.1 133.141 106 133.341 105.9C135.041 104.3 137.041 102.5 138.241 100.5C142.941 93.9998 141.241 84.7998 144.741 77.7998C141.541 81.5998 138.641 85.5998 136.741 89.8998C134.641 95.1998 133.441 101 130.241 105.8C129.141 107.4 127.841 108.9 126.141 110.3C132.241 108.3 139.241 108.5 145.141 105.8C146.141 105.3 147.141 104.8 148.041 104.2C154.941 99.8998 161.141 92.6998 162.441 84.7998C157.741 95.6998 145.841 96.5998 137.741 103.1Z" fill="#000A8D"/>
<path d="M167.53 63C166.83 72.5 156.63 77.6 151.93 85.4C150.83 87 149.83 88.8 148.33 90.1C148.53 89.1 149.53 88.2 149.83 87.2C151.53 83.9 152.13 80 151.73 76C151.23 71.1 149.23 66.6 150.03 61.5C145.83 70.5 147.13 81.7 144.83 91.4C144.23 93.5 143.03 95.4 142.23 97.5C150.83 91.7 162.43 86.1 166.23 75.4C167.73 71.8 167.93 67.2 167.53 63Z" fill="#000A8D"/>
<path d="M119.94 113.1C118.54 113.3 117.14 113.9 115.64 113.6C116.84 112.8 118.54 112.9 119.84 112.2C123.34 111 125.54 108.6 127.24 105.9C129.44 102.4 130.84 98.2004 133.34 94.9004C128.74 98.0004 124.84 101.9 120.64 105.9C119.74 106.7 118.94 107.6 118.04 108.4C114.34 111.6 109.94 113.1 105.34 114.1C106.44 114.5 107.94 114.4 109.14 114.7C117.44 116.8 126.74 120.1 135.64 117.1C141.14 115.4 146.74 111.2 149.74 105.9C149.94 105.6 150.04 105.3 150.24 105C149.94 105.3 149.74 105.6 149.44 105.9C141.74 113.5 129.74 110.9 119.94 113.1Z" fill="#000A8D"/>
<path d="M58.6391 114.7C59.8391 114.4 61.3391 114.5 62.4391 114.1C57.7391 113.1 53.3391 111.7 49.7391 108.4C48.8391 107.6 47.9391 106.7 47.1391 105.9C43.0391 101.9 39.0391 98.0004 34.4391 94.9004C36.8391 98.2004 38.3391 102.3 40.5391 105.9C42.2391 108.6 44.4391 111 47.9391 112.2C49.2391 112.9 50.9391 112.8 52.1391 113.6C50.6391 113.8 49.3391 113.3 47.8391 113.1C38.0391 110.9 26.0391 113.5 18.3391 105.9C18.0391 105.6 17.7391 105.3 17.5391 105C17.7391 105.3 17.8391 105.6 18.0391 105.9C21.0391 111.2 26.6391 115.4 32.1391 117.1C41.0391 120.1 50.2391 116.7 58.6391 114.7Z" fill="#000A8D"/>
<path d="M22.5305 105.9C28.4305 108.6 35.4305 108.4 41.5305 110.4C39.8305 109.1 38.5305 107.5 37.4305 105.9C34.2305 101.1 33.0305 95.3004 30.9305 90.0004C29.0305 85.7004 26.1305 81.7004 22.9305 77.9004C26.4305 84.9004 24.8305 94.0004 29.4305 100.6C30.6305 102.6 32.5305 104.4 34.3305 106C34.4305 106.1 34.6305 106.2 34.7305 106.3L34.6305 106.4C34.3305 106.3 34.1305 106.1 33.8305 106C32.4305 105.3 31.1305 104.3 29.9305 103.2C21.9305 96.6004 10.0305 95.7004 5.23047 84.9004C6.53047 92.8004 12.7305 100 19.6305 104.3C20.5305 104.9 21.5305 105.4 22.5305 105.9Z" fill="#000A8D"/>
<path d="M83.8297 102.2C103.83 102.2 121.13 90.3998 129.13 73.3998L117.83 68.0998C111.83 80.8998 98.9297 89.6998 83.9297 89.6998C63.2297 89.6998 46.4297 72.8998 46.4297 52.2998C46.4297 31.6998 63.2297 14.7998 83.9297 14.7998C98.9297 14.7998 111.93 23.6998 117.83 36.3998L129.13 31.0998C121.13 14.0998 103.93 2.2998 83.8297 2.2998C56.2297 2.2998 33.9297 24.5998 33.9297 52.1998C33.9297 79.7998 56.3297 102.2 83.8297 102.2Z" fill="#000A8D"/>
<path d="M83.8398 36.1004C89.3398 36.1004 94.2398 38.8004 97.1398 43.0004L106.34 36.6004C101.34 29.5004 93.1398 24.9004 83.8398 24.9004C68.6398 24.9004 56.3398 37.2004 56.3398 52.4004C56.3398 67.6004 68.6398 79.9004 83.8398 79.9004C93.1398 79.9004 101.34 75.3004 106.34 68.2004L97.1398 61.8004C94.2398 66.0004 89.3398 68.7004 83.8398 68.7004C74.8398 68.7004 67.6398 61.4004 67.6398 52.5004C67.6398 43.6004 74.9398 36.1004 83.8398 36.1004Z" fill="#000A8D"/>
</g>
</g>
<defs>
<clipPath id="clip0_845_1261">
<rect width="568.44" height="133.3" fill="white"/>
</clipPath>
</defs>
</svg>
