<svg width="569" height="134" viewBox="0 0 569 134" fill="none" xmlns="http://www.w3.org/2000/svg">
<g clip-path="url(#clip0_1115_1465)">
<g clip-path="url(#clip1_1115_1465)">
<path fill-rule="evenodd" clip-rule="evenodd" d="M219.701 43.6839H208.571V92.4892H220.788V66.4875C220.788 60.1199 225.023 55.8746 231.375 55.8746C235.08 55.8746 236.619 56.4194 236.619 56.4194V43.6839C235.089 43.2633 233.503 43.0796 231.918 43.1391C229.581 43.1458 227.274 43.67 225.162 44.6741C223.05 45.6783 221.185 47.1376 219.701 48.9479V43.6839ZM279.516 43.6839H268.386V110H280.603V88.2297C284.094 91.3358 288.603 93.0457 293.271 93.0339C305.488 93.0339 316.075 82.4211 316.075 68.0864C316.075 53.752 305.488 43.1391 293.271 43.1391C288.202 43.1698 283.316 45.0398 279.516 48.4031V43.6839ZM291.733 54.8416C298.607 54.8416 303.858 60.1056 303.858 68.0864C303.858 76.0744 298.628 81.3103 291.74 81.3103C284.851 81.3103 279.516 76.0887 279.516 68.0864C279.516 60.0844 284.858 54.8416 291.733 54.8416ZM336.161 43.6839H325.031V110H337.248V88.2297C340.742 91.3325 345.25 93.0418 349.917 93.0339C362.134 93.0339 372.721 82.4211 372.721 68.0864C372.721 53.752 362.134 43.1391 349.917 43.1391C344.848 43.1718 339.962 45.0415 336.161 48.4031V43.6839ZM348.379 54.8416C355.26 54.8416 360.511 60.1056 360.511 68.0864C360.511 76.0744 355.253 81.3103 348.379 81.3103C341.504 81.3103 336.161 76.0887 336.161 68.0864C336.161 60.0844 341.497 54.8416 348.379 54.8416ZM393.901 25.6348H381.684V92.4892H393.901V25.6348ZM427.2 43.1391C413.988 43.1391 402.857 54.3039 402.857 68.0864C402.857 81.8761 413.988 93.0339 427.207 93.0128C438.33 93.0128 445.931 85.0531 448.38 78.6852H435.168C435.168 78.6852 432.902 81.3103 427.2 81.3103C420.897 81.3103 417.156 77.617 416.069 72.8977H449.996C450.307 71.3114 450.489 69.7025 450.54 68.0864C450.54 53.2143 439.953 43.1391 427.2 43.1391ZM434.706 57.5259C436.832 59.2619 438.296 61.6797 438.852 64.3719H415.505C416.06 61.6797 417.524 59.2619 419.651 57.5259C421.777 55.7899 424.436 54.842 427.178 54.842C429.921 54.842 432.579 55.7899 434.706 57.5259ZM245.775 25.9839C244.476 27.2855 243.747 29.0509 243.747 30.8918C243.747 32.7326 244.476 34.498 245.775 35.7997C247.073 37.1013 248.834 37.8326 250.67 37.8326C252.507 37.8326 254.268 37.1013 255.566 35.7997C256.865 34.498 257.594 32.7326 257.594 30.8918C257.594 29.0509 256.865 27.2855 255.566 25.9839C254.268 24.6822 252.507 23.9509 250.67 23.9509C248.834 23.9509 247.073 24.6822 245.775 25.9839ZM256.804 43.6839H244.566L244.587 92.5032H256.804V43.6839ZM169.81 74.3683C172.83 74.4672 175.879 74.9202 178.582 76.4907V76.4341C181.013 77.8424 183.03 79.8669 184.433 82.3047C185.835 84.7421 186.573 87.5066 186.572 90.3206C186.571 93.1346 185.831 95.8984 184.427 98.3351C183.023 100.772 181.003 102.795 178.572 104.201C176.141 105.607 173.384 106.348 170.577 106.347C167.77 106.347 165.012 105.606 162.581 104.199C160.151 102.792 158.132 100.768 156.728 98.3312C155.325 95.8941 154.586 93.1299 154.586 90.316C154.586 87.2099 155.68 84.3515 157.092 81.698C157.925 80.2371 158.154 78.5067 157.729 76.8785C157.304 75.2498 156.259 73.8534 154.819 72.9884C150.718 70.6112 147.465 73.2432 146.159 75.3659C144.571 77.913 142.651 80.2973 139.969 81.8539C137.539 83.2593 134.783 83.9985 131.977 83.9978C129.172 83.9967 126.416 83.2557 123.986 81.8489C121.557 80.4424 119.54 78.4193 118.137 75.9837C116.734 73.5477 115.996 70.7846 115.996 67.9721C115.996 65.1595 116.734 62.3968 118.137 59.9608C119.54 57.5249 121.557 55.502 123.986 54.0953C126.416 52.6886 129.172 51.9475 131.977 51.9467C134.783 51.9458 137.539 52.6852 139.969 54.0905C142.63 55.6258 144.571 58.0314 146.159 60.5786C147.005 62.0316 148.386 63.0944 150.005 63.5388C151.624 63.9835 153.352 63.7738 154.819 62.9558C158.877 60.6141 158.277 56.4748 157.098 54.2461C155.687 51.5929 154.586 48.7345 154.586 45.6285C154.588 42.8168 155.329 40.0553 156.732 37.6212C158.136 35.187 160.154 33.166 162.583 31.7609C165.013 30.3559 167.768 29.6163 170.573 29.6164C173.377 29.6165 176.132 30.3564 178.562 31.7616C180.991 33.1669 183.009 35.1882 184.412 37.6224C185.816 40.0567 186.556 42.8183 186.558 45.6299C186.56 48.4415 185.824 51.2042 184.424 53.6406C183.024 56.077 181.009 58.1012 178.582 59.5101C175.879 61.0738 172.83 61.5267 169.81 61.6328C168.137 61.6586 166.54 62.3391 165.362 63.5287C164.183 64.7188 163.515 66.3234 163.5 68.0004C163.5 72.6558 167.276 74.2834 169.81 74.3683Z" fill="#000A8D"/>
</g>
</g>
<defs>
<clipPath id="clip0_1115_1465">
<rect width="568.4" height="133.3" fill="white"/>
</clipPath>
<clipPath id="clip1_1115_1465">
<rect width="360" height="82" fill="white" transform="translate(104 26)"/>
</clipPath>
</defs>
</svg>
