<svg width="234" height="579" viewBox="0 0 234 579" fill="none" xmlns="http://www.w3.org/2000/svg">
<path fill-rule="evenodd" clip-rule="evenodd" d="M124.217 83.4327C128.122 84.3047 131.775 85.8449 135.05 87.9272L193.993 28.9279L204.572 39.5166L145.629 98.5156C147.71 101.794 149.249 105.451 150.12 109.361H233.478V124.335H150.12C149.249 128.244 147.71 131.901 145.629 135.18L204.572 194.179L193.993 204.768L137.321 148.041L226.98 575.553L212.339 578.63L188.333 464.162H45.157L21.1473 578.63L6.50619 575.553L96.1828 148.012L39.4816 204.768L28.9031 194.179L87.8453 135.18C85.7645 131.901 84.2255 128.244 83.3542 124.335H0V109.361H83.3541C84.2254 105.451 85.7645 101.794 87.8453 98.5154L28.9031 39.5166L39.4816 28.9279L98.4242 87.927C101.699 85.8449 105.352 84.3048 109.257 83.4329V0H124.217V83.4327ZM124.217 233.697V158.447L153.812 299.563H79.6816L109.257 158.561V233.697H124.217ZM76.5406 314.537L48.2979 449.187H185.192L156.953 314.537H76.5406ZM116.737 97.5863C106.109 97.5863 97.4941 106.21 97.4941 116.848C97.4941 127.486 106.109 136.109 116.737 136.109C127.365 136.109 135.98 127.486 135.98 116.848C135.98 106.21 127.365 97.5863 116.737 97.5863Z" fill="white"/>
</svg>
