<svg width="350" height="120" viewBox="0 0 350 120" fill="none" xmlns="http://www.w3.org/2000/svg">
<g clip-path="url(#clip0_757_1700)">
<path fill-rule="evenodd" clip-rule="evenodd" d="M91.7 0.3L67.9 13.9C67.2 14.3 67.2 15.4 67.9 15.7L92 29.5C92.5 29.9 93.5 29.9 94 29.5L117.8 15.9C118.5 15.5 118.5 14.4 117.8 14.1L93.7 0.3C93.1 -0.1 92.4 -0.1 91.7 0.3ZM28.1 0.5L4.4 14.1C3.7 14.5 3.7 15.6 4.4 15.9L60.3 47.8C60.8 48.2 61.8 48.2 62.3 47.8L86 34.2C86.7 33.8 86.7 32.7 86 32.4L30.1 0.5C29.6 0.1 28.9 0.1 28.1 0.5ZM63.7 82.1V54.7C63.7 54 64.1 53.2 64.8 52.9L88.4 39.3C88.9 38.9 89.9 39.5 89.9 40.2V68.3C89.9 68.7 89.7 69 89.4 69.2L65.2 83C64.6 83.4 63.7 82.9 63.7 82.1ZM96.4 34.8L120.2 21.2C120.9 20.8 121.7 21.4 121.7 22.1V86.2C121.7 86.9 121.3 87.7 120.6 88L65.2 119.8C64.5 120.2 63.7 119.6 63.7 118.9V91.4C63.7 90.7 64.1 89.9 64.8 89.6L94.6 72.5C95.1 72.1 95.7 71.4 95.7 70.7V36.4C95.5 35.8 95.8 35.1 96.4 34.8ZM58.1 82.7L58.3 54.6C58.3 53.9 57.9 53.1 57.4 53L1.5 21C0.9 20.6 0 21.1 0 21.9V86.2C0 86.9 0.5 87.7 1.1 88L24.9 101.6C25.4 102 26.4 101.4 26.4 100.7V67.7C26.4 67 27.1 66.4 27.9 66.8L57 83.4C57.5 83.6 58.1 83.2 58.1 82.7ZM33.2 75.8L57.2 89.6C57.7 90 58.3 90.7 58.3 91.4V119C58.3 119.7 57.4 120.3 56.8 119.9L32.8 106.1C32.3 105.7 31.7 105 31.7 104.3V76.7C31.8 75.8 32.7 75.4 33.2 75.8ZM342.3 48.2V10.4H349.7V48.2H342.3ZM338.9 34C338.9 42.7 333.6 49.1 324.2 49.1C314.8 49.1 309.5 42.7 309.5 34C309.5 25.3 314.8 18.9 324.2 18.9C333.6 19 338.9 25.3 338.9 34ZM331.2 34C331.2 27.8 328.5 24.2 324.1 24.2C319.7 24.2 317 27.8 317 34C317 40.2 319.7 43.8 324.1 43.8C328.5 43.8 331.2 40 331.2 34ZM165.2 34C170.6 33.3 175.2 29.5 175.2 22.7C175.2 15.9 170.8 12.2 165.2 11.3C163.2 11.1 161.9 11.1 159.8 11.1H146.9V48.1H154.3V34.1H159.7C161.9 34.2 163.4 34.2 165.2 34ZM163 17.3C165.5 17.7 167.4 19.3 167.4 22.7C167.4 26.1 165.6 27.8 163 28.3C162.3 28.5 161 28.5 159.7 28.5H154.4V17.2H159.7C161 17.2 162.3 17.2 163 17.3ZM195.3 19.3V25.3C189.1 24.9 186 27.7 186 35.3V48.4H178.6V19.9H186V25.2L188.2 21.2C189.7 19.9 191.5 19.2 193.1 19.2C194.2 19 194.8 19.1 195.3 19.3ZM211.5 49.1C220.9 49.1 226.2 42.7 226.2 34C226.2 25.3 220.9 18.9 211.5 18.9C202.1 18.9 196.8 25.3 196.8 34C196.8 42.7 202 49.1 211.5 49.1ZM211.5 24.2C215.9 24.2 218.6 27.8 218.6 34C218.6 40 215.9 43.8 211.5 43.8C207.1 43.8 204.4 40.2 204.4 34C204.4 27.8 207.1 24.2 211.5 24.2ZM239.6 38V40.5C239.8 43.2 240.9 43.9 245 43.6V48.5C243.4 48.7 241.7 48.9 240.1 48.9C234.7 48.9 232.7 47.1 232.3 43.1C232.1 41.8 232.1 40.6 232.1 38.9V25H228V20.1H232.2V10.7H239.6V20.1H245.4V25H239.6V38ZM262.3 49.1C271.7 49.1 277 42.7 277 34C277 25.3 271.7 18.9 262.3 18.9C252.9 18.9 247.6 25.3 247.6 34C247.6 42.7 252.8 49.1 262.3 49.1ZM262.3 24.2C266.7 24.2 269.4 27.8 269.4 34C269.4 40 266.7 43.8 262.3 43.8C257.9 43.8 255.2 40.2 255.2 34C255.2 27.8 257.9 24.2 262.3 24.2ZM306.9 30H299.6C298.9 25.8 296.7 24.2 293.8 24.2C290 24.2 287.4 27.3 287.4 33.8C287.4 40.9 290.1 43.8 293.8 43.8C296.7 43.8 298.9 42 299.6 38.4H307C305.7 45.5 300.5 48.9 293.4 48.9C285.6 48.9 279.8 44 279.8 34.2C279.8 24.4 286.2 19 294 19C301.5 19 306.4 23.7 306.9 30ZM147.2 97.7H173.9V91.5H154.7V60H147.3V97.7H147.2ZM193.9 93.6L192.4 96.7C190.4 98 188 98.5 185.3 98.5C180.4 98.5 176.2 95.6 176.2 90.1C176.2 83.7 181.6 80.3 191.8 80.3H193.6V79.8C193.6 78.9 193.6 78.2 193.4 77.1C193.2 75.1 191.9 73.7 189 73.7C186.1 73.7 184.5 75.3 184.3 78.6H177C177.2 72.2 182.4 68.6 189.2 68.6C197.2 68.6 200.1 72 200.6 76.9C200.8 78.2 200.8 79.8 200.8 81.3V90.6C200.8 92.8 201 94.6 201.3 97.9H194L193.9 93.6ZM193.7 87.2V84.8C187.9 84.4 183.9 85.7 183.9 89.5C183.9 92 185.5 93.1 188.3 93.1C191.1 93.2 193.7 91.2 193.7 87.2ZM222.5 98.5C229.8 98.5 236.1 93.2 236.1 82.9C236.1 74.6 231.4 68.4 223.6 68.6C220.7 68.6 217.8 69.3 216.2 70.6L214 73.7V60H206.6V97.8H214V94L215.8 96.9C217.3 97.9 220.2 98.5 222.5 98.5ZM221.3 73.6C225.8 73.6 228.6 77.6 228.6 83.4C228.6 89.9 225.5 93.2 221 93C217.6 93 213.9 90.8 213.9 84.3V83C213.8 76.1 217.3 73.6 221.3 73.6ZM262.3 77.4H254.9C254.4 74.9 252.9 73.2 250.5 73.2C248.3 73.2 247.1 74.5 247.1 76.3C247.1 78.5 248.9 79.6 253.6 80.7C259.4 82.2 262.9 84.5 262.9 89.8C262.9 95.6 257.6 98.3 251.1 98.3C244.2 98.3 239.3 95.2 238.6 88.9H246C246.5 92 248.7 93.4 251.3 93.4C253.7 93.4 255.5 92.3 255.5 90.3C255.5 88.1 253.7 86.9 248.8 85.6C243.5 84.3 239.9 82 239.9 77.1C239.9 71.7 244.4 68.4 251.2 68.4C257.7 68.3 261.6 72.1 262.3 77.4Z" fill="#000A8D"/>
</g>
<defs>
<clipPath id="clip0_757_1700">
<rect width="350" height="120" fill="white"/>
</clipPath>
</defs>
</svg>
