<svg width="350" height="120" viewBox="0 0 350 120" fill="none" xmlns="http://www.w3.org/2000/svg">
<path fill-rule="evenodd" clip-rule="evenodd" d="M342.321 10.4365V48.1896H349.763V10.4365H342.321ZM324.17 49.0969C333.609 49.0969 338.872 42.7443 338.872 34.032C338.872 25.3198 333.609 18.967 324.17 18.967C314.732 18.967 309.468 25.3198 309.468 34.032C309.468 42.7443 314.732 49.0969 324.17 49.0969ZM324.17 24.2307C328.526 24.2307 331.249 27.8608 331.249 34.032C331.249 40.0217 328.526 43.8333 324.17 43.8333C319.814 43.8333 317.092 40.2032 317.092 34.032C317.092 27.8608 319.814 24.2307 324.17 24.2307ZM175.155 22.7791C175.155 29.4948 170.617 33.3064 165.172 34.0324C163.357 34.2139 161.906 34.2139 159.728 34.2139H154.282V48.1898H146.84V11.1627H159.727C161.905 11.1627 163.175 11.1627 165.172 11.3442C170.799 12.2518 175.155 16.0634 175.155 22.7791ZM167.35 22.7791C167.35 19.3305 165.535 17.6969 162.994 17.3339C162.268 17.1524 160.997 17.1524 159.727 17.1524H154.463V28.5872H159.727C160.997 28.5872 162.268 28.5872 162.994 28.4057C165.535 27.8612 167.35 26.2277 167.35 22.7791ZM195.302 25.3201V19.3304C194.757 19.1489 194.213 18.9674 193.124 19.1489C191.49 19.1489 189.675 19.8749 188.223 21.1455L186.045 25.1386V19.8749H178.603V48.3713H186.045V35.3029C186.045 27.6796 189.131 24.9571 195.302 25.3201ZM226.158 34.032C226.158 42.7443 220.894 49.0969 211.456 49.0969C202.018 49.0969 196.754 42.7443 196.754 34.032C196.754 25.3198 202.018 18.967 211.456 18.967C220.894 18.967 226.158 25.3198 226.158 34.032ZM218.535 34.032C218.535 27.8608 215.812 24.2307 211.456 24.2307C207.1 24.2307 204.377 27.8608 204.377 34.032C204.377 40.2032 207.1 43.8333 211.456 43.8333C215.812 43.8333 218.535 40.0217 218.535 34.032ZM239.589 40.5661V38.025V24.9566H245.397V20.056H239.589V10.6177H232.147V20.056H227.972V24.9566H232.147V38.9325C232.147 40.5659 232.147 41.8367 232.329 43.1072C232.692 47.1003 234.688 48.9153 240.133 48.9153C241.767 48.9153 243.4 48.7338 245.034 48.5523V43.6517C240.859 44.0147 239.77 43.2886 239.589 40.5661ZM276.979 34.032C276.979 42.7443 271.716 49.0969 262.277 49.0969C252.839 49.0969 247.575 42.7443 247.575 34.032C247.575 25.3198 252.839 18.967 262.277 18.967C271.716 18.967 276.979 25.3198 276.979 34.032ZM269.356 34.032C269.356 27.8608 266.634 24.2307 262.277 24.2307C257.921 24.2307 255.199 27.8608 255.199 34.032C255.199 40.2032 257.921 43.8333 262.277 43.8333C266.634 43.8333 269.356 40.0217 269.356 34.032ZM299.668 30.0389H306.928C306.383 23.6862 301.483 18.967 294.041 18.967C286.236 18.967 279.883 24.4122 279.883 34.2135C279.883 44.0148 285.692 48.9154 293.496 48.9154C300.575 48.9154 305.839 45.4668 307.109 38.3881H299.668C298.942 42.0182 296.763 43.8333 293.859 43.8333C290.229 43.8333 287.507 40.9292 287.507 33.8505C287.507 27.3163 290.048 24.2307 293.859 24.2307C296.763 24.2307 298.942 25.8643 299.668 30.0389ZM173.884 97.741H147.203V59.9878H154.644V91.57H173.884V97.741ZM192.398 96.652L193.85 93.566L194.213 97.741H201.473C201.11 94.474 200.928 92.658 200.928 90.48V81.224C200.928 79.772 200.928 78.138 200.747 76.868C200.202 71.967 197.298 68.518 189.312 68.518C182.596 68.518 177.333 72.148 177.151 78.501H184.411C184.593 75.234 186.226 73.6 189.13 73.6C192.035 73.6 193.305 75.052 193.487 77.049C193.668 78.138 193.668 78.864 193.668 79.771V80.316H191.853C181.689 80.316 176.244 83.765 176.244 90.117C176.244 95.563 180.418 98.467 185.319 98.467C188.041 98.467 190.401 97.922 192.398 96.652ZM193.668 84.854V87.213C193.668 91.206 191.127 93.203 188.223 93.203C185.5 93.203 183.867 92.114 183.867 89.573C183.867 85.761 187.86 84.491 193.668 84.854ZM236.14 82.857C236.14 93.203 229.788 98.467 222.527 98.467C220.168 98.467 217.264 97.922 215.812 96.833L213.997 93.929V97.741H206.555V59.9878H213.997V73.601L216.175 70.515C217.808 69.245 220.712 68.519 223.616 68.519C231.421 68.337 236.14 74.508 236.14 82.857ZM228.517 83.402C228.517 77.594 225.795 73.601 221.257 73.601C217.264 73.601 213.815 76.142 213.815 83.039V84.31C213.815 90.844 217.445 93.022 220.894 93.022C225.432 93.203 228.517 89.936 228.517 83.402ZM254.836 77.413H262.277C261.551 72.149 257.74 68.337 251.024 68.337C244.308 68.337 239.771 71.604 239.771 77.05C239.771 81.95 243.401 84.31 248.664 85.58C253.565 86.851 255.38 88.121 255.38 90.299C255.38 92.296 253.565 93.385 251.205 93.385C248.664 93.385 246.486 91.933 245.942 88.847H238.5C239.226 95.2 244.127 98.286 251.024 98.286C257.558 98.286 262.822 95.563 262.822 89.755C262.822 84.491 259.373 82.132 253.565 80.68C248.846 79.591 247.031 78.502 247.031 76.324C247.031 74.508 248.301 73.238 250.479 73.238C252.839 73.238 254.291 74.871 254.836 77.413Z" fill="#000A8D"/>
<path fill-rule="evenodd" clip-rule="evenodd" d="M67.8829 13.8852L91.66 0.272325C92.386 -0.090775 93.112 -0.090775 93.657 0.272325L117.797 14.0667C118.523 14.4297 118.523 15.5187 117.797 15.8817L94.02 29.4946C93.475 29.8576 92.568 29.8576 92.023 29.4946L67.8829 15.7002C67.1569 15.3372 67.1569 14.2482 67.8829 13.8852ZM4.356 14.0663L28.1332 0.453424C28.8592 0.0904239 29.5853 0.0904239 30.1298 0.453424L86.033 32.3983C86.759 32.7613 86.759 33.8503 86.033 34.2134L62.2562 47.8263C61.7117 48.1893 60.8042 48.1893 60.2597 47.8263L4.356 15.8814C3.63 15.5184 3.63 14.4293 4.356 14.0663ZM63.7087 54.7238V82.131C63.7087 82.857 64.6163 83.402 65.1608 83.039L89.301 69.244C89.664 69.063 89.845 68.7 89.845 68.337V40.2034C89.845 39.4773 88.938 38.9328 88.393 39.2958L64.7978 52.9087C64.0717 53.2718 63.7087 53.9978 63.7087 54.7238ZM120.157 21.1453L96.38 34.7582C95.835 35.1212 95.472 35.8473 95.654 36.3918V70.696C95.654 71.422 95.109 72.148 94.565 72.511L64.7978 89.573C64.0717 89.936 63.7087 90.662 63.7087 91.388V118.795C63.7087 119.521 64.4348 120.066 65.1608 119.703L120.52 87.939C121.246 87.576 121.609 86.85 121.609 86.124V22.0529C121.609 21.3268 120.883 20.7823 120.157 21.1453ZM58.2632 54.5429L58.0817 82.676C58.0817 83.221 57.5372 83.584 56.9927 83.402L27.7703 66.704C27.0443 66.341 26.3183 66.885 26.3183 67.611V100.645C26.3183 101.371 25.4108 101.916 24.8662 101.553L1.089 87.94C0.544501 87.577 0 86.851 0 86.125V21.8719C0 21.1459 0.9075 20.6014 1.452 20.9644L57.3557 52.9094C57.9002 53.0909 58.2632 53.8169 58.2632 54.5429ZM57.1742 89.573L33.2155 75.779C32.671 75.416 31.7634 75.779 31.7634 76.686V104.275C31.7634 105.001 32.308 105.727 32.8525 106.09L56.8112 119.884C57.3557 120.247 58.2632 119.703 58.2632 118.977V91.388C58.2632 90.662 57.7187 89.936 57.1742 89.573Z" fill="#000A8D"/>
</svg>
