<svg width="698" height="126" viewBox="0 0 698 126" fill="none" xmlns="http://www.w3.org/2000/svg">
<path d="M35.6651 75.91C35.6651 81.5026 30.9526 84.5628 24.7406 84.5628C18.9571 84.5628 11.8884 81.8192 7.49717 76.2266L0 85.0904C3.64148 92.5823 14.8872 96.6976 24.5264 96.6976C38.5569 96.6976 49.5884 88.256 49.5884 75.8045C49.5884 51.2182 15.6369 56.0721 15.6369 40.7716C15.6369 35.9176 19.5997 32.6465 26.133 32.6465C32.1307 32.6465 35.7722 34.6514 39.4137 38.1336L46.4824 28.4257C41.9841 23.5717 34.2728 20.5116 25.062 20.5116C10.496 20.5116 1.71364 29.7974 1.71364 40.8771C1.71364 64.9359 35.6651 61.3482 35.6651 75.91Z" fill="black"/>
<path d="M59.4134 95.4314C63.8046 95.748 73.4438 95.959 80.2983 95.959C96.1495 95.959 108.145 88.9946 108.145 73.7996C108.145 63.9862 102.361 58.3936 94.9713 56.5997V56.3887C101.397 53.4341 105.682 48.0525 105.682 39.6109C105.682 29.3753 98.9341 21.3558 81.048 21.3558C73.5509 21.3558 63.5904 21.6723 59.4134 21.8834V95.4314ZM81.9049 63.7751C90.1517 63.7751 94.9713 66.9408 94.9713 73.1665C94.9713 80.1309 90.1517 83.8241 81.2622 83.8241C77.5137 83.8241 74.4077 83.5075 72.587 83.2965V63.7751H81.9049ZM80.8338 33.4907C87.9026 33.4907 92.6151 36.6563 92.6151 42.671C92.6151 49.4243 87.5813 52.4844 81.4764 52.4844H72.587V33.8072C74.9432 33.5962 77.835 33.4907 80.8338 33.4907Z" fill="black"/>
<path d="M150.256 75.91C150.256 81.5026 145.544 84.5628 139.332 84.5628C133.548 84.5628 126.48 81.8192 122.088 76.2266L114.591 85.0904C118.233 92.5823 129.478 96.6976 139.118 96.6976C153.148 96.6976 164.18 88.256 164.18 75.8045C164.18 51.2182 130.228 56.0721 130.228 40.7716C130.228 35.9176 134.191 32.6465 140.724 32.6465C146.722 32.6465 150.363 34.6514 154.005 38.1336L161.074 28.4257C156.575 23.5717 148.864 20.5116 139.653 20.5116C125.087 20.5116 116.305 29.7974 116.305 40.8771C116.305 64.9359 150.256 61.3482 150.256 75.91Z" fill="black"/>
<path d="M298.862 95.4314C303.254 95.748 312.893 95.959 319.747 95.959C335.599 95.959 347.594 88.9946 347.594 73.7996C347.594 63.9862 341.81 58.3936 334.42 56.5997V56.3887C340.847 53.4341 345.131 48.0525 345.131 39.6109C345.131 29.3753 338.383 21.3558 320.497 21.3558C313 21.3558 303.039 21.6723 298.862 21.8834V95.4314ZM321.354 63.7751C329.601 63.7751 334.42 66.9408 334.42 73.1665C334.42 80.1309 329.601 83.8241 320.711 83.8241C316.963 83.8241 313.857 83.5075 312.036 83.2965V63.7751H321.354ZM320.283 33.4907C327.352 33.4907 332.064 36.6563 332.064 42.671C332.064 49.4243 327.03 52.4844 320.926 52.4844H312.036V33.8072C314.392 33.5962 317.284 33.4907 320.283 33.4907Z" fill="black"/>
<path d="M354.04 58.6046C354.04 81.6082 370.748 96.6976 393.025 96.6976C415.303 96.6976 432.118 80.764 432.118 58.6046C432.118 35.6011 415.303 20.5116 393.025 20.5116C369.998 20.5116 354.04 37.1839 354.04 58.6046ZM367.964 58.6046C367.964 43.3041 378.674 32.6465 393.025 32.6465C407.163 32.6465 418.195 43.3041 418.195 58.6046C418.195 73.1665 408.77 84.5628 393.025 84.5628C378.995 84.5628 367.964 73.3775 367.964 58.6046Z" fill="black"/>
<path d="M472.103 75.91C472.103 81.5026 467.391 84.5628 461.179 84.5628C455.395 84.5628 448.326 81.8192 443.935 76.2266L436.438 85.0904C440.079 92.5823 451.325 96.6976 460.964 96.6976C474.995 96.6976 486.026 88.256 486.026 75.8045C486.026 51.2182 452.075 56.0721 452.075 40.7716C452.075 35.9176 456.038 32.6465 462.571 32.6465C468.569 32.6465 472.21 34.6514 475.852 38.1336L482.92 28.4257C478.422 23.5717 470.711 20.5116 461.5 20.5116C446.934 20.5116 438.152 29.7974 438.152 40.8771C438.152 64.9359 472.103 61.3482 472.103 75.91Z" fill="black"/>
<path d="M486.533 33.8072H510.846V95.5369H524.019V33.8072H548.331V21.6723H486.533V33.8072Z" fill="black"/>
<path d="M545.381 58.6046C545.381 81.6082 562.089 96.6976 584.366 96.6976C606.644 96.6976 623.459 80.764 623.459 58.6046C623.459 35.6011 606.644 20.5116 584.366 20.5116C561.339 20.5116 545.381 37.1839 545.381 58.6046ZM559.304 58.6046C559.304 43.3041 570.015 32.6465 584.366 32.6465C598.504 32.6465 609.535 43.3041 609.535 58.6046C609.535 73.1665 600.11 84.5628 584.366 84.5628C570.336 84.5628 559.304 73.3775 559.304 58.6046Z" fill="black"/>
<path d="M697.395 95.5369V21.6723H685.079V73.061L643.844 21.6723H633.348V95.5369H645.665V44.3593L686.899 95.5369H697.395Z" fill="black"/>
<path fill-rule="evenodd" clip-rule="evenodd" d="M232.038 0.918955L271.968 23.8411C273.024 24.4487 273.9 25.3213 274.51 26.3716C275.12 27.4219 275.442 28.6131 275.443 29.8259V75.6702C275.441 76.8821 275.119 78.0721 274.51 79.1213C273.9 80.1705 273.023 81.042 271.968 81.6485L241.755 98.9966V89.5761L267.26 74.9792V30.5756L228.576 8.37713L189.891 30.543V74.9466L215.377 89.5761V98.9966L185.151 81.6485C184.096 81.042 183.219 80.1705 182.609 79.1213C182 78.0721 181.678 76.8821 181.676 75.6702V29.8259C181.677 28.6131 181.999 27.4219 182.609 26.3716C183.219 25.3213 184.095 24.4487 185.151 23.8411L225.094 0.918955C226.151 0.316803 227.348 0 228.566 0C229.784 0 230.981 0.316803 232.038 0.918955ZM253.379 33.7898V43.2104L232.666 55.1017V69.7638L253.379 57.879V67.293L232.666 79.1843V126H224.464V79.1843L203.751 67.293V57.8724L224.464 69.7638V55.1017L203.751 43.2104V33.7898L224.464 45.6812V22.3092H232.666V45.6812L253.379 33.7898Z" fill="#12DA00"/>
</svg>
