<svg width="60" height="65" viewBox="0 0 60 65" fill="none" xmlns="http://www.w3.org/2000/svg">
<path fill-rule="evenodd" clip-rule="evenodd" d="M43.6691 5.60243L46.3806 10.3142C46.4207 10.3831 46.4416 10.4616 46.4413 10.5414C46.441 10.6212 46.4193 10.6995 46.3787 10.7681C46.338 10.8367 46.2798 10.8932 46.2101 10.9317C46.1403 10.9701 46.0616 10.9892 45.982 10.9869H40.5562C40.4779 10.9863 40.4011 10.9652 40.3335 10.9257C40.2658 10.8862 40.2096 10.8297 40.1705 10.7617C40.1313 10.6937 40.1106 10.6167 40.1103 10.5382C40.11 10.4596 40.1302 10.3824 40.1688 10.3142L40.6601 9.46976L31.1165 3.93896L18.4657 11.2571L16.7113 8.2088L29.6288 0.724627C30.0813 0.464657 30.5936 0.327881 31.1151 0.327881C31.6365 0.327881 32.1489 0.464657 32.6014 0.724627L42.4256 6.41305L42.8916 5.60243C42.931 5.53405 42.9877 5.47728 43.0559 5.43781C43.1242 5.39834 43.2015 5.37757 43.2803 5.37757C43.3591 5.37757 43.4365 5.39834 43.5047 5.43781C43.573 5.47728 43.6296 5.53405 43.6691 5.60243ZM5.4304 48.2219V33.0396H6.41002C6.48855 33.0396 6.56568 33.0189 6.63374 32.9796C6.70179 32.9403 6.75838 32.8838 6.79786 32.8157C6.83734 32.7476 6.85833 32.6704 6.85874 32.5916C6.85914 32.5129 6.83895 32.4354 6.80018 32.3669L4.08588 27.6552C4.04625 27.5875 3.98966 27.5313 3.92171 27.4923C3.85377 27.4533 3.77682 27.4328 3.69852 27.4328C3.62022 27.4328 3.54328 27.4533 3.47533 27.4923C3.40738 27.5313 3.35079 27.5875 3.31117 27.6552L0.599672 32.3669C0.560113 32.4351 0.539206 32.5125 0.539063 32.5913C0.538922 32.6701 0.559552 32.7476 0.598866 32.8159C0.638179 32.8842 0.694781 32.9408 0.762943 32.9801C0.831105 33.0194 0.908408 33.0399 0.987028 33.0396H1.91893V48.5343C1.91977 49.0575 2.0573 49.5714 2.31782 50.0248C2.57834 50.4781 2.95277 50.8551 3.4038 51.1182L16.0911 58.4616L17.8483 55.4105L5.4304 48.2219ZM56.2303 33.8672V48.4724L46.6867 54.0032L46.1955 53.1588C46.1565 53.0904 46.1001 53.0335 46.0321 52.994C45.964 52.9544 45.8868 52.9336 45.8082 52.9336C45.7295 52.9336 45.6523 52.9544 45.5843 52.994C45.5163 53.0335 45.4599 53.0904 45.4208 53.1588L42.7093 57.8706C42.6698 57.9387 42.6488 58.0161 42.6487 58.0949C42.6486 58.1738 42.6692 58.2512 42.7085 58.3195C42.7478 58.3878 42.8044 58.4444 42.8726 58.4837C42.9408 58.523 43.0181 58.5436 43.0967 58.5433H48.5225C48.6008 58.5427 48.6775 58.5216 48.7452 58.4821C48.8129 58.4426 48.8691 58.3861 48.9082 58.3181C48.9474 58.2501 48.9681 58.1731 48.9684 58.0946C48.9687 58.016 48.9485 57.9388 48.9098 57.8706L48.4439 57.0599L58.2681 51.3715C58.7189 51.1089 59.0933 50.7324 59.3538 50.2795C59.6143 49.8267 59.7519 49.3133 59.753 48.7905V33.8728L56.2303 33.8672ZM49.4935 20.8945L32.3993 10.9981C31.9469 10.7382 31.4345 10.6014 30.913 10.6014C30.3916 10.6014 29.8792 10.7382 29.4268 10.9981L12.327 20.8945C11.875 21.1568 11.4997 21.5335 11.2386 21.987C10.9776 22.4404 10.8398 22.9547 10.8393 23.4783V43.271C10.8401 43.7942 10.9779 44.308 11.239 44.7609C11.5001 45.2139 11.8752 45.5902 12.327 45.852L25.2669 53.3418V49.2746L14.3564 42.9585V23.7879L30.9173 14.2181L47.4781 23.802V42.9726L36.5592 49.2746V53.3418L49.4935 45.852C49.9452 45.5902 50.3204 45.2139 50.5815 44.7609C50.8426 44.308 50.9804 43.7942 50.9812 43.271V23.4783C50.9806 22.9547 50.8429 22.4404 50.5818 21.987C50.3207 21.5335 49.9455 21.1568 49.4935 20.8945ZM41.5359 25.1895V29.2567L32.6688 34.3906V40.7208L41.5359 35.5897V39.6541L32.6688 44.788V65H29.1573V44.788L20.2903 39.6541V35.5869L29.1573 40.7208V34.3906L20.2903 29.2567V25.1895L29.1573 30.3235V20.2329H32.6688V30.3235L41.5359 25.1895Z" fill="black"/>
</svg>
