<?xml version="1.0" encoding="UTF-8"?>
<svg xmlns="http://www.w3.org/2000/svg" xmlns:xlink="http://www.w3.org/1999/xlink" width="210.85pt" height="49.44pt" viewBox="0 0 210.85 49.44" version="1.1">
<defs>
<clipPath id="clip1">
  <path d="M 203 8 L 210.851563 8 L 210.851563 19 L 203 19 Z M 203 8 "/>
</clipPath>
<clipPath id="clip2">
  <path d="M 191 34 L 200 34 L 200 49.441406 L 191 49.441406 Z M 191 34 "/>
</clipPath>
<clipPath id="clip3">
  <path d="M 203 34 L 210.851563 34 L 210.851563 46 L 203 46 Z M 203 34 "/>
</clipPath>
<clipPath id="clip4">
  <path d="M 12 42 L 50 42 L 50 49.441406 L 12 49.441406 Z M 12 42 "/>
</clipPath>
</defs>
<g id="surface1">
<path style=" stroke:none;fill-rule:nonzero;fill:rgb(100%,100%,100%);fill-opacity:1;" d="M 78.464844 4.285156 L 78.464844 12.753906 C 78.464844 15.65625 79 16.703125 81.199219 16.703125 C 83.359375 16.703125 83.875 15.632813 83.875 12.734375 L 83.875 4.285156 L 86.648438 4.285156 L 86.648438 12.609375 C 86.648438 16.988281 85.25 18.859375 81.097656 18.859375 C 77.007813 18.859375 75.691406 17.171875 75.691406 12.796875 L 75.691406 4.285156 L 78.464844 4.285156 "/>
<path style=" stroke:none;fill-rule:nonzero;fill:rgb(100%,100%,100%);fill-opacity:1;" d="M 89.339844 8.375 L 91.578125 8.375 L 91.742188 9.40625 C 92.957031 8.644531 94.046875 8.191406 95.363281 8.191406 C 97.5 8.191406 98.445313 9.199219 98.445313 11.542969 L 98.445313 18.574219 L 95.710938 18.574219 L 95.710938 12.097656 C 95.710938 10.761719 95.300781 10.390625 94.4375 10.390625 C 93.757813 10.390625 93 10.699219 92.074219 11.3125 L 92.074219 18.574219 L 89.339844 18.574219 L 89.339844 8.375 "/>
<path style=" stroke:none;fill-rule:nonzero;fill:rgb(100%,100%,100%);fill-opacity:1;" d="M 101.238281 8.375 L 103.972656 8.375 L 103.972656 18.574219 L 101.238281 18.574219 Z M 102.597656 6.585938 C 101.382813 6.585938 101.03125 6.257813 101.03125 5.109375 C 101.03125 3.933594 101.382813 3.625 102.597656 3.625 C 103.828125 3.625 104.15625 3.933594 104.15625 5.109375 C 104.15625 6.257813 103.828125 6.585938 102.597656 6.585938 "/>
<path style=" stroke:none;fill-rule:nonzero;fill:rgb(100%,100%,100%);fill-opacity:1;" d="M 107.179688 8.375 L 107.179688 5.519531 L 109.910156 5.148438 L 109.910156 8.375 L 112.132813 8.375 L 112.132813 10.410156 L 109.910156 10.410156 L 109.910156 15.285156 C 109.910156 16.332031 110.222656 16.683594 110.941406 16.683594 C 111.371094 16.683594 111.742188 16.621094 112.132813 16.496094 L 112.355469 18.449219 C 111.722656 18.632813 110.980469 18.757813 110.117188 18.757813 C 107.917969 18.757813 107.179688 17.9375 107.179688 15.984375 L 107.179688 10.410156 L 105.699219 10.410156 L 105.699219 8.375 L 107.179688 8.375 "/>
<path style=" stroke:none;fill-rule:nonzero;fill:rgb(100%,100%,100%);fill-opacity:1;" d="M 119.941406 12.53125 C 119.921875 10.617188 119.449219 10.144531 118.234375 10.144531 C 117.0625 10.144531 116.464844 10.636719 116.402344 12.53125 Z M 121.894531 18.367188 C 120.765625 18.613281 119.695313 18.78125 118.359375 18.78125 C 115.335938 18.78125 113.648438 17.894531 113.648438 13.535156 C 113.648438 9.320313 115.5 8.089844 118.316406 8.089844 C 121.136719 8.089844 122.371094 9.054688 122.371094 12.714844 C 122.371094 13.226563 122.324219 13.742188 122.308594 14.273438 L 116.402344 14.273438 C 116.464844 16.355469 117.0625 16.703125 118.851563 16.703125 C 119.878906 16.703125 120.664063 16.558594 121.6875 16.355469 L 121.894531 18.367188 "/>
<path style=" stroke:none;fill-rule:nonzero;fill:rgb(100%,100%,100%);fill-opacity:1;" d="M 130.609375 10.800781 C 130.035156 10.472656 129.5625 10.289063 128.964844 10.289063 C 127.917969 10.289063 126.929688 10.964844 126.929688 13.535156 C 126.929688 16.0625 127.507813 16.558594 128.53125 16.558594 C 129.128906 16.558594 129.746094 16.25 130.609375 15.65625 Z M 130.941406 17.5625 C 129.890625 18.265625 128.945313 18.757813 127.710938 18.757813 C 125.570313 18.757813 124.191406 17.5625 124.191406 13.617188 C 124.191406 9.648438 126.085938 8.191406 128.492188 8.191406 C 129.316406 8.191406 130.035156 8.375 130.710938 8.726563 L 130.734375 8.703125 C 130.648438 7.964844 130.609375 7.328125 130.609375 6.609375 L 130.609375 3.398438 L 133.34375 3.398438 L 133.34375 18.574219 L 131.101563 18.574219 L 130.941406 17.5625 "/>
<path style=" stroke:none;fill-rule:nonzero;fill:rgb(100%,100%,100%);fill-opacity:1;" d="M 141.972656 4.285156 L 145.507813 4.285156 L 149.414063 11.808594 C 150.074219 13.085938 150.566406 14.214844 151.164063 15.632813 L 151.207031 15.632813 C 151.039063 14.195313 150.957031 12.917969 150.957031 11.808594 L 150.957031 4.285156 L 153.363281 4.285156 L 153.363281 18.574219 L 149.808594 18.574219 L 145.921875 11.050781 C 145.285156 9.773438 144.75 8.644531 144.191406 7.226563 L 144.152344 7.226563 C 144.277344 8.644531 144.378906 9.9375 144.378906 11.050781 L 144.378906 18.574219 L 141.972656 18.574219 L 141.972656 4.285156 "/>
<path style=" stroke:none;fill-rule:nonzero;fill:rgb(100%,100%,100%);fill-opacity:1;" d="M 162.199219 10.800781 C 161.621094 10.472656 161.152344 10.289063 160.554688 10.289063 C 159.507813 10.289063 158.519531 10.964844 158.519531 13.535156 C 158.519531 16.0625 159.09375 16.558594 160.121094 16.558594 C 160.71875 16.558594 161.335938 16.25 162.199219 15.65625 Z M 162.527344 17.5625 C 161.480469 18.265625 160.53125 18.757813 159.300781 18.757813 C 157.160156 18.757813 155.78125 17.5625 155.78125 13.617188 C 155.78125 9.648438 157.675781 8.191406 160.082031 8.191406 C 161.066406 8.191406 161.765625 8.4375 162.589844 8.871094 L 162.691406 8.375 L 164.933594 8.375 L 164.933594 18.574219 L 162.691406 18.574219 L 162.527344 17.5625 "/>
<path style=" stroke:none;fill-rule:nonzero;fill:rgb(100%,100%,100%);fill-opacity:1;" d="M 168.160156 8.375 L 168.160156 5.519531 L 170.890625 5.148438 L 170.890625 8.375 L 173.109375 8.375 L 173.109375 10.410156 L 170.890625 10.410156 L 170.890625 15.285156 C 170.890625 16.332031 171.199219 16.683594 171.921875 16.683594 C 172.351563 16.683594 172.722656 16.621094 173.109375 16.496094 L 173.339844 18.449219 C 172.699219 18.632813 171.960938 18.757813 171.097656 18.757813 C 168.894531 18.757813 168.160156 17.9375 168.160156 15.984375 L 168.160156 10.410156 L 166.675781 10.410156 L 166.675781 8.375 L 168.160156 8.375 "/>
<path style=" stroke:none;fill-rule:nonzero;fill:rgb(100%,100%,100%);fill-opacity:1;" d="M 175.207031 8.375 L 177.9375 8.375 L 177.9375 18.574219 L 175.207031 18.574219 Z M 176.5625 6.585938 C 175.351563 6.585938 175 6.257813 175 5.109375 C 175 3.933594 175.351563 3.625 176.5625 3.625 C 177.796875 3.625 178.125 3.933594 178.125 5.109375 C 178.125 6.257813 177.796875 6.585938 176.5625 6.585938 "/>
<path style=" stroke:none;fill-rule:nonzero;fill:rgb(100%,100%,100%);fill-opacity:1;" d="M 185.015625 10.164063 C 183.632813 10.164063 183.058594 10.761719 183.058594 13.453125 C 183.058594 16.1875 183.632813 16.785156 185.015625 16.785156 C 186.390625 16.785156 186.988281 16.1875 186.988281 13.472656 C 186.988281 10.761719 186.390625 10.164063 185.015625 10.164063 Z M 184.96875 18.859375 C 181.949219 18.859375 180.304688 17.75 180.304688 13.535156 C 180.304688 9.339844 182.070313 8.089844 185.054688 8.089844 C 188.074219 8.089844 189.742188 9.15625 189.742188 13.414063 C 189.742188 17.585938 187.953125 18.859375 184.96875 18.859375 "/>
<path style=" stroke:none;fill-rule:nonzero;fill:rgb(100%,100%,100%);fill-opacity:1;" d="M 192.121094 8.375 L 194.363281 8.375 L 194.523438 9.40625 C 195.742188 8.644531 196.828125 8.191406 198.144531 8.191406 C 200.285156 8.191406 201.226563 9.199219 201.226563 11.542969 L 201.226563 18.574219 L 198.496094 18.574219 L 198.496094 12.097656 C 198.496094 10.761719 198.082031 10.390625 197.21875 10.390625 C 196.542969 10.390625 195.78125 10.699219 194.855469 11.3125 L 194.855469 18.574219 L 192.121094 18.574219 L 192.121094 8.375 "/>
<g clip-path="url(#clip1)" clip-rule="nonzero">
<path style=" stroke:none;fill-rule:nonzero;fill:rgb(100%,100%,100%);fill-opacity:1;" d="M 203.652344 16.394531 C 204.679688 16.640625 205.5625 16.785156 206.367188 16.785156 C 207.597656 16.785156 208.171875 16.433594 208.171875 15.777344 C 208.171875 15.160156 207.761719 14.976563 206.039063 14.273438 C 204.144531 13.492188 203.40625 12.898438 203.40625 11.292969 C 203.40625 9.199219 204.824219 8.167969 207.699219 8.167969 C 208.585938 8.167969 209.488281 8.316406 210.167969 8.5 L 209.902344 10.472656 C 209.160156 10.289063 208.378906 10.164063 207.597656 10.164063 C 206.527344 10.164063 205.933594 10.433594 205.933594 11.089844 C 205.933594 11.582031 206.320313 11.808594 207.929688 12.445313 C 209.941406 13.25 210.722656 13.824219 210.722656 15.589844 C 210.722656 17.628906 209.449219 18.78125 206.242188 18.78125 C 205.214844 18.78125 204.347656 18.632813 203.40625 18.390625 L 203.652344 16.394531 "/>
</g>
<path style=" stroke:none;fill-rule:nonzero;fill:rgb(100%,100%,100%);fill-opacity:1;" d="M 84.40625 44.585938 C 83.503906 44.835938 82.394531 45.042969 81.28125 45.042969 C 77.664063 45.042969 75.917969 43.847656 75.917969 37.722656 C 75.917969 31.65625 77.890625 30.34375 81.40625 30.34375 C 82.515625 30.34375 83.585938 30.503906 84.40625 30.75 L 84.242188 31.71875 C 83.441406 31.492188 82.394531 31.328125 81.425781 31.328125 C 78.671875 31.328125 77.152344 32.292969 77.152344 37.660156 C 77.152344 43.085938 78.546875 44.054688 81.425781 44.054688 C 82.351563 44.054688 83.402344 43.847656 84.242188 43.621094 L 84.40625 44.585938 "/>
<path style=" stroke:none;fill-rule:nonzero;fill:rgb(100%,100%,100%);fill-opacity:1;" d="M 87.140625 29.660156 L 88.351563 29.660156 L 88.351563 44.835938 L 87.140625 44.835938 L 87.140625 29.660156 "/>
<path style=" stroke:none;fill-rule:nonzero;fill:rgb(100%,100%,100%);fill-opacity:1;" d="M 92.277344 34.800781 L 93.488281 34.800781 L 93.488281 44.835938 L 92.277344 44.835938 Z M 92.875 32.253906 C 92.175781 32.253906 91.988281 32.066406 91.988281 31.390625 C 91.988281 30.734375 92.175781 30.546875 92.875 30.546875 C 93.550781 30.546875 93.738281 30.734375 93.738281 31.390625 C 93.738281 32.066406 93.550781 32.253906 92.875 32.253906 "/>
<path style=" stroke:none;fill-rule:nonzero;fill:rgb(100%,100%,100%);fill-opacity:1;" d="M 97.003906 34.800781 L 98.011719 34.800781 L 98.09375 35.910156 C 99.390625 35.152344 100.644531 34.597656 101.855469 34.597656 C 103.316406 34.597656 103.992188 35.253906 104.382813 36.035156 C 105.886719 35.132813 107.140625 34.597656 108.351563 34.597656 C 110.265625 34.597656 111.207031 35.5625 111.207031 37.90625 L 111.207031 44.835938 L 109.996094 44.835938 L 109.996094 38.070313 C 109.996094 36.242188 109.359375 35.582031 108.085938 35.582031 C 107.140625 35.582031 106.070313 36.058594 104.609375 36.941406 C 104.671875 37.269531 104.714844 37.496094 104.714844 38.007813 L 104.714844 44.835938 L 103.5 44.835938 L 103.5 38.070313 C 103.5 36.242188 102.84375 35.582031 101.589844 35.582031 C 100.644531 35.582031 99.574219 36.058594 98.21875 36.878906 L 98.21875 44.835938 L 97.003906 44.835938 L 97.003906 34.800781 "/>
<path style=" stroke:none;fill-rule:nonzero;fill:rgb(100%,100%,100%);fill-opacity:1;" d="M 121.152344 36.386719 C 120.25 35.871094 119.507813 35.5625 118.585938 35.5625 C 117.023438 35.5625 115.480469 36.445313 115.480469 39.859375 C 115.480469 43.269531 116.449219 44.035156 118.070313 44.035156 C 118.957031 44.035156 119.898438 43.582031 121.152344 42.78125 Z M 121.261719 43.765625 C 120.105469 44.488281 119.019531 45.042969 117.824219 45.042969 C 115.605469 45.042969 114.269531 43.929688 114.269531 39.921875 C 114.269531 35.890625 116.304688 34.597656 118.523438 34.597656 C 119.554688 34.597656 120.394531 34.925781 121.300781 35.398438 L 121.359375 34.800781 L 122.371094 34.800781 L 122.371094 44.835938 L 121.359375 44.835938 L 121.261719 43.765625 "/>
<path style=" stroke:none;fill-rule:nonzero;fill:rgb(100%,100%,100%);fill-opacity:1;" d="M 126.417969 34.800781 L 126.417969 31.738281 L 127.628906 31.554688 L 127.628906 34.800781 L 129.992188 34.800781 L 129.992188 35.746094 L 127.628906 35.746094 L 127.628906 42.613281 C 127.628906 43.683594 127.980469 44.011719 128.761719 44.011719 C 129.210938 44.011719 129.601563 43.953125 129.992188 43.828125 L 130.117188 44.730469 C 129.648438 44.875 129.132813 45 128.535156 45 C 126.992188 45 126.417969 44.382813 126.417969 42.902344 L 126.417969 35.746094 L 124.851563 35.746094 L 124.851563 34.800781 L 126.417969 34.800781 "/>
<path style=" stroke:none;fill-rule:nonzero;fill:rgb(100%,100%,100%);fill-opacity:1;" d="M 138.5625 39.078125 C 138.523438 36.097656 137.765625 35.484375 136.058594 35.484375 C 134.367188 35.484375 133.34375 36.179688 133.238281 39.078125 Z M 139.203125 44.628906 C 138.214844 44.855469 137.207031 45.023438 136.140625 45.023438 C 133.628906 45.023438 132.003906 44.257813 132.003906 39.839844 C 132.003906 35.605469 133.628906 34.515625 136.140625 34.515625 C 138.644531 34.515625 139.714844 35.484375 139.714844 39.222656 C 139.714844 39.46875 139.714844 39.652344 139.691406 39.960938 L 133.21875 39.960938 C 133.257813 43.5625 134.328125 44.054688 136.386719 44.054688 C 137.375 44.054688 138.175781 43.910156 139.078125 43.683594 L 139.203125 44.628906 "/>
<path style=" stroke:none;fill-rule:nonzero;fill:rgb(100%,100%,100%);fill-opacity:1;" d="M 155.148438 44.585938 C 154.242188 44.835938 153.136719 45.042969 152.027344 45.042969 C 148.40625 45.042969 146.660156 43.847656 146.660156 37.722656 C 146.660156 31.65625 148.632813 30.34375 152.148438 30.34375 C 153.257813 30.34375 154.328125 30.503906 155.148438 30.75 L 154.984375 31.71875 C 154.183594 31.492188 153.136719 31.328125 152.171875 31.328125 C 149.414063 31.328125 147.894531 32.292969 147.894531 37.660156 C 147.894531 43.085938 149.289063 44.054688 152.171875 44.054688 C 153.097656 44.054688 154.144531 43.847656 154.984375 43.621094 L 155.148438 44.585938 "/>
<path style=" stroke:none;fill-rule:nonzero;fill:rgb(100%,100%,100%);fill-opacity:1;" d="M 157.882813 29.660156 L 159.09375 29.660156 L 159.09375 33.261719 C 159.09375 34.042969 159.054688 34.886719 159.011719 35.851563 L 159.03125 35.871094 C 160.265625 35.152344 161.605469 34.597656 162.921875 34.597656 C 164.992188 34.597656 165.964844 35.5625 165.964844 37.90625 L 165.964844 44.835938 L 164.746094 44.835938 L 164.746094 38.070313 C 164.746094 36.242188 164.089844 35.582031 162.652344 35.582031 C 161.605469 35.582031 160.453125 36.058594 159.09375 36.878906 L 159.09375 44.835938 L 157.882813 44.835938 L 157.882813 29.660156 "/>
<path style=" stroke:none;fill-rule:nonzero;fill:rgb(100%,100%,100%);fill-opacity:1;" d="M 175.886719 36.386719 C 174.984375 35.871094 174.242188 35.5625 173.316406 35.5625 C 171.757813 35.5625 170.210938 36.445313 170.210938 39.859375 C 170.210938 43.269531 171.179688 44.035156 172.804688 44.035156 C 173.6875 44.035156 174.632813 43.582031 175.886719 42.78125 Z M 175.992188 43.765625 C 174.839844 44.488281 173.75 45.042969 172.558594 45.042969 C 170.335938 45.042969 169.003906 43.929688 169.003906 39.921875 C 169.003906 35.890625 171.035156 34.597656 173.257813 34.597656 C 174.28125 34.597656 175.125 34.925781 176.03125 35.398438 L 176.09375 34.800781 L 177.101563 34.800781 L 177.101563 44.835938 L 176.09375 44.835938 L 175.992188 43.765625 "/>
<path style=" stroke:none;fill-rule:nonzero;fill:rgb(100%,100%,100%);fill-opacity:1;" d="M 180.632813 34.800781 L 181.640625 34.800781 L 181.726563 35.910156 C 183.019531 35.152344 184.355469 34.597656 185.671875 34.597656 C 187.746094 34.597656 188.714844 35.5625 188.714844 37.90625 L 188.714844 44.835938 L 187.5 44.835938 L 187.5 38.070313 C 187.5 36.242188 186.84375 35.582031 185.402344 35.582031 C 184.355469 35.582031 183.203125 36.058594 181.847656 36.878906 L 181.847656 44.835938 L 180.632813 44.835938 L 180.632813 34.800781 "/>
<g clip-path="url(#clip2)" clip-rule="nonzero">
<path style=" stroke:none;fill-rule:nonzero;fill:rgb(100%,100%,100%);fill-opacity:1;" d="M 198.640625 36.386719 C 197.734375 35.871094 196.996094 35.5625 196.070313 35.5625 C 194.507813 35.5625 192.964844 36.445313 192.964844 39.859375 C 192.964844 43.269531 193.929688 44.035156 195.558594 44.035156 C 196.4375 44.035156 197.386719 43.582031 198.640625 42.78125 Z M 199.851563 45.371094 C 199.851563 48.265625 198.453125 49.441406 195.472656 49.441406 C 194.28125 49.441406 193.414063 49.296875 192.449219 49.089844 L 192.597656 48.144531 C 193.539063 48.332031 194.402344 48.453125 195.492188 48.453125 C 197.714844 48.453125 198.640625 47.652344 198.640625 45.449219 L 198.640625 43.867188 L 198.617188 43.847656 C 197.53125 44.527344 196.480469 45.042969 195.304688 45.042969 C 193.085938 45.042969 191.753906 43.929688 191.753906 39.921875 C 191.753906 35.890625 193.785156 34.597656 196.007813 34.597656 C 197.035156 34.597656 197.875 34.925781 198.78125 35.398438 L 198.847656 34.800781 L 199.851563 34.800781 L 199.851563 45.371094 "/>
</g>
<g clip-path="url(#clip3)" clip-rule="nonzero">
<path style=" stroke:none;fill-rule:nonzero;fill:rgb(100%,100%,100%);fill-opacity:1;" d="M 209.695313 39.078125 C 209.65625 36.097656 208.890625 35.484375 207.1875 35.484375 C 205.503906 35.484375 204.472656 36.179688 204.371094 39.078125 Z M 210.332031 44.628906 C 209.34375 44.855469 208.339844 45.023438 207.269531 45.023438 C 204.761719 45.023438 203.140625 44.257813 203.140625 39.839844 C 203.140625 35.605469 204.761719 34.515625 207.269531 34.515625 C 209.777344 34.515625 210.847656 35.484375 210.847656 39.222656 C 210.847656 39.46875 210.847656 39.652344 210.828125 39.960938 L 204.347656 39.960938 C 204.394531 43.5625 205.460938 44.054688 207.515625 44.054688 C 208.503906 44.054688 209.304688 43.910156 210.207031 43.683594 L 210.332031 44.628906 "/>
</g>
<g clip-path="url(#clip4)" clip-rule="nonzero">
<path style=" stroke:none;fill-rule:nonzero;fill:rgb(100%,100%,100%);fill-opacity:1;" d="M 42.355469 44.6875 C 39.234375 43.332031 36.003906 41.617188 32.246094 42.4375 C 31.847656 42.445313 31.492188 42.671875 31.101563 42.695313 C 30.714844 42.671875 30.363281 42.445313 29.960938 42.4375 C 26.207031 41.617188 22.972656 43.332031 19.855469 44.6875 C 17.535156 45.601563 14.492188 45.457031 12.453125 44.046875 C 13.460938 45.316406 14.808594 46.097656 16.207031 46.628906 C 18.800781 47.660156 21.886719 46.960938 24.035156 45.457031 C 25.875 44.421875 27.460938 42.382813 29.886719 43.152344 C 27.417969 44.300781 25.164063 45.914063 23.121094 47.980469 L 24.398438 49.039063 C 25.886719 47.046875 27.867188 45.414063 29.867188 44.144531 C 30.300781 43.910156 30.628906 43.648438 31.101563 43.585938 C 31.578125 43.648438 31.90625 43.910156 32.34375 44.144531 C 34.34375 45.414063 36.320313 47.046875 37.808594 49.039063 L 39.085938 47.980469 C 37.042969 45.914063 34.789063 44.300781 32.324219 43.152344 C 34.75 42.382813 36.332031 44.421875 38.171875 45.457031 C 40.320313 46.960938 43.40625 47.660156 46.003906 46.628906 C 47.398438 46.097656 48.746094 45.316406 49.757813 44.046875 C 47.71875 45.457031 44.671875 45.601563 42.355469 44.6875 "/>
</g>
<path style=" stroke:none;fill-rule:nonzero;fill:rgb(100%,100%,100%);fill-opacity:1;" d="M 7.734375 13.59375 C 8.214844 12.527344 8.574219 11.367188 8.714844 10.210938 C 8.523438 10.703125 8.195313 11.132813 7.820313 11.546875 C 6.066406 13.144531 4.066406 14.789063 3.683594 17.101563 C 3.617188 17.429688 3.597656 17.773438 3.5 18.09375 C 3.425781 18.125 3.425781 18.039063 3.394531 18.015625 L 3.605469 15.148438 C 3.683594 12.347656 2.34375 9.242188 3.957031 6.777344 C 3.90625 6.769531 3.875 6.8125 3.832031 6.832031 C 2.363281 8.707031 1.320313 10.769531 1.386719 13.285156 C 1.183594 16.386719 3.171875 18.574219 3.394531 21.496094 C 3.851563 18.441406 6.375 16.261719 7.734375 13.59375 "/>
<path style=" stroke:none;fill-rule:nonzero;fill:rgb(100%,100%,100%);fill-opacity:1;" d="M 9.480469 36.1875 C 9.179688 35.433594 8.726563 34.726563 8.5 33.9375 C 7.640625 30.324219 8.109375 26.164063 6.566406 22.828125 C 6.851563 24.726563 6.097656 26.402344 5.925781 28.203125 C 5.777344 29.683594 6 31.144531 6.621094 32.371094 C 6.75 32.757813 7.101563 33.074219 7.183594 33.449219 C 6.628906 32.949219 6.269531 32.285156 5.851563 31.6875 C 4.09375 28.769531 0.3125 26.902344 0.0546875 23.371094 C -0.0703125 24.9375 -0.0078125 26.632813 0.585938 28 C 1.992188 31.964844 6.308594 34.023438 9.480469 36.1875 "/>
<path style=" stroke:none;fill-rule:nonzero;fill:rgb(100%,100%,100%);fill-opacity:1;" d="M 4.269531 14.15625 C 4.777344 13.101563 5.683594 12.164063 6.621094 11.34375 C 8.886719 9.742188 11.257813 7.503906 11.289063 4.65625 C 10.554688 6.703125 8.34375 7.566406 6.84375 8.957031 C 6.078125 9.710938 5.460938 10.585938 5.109375 11.511719 L 5.054688 11.472656 C 5.234375 10.652344 5.609375 9.914063 5.824219 9.113281 C 6.492188 6.949219 6.351563 4.347656 8.460938 2.898438 C 7.375 3.175781 6.40625 3.835938 5.648438 4.785156 C 3.894531 6.628906 4.074219 9.464844 4.320313 11.953125 C 4.375 12.71875 4.214844 13.441406 4.269531 14.15625 "/>
<path style=" stroke:none;fill-rule:nonzero;fill:rgb(100%,100%,100%);fill-opacity:1;" d="M 4.851563 29.097656 L 5.011719 29.226563 C 4.84375 28.0625 4.757813 26.800781 5.085938 25.695313 C 5.585938 23.914063 6.164063 22.175781 6.546875 20.34375 C 6.75 18.902344 7.101563 17.304688 6.925781 15.917969 C 6.734375 16.664063 6.511719 17.390625 6.128906 18.039063 C 4.542969 20.4375 2.96875 23.285156 4.066406 26.355469 C 4.035156 26.390625 4 26.429688 3.957031 26.40625 C 3.523438 25.398438 3.445313 24.234375 3.140625 23.15625 C 2.40625 20.269531 0.171875 17.867188 0.820313 14.542969 C 0.480469 15.265625 0.34375 16.078125 0.164063 16.867188 C -0.222656 18.902344 0.148438 21.070313 0.71875 22.933594 C 1.394531 25.277344 3.695313 26.953125 4.851563 29.097656 "/>
<path style=" stroke:none;fill-rule:nonzero;fill:rgb(100%,100%,100%);fill-opacity:1;" d="M 6.84375 7.984375 C 8.023438 6.875 9.351563 6.023438 10.394531 4.730469 C 11.554688 3.113281 12.640625 1.371094 14.207031 -0.00390625 C 12.078125 0.832031 9.695313 1.621094 8.40625 3.867188 C 7.5 5.085938 7.480469 6.660156 6.84375 7.984375 "/>
<path style=" stroke:none;fill-rule:nonzero;fill:rgb(100%,100%,100%);fill-opacity:1;" d="M 58.601563 15.148438 L 58.8125 18.015625 C 58.78125 18.039063 58.78125 18.125 58.707031 18.09375 C 58.609375 17.773438 58.589844 17.429688 58.527344 17.101563 C 58.144531 14.789063 56.140625 13.144531 54.386719 11.546875 C 54.015625 11.132813 53.6875 10.703125 53.496094 10.210938 C 53.632813 11.367188 53.996094 12.527344 54.472656 13.59375 C 55.835938 16.261719 58.355469 18.441406 58.8125 21.496094 C 59.035156 18.574219 61.027344 16.386719 60.824219 13.285156 C 60.886719 10.769531 59.84375 8.707031 58.375 6.832031 C 58.335938 6.8125 58.304688 6.769531 58.25 6.777344 C 59.863281 9.242188 58.527344 12.347656 58.601563 15.148438 "/>
<path style=" stroke:none;fill-rule:nonzero;fill:rgb(100%,100%,100%);fill-opacity:1;" d="M 59.066406 23.15625 C 58.757813 24.234375 58.683594 25.398438 58.25 26.40625 C 58.210938 26.429688 58.175781 26.390625 58.144531 26.355469 C 59.238281 23.285156 57.664063 20.4375 56.082031 18.039063 C 55.695313 17.390625 55.472656 16.664063 55.28125 15.917969 C 55.109375 17.304688 55.460938 18.902344 55.664063 20.34375 C 56.046875 22.175781 56.621094 23.914063 57.117188 25.695313 C 57.453125 26.800781 57.363281 28.0625 57.195313 29.226563 L 57.355469 29.097656 C 58.515625 26.953125 60.8125 25.277344 61.496094 22.933594 C 62.058594 21.070313 62.429688 18.902344 62.046875 16.867188 C 61.867188 16.078125 61.726563 15.265625 61.390625 14.542969 C 62.035156 17.867188 59.800781 20.269531 59.066406 23.15625 "/>
<path style=" stroke:none;fill-rule:nonzero;fill:rgb(100%,100%,100%);fill-opacity:1;" d="M 56.386719 9.113281 C 56.601563 9.914063 56.972656 10.652344 57.15625 11.472656 L 57.101563 11.511719 C 56.75 10.585938 56.132813 9.710938 55.367188 8.957031 C 53.867188 7.566406 51.652344 6.703125 50.917969 4.65625 C 50.953125 7.503906 53.324219 9.742188 55.589844 11.34375 C 56.527344 12.164063 57.429688 13.101563 57.9375 14.160156 C 57.996094 13.441406 57.835938 12.71875 57.886719 11.953125 C 58.132813 9.464844 58.3125 6.628906 56.558594 4.785156 C 55.804688 3.835938 54.835938 3.175781 53.75 2.898438 C 55.851563 4.351563 55.71875 6.949219 56.386719 9.113281 "/>
<path style=" stroke:none;fill-rule:nonzero;fill:rgb(100%,100%,100%);fill-opacity:1;" d="M 51.8125 4.730469 C 52.855469 6.023438 54.183594 6.875 55.367188 7.984375 C 54.726563 6.660156 54.707031 5.085938 53.800781 3.867188 C 52.515625 1.621094 50.128906 0.832031 48.003906 -0.00390625 C 49.566406 1.371094 50.652344 3.113281 51.8125 4.730469 "/>
<path style=" stroke:none;fill-rule:nonzero;fill:rgb(100%,100%,100%);fill-opacity:1;" d="M 51.101563 38.257813 C 50.648438 38.660156 50.171875 39.015625 49.667969 39.292969 L 49.667969 39.28125 C 49.566406 39.339844 49.46875 39.394531 49.367188 39.441406 L 49.335938 39.410156 C 49.378906 39.367188 49.425781 39.324219 49.472656 39.289063 L 49.472656 39.28125 C 50.121094 38.695313 50.835938 38.035156 51.28125 37.285156 C 53.015625 34.863281 52.410156 31.476563 53.703125 28.875 C 52.527344 30.292969 51.453125 31.761719 50.738281 33.375 C 49.945313 35.335938 49.515625 37.488281 48.324219 39.273438 L 48.324219 39.28125 C 47.921875 39.878906 47.433594 40.441406 46.8125 40.941406 C 49.082031 40.199219 51.6875 40.269531 53.855469 39.28125 C 54.226563 39.113281 54.585938 38.914063 54.929688 38.671875 C 57.492188 37.09375 59.78125 34.417969 60.261719 31.476563 C 58.492188 35.484375 54.070313 35.816406 51.101563 38.257813 "/>
<path style=" stroke:none;fill-rule:nonzero;fill:rgb(100%,100%,100%);fill-opacity:1;" d="M 62.15625 23.371094 C 61.898438 26.902344 58.109375 28.769531 56.355469 31.6875 C 55.941406 32.285156 55.582031 32.949219 55.027344 33.449219 C 55.109375 33.074219 55.460938 32.757813 55.589844 32.371094 C 56.207031 31.144531 56.429688 29.683594 56.28125 28.203125 C 56.109375 26.402344 55.355469 24.726563 55.644531 22.828125 C 54.101563 26.164063 54.566406 30.324219 53.703125 33.9375 C 53.480469 34.726563 53.027344 35.433594 52.726563 36.1875 C 55.898438 34.023438 60.21875 31.964844 61.621094 28 C 62.21875 26.632813 62.28125 24.9375 62.15625 23.371094 "/>
<path style=" stroke:none;fill-rule:nonzero;fill:rgb(100%,100%,100%);fill-opacity:1;" d="M 44.484375 41.945313 C 43.949219 42.019531 43.460938 42.234375 42.894531 42.148438 C 43.34375 41.863281 43.972656 41.894531 44.464844 41.640625 C 45.757813 41.179688 46.570313 40.304688 47.210938 39.289063 L 47.210938 39.28125 C 48.027344 37.976563 48.558594 36.433594 49.460938 35.214844 C 47.765625 36.347656 46.292969 37.800781 44.765625 39.277344 L 44.765625 39.28125 C 44.441406 39.589844 44.117188 39.898438 43.789063 40.207031 C 42.429688 41.40625 40.789063 41.957031 39.066406 42.3125 C 39.484375 42.460938 40.023438 42.417969 40.472656 42.535156 C 43.566406 43.300781 47.015625 44.546875 50.300781 43.429688 C 52.328125 42.796875 54.421875 41.242188 55.539063 39.28125 C 55.601563 39.171875 55.660156 39.0625 55.71875 38.953125 C 55.617188 39.066406 55.515625 39.179688 55.414063 39.28125 C 52.554688 42.101563 48.125 41.136719 44.484375 41.945313 "/>
<path style=" stroke:none;fill-rule:nonzero;fill:rgb(100%,100%,100%);fill-opacity:1;" d="M 21.738281 42.535156 C 22.183594 42.417969 22.726563 42.460938 23.144531 42.3125 C 21.414063 41.957031 19.777344 41.40625 18.417969 40.207031 C 18.089844 39.898438 17.765625 39.589844 17.445313 39.28125 L 17.445313 39.277344 C 15.914063 37.800781 14.441406 36.347656 12.746094 35.214844 C 13.648438 36.433594 14.179688 37.976563 15 39.28125 L 15 39.289063 C 15.636719 40.304688 16.449219 41.179688 17.746094 41.640625 C 18.234375 41.894531 18.863281 41.863281 19.3125 42.148438 C 18.75 42.234375 18.257813 42.019531 17.726563 41.945313 C 14.082031 41.136719 9.648438 42.109375 6.796875 39.28125 C 6.695313 39.179688 6.589844 39.066406 6.492188 38.953125 C 6.550781 39.0625 6.605469 39.171875 6.671875 39.28125 C 7.796875 41.238281 9.878906 42.796875 11.90625 43.429688 C 15.195313 44.546875 18.640625 43.300781 21.738281 42.535156 "/>
<path style=" stroke:none;fill-rule:nonzero;fill:rgb(100%,100%,100%);fill-opacity:1;" d="M 8.351563 39.28125 C 10.523438 40.265625 13.125 40.199219 15.394531 40.941406 C 14.777344 40.441406 14.285156 39.878906 13.882813 39.28125 L 13.882813 39.273438 C 12.691406 37.488281 12.265625 35.335938 11.46875 33.375 C 10.757813 31.761719 9.679688 30.292969 8.5 28.875 C 9.800781 31.476563 9.195313 34.863281 10.925781 37.285156 C 11.375 38.035156 12.089844 38.695313 12.738281 39.28125 L 12.738281 39.289063 C 12.78125 39.324219 12.832031 39.367188 12.875 39.410156 L 12.84375 39.441406 C 12.742188 39.394531 12.640625 39.339844 12.539063 39.28125 L 12.554688 39.292969 C 12.050781 39.019531 11.5625 38.660156 11.105469 38.257813 C 8.140625 35.816406 3.714844 35.484375 1.945313 31.476563 C 2.425781 34.417969 4.714844 37.09375 7.277344 38.671875 C 7.621094 38.914063 7.980469 39.113281 8.351563 39.28125 "/>
<path style=" stroke:none;fill-rule:nonzero;fill:rgb(100%,100%,100%);fill-opacity:1;" d="M 31.101563 37.914063 C 38.535156 37.914063 44.945313 33.535156 47.894531 27.21875 L 43.695313 25.261719 C 41.484375 30 36.679688 33.285156 31.105469 33.285156 C 23.433594 33.285156 17.210938 27.066406 17.210938 19.394531 C 17.210938 11.71875 23.433594 5.5 31.105469 5.5 C 36.679688 5.5 41.484375 8.785156 43.695313 13.523438 L 47.894531 11.566406 C 44.945313 5.25 38.535156 0.871094 31.101563 0.871094 C 20.875 0.871094 12.582031 9.160156 12.582031 19.394531 C 12.582031 29.625 20.875 37.914063 31.101563 37.914063 "/>
<path style=" stroke:none;fill-rule:nonzero;fill:rgb(100%,100%,100%);fill-opacity:1;" d="M 31.101563 13.371094 C 33.144531 13.371094 34.945313 14.386719 36.035156 15.941406 L 39.449219 13.550781 C 37.609375 10.921875 34.554688 9.207031 31.105469 9.207031 C 25.476563 9.207031 20.914063 13.765625 20.914063 19.394531 C 20.914063 25.019531 25.476563 29.578125 31.105469 29.578125 C 34.554688 29.578125 37.609375 27.859375 39.449219 25.234375 L 36.035156 22.84375 C 34.949219 24.398438 33.144531 25.414063 31.101563 25.414063 C 27.777344 25.414063 25.085938 22.71875 25.085938 19.394531 C 25.085938 16.066406 27.777344 13.371094 31.101563 13.371094 "/>
</g>
</svg>
