<svg width="569" height="134" viewBox="0 0 569 134" fill="none" xmlns="http://www.w3.org/2000/svg">
<g clip-path="url(#clip0_753_1603)">
<path d="M211.5 11.6001V34.4001C211.5 42.2001 212.9 45.0001 218.9 45.0001C224.7 45.0001 226.1 42.1001 226.1 34.3001V11.6001H233.6V34.0001C233.6 45.8001 229.8 50.8001 218.6 50.8001C207.6 50.8001 204 46.3001 204 34.5001V11.6001H211.5Z" fill="#000A8D"/>
<path d="M240.801 22.6001H246.801L247.201 25.4001C250.501 23.3001 253.401 22.1001 257.001 22.1001C262.801 22.1001 265.301 24.8001 265.301 31.1001V50.1001H258.001V32.6001C258.001 29.0001 256.901 28.0001 254.601 28.0001C252.801 28.0001 250.701 28.8001 248.201 30.5001V50.1001H240.801V22.6001Z" fill="#000A8D"/>
<path d="M272.898 22.5998H280.298V50.0998H272.898V22.5998ZM276.598 17.7998C273.298 17.7998 272.398 16.8998 272.398 13.7998C272.398 10.5998 273.298 9.7998 276.598 9.7998C279.898 9.7998 280.798 10.5998 280.798 13.7998C280.798 16.8998 279.898 17.7998 276.598 17.7998Z" fill="#000A8D"/>
<path d="M288.9 22.5999V14.8999L296.3 13.8999V22.5999H302.3V28.0999H296.3V41.1999C296.3 43.9999 297.1 44.9999 299.1 44.9999C300.3 44.9999 301.3 44.7999 302.3 44.4999L302.9 49.7999C301.2 50.2999 299.2 50.5999 296.9 50.5999C291 50.5999 289 48.3999 289 43.0999V28.0999H285V22.5999H288.9Z" fill="#000A8D"/>
<path d="M323.298 33.7998C323.198 28.5998 321.998 27.3998 318.698 27.3998C315.498 27.3998 313.898 28.6998 313.798 33.7998H323.298ZM328.598 49.4998C325.598 50.1998 322.698 50.5998 319.098 50.5998C310.898 50.5998 306.398 48.1998 306.398 36.4998C306.398 25.0998 311.398 21.7998 318.998 21.7998C326.598 21.7998 329.898 24.3998 329.898 34.2998C329.898 35.6998 329.798 37.0998 329.698 38.4998H313.798C313.998 44.0998 315.598 44.9998 320.398 44.9998C323.198 44.9998 325.298 44.5998 327.998 44.0998L328.598 49.4998Z" fill="#000A8D"/>
<path d="M352.101 29.1002C350.601 28.2002 349.301 27.7002 347.701 27.7002C344.901 27.7002 342.201 29.5002 342.201 36.5002C342.201 43.3002 343.801 44.7002 346.501 44.7002C348.101 44.7002 349.801 43.9002 352.101 42.3002V29.1002ZM353.001 47.4002C350.201 49.3002 347.601 50.6002 344.301 50.6002C338.501 50.6002 334.801 47.4002 334.801 36.7002C334.801 26.0002 339.901 22.1002 346.401 22.1002C348.601 22.1002 350.601 22.6002 352.401 23.5002L352.501 23.4002C352.301 21.4002 352.201 19.7002 352.201 17.8002V9.2002H359.601V50.1002H353.601L353.001 47.4002Z" fill="#000A8D"/>
<path d="M382.7 11.6001H392.2L402.7 31.9001C404.5 35.3001 405.8 38.4001 407.4 42.2001H407.5C407 38.3001 406.8 34.9001 406.8 31.9001V11.6001H413.3V50.1001H403.7L393.2 29.8001C391.5 26.4001 390 23.3001 388.5 19.5001H388.4C388.7 23.3001 389 26.8001 389 29.8001V50.1001H382.5V11.6001" fill="#000A8D"/>
<path d="M437.198 29.1001C435.598 28.2001 434.398 27.7001 432.798 27.7001C429.998 27.7001 427.298 29.5001 427.298 36.5001C427.298 43.3001 428.798 44.7001 431.598 44.7001C433.198 44.7001 434.898 43.9001 437.198 42.3001V29.1001ZM438.098 47.4001C435.298 49.3001 432.698 50.6001 429.398 50.6001C423.598 50.6001 419.898 47.4001 419.898 36.7001C419.898 26.0001 424.998 22.1001 431.498 22.1001C434.198 22.1001 435.998 22.8001 438.298 23.9001L438.598 22.6001H444.598V50.1001H438.598L438.098 47.4001Z" fill="#000A8D"/>
<path d="M453.298 22.5999V14.8999L460.698 13.8999V22.5999H466.698V28.0999H460.698V41.1999C460.698 43.9999 461.498 44.9999 463.498 44.9999C464.698 44.9999 465.698 44.7999 466.698 44.4999L467.298 49.7999C465.598 50.2999 463.598 50.5999 461.298 50.5999C455.398 50.5999 453.398 48.3999 453.398 43.0999V28.0999H449.398V22.5999H453.298Z" fill="#000A8D"/>
<path d="M472.299 22.5998H479.699V50.0998H472.299V22.5998ZM475.899 17.7998C472.599 17.7998 471.699 16.8998 471.699 13.7998C471.699 10.5998 472.599 9.7998 475.899 9.7998C479.199 9.7998 480.099 10.5998 480.099 13.7998C480.199 16.8998 479.299 17.7998 475.899 17.7998Z" fill="#000A8D"/>
<path d="M498.7 27.4002C495 27.4002 493.4 29.0002 493.4 36.3002C493.4 43.7002 494.9 45.3002 498.7 45.3002C502.4 45.3002 504 43.7002 504 36.4002C504.1 29.0002 502.4 27.4002 498.7 27.4002ZM498.6 50.8002C490.5 50.8002 486 47.8002 486 36.4002C486 25.1002 490.8 21.7002 498.8 21.7002C506.9 21.7002 511.4 24.6002 511.4 36.1002C511.5 47.4002 506.7 50.8002 498.6 50.8002Z" fill="#000A8D"/>
<path d="M517.901 22.6001H523.901L524.301 25.4001C527.601 23.3001 530.501 22.1001 534.101 22.1001C539.901 22.1001 542.401 24.8001 542.401 31.1001V50.1001H535.001V32.6001C535.001 29.0001 533.901 28.0001 531.601 28.0001C529.801 28.0001 527.701 28.8001 525.201 30.5001V50.1001H517.801V22.6001" fill="#000A8D"/>
<path d="M548.998 44.2001C551.798 44.9001 554.098 45.3001 556.298 45.3001C559.598 45.3001 561.198 44.4001 561.198 42.6001C561.198 40.9001 560.098 40.4001 555.498 38.5001C550.398 36.4001 548.398 34.8001 548.398 30.5001C548.398 24.9001 552.198 22.1001 559.998 22.1001C562.398 22.1001 564.798 22.5001 566.698 23.0001L565.998 28.3001C563.998 27.8001 561.898 27.5001 559.798 27.5001C556.898 27.5001 555.298 28.2001 555.298 30.0001C555.298 31.3001 556.298 31.9001 560.698 33.7001C566.098 35.9001 568.198 37.4001 568.198 42.2001C568.198 47.7001 564.798 50.8001 556.098 50.8001C553.298 50.8001 550.998 50.4001 548.498 49.7001L548.998 44.2001Z" fill="#000A8D"/>
<path d="M227.502 120.2C225.102 120.9 222.102 121.4 219.102 121.4C209.302 121.4 204.602 118.2 204.602 101.7C204.602 85.2998 209.902 81.7998 219.402 81.7998C222.402 81.7998 225.302 82.1998 227.502 82.8998L227.102 85.4998C224.902 84.8998 222.102 84.3998 219.502 84.3998C212.102 84.3998 208.002 86.9998 208.002 101.5C208.002 116.1 211.802 118.7 219.502 118.7C222.002 118.7 224.802 118.1 227.102 117.5L227.502 120.2Z" fill="#000A8D"/>
<path d="M234.898 80H238.198V120.9H234.898V80Z" fill="#000A8D"/>
<path d="M248.7 93.7999H252V120.9H248.7V93.7999ZM250.4 86.9999C248.5 86.9999 248 86.4999 248 84.6999C248 82.8999 248.5 82.3999 250.4 82.3999C252.2 82.3999 252.7 82.8999 252.7 84.6999C252.7 86.4999 252.2 86.9999 250.4 86.9999Z" fill="#000A8D"/>
<path d="M261.5 93.7998H264.2L264.4 96.7998C267.9 94.7998 271.3 93.2998 274.5 93.2998C278.4 93.2998 280.3 95.0998 281.3 97.1998C285.4 94.7998 288.7 93.2998 292 93.2998C297.2 93.2998 299.7 95.8998 299.7 102.2V120.9H296.4V102.7C296.4 97.7998 294.7 95.9998 291.3 95.9998C288.8 95.9998 285.9 97.2998 281.9 99.6998C282.1 100.6 282.2 101.2 282.2 102.6V121H279V102.8C279 97.8998 277.2 96.0998 273.9 96.0998C271.4 96.0998 268.5 97.3998 264.8 99.5998V121H261.5V93.7998Z" fill="#000A8D"/>
<path d="M326.6 98.1002C324.2 96.7002 322.2 95.9002 319.7 95.9002C315.5 95.9002 311.3 98.3002 311.3 107.5C311.3 116.7 313.9 118.8 318.3 118.8C320.7 118.8 323.2 117.6 326.6 115.4V98.1002ZM326.9 118C323.8 119.9 320.9 121.4 317.6 121.4C311.6 121.4 308 118.4 308 107.6C308 96.7002 313.5 93.2002 319.5 93.2002C322.3 93.2002 324.5 94.1002 327 95.4002L327.2 93.8002H329.9V120.9H327.2L326.9 118Z" fill="#000A8D"/>
<path d="M340.8 93.8V85.5L344.1 85V93.8H350.5V96.3H344V114.8C344 117.7 344.9 118.6 347.1 118.6C348.3 118.6 349.4 118.4 350.4 118.1L350.7 120.5C349.4 120.9 348 121.2 346.4 121.2C342.2 121.2 340.7 119.5 340.7 115.5V96.4H336.5V93.9H340.8" fill="#000A8D"/>
<path d="M373.499 105.4C373.399 97.4 371.399 95.7 366.799 95.7C362.199 95.7 359.499 97.6 359.199 105.4H373.499ZM375.199 120.3C372.499 120.9 369.799 121.4 366.899 121.4C360.099 121.4 355.699 119.3 355.699 107.4C355.699 96 360.099 93 366.899 93C373.599 93 376.499 95.6 376.499 105.7C376.499 106.4 376.499 106.9 376.399 107.7H358.999C359.099 117.4 361.999 118.7 367.499 118.7C370.199 118.7 372.299 118.3 374.799 117.7L375.199 120.3Z" fill="#000A8D"/>
<path d="M418.201 120.2C415.801 120.9 412.801 121.4 409.801 121.4C400.001 121.4 395.301 118.2 395.301 101.7C395.301 85.2998 400.601 81.7998 410.101 81.7998C413.101 81.7998 416.001 82.1998 418.201 82.8998L417.801 85.4998C415.601 84.8998 412.801 84.3998 410.201 84.3998C402.801 84.3998 398.701 86.9998 398.701 101.5C398.701 116.1 402.501 118.7 410.201 118.7C412.701 118.7 415.501 118.1 417.801 117.5L418.201 120.2Z" fill="#000A8D"/>
<path d="M425.602 80H428.902V89.7C428.902 91.8 428.802 94.1 428.702 96.7L428.802 96.8C432.102 94.9 435.702 93.4 439.302 93.4C444.902 93.4 447.502 96 447.502 102.3V121H444.202V102.8C444.202 97.9 442.402 96.1 438.602 96.1C435.802 96.1 432.702 97.4 429.002 99.6V121H425.702V80" fill="#000A8D"/>
<path d="M474.1 98.1002C471.7 96.7002 469.7 95.9002 467.2 95.9002C463 95.9002 458.8 98.3002 458.8 107.5C458.8 116.7 461.4 118.8 465.8 118.8C468.2 118.8 470.7 117.6 474.1 115.4V98.1002ZM474.4 118C471.3 119.9 468.4 121.4 465.1 121.4C459.1 121.4 455.5 118.4 455.5 107.6C455.5 96.7002 461 93.2002 467 93.2002C469.8 93.2002 472 94.1002 474.5 95.4002L474.7 93.8002H477.4V120.9H474.7L474.4 118Z" fill="#000A8D"/>
<path d="M486.899 93.7998H489.599L489.799 96.7998C493.299 94.7998 496.899 93.2998 500.399 93.2998C505.999 93.2998 508.599 95.8998 508.599 102.2V120.9H505.299V102.7C505.299 97.7998 503.499 95.9998 499.599 95.9998C496.799 95.9998 493.699 97.2998 489.999 99.4998V120.9H486.699V93.7998" fill="#000A8D"/>
<path d="M535.501 98.1002C533.101 96.7002 531.101 95.9002 528.601 95.9002C524.401 95.9002 520.201 98.3002 520.201 107.5C520.201 116.7 522.801 118.8 527.201 118.8C529.601 118.8 532.101 117.6 535.501 115.4V98.1002ZM538.701 122.3C538.701 130.1 534.901 133.3 526.901 133.3C523.701 133.3 521.401 132.9 518.701 132.4L519.101 129.9C521.601 130.4 524.001 130.7 526.901 130.7C532.901 130.7 535.401 128.5 535.401 122.6V118.3L535.301 118.2C532.401 120 529.501 121.4 526.401 121.4C520.401 121.4 516.801 118.4 516.801 107.6C516.801 96.7002 522.301 93.2002 528.301 93.2002C531.101 93.2002 533.301 94.1002 535.801 95.4002L536.001 93.8002H538.701V122.3Z" fill="#000A8D"/>
<path d="M565.302 105.4C565.202 97.4 563.102 95.7 558.502 95.7C554.002 95.7 551.202 97.6 550.902 105.4H565.302ZM567.002 120.3C564.302 120.9 561.602 121.4 558.702 121.4C551.902 121.4 547.602 119.3 547.602 107.4C547.602 96 552.002 93 558.702 93C565.502 93 568.302 95.6 568.302 105.7C568.302 106.4 568.302 106.9 568.202 107.7H550.702C550.802 117.4 553.702 118.7 559.202 118.7C561.902 118.7 564.002 118.3 566.502 117.7L567.002 120.3Z" fill="#000A8D"/>
<path d="M114.2 120.5C105.8 116.8 97.1 112.2 86.9 114.4C85.8 114.4 84.9 115 83.8 115.1C82.8 115 81.8 114.4 80.7 114.4C70.6 112.2 61.9 116.8 53.5 120.5C47.2 123 39 122.6 33.5 118.8C36.2 122.2 39.8 124.3 43.6 125.8C50.6 128.6 58.9 126.7 64.7 122.6C69.7 119.8 73.9 114.3 80.5 116.4C73.8 119.5 67.8 123.8 62.3 129.4L65.7 132.3C69.7 126.9 75.1 122.5 80.4 119.1C81.6 118.5 82.5 117.8 83.7 117.6C85 117.8 85.9 118.5 87 119.1C92.4 122.5 97.7 126.9 101.7 132.3L105.1 129.4C99.6 123.8 93.5 119.5 86.9 116.4C93.4 114.3 97.7 119.8 102.7 122.6C108.5 126.7 116.8 128.5 123.8 125.8C127.6 124.4 131.2 122.3 133.9 118.8C128.6 122.5 120.4 122.9 114.2 120.5Z" fill="#000A8D"/>
<path d="M20.7997 36.6999C22.0997 33.7999 23.0997 30.6999 23.3997 27.5999C22.8997 28.8999 21.9997 30.0999 20.9997 31.1999C16.2997 35.4999 10.8997 39.8999 9.79965 46.1999C9.59965 47.0999 9.59965 47.9999 9.29965 48.8999C9.09965 48.9999 9.09965 48.7999 8.99965 48.6999L9.59965 40.9999C9.79965 33.4999 6.19965 25.0999 10.4997 18.3999C10.3997 18.3999 10.2996 18.4999 10.1996 18.4999C6.19965 23.5999 3.39965 29.0999 3.59965 35.8999C3.19965 44.1999 8.49965 50.0999 9.09965 57.9999C10.3997 49.6999 17.1997 43.7999 20.7997 36.6999Z" fill="#000A8D"/>
<path d="M25.5987 97.6001C24.7987 95.6001 23.5987 93.7001 22.9987 91.5001C20.6987 81.8001 21.8987 70.5001 17.7987 61.6001C18.5987 66.7001 16.4987 71.2001 16.0987 76.1001C15.6987 80.1001 16.2987 84.0001 17.9987 87.3001C18.2987 88.3001 19.2987 89.2001 19.4987 90.2001C17.9987 88.9001 16.9987 87.1001 15.8987 85.5001C10.9987 77.6001 0.798728 72.5001 0.0987281 63.0001C-0.201272 67.2001 -0.101272 71.8001 1.49873 75.5001C5.39873 86.2001 16.9987 91.7001 25.5987 97.6001Z" fill="#000A8D"/>
<path d="M11.5009 38.1998C12.9009 35.3998 15.3009 32.7998 17.8009 30.5998C23.9009 26.2998 30.3009 20.1998 30.4009 12.5998C28.4009 18.0998 22.5009 20.3998 18.4009 24.1998C16.3009 26.1998 14.7009 28.5998 13.7009 31.0998L13.6009 30.9998C14.1009 28.7998 15.1009 26.7998 15.7009 24.5998C17.5009 18.7998 17.1009 11.7998 22.8009 7.7998C19.9009 8.4998 17.3009 10.2998 15.2009 12.8998C10.5009 17.8998 11.0009 25.4998 11.6009 32.1998C11.8009 34.2998 11.4009 36.1998 11.5009 38.1998Z" fill="#000A8D"/>
<path d="M13.0986 78.4002L13.4986 78.7002C12.9986 75.6002 12.7986 72.2002 13.6986 69.2002C14.9986 64.4002 16.5986 59.7002 17.5986 54.8002C18.0986 50.9002 19.0986 46.6002 18.5986 42.9002C18.0986 44.9002 17.4986 46.9002 16.4986 48.6002C12.1986 55.1002 7.99862 62.8002 10.9986 71.1002C10.8986 71.2002 10.7986 71.3002 10.6986 71.2002C9.49862 68.5002 9.29862 65.3002 8.49862 62.4002C6.49862 54.6002 0.498625 48.1002 2.19862 39.2002C1.29862 41.1002 0.898624 43.3002 0.398624 45.5002C-0.601376 51.0002 0.398624 56.8002 1.89862 61.9002C3.79862 68.1002 9.99863 72.7002 13.0986 78.4002Z" fill="#000A8D"/>
<path d="M18.3984 21.5C21.5984 18.5 25.1984 16.2 27.9984 12.7C31.0984 8.4 34.0984 3.7 38.2984 0C32.5984 2.3 26.0984 4.4 22.6984 10.4C20.1984 13.7 20.1984 18 18.3984 21.5Z" fill="#000A8D"/>
<path d="M157.999 40.8001L158.599 48.5001C158.499 48.6001 158.499 48.8001 158.299 48.7001C157.999 47.8001 157.999 46.9001 157.799 46.0001C156.799 39.8001 151.399 35.3001 146.599 31.0001C145.599 29.9001 144.699 28.7001 144.199 27.4001C144.599 30.5001 145.499 33.6001 146.799 36.5001C150.499 43.7001 157.299 49.6001 158.499 57.8001C159.099 49.9001 164.499 44.0001 163.899 35.7001C164.099 28.9001 161.299 23.4001 157.299 18.3001C157.199 18.2001 157.099 18.1001 156.999 18.2001C161.399 24.9001 157.799 33.3001 157.999 40.8001Z" fill="#000A8D"/>
<path d="M159.202 62.4002C158.402 65.3002 158.202 68.4002 157.002 71.2002C156.902 71.3002 156.802 71.2002 156.702 71.1002C159.602 62.8002 155.402 55.1002 151.102 48.7002C150.102 47.0002 149.502 45.0002 148.902 43.0002C148.402 46.7002 149.402 51.0002 149.902 54.9002C150.902 59.8002 152.502 64.5002 153.802 69.3002C154.702 72.3002 154.502 75.7002 154.002 78.8002L154.402 78.5002C157.502 72.7002 163.702 68.2002 165.602 61.9002C167.102 56.9002 168.102 51.0002 167.102 45.5002C166.602 43.4002 166.202 41.2002 165.302 39.2002C167.202 48.2002 161.202 54.6002 159.202 62.4002Z" fill="#000A8D"/>
<path d="M152.001 24.5999C152.601 26.7999 153.601 28.6999 154.101 30.9999L154.001 31.0999C153.101 28.5999 151.401 26.1999 149.301 24.1999C145.301 20.4999 139.301 18.0999 137.301 12.5999C137.401 20.2999 143.801 26.2999 149.901 30.5999C152.401 32.7999 154.901 35.2999 156.201 38.1999C156.401 36.2999 155.901 34.2999 156.101 32.2999C156.801 25.5999 157.201 17.8999 152.501 12.9999C150.501 10.3999 147.901 8.6999 144.901 7.8999C150.601 11.6999 150.201 18.6999 152.001 24.5999Z" fill="#000A8D"/>
<path d="M139.7 12.8001C142.5 16.3001 146.1 18.6001 149.3 21.6001C147.6 18.0001 147.5 13.8001 145.1 10.5001C141.6 4.4001 135.2 2.3001 129.5 0.100098C133.6 3.7001 136.5 8.4001 139.7 12.8001Z" fill="#000A8D"/>
<path d="M137.702 103.1C136.502 104.2 135.202 105.1 133.802 105.9C133.502 106.1 133.302 106.2 133.002 106.3L132.902 106.2C133.002 106.1 133.102 106 133.302 105.9C135.002 104.3 137.002 102.5 138.202 100.5C142.902 93.9998 141.202 84.7998 144.702 77.7998C141.502 81.5998 138.602 85.5998 136.702 89.8998C134.602 95.1998 133.402 101 130.202 105.8C129.102 107.4 127.802 108.9 126.102 110.3C132.202 108.3 139.202 108.5 145.102 105.8C146.102 105.3 147.102 104.8 148.002 104.2C154.902 99.8998 161.102 92.6998 162.402 84.7998C157.702 95.6998 145.802 96.5998 137.702 103.1Z" fill="#000A8D"/>
<path d="M167.499 63C166.799 72.5 156.599 77.6 151.899 85.4C150.799 87 149.799 88.8 148.299 90.1C148.499 89.1 149.499 88.2 149.799 87.2C151.499 83.9 152.099 80 151.699 76C151.199 71.1 149.199 66.6 149.999 61.5C145.799 70.5 147.099 81.7 144.799 91.4C144.199 93.5 142.999 95.4 142.199 97.5C150.799 91.7 162.399 86.1 166.199 75.4C167.699 71.8 167.899 67.2 167.499 63Z" fill="#000A8D"/>
<path d="M119.901 113.1C118.501 113.3 117.101 113.9 115.601 113.6C116.801 112.8 118.501 112.9 119.801 112.2C123.301 111 125.501 108.6 127.201 105.9C129.401 102.4 130.801 98.1999 133.301 94.8999C128.701 97.9999 124.801 101.9 120.601 105.9C119.701 106.7 118.901 107.6 118.001 108.4C114.301 111.6 109.901 113.1 105.301 114.1C106.401 114.5 107.901 114.4 109.101 114.7C117.401 116.8 126.701 120.1 135.601 117.1C141.101 115.4 146.701 111.2 149.701 105.9C149.901 105.6 150.001 105.3 150.201 105C149.901 105.3 149.701 105.6 149.401 105.9C141.701 113.5 129.701 110.9 119.901 113.1Z" fill="#000A8D"/>
<path d="M58.6 114.7C59.8 114.4 61.3 114.5 62.4 114.1C57.7 113.1 53.3 111.7 49.7 108.4C48.8 107.6 47.9 106.7 47.1 105.9C43 101.9 39 97.9999 34.4 94.8999C36.8 98.1999 38.3 102.3 40.5 105.9C42.2 108.6 44.4 111 47.9 112.2C49.2 112.9 50.9 112.8 52.1 113.6C50.6 113.8 49.3 113.3 47.8 113.1C38 110.9 26 113.5 18.3 105.9C18 105.6 17.7 105.3 17.5 105C17.7 105.3 17.8 105.6 18 105.9C21 111.2 26.6 115.4 32.1 117.1C41 120.1 50.2 116.7 58.6 114.7Z" fill="#000A8D"/>
<path d="M22.4992 105.9C28.3992 108.6 35.3992 108.4 41.4992 110.4C39.7992 109.1 38.4992 107.5 37.3992 105.9C34.1992 101.1 32.9992 95.2999 30.8992 89.9999C28.9992 85.6999 26.0992 81.6999 22.8992 77.8999C26.3992 84.8999 24.7992 93.9999 29.3992 100.6C30.5992 102.6 32.4992 104.4 34.2992 106C34.3992 106.1 34.5992 106.2 34.6992 106.3L34.5992 106.4C34.2992 106.3 34.0992 106.1 33.7992 106C32.3992 105.3 31.0992 104.3 29.8992 103.2C21.8992 96.5999 9.99922 95.6999 5.19922 84.8999C6.49922 92.7999 12.6992 99.9999 19.5992 104.3C20.4992 104.9 21.4992 105.4 22.4992 105.9Z" fill="#000A8D"/>
<path d="M83.7984 102.2C103.798 102.2 121.098 90.3998 129.098 73.3998L117.798 68.0998C111.798 80.8998 98.8984 89.6998 83.8984 89.6998C63.1984 89.6998 46.3984 72.8998 46.3984 52.2998C46.3984 31.5998 63.1984 14.7998 83.8984 14.7998C98.8984 14.7998 111.898 23.6998 117.798 36.3998L129.098 31.0998C121.098 14.0998 103.898 2.2998 83.7984 2.2998C56.1984 2.2998 33.8984 24.5998 33.8984 52.1998C33.8984 79.8998 56.2984 102.2 83.7984 102.2Z" fill="#000A8D"/>
<path d="M83.8008 36.0999C89.3008 36.0999 94.2008 38.7999 97.1008 42.9999L106.301 36.5999C101.301 29.4999 93.1008 24.8999 83.8008 24.8999C68.6008 24.8999 56.3008 37.1999 56.3008 52.3999C56.3008 67.5999 68.6008 79.8999 83.8008 79.8999C93.1008 79.8999 101.301 75.2999 106.301 68.1999L97.1008 61.7999C94.2008 65.9999 89.3008 68.6999 83.8008 68.6999C74.8008 68.6999 67.6008 61.3999 67.6008 52.4999C67.6008 43.2999 74.9008 36.0999 83.8008 36.0999Z" fill="#000A8D"/>
</g>
<defs>
<clipPath id="clip0_753_1603">
<rect width="568.4" height="133.3" fill="white"/>
</clipPath>
</defs>
</svg>
